<svg class="main-svg" xmlns="http://www.w3.org/2000/svg" xmlns:xlink="http://www.w3.org/1999/xlink" width="400" height="400" style="" viewBox="0 0 400 400"><rect x="0" y="0" width="400" height="400" style="fill: rgb(255, 255, 255); fill-opacity: 1;"/><defs id="defs-f55f32"><g class="clips"><clipPath id="clipf55f32xyplot" class="plotclip"><rect width="310" height="345"/></clipPath><clipPath class="axesclip" id="clipf55f32x"><rect x="70" y="0" width="310" height="400"/></clipPath><clipPath class="axesclip" id="clipf55f32y"><rect x="0" y="20" width="400" height="345"/></clipPath><clipPath class="axesclip" id="clipf55f32xy"><rect x="70" y="20" width="310" height="345"/></clipPath></g><g class="gradients"/></defs><g class="bglayer"/><g class="layer-below"><g class="imagelayer"/><g class="shapelayer"/></g><g class="cartesianlayer"><g class="subplot xy"><g class="layer-subplot"><g class="shapelayer"/><g class="imagelayer"/></g><g class="gridlayer"><g class="x"/><g class="y"/></g><g class="zerolinelayer"/><path class="xlines-below"/><path class="ylines-below"/><g class="overlines-below"/><g class="xaxislayer-below"/><g class="yaxislayer-below"/><g class="overaxes-below"/><g class="plot" transform="translate(70,20)" clip-path="url('#clipf55f32xyplot')"><g class="violinlayer mlayer"><g class="trace violins" style="opacity: 1;"><path class="violin" d="M82.69,319.8Q82.69,319.15 82.7,318.83C82.71,318.51 82.72,318.18 82.73,317.86C82.74,317.54 82.75,317.22 82.76,316.9C82.77,316.58 82.79,316.25 82.8,315.93C82.81,315.61 82.82,315.28 82.83,314.96C82.84,314.64 82.85,314.32 82.86,314C82.87,313.68 82.88,313.35 82.88,313.03C82.88,312.71 82.87,312.38 82.87,312.06C82.87,311.74 82.86,311.42 82.86,311.1C82.85,310.78 82.85,310.45 82.84,310.13C82.83,309.81 82.83,309.48 82.82,309.16C82.81,308.84 82.8,308.52 82.79,308.2C82.78,307.88 82.78,307.55 82.78,307.23C82.77,306.91 82.76,306.58 82.76,306.26C82.76,305.94 82.76,305.62 82.76,305.3C82.76,304.98 82.75,304.65 82.75,304.33C82.75,304.01 82.75,303.69 82.75,303.37C82.75,303.05 82.74,302.72 82.74,302.4C82.74,302.08 82.74,301.75 82.74,301.43C82.74,301.11 82.74,300.79 82.74,300.47C82.74,300.15 82.74,299.82 82.74,299.5C82.74,299.18 82.74,298.85 82.74,298.53C82.74,298.21 82.74,297.89 82.74,297.57C82.74,297.25 82.74,296.92 82.74,296.6C82.74,296.28 82.74,295.95 82.74,295.63C82.74,295.31 82.73,294.99 82.73,294.67C82.73,294.35 82.73,294.02 82.73,293.7C82.73,293.38 82.73,293.05 82.73,292.73C82.73,292.41 82.73,292.09 82.73,291.77C82.73,291.45 82.74,291.12 82.74,290.8C82.74,290.48 82.74,290.15 82.74,289.83C82.74,289.51 82.74,289.19 82.74,288.87C82.74,288.55 82.74,288.22 82.74,287.9C82.74,287.58 82.74,287.25 82.74,286.93C82.74,286.61 82.74,286.29 82.74,285.97C82.74,285.65 82.74,285.32 82.74,285C82.74,284.68 82.74,284.35 82.74,284.03C82.74,283.71 82.74,283.39 82.74,283.07C82.74,282.75 82.74,282.42 82.74,282.1C82.74,281.78 82.74,281.45 82.74,281.13C82.74,280.81 82.74,280.49 82.74,280.17C82.74,279.85 82.74,279.52 82.74,279.2C82.74,278.88 82.74,278.55 82.74,278.23C82.74,277.91 82.74,277.59 82.74,277.27C82.74,276.95 82.74,276.62 82.74,276.3C82.74,275.98 82.75,275.65 82.75,275.33C82.75,275.01 82.75,274.69 82.75,274.37C82.75,274.05 82.75,273.72 82.75,273.4C82.75,273.08 82.75,272.75 82.75,272.43C82.75,272.11 82.75,271.79 82.75,271.47C82.75,271.15 82.76,270.82 82.76,270.5C82.76,270.18 82.76,269.85 82.76,269.53C82.76,269.21 82.76,268.89 82.76,268.57C82.76,268.25 82.76,267.92 82.76,267.6C82.76,267.28 82.76,266.95 82.76,266.63C82.76,266.31 82.76,265.99 82.76,265.67C82.76,265.35 82.77,265.02 82.77,264.7C82.77,264.38 82.77,264.05 82.77,263.73C82.77,263.41 82.77,263.09 82.77,262.77C82.77,262.45 82.77,262.12 82.77,261.8C82.77,261.48 82.77,261.15 82.77,260.83C82.77,260.51 82.78,260.19 82.78,259.87C82.78,259.55 82.78,259.22 82.78,258.9C82.78,258.58 82.78,258.25 82.78,257.93C82.78,257.61 82.78,257.29 82.78,256.97C82.78,256.65 82.78,256.32 82.78,256C82.78,255.68 82.78,255.35 82.78,255.03C82.78,254.71 82.78,254.39 82.78,254.07C82.78,253.75 82.78,253.42 82.78,253.1C82.78,252.78 82.79,252.46 82.79,252.14C82.79,251.82 82.79,251.49 82.79,251.17C82.79,250.85 82.79,250.52 82.79,250.2C82.79,249.88 82.8,249.56 82.8,249.24C82.8,248.92 82.8,248.59 82.8,248.27C82.8,247.95 82.81,247.62 82.81,247.3C82.81,246.98 82.81,246.66 82.81,246.34C82.81,246.02 82.81,245.69 82.81,245.37C82.81,245.05 82.82,244.72 82.82,244.4C82.82,244.08 82.82,243.76 82.82,243.44C82.82,243.12 82.82,242.79 82.82,242.47C82.82,242.15 82.83,241.82 82.83,241.5C82.83,241.18 82.83,240.86 82.83,240.54C82.83,240.22 82.83,239.89 82.83,239.57C82.83,239.25 82.83,238.92 82.83,238.6C82.83,238.28 82.84,237.96 82.84,237.64C82.84,237.32 82.84,236.99 82.84,236.67C82.84,236.35 82.84,236.02 82.84,235.7C82.84,235.38 82.85,235.06 82.85,234.74C82.85,234.42 82.85,234.09 82.85,233.77C82.85,233.45 82.86,233.12 82.86,232.8C82.86,232.48 82.86,232.16 82.86,231.84C82.86,231.52 82.87,231.19 82.87,230.87C82.87,230.55 82.87,230.22 82.87,229.9C82.87,229.58 82.88,229.26 82.88,228.94C82.88,228.62 82.88,228.29 82.88,227.97C82.88,227.65 82.89,227.32 82.89,227C82.89,226.68 82.89,226.36 82.89,226.04C82.89,225.72 82.89,225.39 82.89,225.07C82.89,224.75 82.9,224.42 82.9,224.1C82.9,223.78 82.9,223.46 82.9,223.14C82.9,222.82 82.91,222.49 82.91,222.17C82.91,221.85 82.91,221.52 82.91,221.2C82.91,220.88 82.92,220.56 82.92,220.24C82.92,219.92 82.92,219.59 82.92,219.27C82.92,218.95 82.93,218.62 82.93,218.3C82.93,217.98 82.94,217.66 82.94,217.34C82.94,217.02 82.94,216.69 82.94,216.37C82.94,216.05 82.95,215.72 82.95,215.4C82.95,215.08 82.96,214.76 82.96,214.44C82.96,214.12 82.96,213.79 82.96,213.47C82.96,213.15 82.97,212.82 82.97,212.5C82.97,212.18 82.97,211.86 82.97,211.54C82.97,211.22 82.98,210.89 82.98,210.57C82.98,210.25 82.98,209.92 82.98,209.6C82.98,209.28 82.99,208.96 82.99,208.64C82.99,208.32 82.99,207.99 82.99,207.67C82.99,207.35 83,207.02 83,206.7C83,206.38 83,206.06 83,205.74C83,205.42 83.01,205.09 83.01,204.77C83.01,204.45 83.01,204.12 83.01,203.8C83.01,203.48 83.02,203.16 83.02,202.84C83.02,202.52 83.03,202.19 83.03,201.87C83.03,201.55 83.04,201.22 83.04,200.9C83.04,200.58 83.04,200.26 83.04,199.94C83.04,199.62 83.05,199.29 83.05,198.97C83.05,198.65 83.06,198.33 83.06,198.01C83.06,197.69 83.07,197.36 83.07,197.04C83.07,196.72 83.07,196.39 83.07,196.07C83.07,195.75 83.08,195.43 83.08,195.11C83.08,194.79 83.09,194.46 83.09,194.14C83.09,193.82 83.09,193.49 83.09,193.17C83.09,192.85 83.1,192.53 83.1,192.21C83.1,191.89 83.11,191.56 83.11,191.24C83.11,190.92 83.12,190.59 83.12,190.27C83.12,189.95 83.13,189.63 83.13,189.31C83.13,188.99 83.14,188.66 83.14,188.34C83.14,188.02 83.14,187.69 83.15,187.37C83.15,187.05 83.17,186.73 83.17,186.41C83.18,186.09 83.18,185.76 83.18,185.44C83.19,185.12 83.19,184.79 83.2,184.47C83.21,184.15 83.22,183.83 83.22,183.51C83.23,183.19 83.23,182.86 83.23,182.54C83.24,182.22 83.24,181.89 83.25,181.57C83.26,181.25 83.26,180.93 83.27,180.61C83.28,180.29 83.29,179.96 83.3,179.64C83.31,179.32 83.32,178.99 83.33,178.67C83.34,178.35 83.35,178.03 83.36,177.71C83.37,177.39 83.39,177.06 83.4,176.74C83.41,176.42 83.42,176.09 83.44,175.77C83.45,175.45 83.47,175.13 83.49,174.81C83.51,174.49 83.53,174.16 83.55,173.84C83.57,173.52 83.59,173.19 83.62,172.87C83.64,172.55 83.67,172.23 83.7,171.91C83.73,171.59 83.76,171.26 83.79,170.94C83.82,170.62 83.86,170.29 83.9,169.97C83.94,169.65 83.99,169.33 84.03,169.01C84.08,168.69 84.12,168.36 84.17,168.04C84.22,167.72 84.27,167.39 84.33,167.07C84.39,166.75 84.45,166.43 84.52,166.11C84.59,165.79 84.66,165.46 84.74,165.14C84.82,164.82 84.89,164.49 84.98,164.17C85.07,163.85 85.16,163.53 85.26,163.21C85.36,162.89 85.46,162.56 85.57,162.24C85.68,161.92 85.81,161.59 85.93,161.27C86.06,160.95 86.18,160.63 86.32,160.31C86.46,159.99 86.61,159.66 86.77,159.34C86.93,159.02 87.1,158.69 87.27,158.37C87.44,158.05 87.62,157.73 87.81,157.41C88,157.09 88.21,156.76 88.42,156.44C88.63,156.11 88.85,155.79 89.08,155.47C89.31,155.15 89.55,154.83 89.8,154.51C90.05,154.19 90.31,153.86 90.58,153.54C90.85,153.21 91.13,152.89 91.42,152.57C91.71,152.25 92.01,151.93 92.32,151.61C92.63,151.29 92.95,150.96 93.28,150.64C93.61,150.31 93.95,149.99 94.29,149.67C94.63,149.35 94.98,149.03 95.34,148.71C95.7,148.39 96.07,148.06 96.44,147.74C96.81,147.42 97.18,147.1 97.55,146.78C97.93,146.46 98.31,146.13 98.69,145.81C99.07,145.49 99.44,145.16 99.82,144.84C100.19,144.52 100.57,144.2 100.94,143.88C101.31,143.56 101.68,143.24 102.04,142.91C102.4,142.59 102.75,142.26 103.09,141.94C103.43,141.62 103.76,141.3 104.08,140.98C104.4,140.66 104.71,140.34 105.01,140.01C105.3,139.69 105.58,139.37 105.84,139.04C106.09,138.72 106.33,138.41 106.55,138.08C106.76,137.76 106.96,137.44 107.14,137.11C107.31,136.79 107.47,136.47 107.59,136.14C107.71,135.82 107.8,135.5 107.87,135.18C107.93,134.86 107.97,134.53 107.98,134.21C107.99,133.89 107.97,133.56 107.92,133.24C107.87,132.92 107.8,132.6 107.69,132.28C107.58,131.95 107.43,131.63 107.27,131.31C107.1,130.98 106.91,130.66 106.69,130.34C106.47,130.01 106.21,129.69 105.94,129.38C105.66,129.05 105.35,128.73 105.03,128.41C104.7,128.08 104.35,127.76 103.99,127.44C103.62,127.11 103.24,126.8 102.84,126.48C102.43,126.15 102.01,125.83 101.58,125.51C101.15,125.18 100.71,124.86 100.26,124.54C99.81,124.22 99.34,123.9 98.88,123.58C98.42,123.26 97.95,122.93 97.49,122.61C97.03,122.29 96.57,121.96 96.11,121.64C95.65,121.32 95.2,121 94.75,120.68C94.31,120.36 93.88,120.04 93.45,119.71C93.03,119.39 92.61,119.06 92.2,118.74C91.8,118.42 91.4,118.1 91.02,117.78C90.64,117.46 90.27,117.14 89.92,116.81C89.57,116.49 89.24,116.17 88.92,115.84C88.61,115.52 88.3,115.21 88.01,114.88C87.72,114.56 87.45,114.24 87.19,113.91C86.94,113.59 86.7,113.27 86.47,112.94C86.25,112.62 86.04,112.3 85.85,111.98C85.66,111.66 85.48,111.34 85.31,111.01C85.14,110.69 84.99,110.36 84.85,110.04C84.71,109.72 84.58,109.4 84.46,109.08C84.34,108.76 84.23,108.43 84.13,108.11C84.03,107.79 83.94,107.46 83.86,107.14C83.78,106.82 83.7,106.5 83.63,106.18C83.56,105.86 83.51,105.53 83.45,105.21C83.39,104.89 83.34,104.56 83.29,104.24C83.24,103.92 83.21,103.6 83.17,103.28C83.13,102.96 83.1,102.63 83.07,102.31C83.04,101.99 83.01,101.66 82.99,101.34C82.97,101.02 82.95,100.7 82.93,100.38C82.91,100.06 82.9,99.73 82.88,99.41C82.87,99.09 82.85,98.76 82.84,98.44C82.83,98.12 82.82,97.8 82.81,97.48C82.8,97.16 82.8,96.83 82.79,96.51C82.78,96.19 82.78,95.87 82.77,95.55C82.76,95.23 82.76,94.9 82.75,94.58C82.75,94.26 82.74,93.93 82.74,93.61C82.74,93.29 82.73,92.97 82.73,92.65C82.73,92.33 82.73,92 82.73,91.68C82.73,91.36 82.72,91.03 82.72,90.71C82.72,90.39 82.71,90.07 82.71,89.75C82.71,89.43 82.71,89.1 82.71,88.78C82.71,88.46 82.71,88.13 82.71,87.81C82.71,87.49 82.7,87.17 82.7,86.85C82.7,86.53 82.7,86.2 82.7,85.88C82.7,85.56 82.7,85.23 82.7,84.91C82.7,84.59 82.69,84.27 82.69,83.95C82.69,83.63 82.69,83.3 82.69,82.98C82.69,82.66 82.69,82.33 82.69,82.01C82.69,81.69 82.69,81.37 82.69,81.05C82.69,80.73 82.69,80.4 82.69,80.08C82.69,79.76 82.69,79.43 82.69,79.11C82.69,78.79 82.69,78.47 82.69,78.15C82.69,77.83 82.68,77.5 82.68,77.18C82.68,76.86 82.68,76.53 82.68,76.21C82.68,75.89 82.68,75.57 82.68,75.25C82.68,74.93 82.68,74.6 82.68,74.28C82.68,73.96 82.68,73.63 82.68,73.31C82.68,72.99 82.68,72.67 82.68,72.35C82.68,72.03 82.68,71.7 82.68,71.38C82.68,71.06 82.68,70.73 82.68,70.41C82.68,70.09 82.68,69.77 82.68,69.45C82.68,69.13 82.68,68.8 82.68,68.48C82.68,68.16 82.67,67.83 82.67,67.51C82.67,67.19 82.67,66.87 82.67,66.55C82.67,66.23 82.67,65.9 82.67,65.58C82.67,65.26 82.67,64.93 82.67,64.61C82.67,64.29 82.67,63.97 82.67,63.65C82.67,63.33 82.67,63 82.67,62.68C82.67,62.36 82.67,62.03 82.67,61.71C82.67,61.39 82.67,61.07 82.67,60.75C82.67,60.43 82.67,60.1 82.67,59.78C82.67,59.46 82.67,59.13 82.67,58.81C82.67,58.49 82.67,58.17 82.67,57.85C82.67,57.53 82.67,57.2 82.67,56.88C82.67,56.56 82.67,56.23 82.67,55.91C82.67,55.59 82.67,55.27 82.67,54.95C82.67,54.63 82.67,54.3 82.67,53.98C82.67,53.66 82.67,53.33 82.67,53.01C82.67,52.69 82.67,52.37 82.67,52.05C82.67,51.73 82.67,51.4 82.67,51.08C82.67,50.76 82.67,50.43 82.67,50.11C82.67,49.79 82.67,49.47 82.67,49.15C82.67,48.83 82.67,48.5 82.67,48.18C82.67,47.86 82.67,47.53 82.67,47.21C82.67,46.89 82.67,46.57 82.67,46.25C82.67,45.93 82.67,45.6 82.67,45.28C82.67,44.96 82.67,44.63 82.67,44.31C82.67,43.99 82.67,43.67 82.67,43.35C82.67,43.03 82.67,42.7 82.67,42.38C82.67,42.06 82.67,41.74 82.67,41.42C82.67,41.1 82.67,40.77 82.67,40.45C82.67,40.13 82.67,39.8 82.67,39.48C82.67,39.16 82.67,38.84 82.67,38.52C82.67,38.2 82.67,37.87 82.67,37.55C82.67,37.23 82.67,36.9 82.67,36.58C82.67,36.26 82.67,35.94 82.67,35.62C82.67,35.3 82.67,34.97 82.67,34.65C82.67,34.33 82.67,34 82.67,33.68C82.67,33.36 82.67,33.04 82.67,32.72C82.67,32.4 82.67,32.07 82.67,31.75C82.67,31.43 82.67,31.1 82.67,30.78C82.67,30.46 82.67,30.14 82.67,29.82C82.67,29.5 82.67,29.17 82.67,28.85C82.67,28.53 82.67,28.2 82.67,27.88C82.67,27.56 82.67,27.24 82.67,26.92C82.67,26.6 82.67,26.27 82.67,25.95C82.67,25.63 82.67,25.3 82.67,24.98C82.67,24.66 82.67,24.34 82.67,24.02C82.67,23.7 82.67,23.37 82.67,23.05C82.67,22.73 82.67,22.4 82.67,22.08C82.67,21.76 82.67,21.44 82.67,21.12C82.67,20.8 82.67,20.47 82.67,20.15C82.67,19.83 82.67,19.5 82.67,19.18C82.67,18.86 82.67,18.54 82.67,18.22Q82.67,17.9 82.67,17.25L82.67,17.25Q82.67,17.9 82.67,18.22C82.67,18.54 82.67,18.86 82.67,19.18C82.67,19.5 82.67,19.83 82.67,20.15C82.67,20.47 82.67,20.8 82.67,21.12C82.67,21.44 82.67,21.76 82.67,22.08C82.67,22.4 82.67,22.73 82.67,23.05C82.67,23.37 82.67,23.7 82.67,24.02C82.67,24.34 82.67,24.66 82.67,24.98C82.67,25.3 82.67,25.63 82.67,25.95C82.67,26.27 82.67,26.6 82.67,26.92C82.67,27.24 82.67,27.56 82.67,27.88C82.67,28.2 82.67,28.53 82.67,28.85C82.67,29.17 82.67,29.5 82.67,29.82C82.67,30.14 82.67,30.46 82.67,30.78C82.67,31.1 82.67,31.43 82.67,31.75C82.67,32.07 82.67,32.4 82.67,32.72C82.67,33.04 82.67,33.36 82.67,33.68C82.67,34 82.67,34.33 82.67,34.65C82.67,34.97 82.67,35.3 82.67,35.62C82.67,35.94 82.67,36.26 82.67,36.58C82.67,36.9 82.67,37.23 82.67,37.55C82.67,37.87 82.67,38.2 82.67,38.52C82.67,38.84 82.67,39.16 82.67,39.48C82.67,39.8 82.67,40.13 82.67,40.45C82.67,40.77 82.67,41.1 82.67,41.42C82.67,41.74 82.67,42.06 82.67,42.38C82.67,42.7 82.67,43.03 82.67,43.35C82.67,43.67 82.67,43.99 82.67,44.31C82.67,44.63 82.67,44.96 82.67,45.28C82.67,45.6 82.67,45.93 82.67,46.25C82.67,46.57 82.67,46.89 82.67,47.21C82.67,47.53 82.67,47.86 82.67,48.18C82.67,48.5 82.67,48.83 82.67,49.15C82.67,49.47 82.67,49.79 82.67,50.11C82.67,50.43 82.67,50.76 82.67,51.08C82.67,51.4 82.67,51.73 82.67,52.05C82.67,52.37 82.67,52.69 82.67,53.01C82.67,53.33 82.67,53.66 82.67,53.98C82.67,54.3 82.66,54.63 82.66,54.95C82.66,55.27 82.66,55.59 82.66,55.91C82.66,56.23 82.66,56.56 82.66,56.88C82.66,57.2 82.66,57.53 82.66,57.85C82.66,58.17 82.66,58.49 82.66,58.81C82.66,59.13 82.66,59.46 82.66,59.78C82.66,60.1 82.66,60.43 82.66,60.75C82.66,61.07 82.66,61.39 82.66,61.71C82.66,62.03 82.66,62.36 82.66,62.68C82.66,63 82.66,63.33 82.66,63.65C82.66,63.97 82.66,64.29 82.66,64.61C82.66,64.93 82.66,65.26 82.66,65.58C82.66,65.9 82.66,66.23 82.66,66.55C82.66,66.87 82.66,67.19 82.66,67.51C82.66,67.83 82.66,68.16 82.66,68.48C82.66,68.8 82.66,69.13 82.66,69.45C82.66,69.77 82.66,70.09 82.66,70.41C82.66,70.73 82.66,71.06 82.66,71.38C82.66,71.7 82.65,72.03 82.65,72.35C82.65,72.67 82.65,72.99 82.65,73.31C82.65,73.63 82.65,73.96 82.65,74.28C82.65,74.6 82.65,74.93 82.65,75.25C82.65,75.57 82.65,75.89 82.65,76.21C82.65,76.53 82.65,76.86 82.65,77.18C82.65,77.5 82.65,77.83 82.65,78.15C82.65,78.47 82.65,78.79 82.65,79.11C82.65,79.43 82.65,79.76 82.65,80.08C82.65,80.4 82.65,80.73 82.65,81.05C82.65,81.37 82.64,81.69 82.64,82.01C82.64,82.33 82.64,82.66 82.64,82.98C82.64,83.3 82.64,83.63 82.64,83.95C82.64,84.27 82.64,84.59 82.64,84.91C82.64,85.23 82.63,85.56 82.63,85.88C82.63,86.2 82.63,86.53 82.63,86.85C82.63,87.17 82.63,87.49 82.63,87.81C82.63,88.13 82.62,88.46 82.62,88.78C82.62,89.1 82.62,89.43 82.62,89.75C82.62,90.07 82.61,90.39 82.61,90.71C82.61,91.03 82.61,91.36 82.61,91.68C82.61,92 82.6,92.33 82.6,92.65C82.6,92.97 82.59,93.29 82.59,93.61C82.59,93.93 82.58,94.26 82.58,94.58C82.58,94.9 82.58,95.23 82.57,95.55C82.57,95.87 82.56,96.19 82.55,96.51C82.54,96.83 82.53,97.16 82.52,97.48C82.51,97.8 82.51,98.12 82.5,98.44C82.49,98.76 82.47,99.09 82.46,99.41C82.44,99.73 82.43,100.06 82.41,100.38C82.39,100.7 82.36,101.02 82.34,101.34C82.31,101.66 82.29,101.99 82.26,102.31C82.23,102.63 82.2,102.96 82.16,103.28C82.12,103.6 82.08,103.92 82.04,104.24C81.99,104.56 81.95,104.89 81.89,105.21C81.83,105.53 81.77,105.86 81.7,106.18C81.63,106.5 81.56,106.82 81.48,107.14C81.4,107.46 81.3,107.79 81.2,108.11C81.1,108.43 80.99,108.76 80.87,109.08C80.75,109.4 80.63,109.72 80.49,110.04C80.35,110.37 80.19,110.69 80.02,111.01C79.85,111.34 79.68,111.66 79.49,111.98C79.3,112.3 79.08,112.62 78.86,112.94C78.63,113.27 78.39,113.59 78.14,113.91C77.88,114.24 77.61,114.56 77.33,114.88C77.04,115.21 76.73,115.52 76.41,115.84C76.09,116.17 75.76,116.49 75.41,116.81C75.06,117.14 74.69,117.46 74.31,117.78C73.93,118.1 73.54,118.42 73.14,118.74C72.73,119.07 72.31,119.39 71.89,119.71C71.46,120.04 71.02,120.36 70.58,120.68C70.13,121 69.68,121.32 69.22,121.64C68.76,121.96 68.3,122.29 67.84,122.61C67.38,122.93 66.91,123.26 66.45,123.58C65.99,123.9 65.53,124.22 65.08,124.54C64.63,124.86 64.18,125.18 63.75,125.51C63.32,125.83 62.91,126.15 62.5,126.48C62.1,126.8 61.71,127.11 61.34,127.44C60.98,127.76 60.63,128.08 60.3,128.41C59.98,128.73 59.68,129.05 59.4,129.38C59.13,129.7 58.88,130.01 58.65,130.34C58.43,130.66 58.23,130.98 58.06,131.31C57.9,131.63 57.76,131.95 57.65,132.28C57.54,132.6 57.46,132.92 57.41,133.24C57.36,133.56 57.34,133.89 57.35,134.21C57.36,134.53 57.39,134.86 57.46,135.18C57.53,135.5 57.63,135.82 57.75,136.14C57.87,136.47 58.02,136.79 58.19,137.11C58.36,137.44 58.57,137.76 58.78,138.08C59,138.41 59.25,138.72 59.5,139.04C59.76,139.37 60.04,139.69 60.33,140.01C60.62,140.34 60.93,140.66 61.25,140.98C61.57,141.3 61.9,141.62 62.24,141.94C62.59,142.27 62.94,142.59 63.3,142.91C63.66,143.23 64.02,143.56 64.39,143.88C64.76,144.2 65.13,144.52 65.51,144.84C65.89,145.16 66.27,145.49 66.65,145.81C67.03,146.13 67.4,146.46 67.78,146.78C68.15,147.1 68.53,147.42 68.9,147.74C69.27,148.06 69.63,148.39 69.99,148.71C70.34,149.03 70.7,149.35 71.04,149.67C71.38,149.99 71.72,150.31 72.05,150.64C72.38,150.96 72.7,151.29 73.01,151.61C73.32,151.93 73.62,152.25 73.91,152.57C74.2,152.89 74.48,153.21 74.75,153.54C75.02,153.86 75.28,154.19 75.53,154.51C75.78,154.83 76.02,155.15 76.25,155.47C76.48,155.79 76.7,156.11 76.91,156.44C77.12,156.76 77.33,157.09 77.52,157.41C77.71,157.73 77.9,158.05 78.07,158.37C78.24,158.69 78.4,159.02 78.56,159.34C78.72,159.66 78.87,159.99 79.01,160.31C79.15,160.63 79.28,160.95 79.41,161.27C79.53,161.59 79.65,161.92 79.76,162.24C79.87,162.56 79.98,162.89 80.08,163.21C80.18,163.53 80.26,163.85 80.35,164.17C80.44,164.49 80.52,164.82 80.6,165.14C80.68,165.46 80.74,165.79 80.81,166.11C80.88,166.43 80.94,166.75 81,167.07C81.06,167.39 81.11,167.72 81.16,168.04C81.21,168.36 81.26,168.69 81.31,169.01C81.35,169.33 81.39,169.65 81.43,169.97C81.47,170.29 81.51,170.62 81.54,170.94C81.57,171.26 81.6,171.59 81.63,171.91C81.66,172.23 81.69,172.55 81.71,172.87C81.74,173.19 81.76,173.52 81.78,173.84C81.8,174.16 81.82,174.49 81.84,174.81C81.86,175.13 81.88,175.45 81.89,175.77C81.91,176.09 81.92,176.42 81.93,176.74C81.94,177.06 81.96,177.39 81.97,177.71C81.98,178.03 82,178.35 82.01,178.67C82.02,178.99 82.02,179.32 82.03,179.64C82.04,179.96 82.05,180.29 82.06,180.61C82.07,180.93 82.07,181.25 82.08,181.57C82.09,181.89 82.09,182.22 82.1,182.54C82.11,182.86 82.11,183.19 82.12,183.51C82.12,183.83 82.13,184.15 82.13,184.47C82.14,184.79 82.14,185.12 82.15,185.44C82.16,185.76 82.16,186.09 82.17,186.41C82.17,186.73 82.18,187.05 82.18,187.37C82.18,187.69 82.19,188.02 82.19,188.34C82.2,188.66 82.2,188.99 82.21,189.31C82.21,189.63 82.22,189.95 82.22,190.27C82.22,190.59 82.22,190.92 82.22,191.24C82.22,191.56 82.23,191.89 82.23,192.21C82.23,192.53 82.24,192.85 82.24,193.17C82.24,193.49 82.25,193.82 82.25,194.14C82.25,194.46 82.25,194.79 82.25,195.11C82.25,195.43 82.26,195.75 82.26,196.07C82.26,196.39 82.27,196.72 82.27,197.04C82.27,197.36 82.27,197.69 82.27,198.01C82.27,198.33 82.28,198.65 82.28,198.97C82.28,199.29 82.29,199.62 82.29,199.94C82.29,200.26 82.3,200.58 82.3,200.9C82.3,201.22 82.31,201.55 82.31,201.87C82.31,202.19 82.31,202.52 82.31,202.84C82.31,203.16 82.32,203.48 82.32,203.8C82.32,204.12 82.33,204.45 82.33,204.77C82.33,205.09 82.33,205.42 82.33,205.74C82.33,206.06 82.34,206.38 82.34,206.7C82.34,207.02 82.34,207.35 82.34,207.67C82.34,207.99 82.35,208.32 82.35,208.64C82.35,208.96 82.35,209.28 82.35,209.6C82.35,209.92 82.36,210.25 82.36,210.57C82.36,210.89 82.36,211.22 82.36,211.54C82.36,211.86 82.37,212.18 82.37,212.5C82.37,212.82 82.37,213.15 82.37,213.47C82.37,213.79 82.38,214.12 82.38,214.44C82.38,214.76 82.38,215.08 82.38,215.4C82.38,215.72 82.39,216.05 82.39,216.37C82.39,216.69 82.4,217.02 82.4,217.34C82.4,217.66 82.4,217.98 82.4,218.3C82.4,218.62 82.41,218.95 82.41,219.27C82.41,219.59 82.42,219.92 82.42,220.24C82.42,220.56 82.42,220.88 82.42,221.2C82.42,221.52 82.43,221.85 82.43,222.17C82.43,222.49 82.43,222.82 82.43,223.14C82.43,223.46 82.44,223.78 82.44,224.1C82.44,224.42 82.44,224.75 82.44,225.07C82.44,225.39 82.44,225.72 82.44,226.04C82.44,226.36 82.45,226.68 82.45,227C82.45,227.32 82.45,227.65 82.45,227.97C82.45,228.29 82.45,228.62 82.45,228.94C82.45,229.26 82.46,229.58 82.46,229.9C82.46,230.22 82.46,230.55 82.46,230.87C82.46,231.19 82.47,231.52 82.47,231.84C82.47,232.16 82.48,232.48 82.48,232.8C82.48,233.12 82.48,233.45 82.48,233.77C82.48,234.09 82.49,234.42 82.49,234.74C82.49,235.06 82.49,235.38 82.49,235.7C82.49,236.02 82.49,236.35 82.49,236.67C82.49,236.99 82.5,237.32 82.5,237.64C82.5,237.96 82.5,238.28 82.5,238.6C82.5,238.92 82.5,239.25 82.5,239.57C82.5,239.89 82.51,240.22 82.51,240.54C82.51,240.86 82.51,241.18 82.51,241.5C82.51,241.82 82.51,242.15 82.51,242.47C82.51,242.79 82.51,243.12 82.51,243.44C82.51,243.76 82.52,244.08 82.52,244.4C82.52,244.72 82.52,245.05 82.52,245.37C82.52,245.69 82.52,246.02 82.52,246.34C82.52,246.66 82.53,246.98 82.53,247.3C82.53,247.62 82.53,247.95 82.53,248.27C82.53,248.59 82.53,248.92 82.53,249.24C82.53,249.56 82.54,249.88 82.54,250.2C82.54,250.52 82.54,250.85 82.54,251.17C82.54,251.49 82.55,251.82 82.55,252.14C82.55,252.46 82.55,252.78 82.55,253.1C82.55,253.42 82.55,253.75 82.55,254.07C82.55,254.39 82.55,254.71 82.55,255.03C82.55,255.35 82.56,255.68 82.56,256C82.56,256.32 82.56,256.65 82.56,256.97C82.56,257.29 82.56,257.61 82.56,257.93C82.56,258.25 82.56,258.58 82.56,258.9C82.56,259.22 82.56,259.55 82.56,259.87C82.56,260.19 82.56,260.51 82.56,260.83C82.56,261.15 82.56,261.48 82.56,261.8C82.56,262.12 82.56,262.45 82.56,262.77C82.56,263.09 82.56,263.41 82.56,263.73C82.56,264.05 82.57,264.38 82.57,264.7C82.57,265.02 82.57,265.35 82.57,265.67C82.57,265.99 82.57,266.31 82.57,266.63C82.57,266.95 82.57,267.28 82.57,267.6C82.57,267.92 82.58,268.25 82.58,268.57C82.58,268.89 82.58,269.21 82.58,269.53C82.58,269.85 82.58,270.18 82.58,270.5C82.58,270.82 82.58,271.15 82.58,271.47C82.58,271.79 82.58,272.11 82.58,272.43C82.58,272.75 82.58,273.08 82.58,273.4C82.58,273.72 82.58,274.05 82.58,274.37C82.58,274.69 82.59,275.01 82.59,275.33C82.59,275.65 82.59,275.98 82.59,276.3C82.59,276.62 82.59,276.95 82.59,277.27C82.59,277.59 82.59,277.91 82.59,278.23C82.59,278.55 82.59,278.88 82.59,279.2C82.59,279.52 82.59,279.85 82.59,280.17C82.59,280.49 82.59,280.81 82.59,281.13C82.59,281.45 82.59,281.78 82.59,282.1C82.59,282.42 82.59,282.75 82.59,283.07C82.59,283.39 82.59,283.71 82.59,284.03C82.59,284.35 82.59,284.68 82.59,285C82.59,285.32 82.59,285.65 82.59,285.97C82.59,286.29 82.59,286.61 82.59,286.93C82.59,287.25 82.59,287.58 82.59,287.9C82.59,288.22 82.6,288.55 82.6,288.87C82.6,289.19 82.6,289.51 82.6,289.83C82.6,290.15 82.6,290.48 82.6,290.8C82.6,291.12 82.6,291.45 82.6,291.77C82.6,292.09 82.6,292.41 82.6,292.73C82.6,293.05 82.6,293.38 82.6,293.7C82.6,294.02 82.6,294.35 82.6,294.67C82.6,294.99 82.6,295.31 82.6,295.63C82.6,295.95 82.6,296.28 82.6,296.6C82.6,296.92 82.59,297.25 82.59,297.57C82.59,297.89 82.59,298.21 82.59,298.53C82.59,298.85 82.59,299.18 82.59,299.5C82.59,299.82 82.59,300.15 82.59,300.47C82.59,300.79 82.59,301.11 82.59,301.43C82.59,301.75 82.59,302.08 82.59,302.4C82.59,302.72 82.59,303.05 82.59,303.37C82.59,303.69 82.58,304.01 82.58,304.33C82.58,304.65 82.58,304.98 82.58,305.3C82.58,305.62 82.57,305.94 82.57,306.26C82.57,306.58 82.56,306.91 82.56,307.23C82.55,307.55 82.55,307.88 82.54,308.2C82.53,308.52 82.53,308.84 82.52,309.16C82.51,309.48 82.5,309.81 82.49,310.13C82.48,310.45 82.48,310.78 82.47,311.1C82.47,311.42 82.46,311.74 82.46,312.06C82.46,312.38 82.46,312.71 82.46,313.03C82.46,313.35 82.46,313.68 82.47,314C82.48,314.32 82.49,314.64 82.5,314.96C82.51,315.28 82.53,315.61 82.54,315.93C82.55,316.25 82.56,316.58 82.57,316.9C82.58,317.22 82.6,317.54 82.61,317.86C82.62,318.18 82.62,318.51 82.63,318.83Q82.64,319.15 82.65,319.8Z" style="vector-effect: non-scaling-stroke; stroke-width: 2px; stroke: rgb(31, 119, 180); stroke-opacity: 1; fill: rgb(31, 119, 180); fill-opacity: 0.5;"/></g><g class="trace violins" style="opacity: 1;"><path class="violin" d="M155.02,319.39Q155.03,318.79 155.04,318.49C155.05,318.19 155.06,317.89 155.07,317.59C155.08,317.29 155.09,316.98 155.11,316.68C155.12,316.38 155.14,316.08 155.16,315.78C155.17,315.48 155.19,315.18 155.2,314.88C155.21,314.58 155.23,314.28 155.24,313.98C155.25,313.68 155.26,313.38 155.26,313.08C155.26,312.78 155.26,312.48 155.26,312.18C155.26,311.88 155.26,311.57 155.25,311.27C155.25,310.97 155.24,310.67 155.23,310.37C155.23,310.07 155.22,309.77 155.22,309.47C155.21,309.17 155.21,308.87 155.2,308.57C155.19,308.27 155.18,307.97 155.18,307.67C155.17,307.37 155.17,307.06 155.17,306.76C155.17,306.46 155.16,306.16 155.16,305.86C155.16,305.56 155.15,305.26 155.15,304.96C155.15,304.66 155.14,304.36 155.14,304.06C155.14,303.76 155.14,303.46 155.14,303.16C155.14,302.86 155.13,302.56 155.13,302.26C155.13,301.96 155.13,301.65 155.13,301.35C155.13,301.05 155.13,300.75 155.13,300.45C155.13,300.15 155.12,299.85 155.12,299.55C155.12,299.25 155.12,298.95 155.12,298.65C155.12,298.35 155.12,298.05 155.12,297.75C155.12,297.45 155.12,297.14 155.12,296.84C155.12,296.54 155.11,296.24 155.11,295.94C155.11,295.64 155.11,295.34 155.11,295.04C155.11,294.74 155.11,294.44 155.11,294.14C155.11,293.84 155.11,293.54 155.11,293.24C155.11,292.94 155.11,292.64 155.11,292.34C155.11,292.04 155.11,291.73 155.11,291.43C155.11,291.13 155.1,290.83 155.1,290.53C155.1,290.23 155.1,289.93 155.1,289.63C155.1,289.33 155.1,289.03 155.1,288.73C155.1,288.43 155.1,288.13 155.1,287.83C155.1,287.53 155.1,287.22 155.1,286.92C155.1,286.62 155.1,286.32 155.1,286.02C155.1,285.72 155.1,285.42 155.1,285.12C155.1,284.82 155.1,284.52 155.1,284.22C155.1,283.92 155.1,283.62 155.1,283.32C155.1,283.02 155.1,282.72 155.1,282.42C155.1,282.12 155.1,281.81 155.1,281.51C155.1,281.21 155.1,280.91 155.1,280.61C155.1,280.31 155.1,280.01 155.1,279.71C155.1,279.41 155.1,279.11 155.1,278.81C155.1,278.51 155.1,278.21 155.1,277.91C155.1,277.61 155.1,277.3 155.1,277C155.1,276.7 155.1,276.4 155.1,276.1C155.1,275.8 155.11,275.5 155.11,275.2C155.11,274.9 155.11,274.6 155.11,274.3C155.11,274 155.11,273.7 155.11,273.4C155.11,273.1 155.11,272.8 155.11,272.5C155.11,272.2 155.11,271.89 155.11,271.59C155.11,271.29 155.11,270.99 155.11,270.69C155.11,270.39 155.11,270.09 155.11,269.79C155.11,269.49 155.11,269.19 155.11,268.89C155.11,268.59 155.12,268.29 155.12,267.99C155.12,267.69 155.12,267.38 155.12,267.08C155.12,266.78 155.12,266.48 155.12,266.18C155.12,265.88 155.12,265.58 155.12,265.28C155.12,264.98 155.12,264.68 155.12,264.38C155.12,264.08 155.12,263.78 155.12,263.48C155.12,263.18 155.12,262.88 155.12,262.58C155.12,262.28 155.13,261.97 155.13,261.67C155.13,261.37 155.13,261.07 155.13,260.77C155.13,260.47 155.13,260.17 155.13,259.87C155.13,259.57 155.13,259.27 155.13,258.97C155.13,258.67 155.13,258.37 155.13,258.07C155.13,257.77 155.14,257.46 155.14,257.16C155.14,256.86 155.14,256.56 155.14,256.26C155.14,255.96 155.14,255.66 155.14,255.36C155.14,255.06 155.14,254.76 155.14,254.46C155.14,254.16 155.14,253.86 155.14,253.56C155.14,253.26 155.14,252.96 155.14,252.66C155.14,252.36 155.15,252.05 155.15,251.75C155.15,251.45 155.15,251.15 155.15,250.85C155.15,250.55 155.15,250.25 155.15,249.95C155.15,249.65 155.15,249.35 155.15,249.05C155.15,248.75 155.16,248.45 155.16,248.15C155.16,247.85 155.16,247.54 155.16,247.24C155.16,246.94 155.16,246.64 155.16,246.34C155.16,246.04 155.16,245.74 155.16,245.44C155.16,245.14 155.17,244.84 155.17,244.54C155.17,244.24 155.17,243.94 155.17,243.64C155.17,243.34 155.17,243.04 155.17,242.74C155.17,242.44 155.17,242.13 155.17,241.83C155.17,241.53 155.17,241.23 155.17,240.93C155.17,240.63 155.17,240.33 155.17,240.03C155.17,239.73 155.17,239.43 155.17,239.13C155.17,238.83 155.18,238.53 155.18,238.23C155.18,237.93 155.18,237.62 155.18,237.32C155.18,237.02 155.18,236.72 155.18,236.42C155.18,236.12 155.18,235.82 155.18,235.52C155.18,235.22 155.19,234.92 155.19,234.62C155.19,234.32 155.19,234.02 155.19,233.72C155.19,233.42 155.2,233.12 155.2,232.82C155.2,232.52 155.2,232.21 155.2,231.91C155.2,231.61 155.21,231.31 155.21,231.01C155.21,230.71 155.21,230.41 155.21,230.11C155.21,229.81 155.22,229.51 155.22,229.21C155.22,228.91 155.22,228.61 155.22,228.31C155.22,228.01 155.23,227.7 155.23,227.4C155.23,227.1 155.23,226.8 155.23,226.5C155.23,226.2 155.23,225.9 155.23,225.6C155.23,225.3 155.24,225 155.24,224.7C155.24,224.4 155.24,224.1 155.24,223.8C155.24,223.5 155.24,223.2 155.24,222.9C155.24,222.6 155.25,222.29 155.25,221.99C155.25,221.69 155.25,221.39 155.25,221.09C155.25,220.79 155.26,220.49 155.26,220.19C155.26,219.89 155.26,219.59 155.26,219.29C155.26,218.99 155.27,218.69 155.27,218.39C155.27,218.09 155.27,217.79 155.27,217.49C155.27,217.19 155.28,216.88 155.28,216.58C155.28,216.28 155.28,215.98 155.28,215.68C155.28,215.38 155.29,215.08 155.29,214.78C155.29,214.48 155.3,214.18 155.3,213.88C155.3,213.58 155.3,213.28 155.3,212.98C155.3,212.68 155.31,212.37 155.31,212.07C155.31,211.77 155.31,211.47 155.31,211.17C155.31,210.87 155.32,210.57 155.32,210.27C155.32,209.97 155.32,209.67 155.32,209.37C155.32,209.07 155.33,208.77 155.33,208.47C155.33,208.17 155.33,207.87 155.33,207.57C155.33,207.27 155.34,206.96 155.34,206.66C155.34,206.36 155.34,206.06 155.34,205.76C155.34,205.46 155.35,205.16 155.35,204.86C155.35,204.56 155.36,204.26 155.36,203.96C155.36,203.66 155.37,203.36 155.37,203.06C155.37,202.76 155.37,202.45 155.37,202.15C155.37,201.85 155.38,201.55 155.38,201.25C155.38,200.95 155.39,200.65 155.39,200.35C155.39,200.05 155.4,199.75 155.4,199.45C155.4,199.15 155.41,198.85 155.41,198.55C155.41,198.25 155.42,197.95 155.42,197.65C155.42,197.35 155.43,197.04 155.43,196.74C155.43,196.44 155.44,196.14 155.44,195.84C155.45,195.54 155.45,195.24 155.46,194.94C155.46,194.64 155.47,194.34 155.47,194.04C155.48,193.74 155.49,193.44 155.49,193.14C155.5,192.84 155.49,192.53 155.5,192.23C155.5,191.93 155.51,191.63 155.52,191.33C155.52,191.03 155.53,190.73 155.53,190.43C155.54,190.13 155.54,189.83 155.55,189.53C155.56,189.23 155.56,188.93 155.57,188.63C155.58,188.33 155.59,188.03 155.59,187.73C155.6,187.43 155.59,187.12 155.6,186.82C155.6,186.52 155.61,186.22 155.62,185.92C155.63,185.62 155.63,185.32 155.64,185.02C155.65,184.72 155.65,184.42 155.66,184.12C155.67,183.82 155.67,183.52 155.68,183.22C155.69,182.92 155.69,182.61 155.7,182.31C155.71,182.01 155.72,181.71 155.73,181.41C155.74,181.11 155.75,180.81 155.76,180.51C155.77,180.21 155.79,179.91 155.8,179.61C155.81,179.31 155.83,179.01 155.84,178.71C155.86,178.41 155.87,178.11 155.89,177.81C155.91,177.51 155.92,177.2 155.94,176.9C155.96,176.6 155.98,176.3 156,176C156.02,175.7 156.04,175.4 156.06,175.1C156.08,174.8 156.1,174.5 156.12,174.2C156.14,173.9 156.17,173.6 156.2,173.3C156.23,173 156.25,172.69 156.28,172.39C156.31,172.09 156.34,171.79 156.37,171.49C156.4,171.19 156.43,170.89 156.47,170.59C156.51,170.29 156.55,169.99 156.59,169.69C156.63,169.39 156.67,169.09 156.72,168.79C156.77,168.49 156.83,168.19 156.88,167.89C156.94,167.59 156.99,167.28 157.05,166.98C157.11,166.68 157.17,166.38 157.24,166.08C157.31,165.78 157.39,165.48 157.46,165.18C157.54,164.88 157.61,164.58 157.69,164.28C157.77,163.98 157.87,163.68 157.96,163.38C158.05,163.08 158.15,162.77 158.25,162.47C158.35,162.17 158.46,161.87 158.58,161.57C158.7,161.27 158.82,160.97 158.95,160.67C159.08,160.37 159.21,160.07 159.35,159.77C159.49,159.47 159.64,159.17 159.8,158.87C159.96,158.57 160.13,158.27 160.3,157.97C160.48,157.67 160.66,157.36 160.85,157.06C161.04,156.76 161.24,156.46 161.44,156.16C161.65,155.86 161.87,155.56 162.09,155.26C162.32,154.96 162.55,154.66 162.79,154.36C163.03,154.06 163.28,153.76 163.54,153.46C163.8,153.16 164.07,152.85 164.34,152.55C164.61,152.25 164.89,151.95 165.18,151.65C165.47,151.35 165.76,151.05 166.06,150.75C166.36,150.45 166.67,150.15 166.98,149.85C167.29,149.55 167.61,149.25 167.93,148.95C168.26,148.65 168.59,148.35 168.92,148.05C169.25,147.75 169.59,147.44 169.93,147.14C170.27,146.84 170.62,146.54 170.96,146.24C171.3,145.94 171.65,145.64 171.99,145.34C172.33,145.04 172.68,144.74 173.02,144.44C173.36,144.14 173.69,143.84 174.02,143.54C174.35,143.24 174.67,142.93 174.99,142.63C175.3,142.33 175.61,142.03 175.91,141.73C176.2,141.43 176.48,141.13 176.75,140.83C177.02,140.53 177.28,140.23 177.52,139.93C177.76,139.63 177.98,139.33 178.19,139.03C178.39,138.73 178.59,138.44 178.76,138.13C178.93,137.83 179.08,137.53 179.21,137.22C179.34,136.92 179.46,136.62 179.55,136.32C179.64,136.02 179.71,135.72 179.75,135.42C179.79,135.12 179.81,134.82 179.81,134.52C179.81,134.22 179.78,133.92 179.73,133.62C179.68,133.32 179.6,133.01 179.5,132.71C179.4,132.4 179.26,132.11 179.11,131.81C178.95,131.51 178.78,131.2 178.58,130.91C178.38,130.6 178.15,130.31 177.91,130.01C177.66,129.7 177.4,129.4 177.12,129.11C176.83,128.8 176.52,128.51 176.2,128.21C175.87,127.9 175.54,127.6 175.19,127.3C174.83,126.99 174.46,126.7 174.09,126.4C173.71,126.1 173.32,125.8 172.93,125.5C172.53,125.2 172.13,124.9 171.72,124.6C171.31,124.3 170.89,124 170.47,123.7C170.05,123.4 169.63,123.09 169.21,122.79C168.79,122.49 168.38,122.19 167.96,121.89C167.55,121.59 167.13,121.29 166.72,120.99C166.31,120.69 165.91,120.39 165.51,120.09C165.12,119.79 164.74,119.49 164.36,119.19C163.99,118.89 163.62,118.59 163.27,118.29C162.92,117.99 162.58,117.69 162.25,117.38C161.93,117.08 161.62,116.78 161.32,116.48C161.02,116.18 160.73,115.88 160.46,115.58C160.19,115.28 159.94,114.98 159.69,114.68C159.45,114.38 159.22,114.08 159,113.78C158.79,113.48 158.58,113.18 158.39,112.87C158.2,112.57 158.03,112.27 157.86,111.97C157.7,111.67 157.54,111.37 157.4,111.07C157.26,110.77 157.12,110.47 157,110.17C156.88,109.87 156.77,109.57 156.66,109.27C156.56,108.97 156.46,108.67 156.37,108.37C156.28,108.07 156.21,107.76 156.13,107.46C156.06,107.16 155.98,106.86 155.92,106.56C155.86,106.26 155.81,105.96 155.76,105.66C155.71,105.36 155.66,105.06 155.62,104.76C155.58,104.46 155.53,104.16 155.5,103.86C155.46,103.56 155.44,103.25 155.41,102.95C155.38,102.65 155.35,102.35 155.33,102.05C155.31,101.75 155.29,101.45 155.27,101.15C155.25,100.85 155.24,100.55 155.22,100.25C155.21,99.95 155.19,99.65 155.18,99.35C155.17,99.05 155.16,98.75 155.15,98.45C155.14,98.15 155.13,97.84 155.12,97.54C155.11,97.24 155.11,96.94 155.1,96.64C155.1,96.34 155.09,96.04 155.09,95.74C155.08,95.44 155.08,95.14 155.07,94.84C155.07,94.54 155.06,94.24 155.06,93.94C155.06,93.64 155.05,93.33 155.05,93.03C155.05,92.73 155.04,92.43 155.04,92.13C155.04,91.83 155.04,91.53 155.04,91.23C155.04,90.93 155.03,90.63 155.03,90.33C155.03,90.03 155.03,89.73 155.03,89.43C155.03,89.13 155.03,88.83 155.03,88.53C155.03,88.23 155.02,87.92 155.02,87.62C155.02,87.32 155.02,87.02 155.02,86.72C155.02,86.42 155.02,86.12 155.02,85.82C155.02,85.52 155.02,85.22 155.02,84.92C155.02,84.62 155.01,84.32 155.01,84.02C155.01,83.72 155.01,83.41 155.01,83.11C155.01,82.81 155.01,82.51 155.01,82.21C155.01,81.91 155.01,81.61 155.01,81.31C155.01,81.01 155.01,80.71 155.01,80.41C155.01,80.11 155.01,79.81 155.01,79.51C155.01,79.21 155.01,78.91 155.01,78.61C155.01,78.31 155.01,78 155.01,77.7C155.01,77.4 155.01,77.1 155.01,76.8C155.01,76.5 155.01,76.2 155.01,75.9C155.01,75.6 155.01,75.3 155.01,75C155.01,74.7 155,74.4 155,74.1C155,73.8 155,73.49 155,73.19C155,72.89 155,72.59 155,72.29C155,71.99 155,71.69 155,71.39C155,71.09 155,70.79 155,70.49C155,70.19 155,69.89 155,69.59C155,69.29 155,68.99 155,68.69C155,68.39 155,68.08 155,67.78C155,67.48 155,67.18 155,66.88C155,66.58 155,66.28 155,65.98C155,65.68 155,65.38 155,65.08C155,64.78 155,64.48 155,64.18C155,63.88 155,63.57 155,63.27C155,62.97 155,62.67 155,62.37C155,62.07 155,61.77 155,61.47C155,61.17 155,60.87 155,60.57C155,60.27 155,59.97 155,59.67C155,59.37 155,59.07 155,58.77C155,58.47 155,58.16 155,57.86C155,57.56 155,57.26 155,56.96C155,56.66 155,56.36 155,56.06C155,55.76 155,55.46 155,55.16C155,54.86 155,54.56 155,54.26C155,53.96 155,53.65 155,53.35C155,53.05 155,52.75 155,52.45C155,52.15 155,51.85 155,51.55C155,51.25 155,50.95 155,50.65C155,50.35 155,50.05 155,49.75C155,49.45 155,49.15 155,48.85C155,48.55 155,48.24 155,47.94C155,47.64 155,47.34 155,47.04C155,46.74 155,46.44 155,46.14C155,45.84 155,45.54 155,45.24C155,44.94 155,44.64 155,44.34C155,44.04 155,43.73 155,43.43C155,43.13 155,42.83 155,42.53C155,42.23 155,41.93 155,41.63C155,41.33 155,41.03 155,40.73C155,40.43 155,40.13 155,39.83C155,39.53 155,39.23 155,38.93Q155,38.63 155,38.02L155,38.02Q155,38.63 155,38.93C155,39.23 155,39.53 155,39.83C155,40.13 155,40.43 155,40.73C155,41.03 155,41.33 155,41.63C155,41.93 155,42.23 155,42.53C155,42.83 155,43.13 155,43.43C155,43.73 155,44.04 155,44.34C155,44.64 155,44.94 155,45.24C155,45.54 155,45.84 155,46.14C155,46.44 155,46.74 155,47.04C155,47.34 155,47.64 155,47.94C155,48.24 155,48.55 155,48.85C155,49.15 155,49.45 155,49.75C155,50.05 155,50.35 155,50.65C155,50.95 155,51.25 155,51.55C155,51.85 155,52.15 155,52.45C155,52.75 155,53.05 155,53.35C155,53.65 155,53.96 155,54.26C155,54.56 155,54.86 155,55.16C155,55.46 155,55.76 155,56.06C155,56.36 155,56.66 155,56.96C155,57.26 155,57.56 155,57.86C155,58.16 155,58.47 155,58.77C155,59.07 155,59.37 155,59.67C155,59.97 155,60.27 155,60.57C155,60.87 155,61.17 155,61.47C155,61.77 155,62.07 155,62.37C155,62.67 155,62.97 155,63.27C155,63.57 155,63.88 155,64.18C155,64.48 155,64.78 155,65.08C155,65.38 155,65.68 155,65.98C155,66.28 155,66.58 155,66.88C155,67.18 155,67.48 155,67.78C155,68.08 155,68.39 155,68.69C155,68.99 155,69.29 155,69.59C155,69.89 155,70.19 155,70.49C155,70.79 155,71.09 155,71.39C155,71.69 155,71.99 155,72.29C155,72.59 155,72.89 155,73.19C155,73.49 155,73.8 155,74.1C155,74.4 154.99,74.7 154.99,75C154.99,75.3 154.99,75.6 154.99,75.9C154.99,76.2 154.99,76.5 154.99,76.8C154.99,77.1 154.99,77.4 154.99,77.7C154.99,78 154.99,78.31 154.99,78.61C154.99,78.91 154.99,79.21 154.99,79.51C154.99,79.81 154.99,80.11 154.99,80.41C154.99,80.71 154.99,81.01 154.99,81.31C154.99,81.61 154.99,81.91 154.99,82.21C154.99,82.51 154.99,82.81 154.99,83.11C154.99,83.41 154.99,83.72 154.99,84.02C154.99,84.32 154.98,84.62 154.98,84.92C154.98,85.22 154.98,85.52 154.98,85.82C154.98,86.12 154.98,86.42 154.98,86.72C154.98,87.02 154.98,87.32 154.98,87.62C154.98,87.92 154.97,88.23 154.97,88.53C154.97,88.83 154.97,89.13 154.97,89.43C154.97,89.73 154.97,90.03 154.97,90.33C154.97,90.63 154.96,90.93 154.96,91.23C154.96,91.53 154.96,91.83 154.96,92.13C154.96,92.43 154.95,92.73 154.95,93.03C154.95,93.33 154.94,93.64 154.94,93.94C154.94,94.24 154.93,94.54 154.93,94.84C154.92,95.14 154.92,95.44 154.91,95.74C154.91,96.04 154.9,96.34 154.9,96.64C154.89,96.94 154.89,97.24 154.88,97.54C154.87,97.84 154.86,98.15 154.85,98.45C154.84,98.75 154.83,99.05 154.82,99.35C154.81,99.65 154.79,99.95 154.78,100.25C154.76,100.55 154.75,100.85 154.73,101.15C154.71,101.45 154.69,101.75 154.67,102.05C154.65,102.35 154.62,102.65 154.59,102.95C154.56,103.25 154.54,103.56 154.5,103.86C154.47,104.16 154.42,104.46 154.38,104.76C154.34,105.06 154.29,105.36 154.24,105.66C154.19,105.96 154.14,106.26 154.08,106.56C154.02,106.86 153.94,107.16 153.87,107.46C153.79,107.76 153.72,108.07 153.63,108.37C153.54,108.67 153.44,108.97 153.34,109.27C153.23,109.57 153.12,109.87 153,110.17C152.88,110.47 152.74,110.77 152.6,111.07C152.46,111.37 152.3,111.67 152.14,111.97C151.97,112.27 151.8,112.57 151.61,112.87C151.42,113.18 151.21,113.48 151,113.78C150.78,114.08 150.55,114.38 150.31,114.68C150.06,114.98 149.81,115.28 149.54,115.58C149.27,115.88 148.98,116.18 148.68,116.48C148.38,116.78 148.07,117.08 147.75,117.38C147.42,117.69 147.08,117.99 146.73,118.29C146.38,118.59 146.01,118.89 145.64,119.19C145.26,119.49 144.88,119.79 144.49,120.09C144.09,120.39 143.69,120.69 143.28,120.99C142.87,121.29 142.45,121.59 142.04,121.89C141.62,122.19 141.21,122.49 140.79,122.79C140.37,123.09 139.95,123.4 139.53,123.7C139.11,124 138.69,124.3 138.28,124.6C137.87,124.9 137.47,125.2 137.07,125.5C136.68,125.8 136.29,126.1 135.91,126.4C135.54,126.7 135.17,126.99 134.81,127.3C134.46,127.6 134.13,127.9 133.8,128.21C133.48,128.51 133.17,128.8 132.88,129.11C132.6,129.4 132.34,129.7 132.09,130.01C131.85,130.31 131.62,130.6 131.42,130.91C131.22,131.2 131.05,131.51 130.89,131.81C130.74,132.11 130.6,132.4 130.5,132.71C130.4,133.01 130.32,133.32 130.27,133.62C130.22,133.92 130.19,134.22 130.19,134.52C130.19,134.82 130.21,135.12 130.25,135.42C130.29,135.72 130.36,136.02 130.45,136.32C130.54,136.62 130.66,136.92 130.79,137.22C130.92,137.53 131.07,137.83 131.24,138.13C131.41,138.44 131.61,138.73 131.81,139.03C132.02,139.33 132.24,139.63 132.48,139.93C132.72,140.23 132.98,140.53 133.25,140.83C133.52,141.13 133.8,141.43 134.09,141.73C134.39,142.03 134.7,142.33 135.01,142.63C135.33,142.93 135.65,143.24 135.98,143.54C136.31,143.84 136.64,144.14 136.98,144.44C137.32,144.74 137.67,145.04 138.01,145.34C138.35,145.64 138.7,145.94 139.04,146.24C139.38,146.54 139.73,146.84 140.07,147.14C140.41,147.44 140.75,147.75 141.08,148.05C141.41,148.35 141.74,148.65 142.07,148.95C142.39,149.25 142.71,149.55 143.02,149.85C143.33,150.15 143.64,150.45 143.94,150.75C144.24,151.05 144.53,151.35 144.82,151.65C145.11,151.95 145.39,152.25 145.66,152.55C145.93,152.85 146.2,153.16 146.46,153.46C146.72,153.76 146.97,154.06 147.21,154.36C147.45,154.66 147.68,154.96 147.91,155.26C148.13,155.56 148.35,155.86 148.56,156.16C148.76,156.46 148.96,156.76 149.15,157.06C149.34,157.36 149.52,157.67 149.7,157.97C149.87,158.27 150.04,158.57 150.2,158.87C150.36,159.17 150.51,159.47 150.65,159.77C150.79,160.07 150.92,160.37 151.05,160.67C151.18,160.97 151.3,161.27 151.42,161.57C151.54,161.87 151.65,162.17 151.75,162.47C151.85,162.77 151.95,163.08 152.04,163.38C152.13,163.68 152.23,163.98 152.31,164.28C152.39,164.58 152.46,164.88 152.54,165.18C152.61,165.48 152.69,165.78 152.76,166.08C152.83,166.38 152.89,166.68 152.95,166.98C153.01,167.28 153.06,167.59 153.12,167.89C153.17,168.19 153.23,168.49 153.28,168.79C153.33,169.09 153.37,169.39 153.41,169.69C153.45,169.99 153.49,170.29 153.53,170.59C153.57,170.89 153.6,171.19 153.63,171.49C153.66,171.79 153.69,172.09 153.72,172.39C153.75,172.69 153.77,173 153.8,173.3C153.83,173.6 153.86,173.9 153.88,174.2C153.9,174.5 153.92,174.8 153.94,175.1C153.96,175.4 153.98,175.7 154,176C154.02,176.3 154.04,176.6 154.06,176.9C154.08,177.2 154.09,177.51 154.11,177.81C154.13,178.11 154.14,178.41 154.16,178.71C154.17,179.01 154.19,179.31 154.2,179.61C154.21,179.91 154.23,180.21 154.24,180.51C154.25,180.81 154.26,181.11 154.27,181.41C154.28,181.71 154.29,182.01 154.3,182.31C154.31,182.61 154.31,182.92 154.32,183.22C154.33,183.52 154.33,183.82 154.34,184.12C154.35,184.42 154.35,184.72 154.36,185.02C154.37,185.32 154.37,185.62 154.38,185.92C154.39,186.22 154.4,186.52 154.4,186.82C154.41,187.12 154.4,187.43 154.41,187.73C154.41,188.03 154.42,188.33 154.43,188.63C154.44,188.93 154.44,189.23 154.45,189.53C154.46,189.83 154.46,190.13 154.47,190.43C154.47,190.73 154.48,191.03 154.48,191.33C154.49,191.63 154.5,191.93 154.5,192.23C154.51,192.53 154.5,192.84 154.51,193.14C154.51,193.44 154.52,193.74 154.53,194.04C154.53,194.34 154.54,194.64 154.54,194.94C154.55,195.24 154.55,195.54 154.56,195.84C154.56,196.14 154.57,196.44 154.57,196.74C154.57,197.04 154.58,197.35 154.58,197.65C154.58,197.95 154.59,198.25 154.59,198.55C154.59,198.85 154.6,199.15 154.6,199.45C154.6,199.75 154.61,200.05 154.61,200.35C154.61,200.65 154.62,200.95 154.62,201.25C154.62,201.55 154.63,201.85 154.63,202.15C154.63,202.45 154.63,202.76 154.63,203.06C154.63,203.36 154.64,203.66 154.64,203.96C154.64,204.26 154.65,204.56 154.65,204.86C154.65,205.16 154.66,205.46 154.66,205.76C154.66,206.06 154.66,206.36 154.66,206.66C154.66,206.96 154.67,207.27 154.67,207.57C154.67,207.87 154.67,208.17 154.67,208.47C154.67,208.77 154.68,209.07 154.68,209.37C154.68,209.67 154.68,209.97 154.68,210.27C154.68,210.57 154.69,210.87 154.69,211.17C154.69,211.47 154.69,211.77 154.69,212.07C154.69,212.37 154.7,212.68 154.7,212.98C154.7,213.28 154.7,213.58 154.7,213.88C154.7,214.18 154.71,214.48 154.71,214.78C154.71,215.08 154.72,215.38 154.72,215.68C154.72,215.98 154.72,216.28 154.72,216.58C154.72,216.88 154.73,217.19 154.73,217.49C154.73,217.79 154.73,218.09 154.73,218.39C154.73,218.69 154.74,218.99 154.74,219.29C154.74,219.59 154.74,219.89 154.74,220.19C154.74,220.49 154.75,220.79 154.75,221.09C154.75,221.39 154.75,221.69 154.75,221.99C154.75,222.29 154.76,222.6 154.76,222.9C154.76,223.2 154.76,223.5 154.76,223.8C154.76,224.1 154.76,224.4 154.76,224.7C154.76,225 154.77,225.3 154.77,225.6C154.77,225.9 154.77,226.2 154.77,226.5C154.77,226.8 154.77,227.1 154.77,227.4C154.77,227.7 154.78,228.01 154.78,228.31C154.78,228.61 154.78,228.91 154.78,229.21C154.78,229.51 154.79,229.81 154.79,230.11C154.79,230.41 154.79,230.71 154.79,231.01C154.79,231.31 154.8,231.61 154.8,231.91C154.8,232.21 154.8,232.52 154.8,232.82C154.8,233.12 154.81,233.42 154.81,233.72C154.81,234.02 154.81,234.32 154.81,234.62C154.81,234.92 154.82,235.22 154.82,235.52C154.82,235.82 154.82,236.12 154.82,236.42C154.82,236.72 154.82,237.02 154.82,237.32C154.82,237.62 154.82,237.93 154.82,238.23C154.82,238.53 154.83,238.83 154.83,239.13C154.83,239.43 154.83,239.73 154.83,240.03C154.83,240.33 154.83,240.63 154.83,240.93C154.83,241.23 154.83,241.53 154.83,241.83C154.83,242.13 154.83,242.44 154.83,242.74C154.83,243.04 154.83,243.34 154.83,243.64C154.83,243.94 154.83,244.24 154.83,244.54C154.83,244.84 154.84,245.14 154.84,245.44C154.84,245.74 154.84,246.04 154.84,246.34C154.84,246.64 154.84,246.94 154.84,247.24C154.84,247.54 154.84,247.85 154.84,248.15C154.84,248.45 154.85,248.75 154.85,249.05C154.85,249.35 154.85,249.65 154.85,249.95C154.85,250.25 154.85,250.55 154.85,250.85C154.85,251.15 154.85,251.45 154.85,251.75C154.85,252.05 154.86,252.36 154.86,252.66C154.86,252.96 154.86,253.26 154.86,253.56C154.86,253.86 154.86,254.16 154.86,254.46C154.86,254.76 154.86,255.06 154.86,255.36C154.86,255.66 154.86,255.96 154.86,256.26C154.86,256.56 154.86,256.86 154.86,257.16C154.86,257.46 154.87,257.77 154.87,258.07C154.87,258.37 154.87,258.67 154.87,258.97C154.87,259.27 154.87,259.57 154.87,259.87C154.87,260.17 154.87,260.47 154.87,260.77C154.87,261.07 154.87,261.37 154.87,261.67C154.87,261.97 154.88,262.28 154.88,262.58C154.88,262.88 154.88,263.18 154.88,263.48C154.88,263.78 154.88,264.08 154.88,264.38C154.88,264.68 154.88,264.98 154.88,265.28C154.88,265.58 154.88,265.88 154.88,266.18C154.88,266.48 154.88,266.78 154.88,267.08C154.88,267.38 154.88,267.69 154.88,267.99C154.88,268.29 154.89,268.59 154.89,268.89C154.89,269.19 154.89,269.49 154.89,269.79C154.89,270.09 154.89,270.39 154.89,270.69C154.89,270.99 154.89,271.29 154.89,271.59C154.89,271.89 154.89,272.2 154.89,272.5C154.89,272.8 154.89,273.1 154.89,273.4C154.89,273.7 154.89,274 154.89,274.3C154.89,274.6 154.89,274.9 154.89,275.2C154.89,275.5 154.9,275.8 154.9,276.1C154.9,276.4 154.9,276.7 154.9,277C154.9,277.3 154.9,277.61 154.9,277.91C154.9,278.21 154.9,278.51 154.9,278.81C154.9,279.11 154.9,279.41 154.9,279.71C154.9,280.01 154.9,280.31 154.9,280.61C154.9,280.91 154.9,281.21 154.9,281.51C154.9,281.81 154.9,282.12 154.9,282.42C154.9,282.72 154.9,283.02 154.9,283.32C154.9,283.62 154.9,283.92 154.9,284.22C154.9,284.52 154.9,284.82 154.9,285.12C154.9,285.42 154.9,285.72 154.9,286.02C154.9,286.32 154.9,286.62 154.9,286.92C154.9,287.22 154.9,287.53 154.9,287.83C154.9,288.13 154.9,288.43 154.9,288.73C154.9,289.03 154.9,289.33 154.9,289.63C154.9,289.93 154.9,290.23 154.9,290.53C154.9,290.83 154.89,291.13 154.89,291.43C154.89,291.73 154.89,292.04 154.89,292.34C154.89,292.64 154.89,292.94 154.89,293.24C154.89,293.54 154.89,293.84 154.89,294.14C154.89,294.44 154.89,294.74 154.89,295.04C154.89,295.34 154.89,295.64 154.89,295.94C154.89,296.24 154.88,296.54 154.88,296.84C154.88,297.14 154.88,297.45 154.88,297.75C154.88,298.05 154.88,298.35 154.88,298.65C154.88,298.95 154.88,299.25 154.88,299.55C154.88,299.85 154.87,300.15 154.87,300.45C154.87,300.75 154.87,301.05 154.87,301.35C154.87,301.65 154.87,301.96 154.87,302.26C154.87,302.56 154.86,302.86 154.86,303.16C154.86,303.46 154.86,303.76 154.86,304.06C154.86,304.36 154.85,304.66 154.85,304.96C154.85,305.26 154.84,305.56 154.84,305.86C154.84,306.16 154.83,306.46 154.83,306.76C154.83,307.06 154.83,307.37 154.82,307.67C154.82,307.97 154.81,308.27 154.8,308.57C154.79,308.87 154.79,309.17 154.78,309.47C154.78,309.77 154.77,310.07 154.77,310.37C154.76,310.67 154.75,310.97 154.75,311.27C154.74,311.57 154.74,311.88 154.74,312.18C154.74,312.48 154.74,312.78 154.74,313.08C154.74,313.38 154.75,313.68 154.76,313.98C154.77,314.28 154.79,314.58 154.8,314.88C154.81,315.18 154.83,315.48 154.84,315.78C154.86,316.08 154.88,316.38 154.89,316.68C154.91,316.98 154.92,317.29 154.93,317.59C154.94,317.89 154.95,318.19 154.96,318.49Q154.97,318.79 154.98,319.39Z" style="vector-effect: non-scaling-stroke; stroke-width: 2px; stroke: rgb(255, 127, 14); stroke-opacity: 1; fill: rgb(255, 127, 14); fill-opacity: 0.5;"/></g><g class="trace violins" style="opacity: 1;"><path class="violin" d="M228.11,327.75Q228.52,326.22 228.81,325.47C229.1,324.7 229.46,323.94 229.85,323.19C230.25,322.42 230.73,321.66 231.2,320.91C231.68,320.14 232.21,319.39 232.69,318.63C233.16,317.87 233.67,317.13 234.06,316.35C234.43,315.6 234.78,314.84 234.98,314.07C235.17,313.32 235.28,312.55 235.26,311.79C235.24,311.03 235.08,310.27 234.87,309.52C234.65,308.75 234.31,307.99 233.97,307.24C233.63,306.47 233.21,305.72 232.83,304.96C232.46,304.2 232.06,303.45 231.72,302.68C231.38,301.93 231.06,301.17 230.8,300.4C230.54,299.65 230.32,298.88 230.14,298.12C229.96,297.36 229.82,296.6 229.71,295.84C229.6,295.08 229.53,294.32 229.46,293.56C229.39,292.8 229.35,292.04 229.31,291.28C229.27,290.52 229.25,289.76 229.23,289C229.21,288.24 229.19,287.48 229.17,286.72C229.16,285.96 229.15,285.2 229.14,284.44C229.13,283.68 229.12,282.92 229.11,282.16C229.1,281.4 229.1,280.64 229.09,279.88C229.08,279.12 229.08,278.37 229.07,277.61C229.06,276.85 229.06,276.09 229.05,275.33C229.05,274.57 229.04,273.81 229.04,273.05C229.03,272.29 229.03,271.53 229.02,270.77C229.01,270.01 229.01,269.25 229,268.49C229,267.73 228.99,266.97 228.99,266.21C228.98,265.45 228.98,264.69 228.97,263.93C228.97,263.17 228.96,262.41 228.96,261.65C228.96,260.89 228.95,260.13 228.95,259.37C228.95,258.61 228.94,257.85 228.94,257.09C228.94,256.33 228.94,255.57 228.94,254.81C228.94,254.05 228.93,253.29 228.93,252.53C228.93,251.77 228.92,251.01 228.92,250.25C228.92,249.49 228.92,248.73 228.91,247.97C228.91,247.21 228.89,246.46 228.89,245.7C228.88,244.94 228.88,244.18 228.88,243.42C228.87,242.66 228.87,241.9 228.86,241.14C228.85,240.38 228.85,239.62 228.84,238.86C228.83,238.1 228.83,237.34 228.82,236.58C228.82,235.82 228.81,235.06 228.81,234.3C228.8,233.54 228.8,232.78 228.79,232.02C228.78,231.26 228.78,230.5 228.77,229.74C228.76,228.98 228.76,228.22 228.75,227.46C228.74,226.7 228.73,225.94 228.72,225.18C228.71,224.42 228.71,223.66 228.7,222.9C228.69,222.14 228.68,221.38 228.67,220.62C228.66,219.86 228.65,219.1 228.64,218.34C228.63,217.58 228.62,216.82 228.61,216.06C228.6,215.3 228.59,214.55 228.58,213.79C228.57,213.03 228.55,212.27 228.54,211.51C228.53,210.75 228.52,209.99 228.51,209.23C228.5,208.47 228.49,207.71 228.48,206.95C228.47,206.19 228.46,205.43 228.45,204.67C228.44,203.91 228.44,203.15 228.43,202.39C228.42,201.63 228.41,200.87 228.4,200.11C228.39,199.35 228.39,198.59 228.38,197.83C228.37,197.07 228.37,196.31 228.36,195.55C228.36,194.79 228.35,194.03 228.35,193.27C228.34,192.51 228.34,191.75 228.33,190.99C228.33,190.23 228.32,189.47 228.32,188.71C228.32,187.95 228.32,187.19 228.32,186.43C228.32,185.67 228.32,184.91 228.33,184.15C228.33,183.39 228.34,182.64 228.35,181.88C228.36,181.12 228.37,180.36 228.38,179.6C228.4,178.84 228.42,178.08 228.44,177.32C228.46,176.56 228.49,175.8 228.52,175.04C228.56,174.28 228.6,173.52 228.65,172.76C228.7,172 228.75,171.24 228.82,170.48C228.89,169.72 228.96,168.96 229.05,168.2C229.14,167.44 229.25,166.68 229.37,165.92C229.49,165.16 229.62,164.4 229.78,163.64C229.94,162.88 230.11,162.12 230.31,161.36C230.51,160.6 230.72,159.84 230.96,159.08C231.2,158.32 231.47,157.56 231.75,156.8C232.04,156.04 232.34,155.28 232.67,154.52C233,153.76 233.35,153 233.72,152.24C234.09,151.48 234.49,150.73 234.88,149.97C235.28,149.21 235.69,148.45 236.09,147.69C236.49,146.93 236.9,146.17 237.29,145.41C237.68,144.65 238.07,143.9 238.42,143.13C238.77,142.38 239.1,141.62 239.38,140.85C239.65,140.1 239.9,139.34 240.08,138.57C240.26,137.82 240.4,137.05 240.47,136.29C240.54,135.53 240.55,134.77 240.5,134.01C240.45,133.25 240.32,132.48 240.14,131.73C239.96,130.96 239.71,130.2 239.43,129.45C239.14,128.68 238.78,127.92 238.41,127.17C238.03,126.4 237.6,125.65 237.16,124.89C236.72,124.13 236.25,123.37 235.78,122.61C235.31,121.85 234.83,121.09 234.36,120.33C233.9,119.57 233.43,118.81 232.99,118.05C232.56,117.3 232.13,116.54 231.74,115.78C231.35,115.03 230.98,114.27 230.65,113.5C230.32,112.75 230.02,111.99 229.75,111.22C229.48,110.46 229.25,109.7 229.04,108.94C228.83,108.18 228.66,107.42 228.5,106.66C228.35,105.9 228.22,105.14 228.11,104.38C228,103.62 227.92,102.86 227.84,102.1C227.76,101.34 227.7,100.58 227.65,99.82C227.6,99.06 227.56,98.3 227.53,97.54C227.5,96.78 227.47,96.02 227.45,95.26C227.43,94.5 227.42,93.74 227.41,92.98C227.4,92.22 227.39,91.46 227.38,90.7C227.37,89.94 227.37,89.18 227.36,88.42C227.36,87.66 227.35,86.9 227.35,86.14C227.35,85.38 227.34,84.63 227.34,83.87C227.34,83.11 227.34,82.35 227.34,81.59C227.34,80.83 227.34,80.07 227.34,79.31C227.34,78.55 227.34,77.79 227.34,77.03C227.34,76.27 227.34,75.51 227.34,74.75C227.34,73.99 227.34,73.23 227.34,72.47C227.34,71.71 227.34,70.95 227.34,70.19C227.34,69.43 227.33,68.67 227.33,67.91C227.33,67.15 227.33,66.39 227.33,65.63C227.33,64.87 227.33,64.11 227.33,63.35C227.33,62.59 227.33,61.83 227.33,61.07C227.33,60.31 227.33,59.55 227.33,58.79C227.33,58.03 227.33,57.27 227.33,56.51C227.33,55.75 227.33,54.99 227.33,54.23C227.33,53.47 227.33,52.72 227.33,51.96Q227.33,51.2 227.33,49.68L227.33,49.68Q227.33,51.2 227.33,51.96C227.33,52.72 227.33,53.47 227.33,54.23C227.33,54.99 227.33,55.75 227.33,56.51C227.33,57.27 227.33,58.03 227.33,58.79C227.33,59.55 227.33,60.31 227.33,61.07C227.33,61.83 227.33,62.59 227.33,63.35C227.33,64.11 227.33,64.87 227.33,65.63C227.33,66.39 227.33,67.15 227.33,67.91C227.33,68.67 227.33,69.43 227.33,70.19C227.33,70.95 227.33,71.71 227.33,72.47C227.33,73.23 227.33,73.99 227.33,74.75C227.33,75.51 227.33,76.27 227.33,77.03C227.33,77.79 227.33,78.55 227.33,79.31C227.33,80.07 227.33,80.83 227.33,81.59C227.33,82.35 227.32,83.11 227.32,83.87C227.32,84.63 227.32,85.38 227.32,86.14C227.32,86.9 227.31,87.66 227.31,88.42C227.3,89.18 227.3,89.94 227.29,90.7C227.28,91.46 227.27,92.22 227.26,92.98C227.25,93.74 227.23,94.5 227.21,95.26C227.19,96.02 227.17,96.78 227.14,97.54C227.11,98.3 227.07,99.06 227.02,99.82C226.97,100.58 226.91,101.34 226.83,102.1C226.75,102.86 226.67,103.62 226.56,104.38C226.45,105.14 226.31,105.9 226.16,106.66C226,107.42 225.84,108.18 225.63,108.94C225.42,109.7 225.19,110.46 224.92,111.22C224.65,111.99 224.35,112.75 224.02,113.5C223.69,114.27 223.32,115.03 222.93,115.78C222.54,116.54 222.11,117.3 221.68,118.05C221.24,118.81 220.77,119.57 220.31,120.33C219.84,121.09 219.36,121.85 218.89,122.61C218.42,123.37 217.94,124.12 217.5,124.89C217.07,125.64 216.64,126.4 216.26,127.17C215.89,127.92 215.53,128.68 215.24,129.45C214.96,130.2 214.71,130.96 214.53,131.73C214.35,132.48 214.23,133.25 214.17,134.01C214.11,134.77 214.12,135.53 214.19,136.29C214.26,137.05 214.4,137.82 214.58,138.57C214.76,139.34 215.01,140.1 215.29,140.85C215.57,141.62 215.91,142.37 216.25,143.13C216.6,143.9 216.98,144.65 217.37,145.41C217.76,146.17 218.18,146.93 218.58,147.69C218.98,148.45 219.4,149.21 219.79,149.97C220.18,150.73 220.57,151.48 220.94,152.24C221.31,153 221.67,153.76 222,154.52C222.33,155.28 222.63,156.04 222.92,156.8C223.2,157.56 223.47,158.32 223.71,159.08C223.95,159.84 224.16,160.6 224.36,161.36C224.56,162.12 224.73,162.88 224.89,163.64C225.05,164.4 225.18,165.16 225.3,165.92C225.42,166.68 225.52,167.44 225.61,168.2C225.7,168.96 225.78,169.72 225.85,170.48C225.92,171.24 225.97,172 226.02,172.76C226.07,173.52 226.1,174.28 226.14,175.04C226.17,175.8 226.21,176.56 226.23,177.32C226.25,178.08 226.26,178.84 226.28,179.6C226.29,180.36 226.31,181.12 226.32,181.88C226.33,182.64 226.34,183.39 226.34,184.15C226.34,184.91 226.34,185.67 226.34,186.43C226.34,187.19 226.34,187.95 226.34,188.71C226.34,189.47 226.33,190.23 226.33,190.99C226.33,191.75 226.32,192.51 226.32,193.27C226.31,194.03 226.31,194.79 226.3,195.55C226.29,196.31 226.29,197.07 226.28,197.83C226.27,198.59 226.27,199.35 226.26,200.11C226.25,200.87 226.25,201.63 226.24,202.39C226.23,203.15 226.22,203.91 226.21,204.67C226.2,205.43 226.19,206.19 226.18,206.95C226.17,207.71 226.16,208.47 226.15,209.23C226.14,209.99 226.13,210.75 226.12,211.51C226.11,212.27 226.1,213.03 226.09,213.79C226.08,214.55 226.07,215.3 226.06,216.06C226.05,216.82 226.04,217.58 226.03,218.34C226.02,219.1 226.01,219.86 226,220.62C225.99,221.38 225.98,222.14 225.97,222.9C225.96,223.66 225.95,224.42 225.94,225.18C225.93,225.94 225.93,226.7 225.92,227.46C225.91,228.22 225.91,228.98 225.9,229.74C225.89,230.5 225.89,231.26 225.88,232.02C225.87,232.78 225.87,233.54 225.86,234.3C225.85,235.06 225.85,235.82 225.84,236.58C225.84,237.34 225.83,238.1 225.83,238.86C225.82,239.62 225.82,240.38 225.81,241.14C225.8,241.9 225.8,242.66 225.79,243.42C225.78,244.18 225.78,244.94 225.77,245.7C225.77,246.46 225.76,247.21 225.76,247.97C225.75,248.73 225.74,249.49 225.74,250.25C225.74,251.01 225.74,251.77 225.74,252.53C225.74,253.29 225.73,254.05 225.73,254.81C225.73,255.57 225.72,256.33 225.72,257.09C225.72,257.85 225.72,258.61 225.72,259.37C225.72,260.13 225.71,260.89 225.71,261.65C225.7,262.41 225.7,263.17 225.69,263.93C225.69,264.69 225.68,265.45 225.68,266.21C225.67,266.97 225.67,267.73 225.66,268.49C225.66,269.25 225.65,270.01 225.65,270.77C225.64,271.53 225.64,272.29 225.63,273.05C225.62,273.81 225.62,274.57 225.61,275.33C225.61,276.09 225.61,276.85 225.6,277.61C225.6,278.37 225.59,279.12 225.58,279.88C225.57,280.64 225.57,281.4 225.56,282.16C225.55,282.92 225.54,283.68 225.53,284.44C225.52,285.2 225.5,285.96 225.49,286.72C225.47,287.48 225.46,288.24 225.44,289C225.42,289.76 225.39,290.52 225.35,291.28C225.31,292.04 225.28,292.8 225.21,293.56C225.14,294.32 225.06,295.08 224.95,295.84C224.84,296.6 224.71,297.36 224.53,298.12C224.35,298.88 224.13,299.65 223.87,300.4C223.61,301.17 223.29,301.93 222.95,302.68C222.61,303.45 222.21,304.2 221.84,304.96C221.46,305.72 221.04,306.47 220.7,307.24C220.36,307.99 220.02,308.75 219.8,309.52C219.59,310.27 219.42,311.03 219.4,311.79C219.38,312.55 219.49,313.32 219.68,314.07C219.88,314.84 220.24,315.6 220.61,316.35C221,317.13 221.51,317.87 221.98,318.63C222.46,319.39 222.99,320.14 223.47,320.91C223.94,321.66 224.42,322.42 224.82,323.19C225.21,323.94 225.57,324.7 225.86,325.47Q226.15,326.22 226.56,327.75Z" style="vector-effect: non-scaling-stroke; stroke-width: 2px; stroke: rgb(44, 160, 44); stroke-opacity: 1; fill: rgb(44, 160, 44); fill-opacity: 0.5;"/></g></g></g><g class="overplot"/><path class="xlines-above crisp" d="M69,365.5H380" style="fill: none; stroke-width: 1px; stroke: rgb(36, 36, 36); stroke-opacity: 1;"/><path class="ylines-above crisp" d="M69.5,20V365" style="fill: none; stroke-width: 1px; stroke: rgb(36, 36, 36); stroke-opacity: 1;"/><g class="overlines-above"/><g class="xaxislayer-above"><path class="xtick ticks crisp" d="M0,366v5" transform="translate(225,0)" style="stroke: rgb(68, 68, 68); stroke-opacity: 1; stroke-width: 1px;"/><g class="xtick"><text text-anchor="middle" x="0" y="385.4" transform="translate(225,0)" style="font-family: 'Open Sans', verdana, arial, sans-serif; font-size: 12px; fill: rgb(36, 36, 36); fill-opacity: 1; white-space: pre;"> </text></g></g><g class="yaxislayer-above"><path class="ytick ticks crisp" d="M69,0h-5" transform="translate(0,333.98)" style="stroke: rgb(68, 68, 68); stroke-opacity: 1; stroke-width: 1px;"/><path class="ytick ticks crisp" d="M69,0h-5" transform="translate(0,245.35)" style="stroke: rgb(68, 68, 68); stroke-opacity: 1; stroke-width: 1px;"/><path class="ytick ticks crisp" d="M69,0h-5" transform="translate(0,156.72)" style="stroke: rgb(68, 68, 68); stroke-opacity: 1; stroke-width: 1px;"/><path class="ytick ticks crisp" d="M69,0h-5" transform="translate(0,68.1)" style="stroke: rgb(68, 68, 68); stroke-opacity: 1; stroke-width: 1px;"/><g class="ytick"><text text-anchor="end" x="61.6" y="4.199999999999999" transform="translate(0,333.98)" style="font-family: 'Open Sans', verdana, arial, sans-serif; font-size: 12px; fill: rgb(36, 36, 36); fill-opacity: 1; white-space: pre;">10</text></g><g class="ytick"><text text-anchor="end" x="61.6" y="4.199999999999999" transform="translate(0,245.35)" style="font-family: 'Open Sans', verdana, arial, sans-serif; font-size: 12px; fill: rgb(36, 36, 36); fill-opacity: 1; white-space: pre;">5</text></g><g class="ytick"><text text-anchor="end" x="61.6" y="4.199999999999999" transform="translate(0,156.72)" style="font-family: 'Open Sans', verdana, arial, sans-serif; font-size: 12px; fill: rgb(36, 36, 36); fill-opacity: 1; white-space: pre;">0</text></g><g class="ytick"><text text-anchor="end" x="61.6" y="4.199999999999999" transform="translate(0,68.1)" style="font-family: 'Open Sans', verdana, arial, sans-serif; font-size: 12px; fill: rgb(36, 36, 36); fill-opacity: 1; white-space: pre;">5</text></g></g><g class="overaxes-above"/></g></g><g class="polarlayer"/><g class="ternarylayer"/><g class="geolayer"/><g class="funnelarealayer"/><g class="pielayer"/><g class="treemaplayer"/><g class="sunburstlayer"/><g class="glimages"/><defs id="topdefs-f55f32"><g class="clips"/><clipPath id="legendf55f32"><rect width="67" height="83" x="0" y="0"/></clipPath></defs><g class="layer-above"><g class="imagelayer"/><g class="shapelayer"/></g><g class="infolayer"><g class="legend" pointer-events="all" transform="translate(318,20)"><rect class="bg" shape-rendering="crispEdges" width="67" height="83" x="0" y="0" style="stroke: rgb(68, 68, 68); stroke-opacity: 1; fill: rgb(255, 255, 255); fill-opacity: 1; stroke-width: 0px;"/><g class="scrollbox" transform="" clip-path="url('#legendf55f32')"><text class="legendtitletext" text-anchor="start" x="2" y="15.600000000000001" style="font-family: 'Open Sans', verdana, arial, sans-serif; font-size: 12px; fill: rgb(36, 36, 36); fill-opacity: 1; white-space: pre;">moa_sum</text><g class="groups" transform=""><g class="traces" transform="translate(0,30.1)" style="opacity: 1;"><text class="legendtext" text-anchor="start" x="40" y="4.680000000000001" style="font-family: 'Open Sans', verdana, arial, sans-serif; font-size: 12px; fill: rgb(36, 36, 36); fill-opacity: 1; white-space: pre;">0</text><g class="layers" style="opacity: 1;"><g class="legendfill"/><g class="legendlines"/><g class="legendsymbols"><g class="legendpoints"><path class="legendbox" d="M6,6H-6V-6H6Z" transform="translate(20,0)" style="stroke-width: 2px; fill: rgb(31, 119, 180); fill-opacity: 0.5; stroke: rgb(31, 119, 180); stroke-opacity: 1;"/></g></g></g><rect class="legendtoggle" x="0" y="-9.5" width="61.671875" height="19" style="fill: rgb(0, 0, 0); fill-opacity: 0;"/></g></g><g class="groups" transform=""><g class="traces" transform="translate(0,49.1)" style="opacity: 1;"><text class="legendtext" text-anchor="start" x="40" y="4.680000000000001" style="font-family: 'Open Sans', verdana, arial, sans-serif; font-size: 12px; fill: rgb(36, 36, 36); fill-opacity: 1; white-space: pre;">1</text><g class="layers" style="opacity: 1;"><g class="legendfill"/><g class="legendlines"/><g class="legendsymbols"><g class="legendpoints"><path class="legendbox" d="M6,6H-6V-6H6Z" transform="translate(20,0)" style="stroke-width: 2px; fill: rgb(255, 127, 14); fill-opacity: 0.5; stroke: rgb(255, 127, 14); stroke-opacity: 1;"/></g></g></g><rect class="legendtoggle" x="0" y="-9.5" width="61.671875" height="19" style="fill: rgb(0, 0, 0); fill-opacity: 0;"/></g></g><g class="groups" transform=""><g class="traces" transform="translate(0,68.1)" style="opacity: 1;"><text class="legendtext" text-anchor="start" x="40" y="4.680000000000001" style="font-family: 'Open Sans', verdana, arial, sans-serif; font-size: 12px; fill: rgb(36, 36, 36); fill-opacity: 1; white-space: pre;">> 2</text><g class="layers" style="opacity: 1;"><g class="legendfill"/><g class="legendlines"/><g class="legendsymbols"><g class="legendpoints"><path class="legendbox" d="M6,6H-6V-6H6Z" transform="translate(20,0)" style="stroke-width: 2px; fill: rgb(44, 160, 44); fill-opacity: 0.5; stroke: rgb(44, 160, 44); stroke-opacity: 1;"/></g></g></g><rect class="legendtoggle" x="0" y="-9.5" width="61.671875" height="19" style="fill: rgb(0, 0, 0); fill-opacity: 0;"/></g></g></g><rect class="scrollbar" rx="20" ry="3" width="0" height="0" x="0" y="0" style="fill: rgb(128, 139, 164); fill-opacity: 1;"/></g><g class="g-gtitle"/><g class="g-xtitle"/><g class="g-ytitle" transform="translate(2.2841796875,0)"><text class="ytitle" transform="rotate(-90,11.715625000000003,192.5)" x="11.715625000000003" y="192.5" text-anchor="middle" style="font-family: 'Open Sans', verdana, arial, sans-serif; font-size: 14px; fill: rgb(36, 36, 36); opacity: 1; font-weight: normal; white-space: pre;">Cell viability</text></g></g></svg>