<svg class="main-svg" xmlns="http://www.w3.org/2000/svg" xmlns:xlink="http://www.w3.org/1999/xlink" width="290" height="400" style="" viewBox="0 0 290 400"><rect x="0" y="0" width="290" height="400" style="fill: rgb(255, 255, 255); fill-opacity: 1;"/><defs id="defs-088c10"><g class="clips"><clipPath id="clip088c10xyplot" class="plotclip"><rect width="200" height="345"/></clipPath><clipPath class="axesclip" id="clip088c10x"><rect x="70" y="0" width="200" height="400"/></clipPath><clipPath class="axesclip" id="clip088c10y"><rect x="0" y="20" width="290" height="345"/></clipPath><clipPath class="axesclip" id="clip088c10xy"><rect x="70" y="20" width="200" height="345"/></clipPath></g><g class="gradients"/></defs><g class="bglayer"/><g class="layer-below"><g class="imagelayer"/><g class="shapelayer"/></g><g class="cartesianlayer"><g class="subplot xy"><g class="layer-subplot"><g class="shapelayer"/><g class="imagelayer"/></g><g class="gridlayer"><g class="x"/><g class="y"/></g><g class="zerolinelayer"/><path class="xlines-below"/><path class="ylines-below"/><g class="overlines-below"/><g class="xaxislayer-below"/><g class="yaxislayer-below"/><g class="overaxes-below"/><g class="plot" transform="translate(70,20)" clip-path="url('#clip088c10xyplot')"><g class="violinlayer mlayer"><g class="trace violins" style="opacity: 1;"><path class="violin" d="M100.36,327.64Q100.56,326.98 100.69,326.66C100.83,326.33 100.99,326 101.17,325.68C101.36,325.35 101.58,325.03 101.8,324.71C102.02,324.38 102.28,324.06 102.5,323.73C102.72,323.41 102.95,323.09 103.13,322.76C103.3,322.44 103.46,322.11 103.56,321.78C103.65,321.46 103.71,321.13 103.7,320.8C103.69,320.48 103.62,320.15 103.53,319.83C103.43,319.5 103.28,319.17 103.13,318.85C102.98,318.52 102.78,318.2 102.61,317.87C102.44,317.55 102.25,317.23 102.09,316.9C101.93,316.58 101.77,316.25 101.64,315.92C101.51,315.6 101.39,315.28 101.29,314.95C101.19,314.63 101.12,314.3 101.05,313.97C100.98,313.64 100.93,313.32 100.88,312.99C100.83,312.67 100.8,312.34 100.77,312.02C100.74,311.69 100.72,311.37 100.7,311.04C100.68,310.71 100.66,310.39 100.65,310.06C100.64,309.74 100.63,309.41 100.62,309.09C100.61,308.76 100.6,308.44 100.59,308.11C100.58,307.79 100.57,307.46 100.57,307.14C100.56,306.81 100.56,306.49 100.56,306.16C100.55,305.83 100.54,305.51 100.54,305.18C100.54,304.86 100.54,304.53 100.54,304.21C100.54,303.88 100.53,303.56 100.53,303.23C100.53,302.9 100.53,302.58 100.53,302.25C100.53,301.93 100.52,301.6 100.52,301.28C100.52,300.95 100.52,300.63 100.52,300.3C100.52,299.98 100.51,299.65 100.51,299.33C100.51,299 100.51,298.68 100.51,298.35C100.51,298.02 100.51,297.7 100.51,297.37C100.51,297.05 100.5,296.72 100.5,296.4C100.5,296.07 100.5,295.75 100.5,295.42C100.5,295.09 100.49,294.77 100.49,294.44C100.49,294.12 100.49,293.79 100.49,293.47C100.49,293.14 100.48,292.82 100.48,292.49C100.48,292.17 100.48,291.84 100.48,291.52C100.48,291.19 100.48,290.87 100.48,290.54C100.48,290.21 100.47,289.89 100.47,289.56C100.47,289.24 100.47,288.91 100.47,288.59C100.47,288.26 100.47,287.94 100.47,287.61C100.47,287.29 100.47,286.96 100.47,286.64C100.47,286.31 100.47,285.99 100.47,285.66C100.47,285.33 100.47,285.01 100.47,284.68C100.47,284.36 100.48,284.03 100.48,283.71C100.48,283.38 100.48,283.06 100.48,282.73C100.48,282.4 100.48,282.08 100.48,281.75C100.48,281.43 100.48,281.1 100.48,280.78C100.48,280.45 100.48,280.13 100.48,279.8C100.48,279.48 100.48,279.15 100.48,278.83C100.48,278.5 100.49,278.18 100.49,277.85C100.49,277.52 100.49,277.2 100.49,276.87C100.49,276.55 100.49,276.22 100.49,275.9C100.49,275.57 100.49,275.25 100.49,274.92C100.49,274.59 100.49,274.27 100.49,273.94C100.49,273.62 100.5,273.29 100.5,272.97C100.5,272.64 100.5,272.32 100.5,271.99C100.5,271.67 100.5,271.34 100.5,271.02C100.5,270.69 100.5,270.37 100.5,270.04C100.5,269.71 100.51,269.39 100.51,269.06C100.51,268.74 100.51,268.41 100.51,268.09C100.51,267.76 100.51,267.44 100.51,267.11C100.51,266.78 100.52,266.46 100.52,266.13C100.52,265.81 100.52,265.48 100.52,265.16C100.52,264.83 100.53,264.51 100.53,264.18C100.53,263.86 100.53,263.53 100.53,263.21C100.53,262.88 100.53,262.56 100.53,262.23C100.53,261.9 100.54,261.58 100.54,261.25C100.54,260.93 100.54,260.6 100.54,260.28C100.54,259.95 100.54,259.63 100.54,259.3C100.54,258.98 100.55,258.65 100.55,258.33C100.55,258 100.55,257.68 100.55,257.35C100.55,257.02 100.55,256.7 100.55,256.37C100.55,256.05 100.56,255.72 100.56,255.4C100.56,255.07 100.56,254.75 100.56,254.42C100.56,254.09 100.57,253.77 100.57,253.44C100.57,253.12 100.57,252.79 100.57,252.47C100.57,252.14 100.57,251.82 100.57,251.49C100.57,251.17 100.58,250.84 100.58,250.52C100.58,250.19 100.58,249.87 100.58,249.54C100.58,249.21 100.58,248.89 100.58,248.56C100.58,248.24 100.59,247.91 100.59,247.59C100.59,247.26 100.59,246.94 100.59,246.61C100.59,246.28 100.6,245.96 100.6,245.63C100.6,245.31 100.6,244.98 100.6,244.66C100.6,244.33 100.6,244.01 100.6,243.68C100.6,243.36 100.61,243.03 100.61,242.71C100.61,242.38 100.61,242.06 100.61,241.73C100.61,241.4 100.62,241.08 100.62,240.75C100.62,240.43 100.62,240.1 100.62,239.78C100.62,239.45 100.63,239.13 100.63,238.8C100.63,238.47 100.63,238.15 100.64,237.82C100.64,237.5 100.66,237.17 100.66,236.85C100.67,236.52 100.67,236.2 100.67,235.87C100.67,235.55 100.68,235.22 100.68,234.9C100.68,234.57 100.69,234.25 100.69,233.92C100.69,233.59 100.69,233.27 100.69,232.94C100.69,232.62 100.7,232.29 100.7,231.97C100.7,231.64 100.7,231.32 100.7,230.99C100.7,230.66 100.71,230.34 100.71,230.01C100.71,229.69 100.72,229.36 100.72,229.04C100.72,228.71 100.72,228.39 100.72,228.06C100.72,227.74 100.74,227.41 100.74,227.09C100.75,226.76 100.75,226.44 100.75,226.11C100.75,225.78 100.76,225.46 100.76,225.13C100.76,224.81 100.77,224.48 100.77,224.16C100.78,223.83 100.78,223.51 100.79,223.18C100.79,222.86 100.8,222.53 100.8,222.21C100.8,221.88 100.81,221.56 100.81,221.23C100.81,220.9 100.82,220.58 100.82,220.25C100.82,219.93 100.83,219.6 100.83,219.28C100.83,218.95 100.84,218.63 100.84,218.3C100.84,217.97 100.85,217.65 100.85,217.32C100.85,217 100.86,216.67 100.86,216.35C100.86,216.02 100.87,215.7 100.87,215.37C100.87,215.05 100.88,214.72 100.88,214.4C100.88,214.07 100.88,213.75 100.88,213.42C100.88,213.09 100.89,212.77 100.89,212.44C100.89,212.12 100.9,211.79 100.9,211.47C100.9,211.14 100.91,210.82 100.91,210.49C100.91,210.16 100.92,209.84 100.92,209.51C100.92,209.19 100.93,208.86 100.93,208.54C100.94,208.21 100.94,207.89 100.95,207.56C100.95,207.24 100.96,206.91 100.96,206.59C100.97,206.26 100.97,205.94 100.98,205.61C100.98,205.28 100.98,204.96 100.99,204.63C100.99,204.31 101,203.98 101.01,203.66C101.02,203.33 101.02,203.01 101.03,202.68C101.04,202.35 101.04,202.03 101.05,201.7C101.06,201.38 101.06,201.05 101.07,200.73C101.08,200.4 101.08,200.08 101.09,199.75C101.1,199.43 101.1,199.1 101.11,198.78C101.12,198.45 101.13,198.13 101.14,197.8C101.15,197.47 101.15,197.15 101.16,196.82C101.17,196.5 101.18,196.17 101.19,195.85C101.2,195.52 101.21,195.2 101.22,194.87C101.23,194.54 101.24,194.22 101.25,193.89C101.26,193.57 101.27,193.24 101.28,192.92C101.29,192.59 101.31,192.27 101.32,191.94C101.33,191.62 101.35,191.29 101.36,190.97C101.37,190.64 101.39,190.32 101.4,189.99C101.41,189.66 101.43,189.34 101.44,189.01C101.45,188.69 101.47,188.36 101.48,188.04C101.49,187.71 101.5,187.39 101.52,187.06C101.53,186.74 101.55,186.41 101.57,186.09C101.59,185.76 101.61,185.44 101.63,185.11C101.65,184.78 101.67,184.46 101.69,184.13C101.71,183.81 101.74,183.48 101.76,183.16C101.79,182.83 101.81,182.51 101.84,182.18C101.87,181.85 101.9,181.53 101.93,181.2C101.96,180.88 101.99,180.55 102.02,180.23C102.05,179.9 102.09,179.58 102.13,179.25C102.17,178.93 102.21,178.6 102.25,178.28C102.29,177.95 102.34,177.63 102.39,177.3C102.44,176.97 102.49,176.65 102.55,176.32C102.61,176 102.67,175.67 102.73,175.35C102.79,175.02 102.86,174.7 102.93,174.37C103,174.04 103.08,173.72 103.16,173.39C103.24,173.07 103.33,172.74 103.42,172.42C103.51,172.09 103.61,171.76 103.71,171.44C103.81,171.11 103.92,170.79 104.04,170.47C104.16,170.14 104.28,169.82 104.41,169.49C104.54,169.16 104.68,168.83 104.83,168.51C104.98,168.18 105.13,167.86 105.3,167.54C105.47,167.21 105.64,166.88 105.83,166.56C106.02,166.23 106.22,165.9 106.43,165.58C106.64,165.25 106.87,164.93 107.1,164.61C107.34,164.28 107.59,163.95 107.85,163.63C108.12,163.3 108.4,162.98 108.69,162.66C108.99,162.33 109.31,162 109.63,161.68C109.96,161.35 110.3,161.02 110.66,160.7C111.02,160.37 111.4,160.05 111.79,159.73C112.19,159.4 112.6,159.07 113.03,158.75C113.47,158.42 113.92,158.1 114.38,157.78C114.85,157.45 115.34,157.12 115.84,156.8C116.35,156.47 116.87,156.14 117.4,155.82C117.94,155.49 118.5,155.17 119.07,154.85C119.65,154.52 120.24,154.19 120.84,153.87C121.45,153.54 122.08,153.21 122.71,152.89C123.35,152.56 124.01,152.24 124.67,151.92C125.34,151.59 126.02,151.26 126.71,150.94C127.4,150.61 128.11,150.29 128.81,149.97C129.52,149.64 130.23,149.32 130.94,148.99C131.65,148.66 132.37,148.34 133.08,148.01C133.79,147.69 134.5,147.37 135.2,147.04C135.9,146.72 136.59,146.39 137.27,146.06C137.94,145.74 138.61,145.41 139.26,145.08C139.89,144.76 140.52,144.44 141.13,144.11C141.72,143.79 142.29,143.46 142.85,143.13C143.38,142.81 143.91,142.49 144.4,142.16C144.87,141.84 145.32,141.52 145.74,141.18C146.14,140.86 146.51,140.54 146.85,140.2C147.16,139.89 147.46,139.57 147.7,139.23C147.92,138.92 148.12,138.59 148.25,138.25C148.37,137.93 148.46,137.6 148.48,137.27C148.5,136.95 148.46,136.62 148.38,136.3C148.29,135.97 148.14,135.63 147.95,135.32C147.75,134.98 147.47,134.66 147.18,134.35C146.86,134.01 146.49,133.69 146.09,133.37C145.66,133.03 145.19,132.71 144.69,132.39C144.16,132.05 143.59,131.74 143.01,131.42C142.39,131.09 141.74,130.76 141.08,130.44C140.39,130.11 139.66,129.78 138.93,129.46C138.17,129.13 137.39,128.81 136.6,128.49C135.79,128.16 134.95,127.83 134.11,127.51C133.26,127.18 132.39,126.86 131.52,126.54C130.64,126.21 129.76,125.89 128.88,125.56C128,125.23 127.11,124.91 126.23,124.58C125.35,124.26 124.47,123.94 123.61,123.61C122.76,123.29 121.91,122.96 121.08,122.63C120.26,122.31 119.45,121.99 118.66,121.66C117.89,121.34 117.12,121.01 116.38,120.68C115.66,120.36 114.96,120.03 114.27,119.7C113.61,119.38 112.96,119.06 112.33,118.73C111.73,118.41 111.14,118.08 110.57,117.75C110.03,117.43 109.5,117.1 108.99,116.77C108.51,116.45 108.04,116.13 107.59,115.8C107.16,115.48 106.76,115.15 106.37,114.82C106,114.5 105.64,114.18 105.31,113.85C104.99,113.53 104.69,113.2 104.4,112.87C104.12,112.55 103.86,112.22 103.62,111.89C103.39,111.57 103.17,111.25 102.97,110.92C102.77,110.6 102.59,110.27 102.42,109.94C102.26,109.62 102.11,109.29 101.97,108.96C101.83,108.64 101.71,108.32 101.6,107.99C101.49,107.67 101.38,107.34 101.29,107.01C101.2,106.69 101.12,106.36 101.05,106.04C100.97,105.71 100.9,105.39 100.84,105.06C100.78,104.73 100.73,104.41 100.68,104.08C100.63,103.76 100.59,103.43 100.55,103.11C100.51,102.78 100.48,102.46 100.45,102.13C100.42,101.8 100.39,101.48 100.36,101.15C100.34,100.83 100.32,100.5 100.3,100.18C100.28,99.85 100.27,99.53 100.25,99.2C100.24,98.88 100.22,98.55 100.21,98.23C100.2,97.9 100.18,97.58 100.17,97.25C100.16,96.92 100.16,96.6 100.15,96.27C100.14,95.95 100.14,95.62 100.13,95.3C100.12,94.97 100.12,94.65 100.11,94.32C100.11,94 100.1,93.67 100.1,93.35C100.09,93.02 100.09,92.7 100.08,92.37C100.08,92.04 100.07,91.72 100.07,91.39C100.07,91.07 100.07,90.74 100.07,90.42C100.07,90.09 100.06,89.77 100.06,89.44C100.06,89.11 100.06,88.79 100.06,88.46C100.06,88.14 100.05,87.81 100.05,87.49C100.05,87.16 100.05,86.84 100.05,86.51C100.05,86.19 100.04,85.86 100.04,85.54C100.04,85.21 100.04,84.89 100.04,84.56C100.04,84.23 100.03,83.91 100.03,83.58C100.03,83.26 100.03,82.93 100.03,82.61C100.03,82.28 100.03,81.96 100.03,81.63C100.03,81.3 100.03,80.98 100.03,80.65C100.03,80.33 100.03,80 100.03,79.68C100.03,79.35 100.02,79.03 100.02,78.7C100.02,78.38 100.02,78.05 100.02,77.73C100.02,77.4 100.02,77.08 100.02,76.75C100.02,76.42 100.02,76.1 100.02,75.77C100.02,75.45 100.02,75.12 100.02,74.8C100.02,74.47 100.02,74.15 100.02,73.82C100.02,73.49 100.02,73.17 100.02,72.84C100.02,72.52 100.01,72.19 100.01,71.87C100.01,71.54 100.01,71.22 100.01,70.89C100.01,70.57 100.01,70.24 100.01,69.92C100.01,69.59 100.01,69.27 100.01,68.94C100.01,68.61 100.01,68.29 100.01,67.96C100.01,67.64 100.01,67.31 100.01,66.99C100.01,66.66 100.01,66.34 100.01,66.01C100.01,65.68 100.01,65.36 100.01,65.03C100.01,64.71 100.01,64.38 100.01,64.06C100.01,63.73 100.01,63.41 100.01,63.08C100.01,62.76 100.01,62.43 100.01,62.11C100.01,61.78 100.01,61.46 100.01,61.13C100.01,60.8 100.01,60.48 100.01,60.15C100.01,59.83 100.01,59.5 100.01,59.18C100.01,58.85 100.01,58.53 100.01,58.2C100.01,57.88 100,57.55 100,57.23C100,56.9 100,56.58 100,56.25C100,55.92 100,55.6 100,55.27C100,54.95 100,54.62 100,54.3C100,53.97 100,53.65 100,53.32C100,52.99 100,52.67 100,52.34C100,52.02 100,51.69 100,51.37C100,51.04 100,50.72 100,50.39C100,50.07 100,49.74 100,49.42C100,49.09 100,48.77 100,48.44C100,48.11 100,47.79 100,47.46C100,47.14 100,46.81 100,46.49C100,46.16 100,45.84 100,45.51C100,45.18 100,44.86 100,44.53C100,44.21 100,43.88 100,43.56C100,43.23 100,42.91 100,42.58C100,42.26 100,41.93 100,41.61C100,41.28 100,40.96 100,40.63C100,40.3 100,39.98 100,39.65C100,39.33 100,39 100,38.68C100,38.35 100,38.03 100,37.7C100,37.37 100,37.05 100,36.72C100,36.4 100,36.07 100,35.75C100,35.42 100,35.1 100,34.77C100,34.45 100,34.12 100,33.8C100,33.47 100,33.15 100,32.82C100,32.49 100,32.17 100,31.84C100,31.52 100,31.19 100,30.87C100,30.54 100,30.22 100,29.89C100,29.57 100,29.24 100,28.92C100,28.59 100,28.27 100,27.94C100,27.61 100,27.29 100,26.96C100,26.64 100,26.31 100,25.99C100,25.66 100,25.34 100,25.01C100,24.68 100,24.36 100,24.03Q100,23.71 100,23.06L100,23.06Q100,23.71 100,24.03C100,24.36 100,24.68 100,25.01C100,25.34 100,25.66 100,25.99C100,26.31 100,26.64 100,26.96C100,27.29 100,27.61 100,27.94C100,28.27 100,28.59 100,28.92C100,29.24 100,29.57 100,29.89C100,30.22 100,30.54 100,30.87C100,31.19 100,31.52 100,31.84C100,32.17 100,32.49 100,32.82C100,33.15 100,33.47 100,33.8C100,34.12 100,34.45 100,34.77C100,35.1 100,35.42 100,35.75C100,36.07 100,36.4 100,36.72C100,37.05 100,37.37 100,37.7C100,38.03 100,38.35 100,38.68C100,39 100,39.33 100,39.65C100,39.98 100,40.3 100,40.63C100,40.96 100,41.28 100,41.61C100,41.93 100,42.26 100,42.58C100,42.91 100,43.23 100,43.56C100,43.88 100,44.21 100,44.53C100,44.86 100,45.18 100,45.51C100,45.84 100,46.16 100,46.49C100,46.81 100,47.14 100,47.46C100,47.79 100,48.11 100,48.44C100,48.77 100,49.09 100,49.42C100,49.74 100,50.07 100,50.39C100,50.72 100,51.04 100,51.37C100,51.69 100,52.02 100,52.34C100,52.67 100,52.99 100,53.32C100,53.65 100,53.97 100,54.3C100,54.62 100,54.95 100,55.27C100,55.6 100,55.92 100,56.25C100,56.58 100,56.9 100,57.23C100,57.55 99.99,57.88 99.99,58.2C99.99,58.53 99.99,58.85 99.99,59.18C99.99,59.5 99.99,59.83 99.99,60.15C99.99,60.48 99.99,60.8 99.99,61.13C99.99,61.46 99.99,61.78 99.99,62.11C99.99,62.43 99.99,62.76 99.99,63.08C99.99,63.41 99.99,63.73 99.99,64.06C99.99,64.38 99.99,64.71 99.99,65.03C99.99,65.36 99.99,65.68 99.99,66.01C99.99,66.34 99.99,66.66 99.99,66.99C99.99,67.31 99.99,67.64 99.99,67.96C99.99,68.29 99.99,68.61 99.99,68.94C99.99,69.27 99.99,69.59 99.99,69.92C99.99,70.24 99.99,70.57 99.99,70.89C99.99,71.22 99.99,71.54 99.99,71.87C99.99,72.19 99.98,72.52 99.98,72.84C99.98,73.17 99.98,73.49 99.98,73.82C99.98,74.15 99.98,74.47 99.98,74.8C99.98,75.12 99.98,75.45 99.98,75.77C99.98,76.1 99.98,76.42 99.98,76.75C99.98,77.08 99.98,77.4 99.98,77.73C99.98,78.05 99.98,78.38 99.98,78.7C99.98,79.03 99.97,79.35 99.97,79.68C99.97,80 99.97,80.33 99.97,80.65C99.97,80.98 99.97,81.3 99.97,81.63C99.97,81.96 99.97,82.28 99.97,82.61C99.97,82.93 99.97,83.26 99.97,83.58C99.97,83.91 99.96,84.23 99.96,84.56C99.96,84.89 99.96,85.21 99.96,85.54C99.96,85.86 99.95,86.19 99.95,86.51C99.95,86.84 99.95,87.16 99.95,87.49C99.95,87.81 99.94,88.14 99.94,88.46C99.94,88.79 99.94,89.11 99.94,89.44C99.94,89.77 99.93,90.09 99.93,90.42C99.93,90.74 99.93,91.07 99.93,91.39C99.93,91.72 99.92,92.04 99.92,92.37C99.91,92.7 99.91,93.02 99.9,93.35C99.9,93.67 99.89,94 99.89,94.32C99.88,94.65 99.88,94.97 99.87,95.3C99.86,95.62 99.86,95.95 99.85,96.27C99.84,96.6 99.84,96.92 99.83,97.25C99.82,97.58 99.8,97.9 99.79,98.23C99.78,98.55 99.76,98.88 99.75,99.2C99.73,99.53 99.72,99.85 99.7,100.18C99.68,100.5 99.66,100.83 99.64,101.15C99.61,101.48 99.58,101.8 99.55,102.13C99.52,102.46 99.49,102.78 99.45,103.11C99.41,103.43 99.37,103.76 99.32,104.08C99.27,104.41 99.22,104.73 99.16,105.06C99.1,105.39 99.03,105.71 98.95,106.04C98.88,106.36 98.8,106.69 98.71,107.01C98.62,107.34 98.51,107.67 98.4,107.99C98.29,108.32 98.17,108.64 98.03,108.96C97.89,109.29 97.74,109.62 97.58,109.94C97.41,110.27 97.23,110.6 97.03,110.92C96.83,111.25 96.61,111.57 96.38,111.89C96.14,112.22 95.88,112.55 95.6,112.87C95.31,113.2 95.01,113.53 94.69,113.85C94.36,114.18 94,114.5 93.63,114.82C93.24,115.15 92.84,115.48 92.41,115.8C91.96,116.13 91.49,116.45 91.01,116.77C90.5,117.1 89.97,117.43 89.43,117.75C88.86,118.08 88.27,118.41 87.67,118.73C87.04,119.06 86.39,119.38 85.73,119.7C85.04,120.03 84.34,120.36 83.62,120.68C82.88,121.01 82.11,121.34 81.34,121.66C80.55,121.99 79.74,122.31 78.92,122.63C78.09,122.96 77.24,123.29 76.39,123.61C75.53,123.94 74.65,124.26 73.77,124.58C72.89,124.91 72,125.23 71.12,125.56C70.24,125.89 69.36,126.21 68.48,126.54C67.61,126.86 66.74,127.18 65.89,127.51C65.05,127.83 64.21,128.16 63.4,128.49C62.61,128.81 61.83,129.13 61.07,129.46C60.34,129.78 59.61,130.11 58.92,130.44C58.26,130.76 57.61,131.09 56.99,131.42C56.41,131.74 55.84,132.05 55.31,132.39C54.81,132.71 54.34,133.03 53.91,133.37C53.51,133.69 53.14,134.01 52.82,134.35C52.53,134.66 52.25,134.98 52.05,135.32C51.86,135.63 51.71,135.97 51.62,136.3C51.54,136.62 51.5,136.95 51.52,137.27C51.54,137.6 51.63,137.93 51.75,138.25C51.88,138.59 52.08,138.92 52.3,139.23C52.54,139.57 52.84,139.89 53.15,140.2C53.49,140.54 53.86,140.86 54.26,141.18C54.68,141.52 55.13,141.84 55.6,142.16C56.09,142.49 56.62,142.81 57.15,143.13C57.71,143.46 58.28,143.79 58.87,144.11C59.48,144.44 60.11,144.76 60.74,145.08C61.39,145.41 62.06,145.74 62.73,146.06C63.41,146.39 64.1,146.72 64.8,147.04C65.5,147.37 66.21,147.69 66.92,148.01C67.63,148.34 68.35,148.66 69.06,148.99C69.77,149.32 70.48,149.64 71.19,149.97C71.89,150.29 72.6,150.61 73.29,150.94C73.98,151.26 74.66,151.59 75.33,151.92C75.99,152.24 76.65,152.56 77.29,152.89C77.92,153.21 78.55,153.54 79.16,153.87C79.76,154.19 80.35,154.52 80.93,154.85C81.5,155.17 82.06,155.49 82.6,155.82C83.13,156.14 83.65,156.47 84.16,156.8C84.66,157.12 85.15,157.45 85.62,157.78C86.08,158.1 86.53,158.42 86.97,158.75C87.4,159.07 87.81,159.4 88.21,159.73C88.6,160.05 88.98,160.37 89.34,160.7C89.7,161.02 90.04,161.35 90.37,161.68C90.69,162 91.01,162.33 91.31,162.66C91.6,162.98 91.88,163.3 92.15,163.63C92.41,163.95 92.66,164.28 92.9,164.61C93.13,164.93 93.36,165.25 93.57,165.58C93.78,165.9 93.98,166.23 94.17,166.56C94.36,166.88 94.53,167.21 94.7,167.54C94.87,167.86 95.02,168.18 95.17,168.51C95.32,168.83 95.46,169.16 95.59,169.49C95.72,169.82 95.84,170.14 95.96,170.47C96.08,170.79 96.19,171.11 96.29,171.44C96.39,171.76 96.49,172.09 96.58,172.42C96.67,172.74 96.76,173.07 96.84,173.39C96.92,173.72 97,174.04 97.07,174.37C97.14,174.7 97.21,175.02 97.27,175.35C97.33,175.67 97.39,176 97.45,176.32C97.51,176.65 97.56,176.97 97.61,177.3C97.66,177.63 97.71,177.95 97.75,178.28C97.79,178.6 97.83,178.93 97.87,179.25C97.91,179.58 97.95,179.9 97.98,180.23C98.01,180.55 98.04,180.88 98.07,181.2C98.1,181.53 98.13,181.85 98.16,182.18C98.19,182.51 98.21,182.83 98.24,183.16C98.26,183.48 98.29,183.81 98.31,184.13C98.33,184.46 98.35,184.78 98.37,185.11C98.39,185.44 98.41,185.76 98.43,186.09C98.45,186.41 98.47,186.74 98.48,187.06C98.5,187.39 98.51,187.71 98.52,188.04C98.53,188.36 98.55,188.69 98.56,189.01C98.57,189.34 98.59,189.66 98.6,189.99C98.61,190.32 98.63,190.64 98.64,190.97C98.65,191.29 98.67,191.62 98.68,191.94C98.69,192.27 98.71,192.59 98.72,192.92C98.73,193.24 98.74,193.57 98.75,193.89C98.76,194.22 98.77,194.54 98.78,194.87C98.79,195.2 98.8,195.52 98.81,195.85C98.82,196.17 98.83,196.5 98.84,196.82C98.85,197.15 98.85,197.47 98.86,197.8C98.87,198.13 98.88,198.45 98.89,198.78C98.9,199.1 98.9,199.43 98.91,199.75C98.92,200.08 98.92,200.4 98.93,200.73C98.94,201.05 98.94,201.38 98.95,201.7C98.96,202.03 98.96,202.35 98.97,202.68C98.98,203.01 98.98,203.33 98.99,203.66C99,203.98 99.01,204.31 99.01,204.63C99.02,204.96 99.02,205.28 99.02,205.61C99.03,205.94 99.03,206.26 99.04,206.59C99.04,206.91 99.05,207.24 99.05,207.56C99.06,207.89 99.06,208.21 99.07,208.54C99.07,208.86 99.08,209.19 99.08,209.51C99.08,209.84 99.09,210.16 99.09,210.49C99.09,210.82 99.1,211.14 99.1,211.47C99.1,211.79 99.11,212.12 99.11,212.44C99.11,212.77 99.12,213.09 99.12,213.42C99.12,213.75 99.12,214.07 99.12,214.4C99.12,214.72 99.13,215.05 99.13,215.37C99.13,215.7 99.14,216.02 99.14,216.35C99.14,216.67 99.15,217 99.15,217.32C99.15,217.65 99.16,217.97 99.16,218.3C99.16,218.63 99.17,218.95 99.17,219.28C99.17,219.6 99.18,219.93 99.18,220.25C99.18,220.58 99.19,220.9 99.19,221.23C99.19,221.56 99.2,221.88 99.2,222.21C99.2,222.53 99.21,222.86 99.21,223.18C99.22,223.51 99.22,223.83 99.23,224.16C99.23,224.48 99.24,224.81 99.24,225.13C99.24,225.46 99.25,225.78 99.25,226.11C99.25,226.44 99.25,226.76 99.26,227.09C99.26,227.41 99.28,227.74 99.28,228.06C99.28,228.39 99.28,228.71 99.28,229.04C99.28,229.36 99.29,229.69 99.29,230.01C99.29,230.34 99.3,230.66 99.3,230.99C99.3,231.32 99.3,231.64 99.3,231.97C99.3,232.29 99.31,232.62 99.31,232.94C99.31,233.27 99.31,233.59 99.31,233.92C99.31,234.25 99.32,234.57 99.32,234.9C99.32,235.22 99.33,235.55 99.33,235.87C99.33,236.2 99.33,236.52 99.34,236.85C99.34,237.17 99.36,237.5 99.36,237.82C99.37,238.15 99.37,238.47 99.37,238.8C99.37,239.13 99.38,239.45 99.38,239.78C99.38,240.1 99.38,240.43 99.38,240.75C99.38,241.08 99.39,241.4 99.39,241.73C99.39,242.06 99.39,242.38 99.39,242.71C99.39,243.03 99.4,243.36 99.4,243.68C99.4,244.01 99.4,244.33 99.4,244.66C99.4,244.98 99.4,245.31 99.4,245.63C99.4,245.96 99.41,246.28 99.41,246.61C99.41,246.94 99.41,247.26 99.41,247.59C99.41,247.91 99.42,248.24 99.42,248.56C99.42,248.89 99.42,249.21 99.42,249.54C99.42,249.87 99.42,250.19 99.42,250.52C99.42,250.84 99.43,251.17 99.43,251.49C99.43,251.82 99.43,252.14 99.43,252.47C99.43,252.79 99.43,253.12 99.43,253.44C99.43,253.77 99.44,254.09 99.44,254.42C99.44,254.75 99.44,255.07 99.44,255.4C99.44,255.72 99.45,256.05 99.45,256.37C99.45,256.7 99.45,257.02 99.45,257.35C99.45,257.68 99.45,258 99.45,258.33C99.45,258.65 99.46,258.98 99.46,259.3C99.46,259.63 99.46,259.95 99.46,260.28C99.46,260.6 99.46,260.93 99.46,261.25C99.46,261.58 99.47,261.9 99.47,262.23C99.47,262.56 99.47,262.88 99.47,263.21C99.47,263.53 99.47,263.86 99.47,264.18C99.47,264.51 99.48,264.83 99.48,265.16C99.48,265.48 99.48,265.81 99.48,266.13C99.48,266.46 99.49,266.78 99.49,267.11C99.49,267.44 99.49,267.76 99.49,268.09C99.49,268.41 99.49,268.74 99.49,269.06C99.49,269.39 99.5,269.71 99.5,270.04C99.5,270.37 99.5,270.69 99.5,271.02C99.5,271.34 99.5,271.67 99.5,271.99C99.5,272.32 99.5,272.64 99.5,272.97C99.5,273.29 99.51,273.62 99.51,273.94C99.51,274.27 99.51,274.59 99.51,274.92C99.51,275.25 99.51,275.57 99.51,275.9C99.51,276.22 99.51,276.55 99.51,276.87C99.51,277.2 99.51,277.52 99.51,277.85C99.51,278.18 99.52,278.5 99.52,278.83C99.52,279.15 99.52,279.48 99.52,279.8C99.52,280.13 99.52,280.45 99.52,280.78C99.52,281.1 99.52,281.43 99.52,281.75C99.52,282.08 99.52,282.4 99.52,282.73C99.52,283.06 99.52,283.38 99.52,283.71C99.52,284.03 99.53,284.36 99.53,284.68C99.53,285.01 99.53,285.33 99.53,285.66C99.53,285.99 99.53,286.31 99.53,286.64C99.53,286.96 99.53,287.29 99.53,287.61C99.53,287.94 99.53,288.26 99.53,288.59C99.53,288.91 99.53,289.24 99.53,289.56C99.53,289.89 99.52,290.21 99.52,290.54C99.52,290.87 99.52,291.19 99.52,291.52C99.52,291.84 99.52,292.17 99.52,292.49C99.52,292.82 99.51,293.14 99.51,293.47C99.51,293.79 99.51,294.12 99.51,294.44C99.51,294.77 99.5,295.09 99.5,295.42C99.5,295.75 99.5,296.07 99.5,296.4C99.5,296.72 99.49,297.05 99.49,297.37C99.49,297.7 99.49,298.02 99.49,298.35C99.49,298.68 99.49,299 99.49,299.33C99.49,299.65 99.48,299.98 99.48,300.3C99.48,300.63 99.48,300.95 99.48,301.28C99.48,301.6 99.47,301.93 99.47,302.25C99.47,302.58 99.47,302.9 99.47,303.23C99.47,303.56 99.46,303.88 99.46,304.21C99.46,304.53 99.46,304.86 99.46,305.18C99.46,305.51 99.45,305.83 99.44,306.16C99.44,306.49 99.44,306.81 99.43,307.14C99.43,307.46 99.42,307.79 99.41,308.11C99.4,308.44 99.39,308.76 99.38,309.09C99.37,309.41 99.36,309.74 99.35,310.06C99.34,310.39 99.32,310.71 99.3,311.04C99.28,311.37 99.26,311.69 99.23,312.02C99.2,312.34 99.17,312.67 99.12,312.99C99.07,313.32 99.02,313.64 98.95,313.97C98.88,314.3 98.81,314.63 98.71,314.95C98.61,315.28 98.49,315.6 98.36,315.92C98.23,316.25 98.07,316.58 97.91,316.9C97.75,317.23 97.56,317.55 97.39,317.87C97.22,318.2 97.02,318.52 96.87,318.85C96.72,319.17 96.57,319.5 96.47,319.83C96.38,320.15 96.31,320.48 96.3,320.8C96.29,321.13 96.35,321.46 96.44,321.78C96.54,322.11 96.7,322.44 96.87,322.76C97.05,323.09 97.28,323.41 97.5,323.73C97.72,324.06 97.98,324.38 98.2,324.71C98.42,325.03 98.64,325.35 98.83,325.68C99.01,326 99.17,326.33 99.31,326.66Q99.44,326.98 99.64,327.64Z" style="vector-effect: non-scaling-stroke; stroke-width: 2px; stroke: rgb(31, 119, 180); stroke-opacity: 1; fill: rgb(31, 119, 180); fill-opacity: 0.5;"/></g><g class="trace violins" style="opacity: 1;"><path class="violin" d="M100.21,327.75Q100.32,327.09 100.4,326.76C100.48,326.43 100.57,326.1 100.68,325.77C100.79,325.44 100.92,325.1 101.05,324.77C101.18,324.44 101.34,324.11 101.47,323.78C101.6,323.45 101.74,323.12 101.85,322.79C101.96,322.46 102.07,322.13 102.14,321.8C102.21,321.47 102.25,321.14 102.27,320.81C102.29,320.48 102.26,320.14 102.23,319.81C102.2,319.48 102.13,319.15 102.06,318.82C101.99,318.49 101.9,318.16 101.81,317.83C101.72,317.5 101.63,317.17 101.54,316.84C101.45,316.51 101.36,316.18 101.28,315.85C101.2,315.52 101.14,315.18 101.07,314.85C101.01,314.52 100.94,314.19 100.89,313.86C100.84,313.53 100.8,313.2 100.76,312.87C100.72,312.54 100.69,312.21 100.66,311.88C100.63,311.55 100.61,311.22 100.59,310.89C100.57,310.56 100.55,310.22 100.54,309.89C100.53,309.56 100.52,309.23 100.51,308.9C100.5,308.57 100.5,308.24 100.49,307.91C100.49,307.58 100.48,307.25 100.48,306.92C100.48,306.59 100.47,306.26 100.47,305.93C100.47,305.6 100.46,305.26 100.46,304.93C100.46,304.6 100.45,304.27 100.45,303.94C100.45,303.61 100.45,303.28 100.45,302.95C100.45,302.62 100.44,302.29 100.44,301.96C100.44,301.63 100.43,301.3 100.43,300.97C100.43,300.64 100.43,300.3 100.43,299.97C100.43,299.64 100.42,299.31 100.42,298.98C100.42,298.65 100.42,298.32 100.42,297.99C100.42,297.66 100.42,297.33 100.42,297C100.42,296.67 100.42,296.34 100.42,296.01C100.42,295.68 100.42,295.34 100.42,295.01C100.42,294.68 100.42,294.35 100.42,294.02C100.42,293.69 100.42,293.36 100.42,293.03C100.42,292.7 100.42,292.37 100.42,292.04C100.42,291.71 100.42,291.38 100.42,291.05C100.42,290.72 100.42,290.38 100.42,290.05C100.42,289.72 100.42,289.39 100.42,289.06C100.42,288.73 100.42,288.4 100.42,288.07C100.42,287.74 100.42,287.41 100.42,287.08C100.42,286.75 100.42,286.42 100.42,286.09C100.42,285.76 100.42,285.42 100.42,285.09C100.42,284.76 100.42,284.43 100.42,284.1C100.42,283.77 100.42,283.44 100.42,283.11C100.42,282.78 100.43,282.45 100.43,282.12C100.43,281.79 100.43,281.46 100.43,281.13C100.43,280.8 100.43,280.46 100.43,280.13C100.43,279.8 100.43,279.47 100.43,279.14C100.43,278.81 100.43,278.48 100.43,278.15C100.43,277.82 100.43,277.49 100.43,277.16C100.43,276.83 100.43,276.5 100.43,276.17C100.43,275.84 100.43,275.5 100.43,275.17C100.43,274.84 100.43,274.51 100.43,274.18C100.43,273.85 100.43,273.52 100.43,273.19C100.43,272.86 100.43,272.53 100.43,272.2C100.43,271.87 100.44,271.54 100.44,271.21C100.44,270.88 100.44,270.54 100.44,270.21C100.44,269.88 100.44,269.55 100.44,269.22C100.44,268.89 100.44,268.56 100.44,268.23C100.44,267.9 100.43,267.57 100.43,267.24C100.43,266.91 100.43,266.58 100.43,266.25C100.43,265.92 100.43,265.58 100.43,265.25C100.43,264.92 100.43,264.59 100.43,264.26C100.43,263.93 100.43,263.6 100.43,263.27C100.43,262.94 100.44,262.61 100.44,262.28C100.44,261.95 100.44,261.62 100.44,261.29C100.44,260.96 100.45,260.62 100.45,260.29C100.45,259.96 100.46,259.63 100.46,259.3C100.46,258.97 100.47,258.64 100.47,258.31C100.47,257.98 100.47,257.65 100.47,257.32C100.47,256.99 100.48,256.66 100.48,256.33C100.48,256 100.49,255.66 100.49,255.33C100.49,255 100.5,254.67 100.5,254.34C100.5,254.01 100.5,253.68 100.5,253.35C100.5,253.02 100.5,252.69 100.5,252.36C100.5,252.03 100.5,251.7 100.5,251.37C100.5,251.04 100.5,250.7 100.5,250.37C100.5,250.04 100.5,249.71 100.5,249.38C100.5,249.05 100.5,248.72 100.5,248.39C100.5,248.06 100.5,247.73 100.5,247.4C100.5,247.07 100.5,246.73 100.5,246.4C100.5,246.07 100.5,245.74 100.5,245.41C100.5,245.08 100.51,244.75 100.51,244.42C100.51,244.09 100.51,243.76 100.51,243.43C100.51,243.1 100.52,242.77 100.52,242.44C100.52,242.11 100.52,241.77 100.52,241.44C100.52,241.11 100.52,240.78 100.52,240.45C100.52,240.12 100.53,239.79 100.53,239.46C100.53,239.13 100.54,238.8 100.54,238.47C100.54,238.14 100.54,237.81 100.54,237.48C100.54,237.15 100.55,236.81 100.55,236.48C100.55,236.15 100.56,235.82 100.56,235.49C100.56,235.16 100.56,234.83 100.56,234.5C100.56,234.17 100.57,233.84 100.57,233.51C100.57,233.18 100.57,232.85 100.57,232.52C100.57,232.19 100.57,231.85 100.57,231.52C100.57,231.19 100.57,230.86 100.57,230.53C100.57,230.2 100.58,229.87 100.58,229.54C100.58,229.21 100.58,228.88 100.58,228.55C100.58,228.22 100.58,227.89 100.58,227.56C100.58,227.23 100.58,226.89 100.58,226.56C100.58,226.23 100.58,225.9 100.58,225.57C100.58,225.24 100.59,224.91 100.59,224.58C100.59,224.25 100.59,223.92 100.59,223.59C100.59,223.26 100.6,222.93 100.6,222.6C100.6,222.27 100.61,221.93 100.61,221.6C100.61,221.27 100.61,220.94 100.61,220.61C100.61,220.28 100.62,219.95 100.62,219.62C100.62,219.29 100.63,218.96 100.63,218.63C100.63,218.3 100.64,217.97 100.64,217.64C100.64,217.31 100.64,216.97 100.64,216.64C100.64,216.31 100.65,215.98 100.65,215.65C100.65,215.32 100.65,214.99 100.65,214.66C100.65,214.33 100.66,214 100.66,213.67C100.66,213.34 100.66,213.01 100.66,212.68C100.66,212.35 100.67,212.01 100.67,211.68C100.67,211.35 100.68,211.02 100.68,210.69C100.68,210.36 100.69,210.03 100.69,209.7C100.69,209.37 100.7,209.04 100.7,208.71C100.7,208.38 100.71,208.05 100.71,207.72C100.71,207.39 100.71,207.05 100.72,206.72C100.72,206.39 100.73,206.06 100.74,205.73C100.74,205.4 100.75,205.07 100.75,204.74C100.75,204.41 100.76,204.08 100.76,203.75C100.76,203.42 100.77,203.09 100.77,202.76C100.77,202.43 100.77,202.09 100.78,201.76C100.78,201.43 100.79,201.1 100.8,200.77C100.8,200.44 100.81,200.11 100.81,199.78C100.82,199.45 100.82,199.12 100.83,198.79C100.83,198.46 100.84,198.13 100.84,197.8C100.85,197.47 100.85,197.13 100.86,196.8C100.87,196.47 100.87,196.14 100.88,195.81C100.88,195.48 100.89,195.15 100.89,194.82C100.9,194.49 100.9,194.16 100.91,193.83C100.92,193.5 100.92,193.17 100.93,192.84C100.94,192.51 100.94,192.17 100.95,191.84C100.96,191.51 100.96,191.18 100.97,190.85C100.98,190.52 100.99,190.19 101,189.86C101.01,189.53 101.02,189.2 101.03,188.87C101.04,188.54 101.05,188.21 101.06,187.88C101.07,187.55 101.08,187.21 101.09,186.88C101.1,186.55 101.12,186.22 101.14,185.89C101.15,185.56 101.16,185.23 101.18,184.9C101.2,184.57 101.22,184.24 101.24,183.91C101.26,183.58 101.29,183.25 101.31,182.92C101.34,182.59 101.36,182.25 101.39,181.92C101.42,181.59 101.46,181.26 101.49,180.93C101.52,180.6 101.55,180.27 101.59,179.94C101.63,179.61 101.67,179.28 101.71,178.95C101.75,178.62 101.8,178.29 101.85,177.96C101.9,177.63 101.95,177.29 102,176.96C102.05,176.63 102.11,176.3 102.17,175.97C102.23,175.64 102.3,175.31 102.37,174.98C102.44,174.65 102.52,174.32 102.6,173.99C102.68,173.66 102.77,173.33 102.87,173C102.97,172.67 103.08,172.33 103.19,172C103.3,171.67 103.42,171.34 103.55,171.01C103.68,170.68 103.82,170.35 103.97,170.02C104.12,169.69 104.27,169.36 104.44,169.03C104.61,168.7 104.79,168.37 104.98,168.04C105.17,167.71 105.37,167.37 105.58,167.04C105.79,166.71 106.02,166.38 106.26,166.05C106.5,165.72 106.76,165.39 107.03,165.06C107.3,164.73 107.58,164.4 107.88,164.07C108.19,163.74 108.51,163.41 108.84,163.08C109.18,162.74 109.53,162.41 109.89,162.08C110.26,161.74 110.66,161.42 111.06,161.09C111.47,160.76 111.89,160.42 112.33,160.1C112.78,159.76 113.25,159.44 113.73,159.11C114.22,158.78 114.72,158.45 115.23,158.12C115.76,157.78 116.3,157.45 116.85,157.12C117.41,156.78 117.99,156.46 118.57,156.13C119.17,155.8 119.78,155.47 120.4,155.14C121.03,154.81 121.68,154.48 122.33,154.15C122.99,153.82 123.66,153.49 124.34,153.16C125.03,152.83 125.73,152.49 126.43,152.16C127.14,151.83 127.86,151.5 128.58,151.17C129.31,150.84 130.04,150.51 130.77,150.18C131.5,149.85 132.24,149.52 132.97,149.19C133.7,148.86 134.43,148.53 135.15,148.2C135.87,147.87 136.59,147.53 137.29,147.2C137.98,146.87 138.67,146.54 139.34,146.21C140,145.88 140.64,145.55 141.27,145.22C141.88,144.89 142.48,144.57 143.06,144.23C143.61,143.91 144.15,143.58 144.66,143.24C145.15,142.92 145.62,142.58 146.05,142.24C146.46,141.92 146.85,141.59 147.2,141.25C147.53,140.93 147.84,140.6 148.09,140.26C148.33,139.94 148.54,139.61 148.69,139.27C148.84,138.95 148.95,138.61 149,138.28C149.05,137.95 149.04,137.61 148.99,137.28C148.93,136.94 148.82,136.61 148.66,136.29C148.49,135.95 148.27,135.62 148.01,135.3C147.73,134.95 147.38,134.63 147.02,134.31C146.63,133.97 146.18,133.64 145.72,133.32C145.22,132.98 144.69,132.64 144.13,132.32C143.54,131.98 142.92,131.65 142.28,131.33C141.61,130.99 140.9,130.66 140.19,130.34C139.45,130 138.68,129.68 137.91,129.35C137.12,129.02 136.31,128.69 135.49,128.36C134.65,128.02 133.8,127.69 132.95,127.36C132.09,127.03 131.23,126.7 130.36,126.37C129.49,126.04 128.61,125.71 127.74,125.38C126.87,125.05 126,124.72 125.14,124.39C124.29,124.06 123.44,123.73 122.6,123.4C121.77,123.07 120.94,122.74 120.13,122.4C119.34,122.07 118.56,121.74 117.79,121.41C117.04,121.08 116.3,120.75 115.58,120.42C114.88,120.09 114.19,119.77 113.52,119.43C112.88,119.11 112.25,118.78 111.64,118.44C111.05,118.11 110.48,117.78 109.93,117.44C109.4,117.12 108.9,116.79 108.41,116.45C107.94,116.13 107.49,115.8 107.06,115.46C106.65,115.14 106.26,114.81 105.89,114.47C105.54,114.15 105.21,113.82 104.89,113.48C104.58,113.15 104.29,112.82 104.02,112.48C103.76,112.15 103.52,111.82 103.3,111.49C103.08,111.16 102.88,110.83 102.69,110.5C102.51,110.17 102.34,109.84 102.18,109.51C102.03,109.18 101.89,108.85 101.76,108.52C101.63,108.19 101.52,107.85 101.41,107.52C101.31,107.19 101.22,106.86 101.13,106.53C101.05,106.2 100.97,105.87 100.9,105.54C100.83,105.21 100.77,104.88 100.72,104.55C100.67,104.22 100.62,103.89 100.58,103.56C100.54,103.23 100.5,102.89 100.46,102.56C100.43,102.23 100.4,101.9 100.37,101.57C100.34,101.24 100.31,100.91 100.29,100.58C100.27,100.25 100.26,99.92 100.24,99.59C100.22,99.26 100.2,98.93 100.19,98.6C100.18,98.27 100.17,97.93 100.16,97.6C100.15,97.27 100.14,96.94 100.13,96.61C100.12,96.28 100.12,95.95 100.11,95.62C100.1,95.29 100.09,94.96 100.09,94.63C100.08,94.3 100.08,93.96 100.08,93.63C100.08,93.3 100.07,92.97 100.07,92.64C100.07,92.31 100.06,91.98 100.06,91.65C100.06,91.32 100.05,90.99 100.05,90.66C100.05,90.33 100.05,90 100.05,89.67C100.05,89.34 100.04,89 100.04,88.67C100.04,88.34 100.04,88.01 100.04,87.68C100.04,87.35 100.03,87.02 100.03,86.69C100.03,86.36 100.03,86.03 100.03,85.7C100.03,85.37 100.03,85.04 100.03,84.71C100.03,84.38 100.02,84.04 100.02,83.71C100.02,83.38 100.02,83.05 100.02,82.72C100.02,82.39 100.02,82.06 100.02,81.73C100.02,81.4 100.02,81.07 100.02,80.74C100.02,80.41 100.02,80.08 100.02,79.75C100.02,79.42 100.01,79.08 100.01,78.75C100.01,78.42 100.01,78.09 100.01,77.76C100.01,77.43 100.01,77.1 100.01,76.77C100.01,76.44 100.01,76.11 100.01,75.78C100.01,75.45 100.01,75.12 100.01,74.79C100.01,74.46 100.01,74.12 100.01,73.79C100.01,73.46 100.01,73.13 100.01,72.8C100.01,72.47 100.01,72.14 100.01,71.81C100.01,71.48 100.01,71.15 100.01,70.82C100.01,70.49 100.01,70.16 100.01,69.83C100.01,69.5 100.01,69.16 100.01,68.83C100.01,68.5 100,68.17 100,67.84C100,67.51 100,67.18 100,66.85C100,66.52 100,66.19 100,65.86C100,65.53 100,65.2 100,64.87C100,64.54 100,64.2 100,63.87C100,63.54 100,63.21 100,62.88C100,62.55 100,62.22 100,61.89C100,61.56 100,61.23 100,60.9C100,60.57 100,60.24 100,59.91C100,59.58 100,59.24 100,58.91C100,58.58 100,58.25 100,57.92C100,57.59 100,57.26 100,56.93C100,56.6 100,56.27 100,55.94C100,55.61 100,55.28 100,54.95C100,54.62 100,54.28 100,53.95C100,53.62 100,53.29 100,52.96C100,52.63 100,52.3 100,51.97C100,51.64 100,51.31 100,50.98C100,50.65 100,50.32 100,49.99C100,49.66 100,49.32 100,48.99C100,48.66 100,48.33 100,48C100,47.67 100,47.34 100,47.01C100,46.68 100,46.35 100,46.02C100,45.69 100,45.36 100,45.03C100,44.7 100,44.36 100,44.03C100,43.7 100,43.37 100,43.04C100,42.71 100,42.38 100,42.05C100,41.72 100,41.39 100,41.06C100,40.73 100,40.4 100,40.07C100,39.74 100,39.4 100,39.07C100,38.74 100,38.41 100,38.08C100,37.75 100,37.42 100,37.09C100,36.76 100,36.43 100,36.1C100,35.77 100,35.44 100,35.11C100,34.78 100,34.44 100,34.11C100,33.78 100,33.45 100,33.12C100,32.79 100,32.46 100,32.13C100,31.8 100,31.47 100,31.14C100,30.81 100,30.48 100,30.15C100,29.82 100,29.48 100,29.15C100,28.82 100,28.49 100,28.16C100,27.83 100,27.5 100,27.17C100,26.84 100,26.51 100,26.18C100,25.85 100,25.52 100,25.19C100,24.86 100,24.52 100,24.19C100,23.86 100,23.53 100,23.2C100,22.87 100,22.54 100,22.21C100,21.88 100,21.55 100,21.22C100,20.89 100,20.56 100,20.23C100,19.9 100,19.56 100,19.23C100,18.9 100,18.57 100,18.24Q100,17.91 100,17.25L100,17.25Q100,17.91 100,18.24C100,18.57 100,18.9 100,19.23C100,19.56 100,19.9 100,20.23C100,20.56 100,20.89 100,21.22C100,21.55 100,21.88 100,22.21C100,22.54 100,22.87 100,23.2C100,23.53 100,23.86 100,24.19C100,24.52 100,24.86 100,25.19C100,25.52 100,25.85 100,26.18C100,26.51 100,26.84 100,27.17C100,27.5 100,27.83 100,28.16C100,28.49 100,28.82 100,29.15C100,29.48 100,29.82 100,30.15C100,30.48 100,30.81 100,31.14C100,31.47 100,31.8 100,32.13C100,32.46 100,32.79 100,33.12C100,33.45 100,33.78 100,34.11C100,34.44 100,34.78 100,35.11C100,35.44 100,35.77 100,36.1C100,36.43 100,36.76 100,37.09C100,37.42 100,37.75 100,38.08C100,38.41 100,38.74 100,39.07C100,39.4 100,39.74 100,40.07C100,40.4 100,40.73 100,41.06C100,41.39 100,41.72 100,42.05C100,42.38 100,42.71 100,43.04C100,43.37 100,43.7 100,44.03C100,44.36 100,44.7 100,45.03C100,45.36 100,45.69 100,46.02C100,46.35 100,46.68 100,47.01C100,47.34 100,47.67 100,48C100,48.33 100,48.66 100,48.99C100,49.32 100,49.66 100,49.99C100,50.32 100,50.65 100,50.98C100,51.31 100,51.64 100,51.97C100,52.3 100,52.63 100,52.96C100,53.29 100,53.62 100,53.95C100,54.28 100,54.62 100,54.95C100,55.28 100,55.61 100,55.94C100,56.27 100,56.6 100,56.93C100,57.26 100,57.59 100,57.92C100,58.25 100,58.58 100,58.91C100,59.24 100,59.58 100,59.91C100,60.24 100,60.57 100,60.9C100,61.23 100,61.56 100,61.89C100,62.22 100,62.55 100,62.88C100,63.21 100,63.54 100,63.87C100,64.2 100,64.54 100,64.87C100,65.2 100,65.53 100,65.86C100,66.19 100,66.52 100,66.85C100,67.18 100,67.51 100,67.84C100,68.17 99.99,68.5 99.99,68.83C99.99,69.16 99.99,69.5 99.99,69.83C99.99,70.16 99.99,70.49 99.99,70.82C99.99,71.15 99.99,71.48 99.99,71.81C99.99,72.14 99.99,72.47 99.99,72.8C99.99,73.13 99.99,73.46 99.99,73.79C99.99,74.12 99.99,74.46 99.99,74.79C99.99,75.12 99.99,75.45 99.99,75.78C99.99,76.11 99.99,76.44 99.99,76.77C99.99,77.1 99.99,77.43 99.99,77.76C99.99,78.09 99.99,78.42 99.99,78.75C99.99,79.08 99.98,79.42 99.98,79.75C99.98,80.08 99.98,80.41 99.98,80.74C99.98,81.07 99.98,81.4 99.98,81.73C99.98,82.06 99.98,82.39 99.98,82.72C99.98,83.05 99.98,83.38 99.98,83.71C99.98,84.04 99.97,84.38 99.97,84.71C99.97,85.04 99.97,85.37 99.97,85.7C99.97,86.03 99.97,86.36 99.97,86.69C99.97,87.02 99.96,87.35 99.96,87.68C99.96,88.01 99.96,88.34 99.96,88.67C99.96,89 99.95,89.34 99.95,89.67C99.95,90 99.95,90.33 99.95,90.66C99.95,90.99 99.94,91.32 99.94,91.65C99.94,91.98 99.93,92.31 99.93,92.64C99.93,92.97 99.92,93.3 99.92,93.63C99.92,93.96 99.92,94.3 99.91,94.63C99.91,94.96 99.9,95.29 99.89,95.62C99.88,95.95 99.88,96.28 99.87,96.61C99.86,96.94 99.85,97.27 99.84,97.6C99.83,97.93 99.82,98.27 99.81,98.6C99.8,98.93 99.78,99.26 99.76,99.59C99.74,99.92 99.73,100.25 99.71,100.58C99.69,100.91 99.66,101.24 99.63,101.57C99.6,101.9 99.57,102.23 99.54,102.56C99.5,102.89 99.46,103.23 99.42,103.56C99.38,103.89 99.33,104.22 99.28,104.55C99.23,104.88 99.17,105.21 99.1,105.54C99.03,105.87 98.95,106.2 98.87,106.53C98.78,106.86 98.69,107.19 98.59,107.52C98.48,107.85 98.37,108.19 98.24,108.52C98.11,108.85 97.97,109.18 97.82,109.51C97.66,109.84 97.49,110.17 97.31,110.5C97.12,110.83 96.92,111.16 96.7,111.49C96.48,111.82 96.24,112.15 95.98,112.48C95.71,112.82 95.42,113.15 95.11,113.48C94.79,113.82 94.46,114.15 94.11,114.47C93.74,114.81 93.35,115.14 92.94,115.46C92.51,115.8 92.06,116.13 91.59,116.45C91.1,116.79 90.6,117.12 90.07,117.44C89.52,117.78 88.95,118.11 88.36,118.44C87.75,118.78 87.12,119.11 86.48,119.43C85.81,119.77 85.12,120.09 84.42,120.42C83.7,120.75 82.96,121.08 82.21,121.41C81.44,121.74 80.66,122.07 79.87,122.4C79.06,122.74 78.23,123.07 77.4,123.4C76.56,123.73 75.71,124.06 74.86,124.39C74,124.72 73.13,125.05 72.26,125.38C71.39,125.71 70.51,126.04 69.64,126.37C68.77,126.7 67.91,127.03 67.05,127.36C66.2,127.69 65.35,128.02 64.51,128.36C63.69,128.69 62.88,129.02 62.09,129.35C61.32,129.68 60.55,130 59.81,130.34C59.1,130.66 58.39,130.99 57.72,131.33C57.08,131.65 56.46,131.98 55.87,132.32C55.31,132.64 54.78,132.98 54.28,133.32C53.82,133.64 53.37,133.97 52.98,134.31C52.62,134.63 52.27,134.95 51.99,135.3C51.73,135.62 51.51,135.95 51.34,136.29C51.18,136.61 51.07,136.94 51.01,137.28C50.96,137.61 50.95,137.95 51,138.28C51.05,138.61 51.16,138.95 51.31,139.27C51.46,139.61 51.67,139.94 51.91,140.26C52.16,140.6 52.47,140.93 52.8,141.25C53.15,141.59 53.54,141.92 53.95,142.24C54.38,142.58 54.85,142.92 55.34,143.24C55.85,143.58 56.39,143.91 56.94,144.23C57.52,144.57 58.12,144.89 58.73,145.22C59.36,145.55 60,145.88 60.66,146.21C61.33,146.54 62.02,146.87 62.71,147.2C63.41,147.53 64.13,147.87 64.85,148.2C65.57,148.53 66.3,148.86 67.03,149.19C67.76,149.52 68.5,149.85 69.23,150.18C69.96,150.51 70.69,150.84 71.42,151.17C72.14,151.5 72.86,151.83 73.57,152.16C74.27,152.49 74.97,152.83 75.66,153.16C76.34,153.49 77.01,153.82 77.67,154.15C78.32,154.48 78.97,154.81 79.6,155.14C80.22,155.47 80.83,155.8 81.43,156.13C82.01,156.46 82.59,156.78 83.15,157.12C83.7,157.45 84.24,157.78 84.77,158.12C85.28,158.45 85.78,158.78 86.27,159.11C86.75,159.44 87.22,159.76 87.67,160.1C88.11,160.42 88.53,160.76 88.94,161.09C89.34,161.42 89.74,161.74 90.11,162.08C90.47,162.41 90.82,162.74 91.16,163.08C91.49,163.41 91.81,163.74 92.12,164.07C92.42,164.4 92.7,164.73 92.97,165.06C93.24,165.39 93.5,165.72 93.74,166.05C93.98,166.38 94.21,166.71 94.42,167.04C94.63,167.37 94.83,167.71 95.02,168.04C95.21,168.37 95.39,168.7 95.56,169.03C95.73,169.36 95.88,169.69 96.03,170.02C96.18,170.35 96.32,170.68 96.45,171.01C96.58,171.34 96.7,171.67 96.81,172C96.92,172.33 97.03,172.67 97.13,173C97.23,173.33 97.32,173.66 97.4,173.99C97.48,174.32 97.56,174.65 97.63,174.98C97.7,175.31 97.77,175.64 97.83,175.97C97.89,176.3 97.95,176.63 98,176.96C98.05,177.29 98.1,177.63 98.15,177.96C98.2,178.29 98.25,178.62 98.29,178.95C98.33,179.28 98.37,179.61 98.41,179.94C98.45,180.27 98.48,180.6 98.51,180.93C98.54,181.26 98.58,181.59 98.61,181.92C98.64,182.25 98.66,182.59 98.69,182.92C98.71,183.25 98.74,183.58 98.76,183.91C98.78,184.24 98.8,184.57 98.82,184.9C98.84,185.23 98.85,185.56 98.86,185.89C98.88,186.22 98.9,186.55 98.91,186.88C98.92,187.21 98.93,187.55 98.94,187.88C98.95,188.21 98.96,188.54 98.97,188.87C98.98,189.2 98.99,189.53 99,189.86C99.01,190.19 99.02,190.52 99.03,190.85C99.04,191.18 99.04,191.51 99.05,191.84C99.06,192.17 99.06,192.51 99.07,192.84C99.08,193.17 99.08,193.5 99.09,193.83C99.1,194.16 99.1,194.49 99.11,194.82C99.11,195.15 99.12,195.48 99.12,195.81C99.13,196.14 99.13,196.47 99.14,196.8C99.15,197.13 99.15,197.47 99.16,197.8C99.16,198.13 99.17,198.46 99.17,198.79C99.18,199.12 99.18,199.45 99.19,199.78C99.19,200.11 99.2,200.44 99.2,200.77C99.21,201.1 99.22,201.43 99.22,201.76C99.23,202.09 99.23,202.43 99.23,202.76C99.23,203.09 99.24,203.42 99.24,203.75C99.24,204.08 99.25,204.41 99.25,204.74C99.25,205.07 99.26,205.4 99.26,205.73C99.27,206.06 99.28,206.39 99.28,206.72C99.29,207.05 99.29,207.39 99.29,207.72C99.29,208.05 99.3,208.38 99.3,208.71C99.3,209.04 99.31,209.37 99.31,209.7C99.31,210.03 99.32,210.36 99.32,210.69C99.32,211.02 99.33,211.35 99.33,211.68C99.33,212.01 99.34,212.35 99.34,212.68C99.34,213.01 99.34,213.34 99.34,213.67C99.34,214 99.35,214.33 99.35,214.66C99.35,214.99 99.35,215.32 99.35,215.65C99.35,215.98 99.36,216.31 99.36,216.64C99.36,216.97 99.36,217.31 99.36,217.64C99.36,217.97 99.37,218.3 99.37,218.63C99.37,218.96 99.38,219.29 99.38,219.62C99.38,219.95 99.39,220.28 99.39,220.61C99.39,220.94 99.39,221.27 99.39,221.6C99.39,221.93 99.4,222.27 99.4,222.6C99.4,222.93 99.41,223.26 99.41,223.59C99.41,223.92 99.41,224.25 99.41,224.58C99.41,224.91 99.42,225.24 99.42,225.57C99.42,225.9 99.42,226.23 99.42,226.56C99.42,226.89 99.42,227.23 99.42,227.56C99.42,227.89 99.42,228.22 99.42,228.55C99.42,228.88 99.42,229.21 99.42,229.54C99.42,229.87 99.43,230.2 99.43,230.53C99.43,230.86 99.43,231.19 99.43,231.52C99.43,231.85 99.43,232.19 99.43,232.52C99.43,232.85 99.43,233.18 99.43,233.51C99.43,233.84 99.44,234.17 99.44,234.5C99.44,234.83 99.44,235.16 99.44,235.49C99.44,235.82 99.45,236.15 99.45,236.48C99.45,236.81 99.46,237.15 99.46,237.48C99.46,237.81 99.46,238.14 99.46,238.47C99.46,238.8 99.47,239.13 99.47,239.46C99.47,239.79 99.48,240.12 99.48,240.45C99.48,240.78 99.48,241.11 99.48,241.44C99.48,241.77 99.48,242.11 99.48,242.44C99.48,242.77 99.49,243.1 99.49,243.43C99.49,243.76 99.49,244.09 99.49,244.42C99.49,244.75 99.5,245.08 99.5,245.41C99.5,245.74 99.5,246.07 99.5,246.4C99.5,246.73 99.5,247.07 99.5,247.4C99.5,247.73 99.5,248.06 99.5,248.39C99.5,248.72 99.5,249.05 99.5,249.38C99.5,249.71 99.5,250.04 99.5,250.37C99.5,250.7 99.5,251.04 99.5,251.37C99.5,251.7 99.5,252.03 99.5,252.36C99.5,252.69 99.5,253.02 99.5,253.35C99.5,253.68 99.5,254.01 99.5,254.34C99.5,254.67 99.51,255 99.51,255.33C99.51,255.66 99.52,256 99.52,256.33C99.52,256.66 99.53,256.99 99.53,257.32C99.53,257.65 99.53,257.98 99.53,258.31C99.53,258.64 99.54,258.97 99.54,259.3C99.54,259.63 99.55,259.96 99.55,260.29C99.55,260.62 99.56,260.96 99.56,261.29C99.56,261.62 99.56,261.95 99.56,262.28C99.56,262.61 99.57,262.94 99.57,263.27C99.57,263.6 99.57,263.93 99.57,264.26C99.57,264.59 99.57,264.92 99.57,265.25C99.57,265.58 99.57,265.92 99.57,266.25C99.57,266.58 99.57,266.91 99.57,267.24C99.57,267.57 99.56,267.9 99.56,268.23C99.56,268.56 99.56,268.89 99.56,269.22C99.56,269.55 99.56,269.88 99.56,270.21C99.56,270.54 99.56,270.88 99.56,271.21C99.56,271.54 99.57,271.87 99.57,272.2C99.57,272.53 99.57,272.86 99.57,273.19C99.57,273.52 99.57,273.85 99.57,274.18C99.57,274.51 99.57,274.84 99.57,275.17C99.57,275.5 99.57,275.84 99.57,276.17C99.57,276.5 99.57,276.83 99.57,277.16C99.57,277.49 99.57,277.82 99.57,278.15C99.57,278.48 99.57,278.81 99.57,279.14C99.57,279.47 99.57,279.8 99.57,280.13C99.57,280.46 99.57,280.8 99.57,281.13C99.57,281.46 99.57,281.79 99.57,282.12C99.57,282.45 99.58,282.78 99.58,283.11C99.58,283.44 99.58,283.77 99.58,284.1C99.58,284.43 99.58,284.76 99.58,285.09C99.58,285.42 99.58,285.76 99.58,286.09C99.58,286.42 99.58,286.75 99.58,287.08C99.58,287.41 99.58,287.74 99.58,288.07C99.58,288.4 99.58,288.73 99.58,289.06C99.58,289.39 99.58,289.72 99.58,290.05C99.58,290.38 99.58,290.72 99.58,291.05C99.58,291.38 99.58,291.71 99.58,292.04C99.58,292.37 99.58,292.7 99.58,293.03C99.58,293.36 99.58,293.69 99.58,294.02C99.58,294.35 99.58,294.68 99.58,295.01C99.58,295.34 99.58,295.68 99.58,296.01C99.58,296.34 99.58,296.67 99.58,297C99.58,297.33 99.58,297.66 99.58,297.99C99.58,298.32 99.58,298.65 99.58,298.98C99.58,299.31 99.57,299.64 99.57,299.97C99.57,300.3 99.57,300.64 99.57,300.97C99.57,301.3 99.56,301.63 99.56,301.96C99.56,302.29 99.55,302.62 99.55,302.95C99.55,303.28 99.55,303.61 99.55,303.94C99.55,304.27 99.54,304.6 99.54,304.93C99.54,305.26 99.53,305.6 99.53,305.93C99.53,306.26 99.52,306.59 99.52,306.92C99.52,307.25 99.51,307.58 99.51,307.91C99.5,308.24 99.5,308.57 99.49,308.9C99.48,309.23 99.47,309.56 99.46,309.89C99.45,310.22 99.43,310.56 99.41,310.89C99.39,311.22 99.37,311.55 99.34,311.88C99.31,312.21 99.28,312.54 99.24,312.87C99.2,313.2 99.16,313.53 99.11,313.86C99.06,314.19 98.99,314.52 98.93,314.85C98.86,315.18 98.8,315.52 98.72,315.85C98.64,316.18 98.55,316.51 98.46,316.84C98.37,317.17 98.28,317.5 98.19,317.83C98.1,318.16 98.01,318.49 97.94,318.82C97.87,319.15 97.8,319.48 97.77,319.81C97.74,320.14 97.71,320.48 97.73,320.81C97.75,321.14 97.79,321.47 97.86,321.8C97.93,322.13 98.04,322.46 98.15,322.79C98.26,323.12 98.4,323.45 98.53,323.78C98.66,324.11 98.82,324.44 98.95,324.77C99.08,325.1 99.21,325.44 99.32,325.77C99.43,326.1 99.52,326.43 99.6,326.76Q99.68,327.09 99.79,327.75Z" style="vector-effect: non-scaling-stroke; stroke-width: 2px; stroke: rgb(255, 127, 14); stroke-opacity: 1; fill: rgb(255, 127, 14); fill-opacity: 0.5;"/></g></g></g><g class="overplot"/><path class="xlines-above crisp" d="M69,365.5H270" style="fill: none; stroke-width: 1px; stroke: rgb(36, 36, 36); stroke-opacity: 1;"/><path class="ylines-above crisp" d="M69.5,20V365" style="fill: none; stroke-width: 1px; stroke: rgb(36, 36, 36); stroke-opacity: 1;"/><g class="overlines-above"/><g class="xaxislayer-above"><path class="xtick ticks crisp" d="M0,366v5" transform="translate(170,0)" style="stroke: rgb(68, 68, 68); stroke-opacity: 1; stroke-width: 1px;"/><g class="xtick"><text text-anchor="middle" x="0" y="385.4" transform="translate(170,0)" style="font-family: 'Open Sans', verdana, arial, sans-serif; font-size: 12px; fill: rgb(36, 36, 36); fill-opacity: 1; white-space: pre;"> </text></g></g><g class="yaxislayer-above"><path class="ytick ticks crisp" d="M69,0h-5" transform="translate(0,341.78)" style="stroke: rgb(68, 68, 68); stroke-opacity: 1; stroke-width: 1px;"/><path class="ytick ticks crisp" d="M69,0h-5" transform="translate(0,305.4)" style="stroke: rgb(68, 68, 68); stroke-opacity: 1; stroke-width: 1px;"/><path class="ytick ticks crisp" d="M69,0h-5" transform="translate(0,269.01)" style="stroke: rgb(68, 68, 68); stroke-opacity: 1; stroke-width: 1px;"/><path class="ytick ticks crisp" d="M69,0h-5" transform="translate(0,232.63)" style="stroke: rgb(68, 68, 68); stroke-opacity: 1; stroke-width: 1px;"/><path class="ytick ticks crisp" d="M69,0h-5" transform="translate(0,196.25)" style="stroke: rgb(68, 68, 68); stroke-opacity: 1; stroke-width: 1px;"/><path class="ytick ticks crisp" d="M69,0h-5" transform="translate(0,159.86)" style="stroke: rgb(68, 68, 68); stroke-opacity: 1; stroke-width: 1px;"/><path class="ytick ticks crisp" d="M69,0h-5" transform="translate(0,123.48)" style="stroke: rgb(68, 68, 68); stroke-opacity: 1; stroke-width: 1px;"/><path class="ytick ticks crisp" d="M69,0h-5" transform="translate(0,87.1)" style="stroke: rgb(68, 68, 68); stroke-opacity: 1; stroke-width: 1px;"/><path class="ytick ticks crisp" d="M69,0h-5" transform="translate(0,50.72)" style="stroke: rgb(68, 68, 68); stroke-opacity: 1; stroke-width: 1px;"/><g class="ytick"><text text-anchor="end" x="61.6" y="4.199999999999999" transform="translate(0,341.78)" style="font-family: 'Open Sans', verdana, arial, sans-serif; font-size: 12px; fill: rgb(36, 36, 36); fill-opacity: 1; white-space: pre;">10</text></g><g class="ytick"><text text-anchor="end" x="61.6" y="4.199999999999999" transform="translate(0,305.4)" style="font-family: 'Open Sans', verdana, arial, sans-serif; font-size: 12px; fill: rgb(36, 36, 36); fill-opacity: 1; white-space: pre;">8</text></g><g class="ytick"><text text-anchor="end" x="61.6" y="4.199999999999999" transform="translate(0,269.01)" style="font-family: 'Open Sans', verdana, arial, sans-serif; font-size: 12px; fill: rgb(36, 36, 36); fill-opacity: 1; white-space: pre;">6</text></g><g class="ytick"><text text-anchor="end" x="61.6" y="4.199999999999999" transform="translate(0,232.63)" style="font-family: 'Open Sans', verdana, arial, sans-serif; font-size: 12px; fill: rgb(36, 36, 36); fill-opacity: 1; white-space: pre;">4</text></g><g class="ytick"><text text-anchor="end" x="61.6" y="4.199999999999999" transform="translate(0,196.25)" style="font-family: 'Open Sans', verdana, arial, sans-serif; font-size: 12px; fill: rgb(36, 36, 36); fill-opacity: 1; white-space: pre;">2</text></g><g class="ytick"><text text-anchor="end" x="61.6" y="4.199999999999999" transform="translate(0,159.86)" style="font-family: 'Open Sans', verdana, arial, sans-serif; font-size: 12px; fill: rgb(36, 36, 36); fill-opacity: 1; white-space: pre;">0</text></g><g class="ytick"><text text-anchor="end" x="61.6" y="4.199999999999999" transform="translate(0,123.48)" style="font-family: 'Open Sans', verdana, arial, sans-serif; font-size: 12px; fill: rgb(36, 36, 36); fill-opacity: 1; white-space: pre;">2</text></g><g class="ytick"><text text-anchor="end" x="61.6" y="4.199999999999999" transform="translate(0,87.1)" style="font-family: 'Open Sans', verdana, arial, sans-serif; font-size: 12px; fill: rgb(36, 36, 36); fill-opacity: 1; white-space: pre;">4</text></g><g class="ytick"><text text-anchor="end" x="61.6" y="4.199999999999999" transform="translate(0,50.72)" style="font-family: 'Open Sans', verdana, arial, sans-serif; font-size: 12px; fill: rgb(36, 36, 36); fill-opacity: 1; white-space: pre;">6</text></g></g><g class="overaxes-above"/></g></g><g class="polarlayer"/><g class="ternarylayer"/><g class="geolayer"/><g class="funnelarealayer"/><g class="pielayer"/><g class="treemaplayer"/><g class="sunburstlayer"/><g class="glimages"/><defs id="topdefs-088c10"><g class="clips"/><clipPath id="legend088c10"><rect width="62" height="64" x="0" y="0"/></clipPath></defs><g class="layer-above"><g class="imagelayer"/><g class="shapelayer"/></g><g class="infolayer"><g class="legend" pointer-events="all" transform="translate(190,20)"><rect class="bg" shape-rendering="crispEdges" width="62" height="64" x="0" y="0" style="stroke: rgb(68, 68, 68); stroke-opacity: 1; fill: rgb(255, 255, 255); fill-opacity: 1; stroke-width: 0px;"/><g class="scrollbox" transform="" clip-path="url('#legend088c10')"><text class="legendtitletext" text-anchor="start" x="2" y="15.600000000000001" style="font-family: 'Open Sans', verdana, arial, sans-serif; font-size: 12px; fill: rgb(36, 36, 36); fill-opacity: 1; white-space: pre;">cp_dose</text><g class="groups" transform=""><g class="traces" transform="translate(0,30.1)" style="opacity: 1;"><text class="legendtext" text-anchor="start" x="40" y="4.680000000000001" style="font-family: 'Open Sans', verdana, arial, sans-serif; font-size: 12px; fill: rgb(36, 36, 36); fill-opacity: 1; white-space: pre;">D1</text><g class="layers" style="opacity: 1;"><g class="legendfill"/><g class="legendlines"/><g class="legendsymbols"><g class="legendpoints"><path class="legendbox" d="M6,6H-6V-6H6Z" transform="translate(20,0)" style="stroke-width: 2px; fill: rgb(31, 119, 180); fill-opacity: 0.5; stroke: rgb(31, 119, 180); stroke-opacity: 1;"/></g></g></g><rect class="legendtoggle" x="0" y="-9.5" width="56.875" height="19" style="fill: rgb(0, 0, 0); fill-opacity: 0;"/></g></g><g class="groups" transform=""><g class="traces" transform="translate(0,49.1)" style="opacity: 1;"><text class="legendtext" text-anchor="start" x="40" y="4.680000000000001" style="font-family: 'Open Sans', verdana, arial, sans-serif; font-size: 12px; fill: rgb(36, 36, 36); fill-opacity: 1; white-space: pre;">D2</text><g class="layers" style="opacity: 1;"><g class="legendfill"/><g class="legendlines"/><g class="legendsymbols"><g class="legendpoints"><path class="legendbox" d="M6,6H-6V-6H6Z" transform="translate(20,0)" style="stroke-width: 2px; fill: rgb(255, 127, 14); fill-opacity: 0.5; stroke: rgb(255, 127, 14); stroke-opacity: 1;"/></g></g></g><rect class="legendtoggle" x="0" y="-9.5" width="56.875" height="19" style="fill: rgb(0, 0, 0); fill-opacity: 0;"/></g></g></g><rect class="scrollbar" rx="20" ry="3" width="0" height="0" x="0" y="0" style="fill: rgb(128, 139, 164); fill-opacity: 1;"/></g><g class="g-gtitle"/><g class="g-xtitle"/><g class="g-ytitle" transform="translate(2.2841796875,0)"><text class="ytitle" transform="rotate(-90,11.715625000000003,192.5)" x="11.715625000000003" y="192.5" text-anchor="middle" style="font-family: 'Open Sans', verdana, arial, sans-serif; font-size: 14px; fill: rgb(36, 36, 36); opacity: 1; font-weight: normal; white-space: pre;">Cell viability</text></g></g></svg>