<svg class="main-svg" xmlns="http://www.w3.org/2000/svg" xmlns:xlink="http://www.w3.org/1999/xlink" width="290" height="400" style="" viewBox="0 0 290 400"><rect x="0" y="0" width="290" height="400" style="fill: rgb(255, 255, 255); fill-opacity: 1;"/><defs id="defs-0077c7"><g class="clips"><clipPath id="clip0077c7xyplot" class="plotclip"><rect width="200" height="345"/></clipPath><clipPath class="axesclip" id="clip0077c7x"><rect x="70" y="0" width="200" height="400"/></clipPath><clipPath class="axesclip" id="clip0077c7y"><rect x="0" y="20" width="290" height="345"/></clipPath><clipPath class="axesclip" id="clip0077c7xy"><rect x="70" y="20" width="200" height="345"/></clipPath></g><g class="gradients"/></defs><g class="bglayer"/><g class="layer-below"><g class="imagelayer"/><g class="shapelayer"/></g><g class="cartesianlayer"><g class="subplot xy"><g class="layer-subplot"><g class="shapelayer"/><g class="imagelayer"/></g><g class="gridlayer"><g class="x"/><g class="y"/></g><g class="zerolinelayer"/><path class="xlines-below"/><path class="ylines-below"/><g class="overlines-below"/><g class="xaxislayer-below"/><g class="yaxislayer-below"/><g class="overaxes-below"/><g class="plot" transform="translate(70,20)" clip-path="url('#clip0077c7xyplot')"><g class="violinlayer mlayer"><g class="trace violins" style="opacity: 1;"><path class="violin" d="M100.01,327.75Q100.02,327.08 100.02,326.75C100.02,326.42 100.03,326.09 100.03,325.76C100.04,325.43 100.04,325.09 100.05,324.76C100.05,324.43 100.06,324.1 100.06,323.77C100.06,323.44 100.07,323.1 100.07,322.77C100.07,322.44 100.08,322.11 100.08,321.78C100.08,321.45 100.08,321.11 100.08,320.78C100.08,320.45 100.08,320.12 100.08,319.79C100.08,319.46 100.07,319.12 100.07,318.79C100.07,318.46 100.06,318.13 100.06,317.8C100.06,317.47 100.05,317.13 100.05,316.8C100.05,316.47 100.05,316.14 100.05,315.81C100.05,315.48 100.04,315.14 100.04,314.81C100.04,314.48 100.04,314.15 100.04,313.82C100.04,313.49 100.04,313.15 100.04,312.82C100.04,312.49 100.04,312.16 100.04,311.83C100.04,311.5 100.04,311.16 100.04,310.83C100.04,310.5 100.04,310.17 100.04,309.84C100.04,309.51 100.04,309.17 100.04,308.84C100.04,308.51 100.04,308.18 100.04,307.85C100.04,307.52 100.04,307.18 100.04,306.85C100.04,306.52 100.04,306.19 100.04,305.86C100.04,305.53 100.04,305.19 100.04,304.86C100.04,304.53 100.05,304.2 100.05,303.87C100.05,303.54 100.05,303.2 100.05,302.87C100.05,302.54 100.05,302.21 100.05,301.88C100.05,301.55 100.05,301.21 100.05,300.88C100.05,300.55 100.05,300.21 100.05,299.88C100.05,299.55 100.05,299.22 100.05,298.89C100.05,298.56 100.06,298.22 100.06,297.89C100.06,297.56 100.06,297.23 100.06,296.9C100.06,296.57 100.06,296.23 100.06,295.9C100.06,295.57 100.06,295.24 100.06,294.91C100.06,294.58 100.06,294.24 100.06,293.91C100.06,293.58 100.07,293.25 100.07,292.92C100.07,292.59 100.07,292.25 100.07,291.92C100.07,291.59 100.07,291.26 100.07,290.93C100.07,290.6 100.07,290.26 100.07,289.93C100.07,289.6 100.07,289.27 100.07,288.94C100.07,288.61 100.07,288.27 100.07,287.94C100.07,287.61 100.07,287.28 100.07,286.95C100.07,286.62 100.07,286.28 100.07,285.95C100.07,285.62 100.07,285.29 100.07,284.96C100.07,284.63 100.08,284.29 100.08,283.96C100.08,283.63 100.08,283.3 100.08,282.97C100.08,282.64 100.08,282.3 100.08,281.97C100.08,281.64 100.08,281.31 100.08,280.98C100.08,280.65 100.09,280.31 100.09,279.98C100.09,279.65 100.09,279.32 100.09,278.99C100.09,278.66 100.09,278.32 100.09,277.99C100.09,277.66 100.09,277.33 100.09,277C100.09,276.67 100.1,276.33 100.1,276C100.1,275.67 100.1,275.33 100.1,275C100.1,274.67 100.1,274.34 100.1,274.01C100.1,273.68 100.1,273.34 100.1,273.01C100.1,272.68 100.1,272.35 100.1,272.02C100.1,271.69 100.1,271.35 100.1,271.02C100.1,270.69 100.1,270.36 100.1,270.03C100.1,269.7 100.11,269.36 100.11,269.03C100.11,268.7 100.11,268.37 100.11,268.04C100.11,267.71 100.12,267.37 100.12,267.04C100.12,266.71 100.12,266.38 100.12,266.05C100.12,265.72 100.13,265.38 100.13,265.05C100.13,264.72 100.14,264.39 100.14,264.06C100.14,263.73 100.14,263.39 100.14,263.06C100.14,262.73 100.15,262.4 100.15,262.07C100.15,261.74 100.16,261.4 100.16,261.07C100.16,260.74 100.17,260.41 100.17,260.08C100.17,259.75 100.18,259.41 100.18,259.08C100.18,258.75 100.19,258.42 100.19,258.09C100.19,257.76 100.2,257.42 100.2,257.09C100.2,256.76 100.21,256.43 100.21,256.1C100.22,255.77 100.22,255.43 100.23,255.1C100.23,254.77 100.24,254.44 100.24,254.11C100.24,253.78 100.25,253.44 100.25,253.11C100.25,252.78 100.26,252.45 100.26,252.12C100.27,251.79 100.27,251.45 100.28,251.12C100.28,250.79 100.29,250.46 100.29,250.13C100.29,249.8 100.3,249.46 100.3,249.13C100.3,248.8 100.31,248.46 100.31,248.13C100.31,247.8 100.32,247.47 100.32,247.14C100.32,246.81 100.33,246.47 100.33,246.14C100.33,245.81 100.34,245.48 100.34,245.15C100.34,244.82 100.34,244.48 100.34,244.15C100.34,243.82 100.35,243.49 100.35,243.16C100.35,242.83 100.36,242.49 100.36,242.16C100.36,241.83 100.36,241.5 100.36,241.17C100.36,240.84 100.37,240.5 100.37,240.17C100.37,239.84 100.38,239.51 100.38,239.18C100.38,238.85 100.39,238.51 100.39,238.18C100.39,237.85 100.4,237.52 100.4,237.19C100.4,236.86 100.4,236.52 100.4,236.19C100.4,235.86 100.41,235.53 100.41,235.2C100.42,234.87 100.42,234.53 100.43,234.2C100.43,233.87 100.44,233.54 100.44,233.21C100.44,232.88 100.44,232.54 100.45,232.21C100.45,231.88 100.47,231.55 100.47,231.22C100.48,230.89 100.47,230.55 100.48,230.22C100.48,229.89 100.5,229.56 100.5,229.23C100.51,228.9 100.5,228.56 100.51,228.23C100.51,227.9 100.53,227.57 100.53,227.24C100.54,226.91 100.53,226.57 100.54,226.24C100.54,225.91 100.55,225.58 100.56,225.25C100.57,224.92 100.57,224.58 100.58,224.25C100.59,223.92 100.6,223.58 100.61,223.25C100.62,222.92 100.62,222.59 100.63,222.26C100.64,221.93 100.65,221.59 100.66,221.26C100.67,220.93 100.69,220.6 100.7,220.27C100.71,219.94 100.72,219.6 100.73,219.27C100.74,218.94 100.76,218.61 100.77,218.28C100.78,217.95 100.79,217.61 100.81,217.28C100.82,216.95 100.85,216.62 100.86,216.29C100.88,215.96 100.88,215.62 100.9,215.29C100.92,214.96 100.94,214.63 100.96,214.3C100.98,213.97 101,213.63 101.02,213.3C101.04,212.97 101.06,212.64 101.08,212.31C101.1,211.98 101.13,211.64 101.16,211.31C101.19,210.98 101.21,210.65 101.24,210.32C101.27,209.99 101.29,209.65 101.32,209.32C101.35,208.99 101.39,208.66 101.42,208.33C101.46,208 101.49,207.66 101.53,207.33C101.57,207 101.61,206.67 101.65,206.34C101.7,206.01 101.75,205.67 101.8,205.34C101.85,205.01 101.91,204.68 101.97,204.35C102.03,204.02 102.1,203.68 102.17,203.35C102.24,203.02 102.32,202.69 102.4,202.36C102.49,202.03 102.58,201.69 102.68,201.36C102.78,201.03 102.89,200.7 103.01,200.37C103.13,200.04 103.26,199.7 103.4,199.37C103.54,199.04 103.69,198.71 103.85,198.38C104.01,198.05 104.18,197.71 104.37,197.38C104.56,197.04 104.76,196.71 104.98,196.38C105.2,196.04 105.44,195.72 105.69,195.39C105.95,195.05 106.22,194.72 106.51,194.39C106.81,194.05 107.14,193.73 107.48,193.4C107.83,193.06 108.21,192.73 108.6,192.4C109.01,192.06 109.45,191.73 109.9,191.41C110.37,191.07 110.87,190.74 111.38,190.41C111.92,190.07 112.47,189.74 113.05,189.42C113.65,189.08 114.29,188.75 114.93,188.42C115.6,188.08 116.28,187.76 116.99,187.43C117.72,187.09 118.48,186.76 119.25,186.43C120.04,186.09 120.86,185.77 121.68,185.44C122.53,185.1 123.39,184.77 124.26,184.44C125.15,184.11 126.05,183.78 126.95,183.45C127.86,183.12 128.79,182.78 129.71,182.45C130.63,182.12 131.57,181.79 132.49,181.46C133.41,181.13 134.33,180.79 135.24,180.46C136.14,180.13 137.03,179.81 137.91,179.47C138.76,179.14 139.61,178.81 140.43,178.47C141.22,178.14 142.01,177.82 142.75,177.48C143.46,177.16 144.15,176.82 144.79,176.48C145.39,176.16 145.97,175.84 146.48,175.49C146.94,175.17 147.39,174.84 147.74,174.49C148.05,174.18 148.34,173.85 148.51,173.5C148.66,173.18 148.75,172.83 148.74,172.5C148.73,172.16 148.6,171.82 148.42,171.5C148.22,171.15 147.9,170.82 147.56,170.51C147.18,170.16 146.72,169.83 146.24,169.51C145.71,169.16 145.12,168.84 144.51,168.52C143.86,168.18 143.17,167.84 142.46,167.52C141.72,167.18 140.94,166.86 140.15,166.53C139.34,166.19 138.5,165.86 137.66,165.53C136.8,165.19 135.92,164.87 135.04,164.54C134.15,164.21 133.24,163.87 132.34,163.54C131.44,163.21 130.52,162.88 129.62,162.55C128.72,162.22 127.82,161.88 126.93,161.55C126.05,161.22 125.17,160.89 124.31,160.56C123.46,160.23 122.62,159.9 121.8,159.56C121,159.23 120.2,158.91 119.43,158.57C118.68,158.24 117.94,157.91 117.22,157.57C116.53,157.24 115.85,156.92 115.2,156.58C114.57,156.25 113.95,155.92 113.36,155.58C112.79,155.26 112.24,154.93 111.71,154.59C111.2,154.26 110.72,153.93 110.25,153.59C109.8,153.27 109.37,152.94 108.96,152.6C108.56,152.27 108.19,151.94 107.83,151.6C107.48,151.27 107.15,150.95 106.84,150.61C106.54,150.28 106.27,149.95 106,149.61C105.74,149.28 105.5,148.96 105.27,148.62C105.05,148.29 104.84,147.96 104.65,147.62C104.46,147.29 104.29,146.96 104.13,146.63C103.97,146.3 103.82,145.97 103.68,145.63C103.54,145.3 103.41,144.96 103.29,144.63C103.17,144.3 103.06,143.97 102.96,143.64C102.86,143.31 102.77,142.97 102.68,142.64C102.59,142.31 102.51,141.98 102.43,141.65C102.35,141.32 102.29,140.98 102.22,140.65C102.15,140.32 102.09,139.99 102.03,139.66C101.97,139.33 101.92,138.99 101.87,138.66C101.82,138.33 101.77,138 101.73,137.67C101.68,137.34 101.64,137 101.6,136.67C101.56,136.34 101.52,136.01 101.48,135.68C101.44,135.35 101.4,135.01 101.37,134.68C101.34,134.35 101.31,134.02 101.28,133.69C101.25,133.36 101.22,133.02 101.19,132.69C101.16,132.36 101.14,132.03 101.12,131.7C101.1,131.37 101.07,131.03 101.05,130.7C101.03,130.37 101.01,130.04 100.99,129.71C100.97,129.38 100.96,129.04 100.94,128.71C100.93,128.38 100.91,128.05 100.9,127.72C100.88,127.39 100.87,127.05 100.85,126.72C100.84,126.39 100.82,126.06 100.81,125.73C100.79,125.4 100.78,125.06 100.76,124.73C100.75,124.4 100.73,124.07 100.72,123.74C100.71,123.41 100.69,123.07 100.68,122.74C100.67,122.41 100.66,122.08 100.65,121.75C100.64,121.42 100.62,121.08 100.61,120.75C100.6,120.42 100.59,120.08 100.58,119.75C100.57,119.42 100.57,119.09 100.56,118.76C100.55,118.43 100.55,118.09 100.54,117.76C100.53,117.43 100.52,117.1 100.51,116.77C100.5,116.44 100.5,116.1 100.49,115.77C100.49,115.44 100.48,115.11 100.48,114.78C100.47,114.45 100.47,114.11 100.46,113.78C100.45,113.45 100.45,113.12 100.44,112.79C100.43,112.46 100.43,112.12 100.42,111.79C100.42,111.46 100.41,111.13 100.41,110.8C100.4,110.47 100.4,110.13 100.39,109.8C100.39,109.47 100.38,109.14 100.38,108.81C100.37,108.48 100.37,108.14 100.36,107.81C100.36,107.48 100.35,107.15 100.35,106.82C100.35,106.49 100.34,106.15 100.34,105.82C100.34,105.49 100.34,105.16 100.34,104.83C100.34,104.5 100.33,104.16 100.33,103.83C100.33,103.5 100.32,103.17 100.32,102.84C100.32,102.51 100.32,102.17 100.32,101.84C100.32,101.51 100.31,101.18 100.31,100.85C100.31,100.52 100.3,100.18 100.3,99.85C100.3,99.52 100.3,99.19 100.3,98.86C100.3,98.53 100.29,98.19 100.29,97.86C100.29,97.53 100.29,97.2 100.29,96.87C100.29,96.54 100.28,96.2 100.28,95.87C100.28,95.54 100.27,95.21 100.27,94.88C100.27,94.55 100.26,94.21 100.26,93.88C100.26,93.55 100.25,93.21 100.25,92.88C100.25,92.55 100.24,92.22 100.24,91.89C100.23,91.56 100.23,91.22 100.22,90.89C100.22,90.56 100.21,90.23 100.21,89.9C100.21,89.57 100.2,89.23 100.2,88.9C100.2,88.57 100.19,88.24 100.19,87.91C100.19,87.58 100.18,87.24 100.18,86.91C100.18,86.58 100.17,86.25 100.17,85.92C100.17,85.59 100.16,85.25 100.16,84.92C100.16,84.59 100.15,84.26 100.15,83.93C100.15,83.6 100.15,83.26 100.15,82.93C100.15,82.6 100.14,82.27 100.14,81.94C100.14,81.61 100.14,81.27 100.14,80.94C100.14,80.61 100.13,80.28 100.13,79.95C100.13,79.62 100.13,79.28 100.13,78.95C100.13,78.62 100.13,78.29 100.13,77.96C100.13,77.63 100.12,77.29 100.12,76.96C100.12,76.63 100.12,76.3 100.12,75.97C100.12,75.64 100.12,75.3 100.12,74.97C100.12,74.64 100.12,74.31 100.12,73.98C100.12,73.65 100.11,73.31 100.11,72.98C100.11,72.65 100.11,72.32 100.11,71.99C100.11,71.66 100.11,71.32 100.11,70.99C100.11,70.66 100.1,70.33 100.1,70C100.1,69.67 100.1,69.33 100.1,69C100.1,68.67 100.1,68.33 100.1,68C100.1,67.67 100.1,67.34 100.1,67.01C100.1,66.68 100.09,66.34 100.09,66.01C100.09,65.68 100.09,65.35 100.09,65.02C100.09,64.69 100.09,64.35 100.09,64.02C100.09,63.69 100.09,63.36 100.09,63.03C100.09,62.7 100.09,62.36 100.09,62.03C100.09,61.7 100.09,61.37 100.09,61.04C100.09,60.71 100.09,60.37 100.09,60.04C100.09,59.71 100.08,59.38 100.08,59.05C100.08,58.72 100.08,58.38 100.08,58.05C100.08,57.72 100.08,57.39 100.08,57.06C100.08,56.73 100.08,56.39 100.08,56.06C100.08,55.73 100.08,55.4 100.08,55.07C100.08,54.74 100.07,54.4 100.07,54.07C100.07,53.74 100.07,53.41 100.07,53.08C100.07,52.75 100.07,52.41 100.07,52.08C100.07,51.75 100.07,51.42 100.07,51.09C100.07,50.76 100.07,50.42 100.07,50.09C100.07,49.76 100.06,49.43 100.06,49.1C100.06,48.77 100.06,48.43 100.06,48.1C100.06,47.77 100.06,47.44 100.06,47.11C100.06,46.78 100.06,46.44 100.06,46.11C100.06,45.78 100.06,45.45 100.06,45.12C100.06,44.79 100.06,44.45 100.06,44.12C100.06,43.79 100.06,43.46 100.06,43.13C100.06,42.8 100.06,42.46 100.06,42.13C100.06,41.8 100.06,41.46 100.06,41.13C100.06,40.8 100.06,40.47 100.06,40.14C100.06,39.81 100.05,39.47 100.05,39.14C100.05,38.81 100.05,38.48 100.05,38.15C100.05,37.82 100.05,37.48 100.05,37.15C100.05,36.82 100.05,36.49 100.05,36.16C100.05,35.83 100.05,35.49 100.05,35.16C100.05,34.83 100.04,34.5 100.04,34.17C100.04,33.84 100.04,33.5 100.04,33.17C100.04,32.84 100.04,32.51 100.04,32.18C100.04,31.85 100.04,31.51 100.04,31.18C100.04,30.85 100.04,30.52 100.04,30.19C100.04,29.86 100.05,29.52 100.05,29.19C100.05,28.86 100.05,28.53 100.05,28.2C100.05,27.87 100.06,27.53 100.06,27.2C100.06,26.87 100.07,26.54 100.07,26.21C100.07,25.88 100.08,25.54 100.08,25.21C100.08,24.88 100.09,24.55 100.09,24.22C100.09,23.89 100.09,23.55 100.09,23.22C100.09,22.89 100.08,22.56 100.08,22.23C100.07,21.9 100.07,21.56 100.06,21.23C100.06,20.9 100.05,20.57 100.05,20.24C100.04,19.91 100.04,19.57 100.03,19.24C100.03,18.91 100.02,18.58 100.02,18.25Q100.02,17.92 100.01,17.25L99.99,17.25Q99.98,17.92 99.98,18.25C99.98,18.58 99.97,18.91 99.97,19.24C99.96,19.57 99.96,19.91 99.95,20.24C99.95,20.57 99.94,20.9 99.94,21.23C99.93,21.56 99.93,21.9 99.92,22.23C99.92,22.56 99.91,22.89 99.91,23.22C99.91,23.55 99.91,23.89 99.91,24.22C99.91,24.55 99.92,24.88 99.92,25.21C99.92,25.54 99.93,25.88 99.93,26.21C99.93,26.54 99.94,26.87 99.94,27.2C99.94,27.53 99.95,27.87 99.95,28.2C99.95,28.53 99.95,28.86 99.95,29.19C99.95,29.52 99.96,29.86 99.96,30.19C99.96,30.52 99.96,30.85 99.96,31.18C99.96,31.51 99.96,31.85 99.96,32.18C99.96,32.51 99.96,32.84 99.96,33.17C99.96,33.5 99.96,33.84 99.96,34.17C99.96,34.5 99.95,34.83 99.95,35.16C99.95,35.49 99.95,35.83 99.95,36.16C99.95,36.49 99.95,36.82 99.95,37.15C99.95,37.48 99.95,37.82 99.95,38.15C99.95,38.48 99.95,38.81 99.95,39.14C99.95,39.47 99.94,39.81 99.94,40.14C99.94,40.47 99.94,40.8 99.94,41.13C99.94,41.46 99.94,41.8 99.94,42.13C99.94,42.46 99.94,42.8 99.94,43.13C99.94,43.46 99.94,43.79 99.94,44.12C99.94,44.45 99.94,44.79 99.94,45.12C99.94,45.45 99.94,45.78 99.94,46.11C99.94,46.44 99.94,46.78 99.94,47.11C99.94,47.44 99.94,47.77 99.94,48.1C99.94,48.43 99.94,48.77 99.94,49.1C99.94,49.43 99.93,49.76 99.93,50.09C99.93,50.42 99.93,50.76 99.93,51.09C99.93,51.42 99.93,51.75 99.93,52.08C99.93,52.41 99.93,52.75 99.93,53.08C99.93,53.41 99.93,53.74 99.93,54.07C99.93,54.4 99.92,54.74 99.92,55.07C99.92,55.4 99.92,55.73 99.92,56.06C99.92,56.39 99.92,56.73 99.92,57.06C99.92,57.39 99.92,57.72 99.92,58.05C99.92,58.38 99.92,58.72 99.92,59.05C99.92,59.38 99.91,59.71 99.91,60.04C99.91,60.37 99.91,60.71 99.91,61.04C99.91,61.37 99.91,61.7 99.91,62.03C99.91,62.36 99.91,62.7 99.91,63.03C99.91,63.36 99.91,63.69 99.91,64.02C99.91,64.35 99.91,64.69 99.91,65.02C99.91,65.35 99.91,65.68 99.91,66.01C99.91,66.34 99.9,66.68 99.9,67.01C99.9,67.34 99.9,67.67 99.9,68C99.9,68.33 99.9,68.67 99.9,69C99.9,69.33 99.9,69.67 99.9,70C99.9,70.33 99.89,70.66 99.89,70.99C99.89,71.32 99.89,71.66 99.89,71.99C99.89,72.32 99.89,72.65 99.89,72.98C99.89,73.31 99.88,73.65 99.88,73.98C99.88,74.31 99.88,74.64 99.88,74.97C99.88,75.3 99.88,75.64 99.88,75.97C99.88,76.3 99.88,76.63 99.88,76.96C99.88,77.29 99.87,77.63 99.87,77.96C99.87,78.29 99.87,78.62 99.87,78.95C99.87,79.28 99.87,79.62 99.87,79.95C99.87,80.28 99.86,80.61 99.86,80.94C99.86,81.27 99.86,81.61 99.86,81.94C99.86,82.27 99.85,82.6 99.85,82.93C99.85,83.26 99.85,83.6 99.85,83.93C99.85,84.26 99.84,84.59 99.84,84.92C99.84,85.25 99.83,85.59 99.83,85.92C99.83,86.25 99.82,86.58 99.82,86.91C99.82,87.24 99.81,87.58 99.81,87.91C99.81,88.24 99.8,88.57 99.8,88.9C99.8,89.23 99.79,89.57 99.79,89.9C99.79,90.23 99.78,90.56 99.78,90.89C99.77,91.22 99.77,91.56 99.76,91.89C99.76,92.22 99.75,92.55 99.75,92.88C99.75,93.21 99.74,93.55 99.74,93.88C99.74,94.21 99.73,94.55 99.73,94.88C99.73,95.21 99.72,95.54 99.72,95.87C99.72,96.2 99.71,96.54 99.71,96.87C99.71,97.2 99.71,97.53 99.71,97.86C99.71,98.19 99.7,98.53 99.7,98.86C99.7,99.19 99.7,99.52 99.7,99.85C99.7,100.18 99.69,100.52 99.69,100.85C99.69,101.18 99.68,101.51 99.68,101.84C99.68,102.17 99.68,102.51 99.68,102.84C99.68,103.17 99.67,103.5 99.67,103.83C99.67,104.16 99.66,104.5 99.66,104.83C99.66,105.16 99.66,105.49 99.66,105.82C99.66,106.15 99.65,106.49 99.65,106.82C99.65,107.15 99.64,107.48 99.64,107.81C99.63,108.14 99.63,108.48 99.62,108.81C99.62,109.14 99.61,109.47 99.61,109.8C99.6,110.13 99.6,110.47 99.59,110.8C99.59,111.13 99.58,111.46 99.58,111.79C99.57,112.12 99.57,112.46 99.56,112.79C99.55,113.12 99.55,113.45 99.54,113.78C99.53,114.11 99.53,114.45 99.52,114.78C99.52,115.11 99.51,115.44 99.51,115.77C99.5,116.1 99.5,116.44 99.49,116.77C99.48,117.1 99.47,117.43 99.46,117.76C99.45,118.09 99.45,118.43 99.44,118.76C99.43,119.09 99.43,119.42 99.42,119.75C99.41,120.08 99.4,120.42 99.39,120.75C99.38,121.08 99.36,121.42 99.35,121.75C99.34,122.08 99.33,122.41 99.32,122.74C99.31,123.07 99.29,123.41 99.28,123.74C99.27,124.07 99.25,124.4 99.24,124.73C99.22,125.06 99.21,125.4 99.19,125.73C99.18,126.06 99.16,126.39 99.15,126.72C99.13,127.05 99.12,127.39 99.1,127.72C99.09,128.05 99.07,128.38 99.06,128.71C99.04,129.04 99.03,129.38 99.01,129.71C98.99,130.04 98.97,130.37 98.95,130.7C98.93,131.03 98.9,131.37 98.88,131.7C98.86,132.03 98.84,132.36 98.81,132.69C98.78,133.02 98.75,133.36 98.72,133.69C98.69,134.02 98.66,134.35 98.63,134.68C98.6,135.01 98.56,135.35 98.52,135.68C98.48,136.01 98.44,136.34 98.4,136.67C98.36,137 98.32,137.34 98.27,137.67C98.23,138 98.18,138.33 98.13,138.66C98.08,138.99 98.03,139.33 97.97,139.66C97.91,139.99 97.85,140.32 97.78,140.65C97.71,140.98 97.65,141.32 97.57,141.65C97.49,141.98 97.41,142.31 97.32,142.64C97.23,142.97 97.14,143.31 97.04,143.64C96.94,143.97 96.83,144.3 96.71,144.63C96.59,144.96 96.46,145.3 96.32,145.63C96.18,145.97 96.03,146.3 95.87,146.63C95.71,146.96 95.54,147.29 95.35,147.62C95.16,147.96 94.95,148.29 94.73,148.62C94.5,148.96 94.26,149.28 94,149.61C93.73,149.95 93.46,150.28 93.16,150.61C92.85,150.95 92.52,151.27 92.17,151.6C91.81,151.94 91.44,152.27 91.04,152.6C90.63,152.94 90.2,153.27 89.75,153.59C89.28,153.93 88.8,154.26 88.29,154.59C87.76,154.93 87.21,155.26 86.64,155.58C86.05,155.92 85.43,156.25 84.8,156.58C84.15,156.92 83.47,157.24 82.78,157.57C82.06,157.91 81.32,158.24 80.57,158.57C79.8,158.91 79,159.23 78.2,159.56C77.38,159.9 76.54,160.23 75.69,160.56C74.83,160.89 73.95,161.22 73.07,161.55C72.18,161.88 71.28,162.22 70.38,162.55C69.48,162.88 68.56,163.21 67.66,163.54C66.76,163.87 65.85,164.21 64.96,164.54C64.08,164.87 63.2,165.19 62.34,165.53C61.5,165.86 60.66,166.19 59.85,166.53C59.06,166.86 58.28,167.18 57.54,167.52C56.83,167.84 56.14,168.18 55.49,168.52C54.88,168.84 54.29,169.16 53.76,169.51C53.28,169.83 52.82,170.16 52.44,170.51C52.1,170.82 51.78,171.15 51.58,171.5C51.4,171.82 51.27,172.16 51.26,172.5C51.25,172.83 51.34,173.18 51.49,173.5C51.66,173.85 51.95,174.18 52.26,174.49C52.61,174.84 53.06,175.17 53.52,175.49C54.03,175.84 54.61,176.16 55.21,176.48C55.85,176.82 56.54,177.16 57.25,177.48C57.99,177.82 58.78,178.14 59.57,178.47C60.39,178.81 61.24,179.14 62.09,179.47C62.97,179.81 63.86,180.13 64.76,180.46C65.67,180.79 66.59,181.13 67.51,181.46C68.43,181.79 69.37,182.12 70.29,182.45C71.21,182.78 72.14,183.12 73.05,183.45C73.95,183.78 74.85,184.11 75.74,184.44C76.61,184.77 77.47,185.1 78.32,185.44C79.14,185.77 79.96,186.09 80.75,186.43C81.52,186.76 82.28,187.09 83.01,187.43C83.72,187.76 84.4,188.08 85.07,188.42C85.71,188.75 86.35,189.08 86.95,189.42C87.53,189.74 88.08,190.07 88.62,190.41C89.13,190.74 89.63,191.07 90.1,191.41C90.55,191.73 90.99,192.06 91.4,192.4C91.79,192.73 92.17,193.06 92.52,193.4C92.86,193.73 93.19,194.05 93.49,194.39C93.78,194.72 94.05,195.05 94.31,195.39C94.56,195.72 94.8,196.04 95.02,196.38C95.24,196.71 95.44,197.04 95.63,197.38C95.82,197.71 95.99,198.05 96.15,198.38C96.31,198.71 96.46,199.04 96.6,199.37C96.74,199.7 96.87,200.04 96.99,200.37C97.11,200.7 97.22,201.03 97.32,201.36C97.42,201.69 97.51,202.03 97.6,202.36C97.68,202.69 97.76,203.02 97.83,203.35C97.9,203.68 97.97,204.02 98.03,204.35C98.09,204.68 98.15,205.01 98.2,205.34C98.25,205.67 98.3,206.01 98.35,206.34C98.39,206.67 98.43,207 98.47,207.33C98.51,207.66 98.54,208 98.58,208.33C98.61,208.66 98.65,208.99 98.68,209.32C98.71,209.65 98.73,209.99 98.76,210.32C98.79,210.65 98.81,210.98 98.84,211.31C98.87,211.64 98.9,211.98 98.92,212.31C98.94,212.64 98.96,212.97 98.98,213.3C99,213.63 99.02,213.97 99.04,214.3C99.06,214.63 99.08,214.96 99.1,215.29C99.12,215.62 99.12,215.96 99.14,216.29C99.15,216.62 99.18,216.95 99.19,217.28C99.21,217.61 99.22,217.95 99.23,218.28C99.24,218.61 99.26,218.94 99.27,219.27C99.28,219.6 99.29,219.94 99.3,220.27C99.31,220.6 99.33,220.93 99.34,221.26C99.35,221.59 99.36,221.93 99.37,222.26C99.38,222.59 99.38,222.92 99.39,223.25C99.4,223.58 99.41,223.92 99.42,224.25C99.43,224.58 99.43,224.92 99.44,225.25C99.45,225.58 99.46,225.91 99.46,226.24C99.47,226.57 99.46,226.91 99.47,227.24C99.47,227.57 99.49,227.9 99.49,228.23C99.5,228.56 99.49,228.9 99.5,229.23C99.5,229.56 99.52,229.89 99.52,230.22C99.53,230.55 99.52,230.89 99.53,231.22C99.53,231.55 99.55,231.88 99.55,232.21C99.56,232.54 99.56,232.88 99.56,233.21C99.56,233.54 99.57,233.87 99.57,234.2C99.58,234.53 99.58,234.87 99.59,235.2C99.59,235.53 99.6,235.86 99.6,236.19C99.6,236.52 99.6,236.86 99.6,237.19C99.6,237.52 99.61,237.85 99.61,238.18C99.61,238.51 99.62,238.85 99.62,239.18C99.62,239.51 99.63,239.84 99.63,240.17C99.63,240.5 99.64,240.84 99.64,241.17C99.64,241.5 99.64,241.83 99.64,242.16C99.64,242.49 99.65,242.83 99.65,243.16C99.65,243.49 99.66,243.82 99.66,244.15C99.66,244.48 99.66,244.82 99.66,245.15C99.66,245.48 99.67,245.81 99.67,246.14C99.67,246.47 99.68,246.81 99.68,247.14C99.68,247.47 99.69,247.8 99.69,248.13C99.69,248.46 99.7,248.8 99.7,249.13C99.7,249.46 99.71,249.8 99.71,250.13C99.71,250.46 99.72,250.79 99.72,251.12C99.73,251.45 99.73,251.79 99.74,252.12C99.74,252.45 99.75,252.78 99.75,253.11C99.75,253.44 99.76,253.78 99.76,254.11C99.76,254.44 99.77,254.77 99.77,255.1C99.78,255.43 99.78,255.77 99.79,256.1C99.79,256.43 99.8,256.76 99.8,257.09C99.8,257.42 99.81,257.76 99.81,258.09C99.81,258.42 99.82,258.75 99.82,259.08C99.82,259.41 99.83,259.75 99.83,260.08C99.83,260.41 99.84,260.74 99.84,261.07C99.84,261.4 99.85,261.74 99.85,262.07C99.85,262.4 99.86,262.73 99.86,263.06C99.86,263.39 99.86,263.73 99.86,264.06C99.86,264.39 99.87,264.72 99.87,265.05C99.87,265.38 99.88,265.72 99.88,266.05C99.88,266.38 99.88,266.71 99.88,267.04C99.88,267.37 99.89,267.71 99.89,268.04C99.89,268.37 99.89,268.7 99.89,269.03C99.89,269.36 99.9,269.7 99.9,270.03C99.9,270.36 99.9,270.69 99.9,271.02C99.9,271.35 99.9,271.69 99.9,272.02C99.9,272.35 99.9,272.68 99.9,273.01C99.9,273.34 99.9,273.68 99.9,274.01C99.9,274.34 99.9,274.67 99.9,275C99.9,275.33 99.9,275.67 99.9,276C99.9,276.33 99.91,276.67 99.91,277C99.91,277.33 99.91,277.66 99.91,277.99C99.91,278.32 99.91,278.66 99.91,278.99C99.91,279.32 99.91,279.65 99.91,279.98C99.91,280.31 99.92,280.65 99.92,280.98C99.92,281.31 99.92,281.64 99.92,281.97C99.92,282.3 99.92,282.64 99.92,282.97C99.92,283.3 99.92,283.63 99.92,283.96C99.92,284.29 99.93,284.63 99.93,284.96C99.93,285.29 99.93,285.62 99.93,285.95C99.93,286.28 99.93,286.62 99.93,286.95C99.93,287.28 99.93,287.61 99.93,287.94C99.93,288.27 99.93,288.61 99.93,288.94C99.93,289.27 99.93,289.6 99.93,289.93C99.93,290.26 99.93,290.6 99.93,290.93C99.93,291.26 99.93,291.59 99.93,291.92C99.93,292.25 99.93,292.59 99.93,292.92C99.93,293.25 99.94,293.58 99.94,293.91C99.94,294.24 99.94,294.58 99.94,294.91C99.94,295.24 99.94,295.57 99.94,295.9C99.94,296.23 99.94,296.57 99.94,296.9C99.94,297.23 99.94,297.56 99.94,297.89C99.94,298.22 99.95,298.56 99.95,298.89C99.95,299.22 99.95,299.55 99.95,299.88C99.95,300.21 99.95,300.55 99.95,300.88C99.95,301.21 99.95,301.55 99.95,301.88C99.95,302.21 99.95,302.54 99.95,302.87C99.95,303.2 99.95,303.54 99.95,303.87C99.95,304.2 99.96,304.53 99.96,304.86C99.96,305.19 99.96,305.53 99.96,305.86C99.96,306.19 99.96,306.52 99.96,306.85C99.96,307.18 99.96,307.52 99.96,307.85C99.96,308.18 99.96,308.51 99.96,308.84C99.96,309.17 99.96,309.51 99.96,309.84C99.96,310.17 99.96,310.5 99.96,310.83C99.96,311.16 99.96,311.5 99.96,311.83C99.96,312.16 99.96,312.49 99.96,312.82C99.96,313.15 99.96,313.49 99.96,313.82C99.96,314.15 99.96,314.48 99.96,314.81C99.96,315.14 99.95,315.48 99.95,315.81C99.95,316.14 99.95,316.47 99.95,316.8C99.95,317.13 99.94,317.47 99.94,317.8C99.94,318.13 99.93,318.46 99.93,318.79C99.93,319.12 99.92,319.46 99.92,319.79C99.92,320.12 99.92,320.45 99.92,320.78C99.92,321.11 99.92,321.45 99.92,321.78C99.92,322.11 99.93,322.44 99.93,322.77C99.93,323.1 99.94,323.44 99.94,323.77C99.94,324.1 99.95,324.43 99.95,324.76C99.96,325.09 99.96,325.43 99.97,325.76C99.97,326.09 99.98,326.42 99.98,326.75Q99.98,327.08 99.99,327.75Z" style="vector-effect: non-scaling-stroke; stroke-width: 2px; stroke: rgb(31, 119, 180); stroke-opacity: 1; fill: rgb(31, 119, 180); fill-opacity: 0.5;"/></g><g class="trace violins" style="opacity: 1;"><path class="violin" d="M100.01,327.75Q100.02,327.08 100.02,326.75C100.02,326.42 100.03,326.09 100.03,325.76C100.04,325.43 100.04,325.09 100.05,324.76C100.06,324.43 100.07,324.1 100.07,323.77C100.08,323.44 100.08,323.1 100.08,322.77C100.08,322.44 100.09,322.11 100.09,321.78C100.09,321.45 100.09,321.11 100.09,320.78C100.09,320.45 100.08,320.12 100.08,319.79C100.08,319.46 100.08,319.12 100.07,318.79C100.07,318.46 100.05,318.13 100.05,317.8C100.04,317.47 100.04,317.13 100.04,316.8C100.04,316.47 100.03,316.14 100.03,315.81C100.03,315.48 100.03,315.14 100.03,314.81C100.03,314.48 100.03,314.15 100.03,313.82C100.03,313.49 100.03,313.15 100.03,312.82C100.03,312.49 100.03,312.16 100.03,311.83C100.03,311.5 100.03,311.16 100.03,310.83C100.03,310.5 100.03,310.17 100.03,309.84C100.03,309.51 100.03,309.17 100.03,308.84C100.03,308.51 100.03,308.18 100.03,307.85C100.03,307.52 100.03,307.18 100.03,306.85C100.03,306.52 100.03,306.19 100.03,305.86C100.03,305.53 100.03,305.19 100.03,304.86C100.03,304.53 100.03,304.2 100.03,303.87C100.03,303.54 100.03,303.2 100.03,302.87C100.03,302.54 100.03,302.21 100.03,301.88C100.03,301.55 100.03,301.21 100.03,300.88C100.03,300.55 100.03,300.21 100.03,299.88C100.03,299.55 100.04,299.22 100.04,298.89C100.04,298.56 100.04,298.22 100.04,297.89C100.04,297.56 100.04,297.23 100.04,296.9C100.04,296.57 100.04,296.23 100.04,295.9C100.04,295.57 100.04,295.24 100.04,294.91C100.04,294.58 100.04,294.24 100.04,293.91C100.04,293.58 100.04,293.25 100.04,292.92C100.04,292.59 100.04,292.25 100.04,291.92C100.04,291.59 100.05,291.26 100.05,290.93C100.05,290.6 100.05,290.26 100.05,289.93C100.05,289.6 100.05,289.27 100.05,288.94C100.05,288.61 100.05,288.27 100.05,287.94C100.05,287.61 100.05,287.28 100.05,286.95C100.05,286.62 100.05,286.28 100.05,285.95C100.05,285.62 100.05,285.29 100.05,284.96C100.05,284.63 100.05,284.29 100.05,283.96C100.05,283.63 100.06,283.3 100.06,282.97C100.06,282.64 100.06,282.3 100.06,281.97C100.06,281.64 100.06,281.31 100.06,280.98C100.06,280.65 100.06,280.31 100.06,279.98C100.06,279.65 100.07,279.32 100.07,278.99C100.07,278.66 100.07,278.32 100.07,277.99C100.07,277.66 100.07,277.33 100.07,277C100.07,276.67 100.07,276.33 100.07,276C100.07,275.67 100.08,275.33 100.08,275C100.08,274.67 100.08,274.34 100.08,274.01C100.08,273.68 100.08,273.34 100.08,273.01C100.08,272.68 100.08,272.35 100.08,272.02C100.08,271.69 100.08,271.35 100.08,271.02C100.08,270.69 100.08,270.36 100.08,270.03C100.08,269.7 100.09,269.36 100.09,269.03C100.09,268.7 100.09,268.37 100.09,268.04C100.09,267.71 100.09,267.37 100.09,267.04C100.09,266.71 100.1,266.38 100.1,266.05C100.1,265.72 100.1,265.38 100.1,265.05C100.1,264.72 100.11,264.39 100.11,264.06C100.11,263.73 100.12,263.39 100.12,263.06C100.12,262.73 100.12,262.4 100.12,262.07C100.12,261.74 100.13,261.4 100.13,261.07C100.13,260.74 100.14,260.41 100.14,260.08C100.14,259.75 100.15,259.41 100.15,259.08C100.15,258.75 100.16,258.42 100.16,258.09C100.16,257.76 100.17,257.42 100.17,257.09C100.17,256.76 100.18,256.43 100.18,256.1C100.19,255.77 100.19,255.43 100.2,255.1C100.21,254.77 100.21,254.44 100.22,254.11C100.23,253.78 100.23,253.44 100.24,253.11C100.24,252.78 100.25,252.45 100.25,252.12C100.26,251.79 100.26,251.45 100.27,251.12C100.28,250.79 100.29,250.46 100.29,250.13C100.3,249.8 100.3,249.46 100.3,249.13C100.3,248.8 100.31,248.46 100.31,248.13C100.31,247.8 100.32,247.47 100.32,247.14C100.32,246.81 100.32,246.47 100.32,246.14C100.32,245.81 100.33,245.48 100.33,245.15C100.33,244.82 100.33,244.48 100.33,244.15C100.33,243.82 100.33,243.49 100.33,243.16C100.33,242.83 100.34,242.49 100.34,242.16C100.34,241.83 100.34,241.5 100.34,241.17C100.34,240.84 100.35,240.5 100.35,240.17C100.35,239.84 100.35,239.51 100.35,239.18C100.35,238.85 100.35,238.51 100.35,238.18C100.35,237.85 100.36,237.52 100.36,237.19C100.36,236.86 100.37,236.52 100.37,236.19C100.37,235.86 100.38,235.53 100.38,235.2C100.38,234.87 100.39,234.53 100.39,234.2C100.39,233.87 100.4,233.54 100.4,233.21C100.4,232.88 100.4,232.54 100.41,232.21C100.41,231.88 100.43,231.55 100.43,231.22C100.44,230.89 100.44,230.55 100.44,230.22C100.44,229.89 100.45,229.56 100.45,229.23C100.46,228.9 100.46,228.56 100.47,228.23C100.48,227.9 100.49,227.57 100.49,227.24C100.5,226.91 100.49,226.57 100.5,226.24C100.5,225.91 100.51,225.58 100.52,225.25C100.53,224.92 100.53,224.58 100.54,224.25C100.55,223.92 100.56,223.58 100.57,223.25C100.58,222.92 100.59,222.59 100.6,222.26C100.61,221.93 100.62,221.59 100.63,221.26C100.64,220.93 100.65,220.6 100.66,220.27C100.67,219.94 100.69,219.6 100.7,219.27C100.71,218.94 100.73,218.61 100.74,218.28C100.75,217.95 100.76,217.61 100.77,217.28C100.78,216.95 100.81,216.62 100.82,216.29C100.84,215.96 100.84,215.62 100.86,215.29C100.87,214.96 100.89,214.63 100.91,214.3C100.93,213.97 100.96,213.63 100.98,213.3C101,212.97 101.02,212.64 101.04,212.31C101.06,211.98 101.09,211.64 101.12,211.31C101.15,210.98 101.18,210.65 101.21,210.32C101.24,209.99 101.27,209.65 101.31,209.32C101.34,208.99 101.38,208.66 101.42,208.33C101.46,208 101.5,207.66 101.55,207.33C101.59,207 101.64,206.67 101.69,206.34C101.74,206.01 101.78,205.67 101.84,205.34C101.89,205.01 101.96,204.68 102.02,204.35C102.09,204.02 102.16,203.68 102.23,203.35C102.3,203.02 102.38,202.69 102.46,202.36C102.54,202.03 102.63,201.69 102.73,201.36C102.83,201.03 102.94,200.7 103.06,200.37C103.18,200.04 103.29,199.7 103.43,199.37C103.57,199.04 103.72,198.71 103.88,198.38C104.05,198.04 104.23,197.71 104.42,197.38C104.62,197.04 104.82,196.71 105.05,196.38C105.28,196.04 105.53,195.72 105.79,195.39C106.06,195.05 106.34,194.72 106.64,194.39C106.95,194.05 107.29,193.73 107.63,193.4C107.99,193.06 108.36,192.73 108.75,192.4C109.16,192.06 109.59,191.74 110.04,191.41C110.51,191.07 110.99,190.74 111.49,190.41C112.01,190.07 112.56,189.74 113.13,189.42C113.72,189.08 114.34,188.75 114.98,188.42C115.64,188.08 116.33,187.76 117.03,187.43C117.76,187.09 118.51,186.76 119.28,186.43C120.07,186.09 120.89,185.77 121.72,185.44C122.57,185.1 123.45,184.77 124.33,184.44C125.23,184.11 126.14,183.78 127.06,183.45C127.99,183.12 128.94,182.78 129.88,182.45C130.83,182.12 131.78,181.79 132.73,181.46C133.68,181.13 134.63,180.79 135.57,180.46C136.49,180.13 137.4,179.81 138.3,179.47C139.17,179.14 140.04,178.81 140.88,178.47C141.68,178.15 142.46,177.82 143.21,177.48C143.91,177.16 144.61,176.83 145.24,176.48C145.83,176.16 146.39,175.84 146.89,175.49C147.34,175.17 147.77,174.84 148.1,174.49C148.39,174.18 148.67,173.85 148.82,173.5C148.96,173.18 149.03,172.83 149,172.5C148.97,172.16 148.83,171.82 148.64,171.5C148.43,171.15 148.11,170.82 147.77,170.51C147.39,170.16 146.92,169.83 146.43,169.51C145.9,169.16 145.3,168.84 144.69,168.52C144.03,168.18 143.33,167.84 142.61,167.52C141.86,167.18 141.07,166.86 140.27,166.53C139.44,166.19 138.58,165.86 137.72,165.53C136.84,165.19 135.94,164.87 135.04,164.54C134.13,164.21 133.2,163.87 132.28,163.54C131.36,163.21 130.43,162.88 129.51,162.55C128.59,162.22 127.68,161.88 126.77,161.55C125.88,161.22 124.99,160.9 124.12,160.56C123.27,160.23 122.42,159.9 121.59,159.56C120.79,159.23 119.99,158.91 119.22,158.57C118.47,158.24 117.74,157.91 117.03,157.57C116.35,157.24 115.68,156.92 115.04,156.58C114.42,156.25 113.81,155.92 113.23,155.58C112.67,155.26 112.13,154.93 111.61,154.59C111.11,154.26 110.64,153.93 110.18,153.59C109.74,153.26 109.31,152.94 108.91,152.6C108.52,152.27 108.15,151.94 107.8,151.6C107.46,151.27 107.14,150.95 106.84,150.61C106.54,150.28 106.26,149.95 106,149.61C105.75,149.28 105.51,148.95 105.29,148.62C105.07,148.29 104.86,147.96 104.67,147.62C104.48,147.29 104.31,146.96 104.14,146.63C103.98,146.3 103.82,145.97 103.68,145.63C103.54,145.3 103.41,144.96 103.29,144.63C103.17,144.3 103.06,143.97 102.95,143.64C102.85,143.31 102.75,142.97 102.66,142.64C102.57,142.31 102.49,141.98 102.41,141.65C102.33,141.32 102.26,140.98 102.19,140.65C102.12,140.32 102.06,139.99 102,139.66C101.94,139.33 101.88,138.99 101.83,138.66C101.78,138.33 101.73,138 101.69,137.67C101.64,137.34 101.6,137 101.56,136.67C101.52,136.34 101.48,136.01 101.44,135.68C101.4,135.35 101.37,135.01 101.34,134.68C101.31,134.35 101.28,134.02 101.25,133.69C101.22,133.36 101.19,133.02 101.16,132.69C101.13,132.36 101.1,132.03 101.08,131.7C101.05,131.37 101.03,131.03 101.01,130.7C100.99,130.37 100.97,130.04 100.95,129.71C100.93,129.38 100.92,129.04 100.9,128.71C100.88,128.38 100.87,128.05 100.85,127.72C100.83,127.39 100.82,127.05 100.8,126.72C100.79,126.39 100.77,126.06 100.76,125.73C100.75,125.4 100.73,125.06 100.72,124.73C100.71,124.4 100.69,124.07 100.68,123.74C100.67,123.41 100.66,123.07 100.65,122.74C100.64,122.41 100.62,122.08 100.61,121.75C100.6,121.42 100.6,121.08 100.59,120.75C100.58,120.42 100.57,120.08 100.56,119.75C100.55,119.42 100.55,119.09 100.54,118.76C100.53,118.43 100.52,118.09 100.51,117.76C100.5,117.43 100.5,117.1 100.49,116.77C100.48,116.44 100.48,116.1 100.47,115.77C100.46,115.44 100.45,115.11 100.44,114.78C100.43,114.45 100.43,114.11 100.42,113.78C100.42,113.45 100.41,113.12 100.41,112.79C100.4,112.46 100.4,112.12 100.39,111.79C100.38,111.46 100.37,111.13 100.37,110.8C100.36,110.47 100.36,110.13 100.36,109.8C100.36,109.47 100.36,109.14 100.36,108.81C100.36,108.48 100.35,108.14 100.35,107.81C100.35,107.48 100.35,107.15 100.35,106.82C100.35,106.49 100.35,106.15 100.35,105.82C100.35,105.49 100.35,105.16 100.35,104.83C100.35,104.5 100.35,104.16 100.35,103.83C100.35,103.5 100.34,103.17 100.34,102.84C100.34,102.51 100.34,102.17 100.34,101.84C100.34,101.51 100.33,101.18 100.33,100.85C100.33,100.52 100.33,100.18 100.33,99.85C100.33,99.52 100.32,99.19 100.32,98.86C100.32,98.53 100.31,98.19 100.31,97.86C100.31,97.53 100.31,97.2 100.31,96.87C100.31,96.54 100.3,96.2 100.29,95.87C100.29,95.54 100.28,95.21 100.28,94.88C100.28,94.55 100.27,94.21 100.27,93.88C100.26,93.55 100.26,93.21 100.25,92.88C100.24,92.55 100.23,92.22 100.23,91.89C100.22,91.56 100.23,91.22 100.22,90.89C100.22,90.56 100.2,90.23 100.2,89.9C100.19,89.57 100.2,89.23 100.19,88.9C100.19,88.57 100.17,88.24 100.17,87.91C100.16,87.58 100.16,87.24 100.16,86.91C100.16,86.58 100.15,86.25 100.15,85.92C100.15,85.59 100.14,85.25 100.14,84.92C100.14,84.59 100.13,84.26 100.13,83.93C100.13,83.6 100.12,83.26 100.12,82.93C100.12,82.6 100.12,82.27 100.12,81.94C100.12,81.61 100.11,81.27 100.11,80.94C100.11,80.61 100.11,80.28 100.11,79.95C100.11,79.62 100.1,79.28 100.1,78.95C100.1,78.62 100.1,78.29 100.1,77.96C100.1,77.63 100.1,77.29 100.1,76.96C100.1,76.63 100.09,76.3 100.09,75.97C100.09,75.64 100.09,75.3 100.09,74.97C100.09,74.64 100.09,74.31 100.09,73.98C100.09,73.65 100.08,73.31 100.08,72.98C100.08,72.65 100.08,72.32 100.08,71.99C100.08,71.66 100.08,71.32 100.08,70.99C100.08,70.66 100.07,70.33 100.07,70C100.07,69.67 100.07,69.33 100.07,69C100.07,68.67 100.07,68.33 100.07,68C100.07,67.67 100.07,67.34 100.07,67.01C100.07,66.68 100.06,66.34 100.06,66.01C100.06,65.68 100.06,65.35 100.06,65.02C100.06,64.69 100.06,64.35 100.06,64.02C100.06,63.69 100.06,63.36 100.06,63.03C100.06,62.7 100.06,62.36 100.06,62.03C100.06,61.7 100.06,61.37 100.06,61.04C100.06,60.71 100.06,60.37 100.06,60.04C100.06,59.71 100.06,59.38 100.06,59.05C100.06,58.72 100.06,58.38 100.06,58.05C100.06,57.72 100.05,57.39 100.05,57.06C100.05,56.73 100.05,56.39 100.05,56.06C100.05,55.73 100.05,55.4 100.05,55.07C100.05,54.74 100.04,54.4 100.04,54.07C100.04,53.74 100.04,53.41 100.04,53.08C100.04,52.75 100.04,52.41 100.04,52.08C100.04,51.75 100.04,51.42 100.04,51.09C100.04,50.76 100.04,50.42 100.04,50.09C100.04,49.76 100.04,49.43 100.04,49.1C100.04,48.77 100.04,48.43 100.04,48.1C100.04,47.77 100.04,47.44 100.04,47.11C100.04,46.78 100.04,46.44 100.04,46.11C100.04,45.78 100.04,45.45 100.04,45.12C100.04,44.79 100.04,44.45 100.04,44.12C100.04,43.79 100.04,43.46 100.04,43.13C100.04,42.8 100.04,42.46 100.04,42.13C100.04,41.8 100.04,41.46 100.04,41.13C100.04,40.8 100.03,40.47 100.03,40.14C100.03,39.81 100.03,39.47 100.03,39.14C100.03,38.81 100.03,38.48 100.03,38.15C100.03,37.82 100.03,37.48 100.03,37.15C100.03,36.82 100.03,36.49 100.03,36.16C100.03,35.83 100.03,35.49 100.03,35.16C100.03,34.83 100.03,34.5 100.03,34.17C100.03,33.84 100.02,33.5 100.02,33.17C100.02,32.84 100.02,32.51 100.02,32.18C100.02,31.85 100.02,31.51 100.02,31.18C100.02,30.85 100.02,30.52 100.02,30.19C100.02,29.86 100.03,29.52 100.03,29.19C100.03,28.86 100.03,28.53 100.03,28.2C100.03,27.87 100.04,27.53 100.04,27.2C100.04,26.87 100.05,26.54 100.05,26.21C100.05,25.88 100.06,25.54 100.06,25.21C100.06,24.88 100.07,24.55 100.07,24.22C100.07,23.89 100.07,23.55 100.07,23.22C100.07,22.89 100.06,22.56 100.06,22.23C100.06,21.9 100.05,21.56 100.05,21.23C100.05,20.9 100.04,20.57 100.04,20.24C100.04,19.91 100.03,19.57 100.03,19.24C100.03,18.91 100.02,18.58 100.02,18.25Q100.02,17.92 100.01,17.25L99.99,17.25Q99.98,17.92 99.98,18.25C99.98,18.58 99.97,18.91 99.97,19.24C99.97,19.57 99.96,19.91 99.96,20.24C99.96,20.57 99.95,20.9 99.95,21.23C99.95,21.56 99.94,21.9 99.94,22.23C99.94,22.56 99.93,22.89 99.93,23.22C99.93,23.55 99.93,23.89 99.93,24.22C99.93,24.55 99.94,24.88 99.94,25.21C99.94,25.54 99.95,25.88 99.95,26.21C99.95,26.54 99.96,26.87 99.96,27.2C99.96,27.53 99.97,27.87 99.97,28.2C99.97,28.53 99.97,28.86 99.97,29.19C99.97,29.52 99.98,29.86 99.98,30.19C99.98,30.52 99.98,30.85 99.98,31.18C99.98,31.51 99.98,31.85 99.98,32.18C99.98,32.51 99.98,32.84 99.98,33.17C99.98,33.5 99.97,33.84 99.97,34.17C99.97,34.5 99.97,34.83 99.97,35.16C99.97,35.49 99.97,35.83 99.97,36.16C99.97,36.49 99.97,36.82 99.97,37.15C99.97,37.48 99.97,37.82 99.97,38.15C99.97,38.48 99.97,38.81 99.97,39.14C99.97,39.47 99.97,39.81 99.97,40.14C99.97,40.47 99.96,40.8 99.96,41.13C99.96,41.46 99.96,41.8 99.96,42.13C99.96,42.46 99.96,42.8 99.96,43.13C99.96,43.46 99.96,43.79 99.96,44.12C99.96,44.45 99.96,44.79 99.96,45.12C99.96,45.45 99.96,45.78 99.96,46.11C99.96,46.44 99.96,46.78 99.96,47.11C99.96,47.44 99.96,47.77 99.96,48.1C99.96,48.43 99.96,48.77 99.96,49.1C99.96,49.43 99.96,49.76 99.96,50.09C99.96,50.42 99.96,50.76 99.96,51.09C99.96,51.42 99.96,51.75 99.96,52.08C99.96,52.41 99.96,52.75 99.96,53.08C99.96,53.41 99.96,53.74 99.96,54.07C99.96,54.4 99.95,54.74 99.95,55.07C99.95,55.4 99.95,55.73 99.95,56.06C99.95,56.39 99.95,56.73 99.95,57.06C99.95,57.39 99.94,57.72 99.94,58.05C99.94,58.38 99.94,58.72 99.94,59.05C99.94,59.38 99.94,59.71 99.94,60.04C99.94,60.37 99.94,60.71 99.94,61.04C99.94,61.37 99.94,61.7 99.94,62.03C99.94,62.36 99.94,62.7 99.94,63.03C99.94,63.36 99.94,63.69 99.94,64.02C99.94,64.35 99.94,64.69 99.94,65.02C99.94,65.35 99.94,65.68 99.94,66.01C99.94,66.34 99.93,66.68 99.93,67.01C99.93,67.34 99.93,67.67 99.93,68C99.93,68.33 99.93,68.67 99.93,69C99.93,69.33 99.93,69.67 99.93,70C99.93,70.33 99.92,70.66 99.92,70.99C99.92,71.32 99.92,71.66 99.92,71.99C99.92,72.32 99.92,72.65 99.92,72.98C99.92,73.31 99.91,73.65 99.91,73.98C99.91,74.31 99.91,74.64 99.91,74.97C99.91,75.3 99.91,75.64 99.91,75.97C99.91,76.3 99.9,76.63 99.9,76.96C99.9,77.29 99.9,77.63 99.9,77.96C99.9,78.29 99.9,78.62 99.9,78.95C99.9,79.28 99.89,79.62 99.89,79.95C99.89,80.28 99.89,80.61 99.89,80.94C99.89,81.27 99.88,81.61 99.88,81.94C99.88,82.27 99.88,82.6 99.88,82.93C99.88,83.26 99.87,83.6 99.87,83.93C99.87,84.26 99.86,84.59 99.86,84.92C99.86,85.25 99.85,85.59 99.85,85.92C99.85,86.25 99.84,86.58 99.84,86.91C99.84,87.24 99.84,87.58 99.83,87.91C99.83,88.24 99.81,88.57 99.81,88.9C99.8,89.23 99.81,89.57 99.8,89.9C99.8,90.23 99.78,90.56 99.78,90.89C99.77,91.22 99.78,91.56 99.77,91.89C99.77,92.22 99.76,92.55 99.75,92.88C99.74,93.21 99.74,93.55 99.73,93.88C99.73,94.21 99.72,94.55 99.72,94.88C99.72,95.21 99.71,95.54 99.71,95.87C99.7,96.2 99.69,96.54 99.69,96.87C99.69,97.2 99.69,97.53 99.69,97.86C99.69,98.19 99.68,98.53 99.68,98.86C99.68,99.19 99.67,99.52 99.67,99.85C99.67,100.18 99.67,100.52 99.67,100.85C99.67,101.18 99.66,101.51 99.66,101.84C99.66,102.17 99.66,102.51 99.66,102.84C99.66,103.17 99.65,103.5 99.65,103.83C99.65,104.16 99.65,104.5 99.65,104.83C99.65,105.16 99.65,105.49 99.65,105.82C99.65,106.15 99.65,106.49 99.65,106.82C99.65,107.15 99.65,107.48 99.65,107.81C99.65,108.14 99.64,108.48 99.64,108.81C99.64,109.14 99.64,109.47 99.64,109.8C99.64,110.13 99.64,110.47 99.63,110.8C99.63,111.13 99.62,111.46 99.61,111.79C99.6,112.12 99.6,112.46 99.59,112.79C99.59,113.12 99.58,113.45 99.58,113.78C99.57,114.11 99.57,114.45 99.56,114.78C99.55,115.11 99.54,115.44 99.53,115.77C99.52,116.1 99.52,116.44 99.51,116.77C99.5,117.1 99.5,117.43 99.49,117.76C99.48,118.09 99.47,118.43 99.46,118.76C99.45,119.09 99.45,119.42 99.44,119.75C99.43,120.08 99.42,120.42 99.41,120.75C99.4,121.08 99.4,121.42 99.39,121.75C99.38,122.08 99.36,122.41 99.35,122.74C99.34,123.07 99.33,123.41 99.32,123.74C99.31,124.07 99.29,124.4 99.28,124.73C99.27,125.06 99.25,125.4 99.24,125.73C99.23,126.06 99.21,126.39 99.2,126.72C99.18,127.05 99.17,127.39 99.15,127.72C99.13,128.05 99.12,128.38 99.1,128.71C99.08,129.04 99.07,129.38 99.05,129.71C99.03,130.04 99.01,130.37 98.99,130.7C98.97,131.03 98.95,131.37 98.92,131.7C98.9,132.03 98.87,132.36 98.84,132.69C98.81,133.02 98.78,133.36 98.75,133.69C98.72,134.02 98.69,134.35 98.66,134.68C98.63,135.01 98.6,135.35 98.56,135.68C98.52,136.01 98.48,136.34 98.44,136.67C98.4,137 98.36,137.34 98.31,137.67C98.27,138 98.22,138.33 98.17,138.66C98.12,138.99 98.06,139.33 98,139.66C97.94,139.99 97.88,140.32 97.81,140.65C97.74,140.98 97.67,141.32 97.59,141.65C97.51,141.98 97.43,142.31 97.34,142.64C97.25,142.97 97.15,143.31 97.05,143.64C96.94,143.97 96.83,144.3 96.71,144.63C96.59,144.96 96.46,145.3 96.32,145.63C96.18,145.97 96.02,146.3 95.86,146.63C95.69,146.96 95.52,147.29 95.33,147.62C95.14,147.96 94.93,148.29 94.71,148.62C94.49,148.95 94.25,149.28 94,149.61C93.74,149.95 93.46,150.28 93.16,150.61C92.86,150.95 92.54,151.27 92.2,151.6C91.85,151.94 91.48,152.27 91.09,152.6C90.69,152.94 90.26,153.26 89.82,153.59C89.36,153.93 88.89,154.26 88.39,154.59C87.87,154.93 87.33,155.26 86.77,155.58C86.19,155.92 85.58,156.25 84.96,156.58C84.32,156.92 83.65,157.24 82.97,157.57C82.26,157.91 81.53,158.24 80.78,158.57C80.01,158.91 79.21,159.23 78.41,159.56C77.58,159.9 76.73,160.23 75.88,160.56C75.01,160.9 74.12,161.22 73.23,161.55C72.32,161.88 71.41,162.22 70.49,162.55C69.57,162.88 68.64,163.21 67.72,163.54C66.8,163.87 65.87,164.21 64.96,164.54C64.06,164.87 63.16,165.19 62.28,165.53C61.42,165.86 60.56,166.19 59.73,166.53C58.93,166.86 58.14,167.18 57.39,167.52C56.67,167.84 55.97,168.18 55.31,168.52C54.7,168.84 54.1,169.16 53.57,169.51C53.08,169.83 52.61,170.16 52.23,170.51C51.89,170.82 51.57,171.15 51.36,171.5C51.17,171.82 51.03,172.16 51,172.5C50.97,172.83 51.04,173.18 51.18,173.5C51.33,173.85 51.61,174.18 51.9,174.49C52.23,174.84 52.66,175.17 53.11,175.49C53.61,175.84 54.17,176.16 54.76,176.48C55.39,176.83 56.09,177.16 56.79,177.48C57.54,177.82 58.32,178.15 59.12,178.47C59.96,178.81 60.83,179.14 61.7,179.47C62.6,179.81 63.51,180.13 64.43,180.46C65.37,180.79 66.32,181.13 67.27,181.46C68.22,181.79 69.17,182.12 70.12,182.45C71.06,182.78 72.01,183.12 72.94,183.45C73.86,183.78 74.77,184.11 75.67,184.44C76.55,184.77 77.43,185.1 78.28,185.44C79.11,185.77 79.93,186.09 80.72,186.43C81.49,186.76 82.24,187.09 82.97,187.43C83.67,187.76 84.36,188.08 85.02,188.42C85.66,188.75 86.28,189.08 86.87,189.42C87.44,189.74 87.99,190.07 88.51,190.41C89.01,190.74 89.49,191.07 89.96,191.41C90.41,191.74 90.84,192.06 91.25,192.4C91.64,192.73 92.01,193.06 92.37,193.4C92.71,193.73 93.05,194.05 93.36,194.39C93.66,194.72 93.94,195.05 94.21,195.39C94.47,195.72 94.72,196.04 94.95,196.38C95.18,196.71 95.38,197.04 95.58,197.38C95.77,197.71 95.95,198.04 96.12,198.38C96.28,198.71 96.43,199.04 96.57,199.37C96.71,199.7 96.82,200.04 96.94,200.37C97.06,200.7 97.17,201.03 97.27,201.36C97.37,201.69 97.46,202.03 97.54,202.36C97.62,202.69 97.7,203.02 97.77,203.35C97.84,203.68 97.91,204.02 97.98,204.35C98.04,204.68 98.11,205.01 98.16,205.34C98.22,205.67 98.26,206.01 98.31,206.34C98.36,206.67 98.41,207 98.45,207.33C98.5,207.66 98.54,208 98.58,208.33C98.62,208.66 98.66,208.99 98.69,209.32C98.73,209.65 98.76,209.99 98.79,210.32C98.82,210.65 98.85,210.98 98.88,211.31C98.91,211.64 98.94,211.98 98.96,212.31C98.98,212.64 99,212.97 99.02,213.3C99.04,213.63 99.07,213.97 99.09,214.3C99.11,214.63 99.13,214.96 99.14,215.29C99.16,215.62 99.16,215.96 99.18,216.29C99.19,216.62 99.22,216.95 99.23,217.28C99.24,217.61 99.25,217.95 99.26,218.28C99.27,218.61 99.29,218.94 99.3,219.27C99.31,219.6 99.33,219.94 99.34,220.27C99.35,220.6 99.36,220.93 99.37,221.26C99.38,221.59 99.39,221.93 99.4,222.26C99.41,222.59 99.42,222.92 99.43,223.25C99.44,223.58 99.45,223.92 99.46,224.25C99.47,224.58 99.47,224.92 99.48,225.25C99.49,225.58 99.5,225.91 99.5,226.24C99.51,226.57 99.5,226.91 99.51,227.24C99.51,227.57 99.52,227.9 99.53,228.23C99.54,228.56 99.54,228.9 99.55,229.23C99.55,229.56 99.56,229.89 99.56,230.22C99.56,230.55 99.56,230.89 99.57,231.22C99.57,231.55 99.59,231.88 99.59,232.21C99.6,232.54 99.6,232.88 99.6,233.21C99.6,233.54 99.61,233.87 99.61,234.2C99.61,234.53 99.62,234.87 99.62,235.2C99.62,235.53 99.63,235.86 99.63,236.19C99.63,236.52 99.64,236.86 99.64,237.19C99.64,237.52 99.65,237.85 99.65,238.18C99.65,238.51 99.65,238.85 99.65,239.18C99.65,239.51 99.65,239.84 99.65,240.17C99.65,240.5 99.66,240.84 99.66,241.17C99.66,241.5 99.66,241.83 99.66,242.16C99.66,242.49 99.67,242.83 99.67,243.16C99.67,243.49 99.67,243.82 99.67,244.15C99.67,244.48 99.67,244.82 99.67,245.15C99.67,245.48 99.68,245.81 99.68,246.14C99.68,246.47 99.68,246.81 99.68,247.14C99.68,247.47 99.69,247.8 99.69,248.13C99.69,248.46 99.7,248.8 99.7,249.13C99.7,249.46 99.7,249.8 99.71,250.13C99.71,250.46 99.72,250.79 99.73,251.12C99.74,251.45 99.74,251.79 99.75,252.12C99.75,252.45 99.76,252.78 99.76,253.11C99.77,253.44 99.77,253.78 99.78,254.11C99.79,254.44 99.79,254.77 99.8,255.1C99.81,255.43 99.81,255.77 99.82,256.1C99.82,256.43 99.83,256.76 99.83,257.09C99.83,257.42 99.84,257.76 99.84,258.09C99.84,258.42 99.85,258.75 99.85,259.08C99.85,259.41 99.86,259.75 99.86,260.08C99.86,260.41 99.87,260.74 99.87,261.07C99.87,261.4 99.88,261.74 99.88,262.07C99.88,262.4 99.88,262.73 99.88,263.06C99.88,263.39 99.89,263.73 99.89,264.06C99.89,264.39 99.9,264.72 99.9,265.05C99.9,265.38 99.9,265.72 99.9,266.05C99.9,266.38 99.91,266.71 99.91,267.04C99.91,267.37 99.91,267.71 99.91,268.04C99.91,268.37 99.91,268.7 99.91,269.03C99.91,269.36 99.92,269.7 99.92,270.03C99.92,270.36 99.92,270.69 99.92,271.02C99.92,271.35 99.92,271.69 99.92,272.02C99.92,272.35 99.92,272.68 99.92,273.01C99.92,273.34 99.92,273.68 99.92,274.01C99.92,274.34 99.92,274.67 99.92,275C99.92,275.33 99.93,275.67 99.93,276C99.93,276.33 99.93,276.67 99.93,277C99.93,277.33 99.93,277.66 99.93,277.99C99.93,278.32 99.93,278.66 99.93,278.99C99.93,279.32 99.94,279.65 99.94,279.98C99.94,280.31 99.94,280.65 99.94,280.98C99.94,281.31 99.94,281.64 99.94,281.97C99.94,282.3 99.94,282.64 99.94,282.97C99.94,283.3 99.95,283.63 99.95,283.96C99.95,284.29 99.95,284.63 99.95,284.96C99.95,285.29 99.95,285.62 99.95,285.95C99.95,286.28 99.95,286.62 99.95,286.95C99.95,287.28 99.95,287.61 99.95,287.94C99.95,288.27 99.95,288.61 99.95,288.94C99.95,289.27 99.95,289.6 99.95,289.93C99.95,290.26 99.95,290.6 99.95,290.93C99.95,291.26 99.96,291.59 99.96,291.92C99.96,292.25 99.96,292.59 99.96,292.92C99.96,293.25 99.96,293.58 99.96,293.91C99.96,294.24 99.96,294.58 99.96,294.91C99.96,295.24 99.96,295.57 99.96,295.9C99.96,296.23 99.96,296.57 99.96,296.9C99.96,297.23 99.96,297.56 99.96,297.89C99.96,298.22 99.96,298.56 99.96,298.89C99.96,299.22 99.97,299.55 99.97,299.88C99.97,300.21 99.97,300.55 99.97,300.88C99.97,301.21 99.97,301.55 99.97,301.88C99.97,302.21 99.97,302.54 99.97,302.87C99.97,303.2 99.97,303.54 99.97,303.87C99.97,304.2 99.97,304.53 99.97,304.86C99.97,305.19 99.97,305.53 99.97,305.86C99.97,306.19 99.97,306.52 99.97,306.85C99.97,307.18 99.97,307.52 99.97,307.85C99.97,308.18 99.97,308.51 99.97,308.84C99.97,309.17 99.97,309.51 99.97,309.84C99.97,310.17 99.97,310.5 99.97,310.83C99.97,311.16 99.97,311.5 99.97,311.83C99.97,312.16 99.97,312.49 99.97,312.82C99.97,313.15 99.97,313.49 99.97,313.82C99.97,314.15 99.97,314.48 99.97,314.81C99.97,315.14 99.97,315.48 99.97,315.81C99.97,316.14 99.96,316.47 99.96,316.8C99.96,317.13 99.96,317.47 99.95,317.8C99.95,318.13 99.93,318.46 99.93,318.79C99.92,319.12 99.92,319.46 99.92,319.79C99.92,320.12 99.91,320.45 99.91,320.78C99.91,321.11 99.91,321.45 99.91,321.78C99.91,322.11 99.92,322.44 99.92,322.77C99.92,323.1 99.92,323.44 99.93,323.77C99.93,324.1 99.94,324.43 99.95,324.76C99.96,325.09 99.96,325.43 99.97,325.76C99.97,326.09 99.98,326.42 99.98,326.75Q99.98,327.08 99.99,327.75Z" style="vector-effect: non-scaling-stroke; stroke-width: 2px; stroke: rgb(255, 127, 14); stroke-opacity: 1; fill: rgb(255, 127, 14); fill-opacity: 0.5;"/></g></g></g><g class="overplot"/><path class="xlines-above crisp" d="M69,365.5H270" style="fill: none; stroke-width: 1px; stroke: rgb(36, 36, 36); stroke-opacity: 1;"/><path class="ylines-above crisp" d="M69.5,20V365" style="fill: none; stroke-width: 1px; stroke: rgb(36, 36, 36); stroke-opacity: 1;"/><g class="overlines-above"/><g class="xaxislayer-above"><path class="xtick ticks crisp" d="M0,366v5" transform="translate(170,0)" style="stroke: rgb(68, 68, 68); stroke-opacity: 1; stroke-width: 1px;"/><g class="xtick"><text text-anchor="middle" x="0" y="385.4" transform="translate(170,0)" style="font-family: 'Open Sans', verdana, arial, sans-serif; font-size: 12px; fill: rgb(36, 36, 36); fill-opacity: 1; white-space: pre;"> </text></g></g><g class="yaxislayer-above"><path class="ytick ticks crisp" d="M69,0h-5" transform="translate(0,341.78)" style="stroke: rgb(68, 68, 68); stroke-opacity: 1; stroke-width: 1px;"/><path class="ytick ticks crisp" d="M69,0h-5" transform="translate(0,267.14)" style="stroke: rgb(68, 68, 68); stroke-opacity: 1; stroke-width: 1px;"/><path class="ytick ticks crisp" d="M69,0h-5" transform="translate(0,192.5)" style="stroke: rgb(68, 68, 68); stroke-opacity: 1; stroke-width: 1px;"/><path class="ytick ticks crisp" d="M69,0h-5" transform="translate(0,117.86)" style="stroke: rgb(68, 68, 68); stroke-opacity: 1; stroke-width: 1px;"/><path class="ytick ticks crisp" d="M69,0h-5" transform="translate(0,43.22)" style="stroke: rgb(68, 68, 68); stroke-opacity: 1; stroke-width: 1px;"/><g class="ytick"><text text-anchor="end" x="61.6" y="4.199999999999999" transform="translate(0,341.78)" style="font-family: 'Open Sans', verdana, arial, sans-serif; font-size: 12px; fill: rgb(36, 36, 36); fill-opacity: 1; white-space: pre;">10</text></g><g class="ytick"><text text-anchor="end" x="61.6" y="4.199999999999999" transform="translate(0,267.14)" style="font-family: 'Open Sans', verdana, arial, sans-serif; font-size: 12px; fill: rgb(36, 36, 36); fill-opacity: 1; white-space: pre;">5</text></g><g class="ytick"><text text-anchor="end" x="61.6" y="4.199999999999999" transform="translate(0,192.5)" style="font-family: 'Open Sans', verdana, arial, sans-serif; font-size: 12px; fill: rgb(36, 36, 36); fill-opacity: 1; white-space: pre;">0</text></g><g class="ytick"><text text-anchor="end" x="61.6" y="4.199999999999999" transform="translate(0,117.86)" style="font-family: 'Open Sans', verdana, arial, sans-serif; font-size: 12px; fill: rgb(36, 36, 36); fill-opacity: 1; white-space: pre;">5</text></g><g class="ytick"><text text-anchor="end" x="61.6" y="4.199999999999999" transform="translate(0,43.22)" style="font-family: 'Open Sans', verdana, arial, sans-serif; font-size: 12px; fill: rgb(36, 36, 36); fill-opacity: 1; white-space: pre;">10</text></g></g><g class="overaxes-above"/></g></g><g class="polarlayer"/><g class="ternarylayer"/><g class="geolayer"/><g class="funnelarealayer"/><g class="pielayer"/><g class="treemaplayer"/><g class="sunburstlayer"/><g class="glimages"/><defs id="topdefs-0077c7"><g class="clips"/><clipPath id="legend0077c7"><rect width="62" height="64" x="0" y="0"/></clipPath></defs><g class="layer-above"><g class="imagelayer"/><g class="shapelayer"/></g><g class="infolayer"><g class="legend" pointer-events="all" transform="translate(190,20)"><rect class="bg" shape-rendering="crispEdges" width="62" height="64" x="0" y="0" style="stroke: rgb(68, 68, 68); stroke-opacity: 1; fill: rgb(255, 255, 255); fill-opacity: 1; stroke-width: 0px;"/><g class="scrollbox" transform="" clip-path="url('#legend0077c7')"><text class="legendtitletext" text-anchor="start" x="2" y="15.600000000000001" style="font-family: 'Open Sans', verdana, arial, sans-serif; font-size: 12px; fill: rgb(36, 36, 36); fill-opacity: 1; white-space: pre;">cp_dose</text><g class="groups" transform=""><g class="traces" transform="translate(0,30.1)" style="opacity: 1;"><text class="legendtext" text-anchor="start" x="40" y="4.680000000000001" style="font-family: 'Open Sans', verdana, arial, sans-serif; font-size: 12px; fill: rgb(36, 36, 36); fill-opacity: 1; white-space: pre;">D1</text><g class="layers" style="opacity: 1;"><g class="legendfill"/><g class="legendlines"/><g class="legendsymbols"><g class="legendpoints"><path class="legendbox" d="M6,6H-6V-6H6Z" transform="translate(20,0)" style="stroke-width: 2px; fill: rgb(31, 119, 180); fill-opacity: 0.5; stroke: rgb(31, 119, 180); stroke-opacity: 1;"/></g></g></g><rect class="legendtoggle" x="0" y="-9.5" width="56.875" height="19" style="fill: rgb(0, 0, 0); fill-opacity: 0;"/></g></g><g class="groups" transform=""><g class="traces" transform="translate(0,49.1)" style="opacity: 1;"><text class="legendtext" text-anchor="start" x="40" y="4.680000000000001" style="font-family: 'Open Sans', verdana, arial, sans-serif; font-size: 12px; fill: rgb(36, 36, 36); fill-opacity: 1; white-space: pre;">D2</text><g class="layers" style="opacity: 1;"><g class="legendfill"/><g class="legendlines"/><g class="legendsymbols"><g class="legendpoints"><path class="legendbox" d="M6,6H-6V-6H6Z" transform="translate(20,0)" style="stroke-width: 2px; fill: rgb(255, 127, 14); fill-opacity: 0.5; stroke: rgb(255, 127, 14); stroke-opacity: 1;"/></g></g></g><rect class="legendtoggle" x="0" y="-9.5" width="56.875" height="19" style="fill: rgb(0, 0, 0); fill-opacity: 0;"/></g></g></g><rect class="scrollbar" rx="20" ry="3" width="0" height="0" x="0" y="0" style="fill: rgb(128, 139, 164); fill-opacity: 1;"/></g><g class="g-gtitle"/><g class="g-xtitle"/><g class="g-ytitle" transform="translate(2.2841796875,0)"><text class="ytitle" transform="rotate(-90,11.715625000000003,192.5)" x="11.715625000000003" y="192.5" text-anchor="middle" style="font-family: 'Open Sans', verdana, arial, sans-serif; font-size: 14px; fill: rgb(36, 36, 36); opacity: 1; font-weight: normal; white-space: pre;">Gene expression</text></g></g></svg>