<svg class="main-svg" xmlns="http://www.w3.org/2000/svg" xmlns:xlink="http://www.w3.org/1999/xlink" width="400" height="400" style="" viewBox="0 0 400 400"><rect x="0" y="0" width="400" height="400" style="fill: rgb(255, 255, 255); fill-opacity: 1;"/><defs id="defs-e167f6"><g class="clips"><clipPath id="clipe167f6xyplot" class="plotclip"><rect width="310" height="345"/></clipPath><clipPath class="axesclip" id="clipe167f6x"><rect x="70" y="0" width="310" height="400"/></clipPath><clipPath class="axesclip" id="clipe167f6y"><rect x="0" y="20" width="400" height="345"/></clipPath><clipPath class="axesclip" id="clipe167f6xy"><rect x="70" y="20" width="310" height="345"/></clipPath></g><g class="gradients"/></defs><g class="bglayer"/><g class="layer-below"><g class="imagelayer"/><g class="shapelayer"/></g><g class="cartesianlayer"><g class="subplot xy"><g class="layer-subplot"><g class="shapelayer"/><g class="imagelayer"/></g><g class="gridlayer"><g class="x"/><g class="y"/></g><g class="zerolinelayer"/><path class="xlines-below"/><path class="ylines-below"/><g class="overlines-below"/><g class="xaxislayer-below"/><g class="yaxislayer-below"/><g class="overaxes-below"/><g class="plot" transform="translate(70,20)" clip-path="url('#clipe167f6xyplot')"><g class="violinlayer mlayer"><g class="trace violins" style="opacity: 1;"><path class="violin" d="M82.67,327.75Q82.67,327.08 82.67,326.75C82.67,326.42 82.67,326.09 82.67,325.76C82.67,325.43 82.67,325.09 82.67,324.76C82.67,324.43 82.67,324.1 82.67,323.77C82.67,323.44 82.67,323.1 82.67,322.77C82.67,322.44 82.68,322.11 82.68,321.78C82.68,321.45 82.68,321.11 82.68,320.78C82.68,320.45 82.68,320.12 82.68,319.79C82.68,319.46 82.67,319.12 82.67,318.79C82.67,318.46 82.67,318.13 82.67,317.8C82.67,317.47 82.67,317.13 82.67,316.8C82.67,316.47 82.67,316.14 82.67,315.81C82.67,315.48 82.67,315.14 82.67,314.81C82.67,314.48 82.67,314.15 82.67,313.82C82.67,313.49 82.67,313.15 82.67,312.82C82.67,312.49 82.67,312.16 82.67,311.83C82.67,311.5 82.67,311.16 82.67,310.83C82.67,310.5 82.67,310.17 82.67,309.84C82.67,309.51 82.67,309.17 82.67,308.84C82.67,308.51 82.67,308.18 82.67,307.85C82.67,307.52 82.67,307.18 82.67,306.85C82.67,306.52 82.67,306.19 82.67,305.86C82.67,305.53 82.67,305.19 82.67,304.86C82.67,304.53 82.67,304.2 82.67,303.87C82.67,303.54 82.67,303.2 82.67,302.87C82.67,302.54 82.67,302.21 82.67,301.88C82.67,301.55 82.67,301.21 82.67,300.88C82.67,300.55 82.67,300.21 82.67,299.88C82.67,299.55 82.67,299.22 82.67,298.89C82.67,298.56 82.67,298.22 82.67,297.89C82.67,297.56 82.67,297.23 82.67,296.9C82.67,296.57 82.67,296.23 82.67,295.9C82.67,295.57 82.67,295.24 82.67,294.91C82.67,294.58 82.67,294.24 82.67,293.91C82.67,293.58 82.68,293.25 82.68,292.92C82.68,292.59 82.68,292.25 82.68,291.92C82.68,291.59 82.68,291.26 82.68,290.93C82.68,290.6 82.68,290.26 82.68,289.93C82.68,289.6 82.68,289.27 82.68,288.94C82.68,288.61 82.68,288.27 82.68,287.94C82.68,287.61 82.68,287.28 82.68,286.95C82.68,286.62 82.68,286.28 82.68,285.95C82.68,285.62 82.68,285.29 82.68,284.96C82.68,284.63 82.68,284.29 82.68,283.96C82.68,283.63 82.68,283.3 82.68,282.97C82.68,282.64 82.68,282.3 82.68,281.97C82.68,281.64 82.68,281.31 82.68,280.98C82.68,280.65 82.68,280.31 82.68,279.98C82.68,279.65 82.68,279.32 82.68,278.99C82.68,278.66 82.68,278.32 82.68,277.99C82.68,277.66 82.68,277.33 82.68,277C82.68,276.67 82.68,276.33 82.68,276C82.68,275.67 82.68,275.33 82.68,275C82.68,274.67 82.68,274.34 82.68,274.01C82.68,273.68 82.69,273.34 82.69,273.01C82.69,272.68 82.69,272.35 82.69,272.02C82.69,271.69 82.69,271.35 82.69,271.02C82.69,270.69 82.69,270.36 82.69,270.03C82.69,269.7 82.69,269.36 82.69,269.03C82.69,268.7 82.69,268.37 82.69,268.04C82.69,267.71 82.69,267.37 82.69,267.04C82.69,266.71 82.69,266.38 82.69,266.05C82.69,265.72 82.69,265.38 82.69,265.05C82.69,264.72 82.69,264.39 82.69,264.06C82.69,263.73 82.69,263.39 82.69,263.06C82.69,262.73 82.7,262.4 82.7,262.07C82.7,261.74 82.7,261.4 82.7,261.07C82.7,260.74 82.7,260.41 82.7,260.08C82.7,259.75 82.71,259.41 82.71,259.08C82.71,258.75 82.71,258.42 82.71,258.09C82.71,257.76 82.72,257.42 82.72,257.09C82.72,256.76 82.72,256.43 82.72,256.1C82.72,255.77 82.73,255.43 82.73,255.1C82.73,254.77 82.74,254.44 82.74,254.11C82.74,253.78 82.75,253.44 82.75,253.11C82.75,252.78 82.75,252.45 82.75,252.12C82.75,251.79 82.76,251.45 82.76,251.12C82.76,250.79 82.77,250.46 82.77,250.13C82.77,249.8 82.77,249.46 82.77,249.13C82.77,248.8 82.78,248.46 82.78,248.13C82.78,247.8 82.78,247.47 82.78,247.14C82.78,246.81 82.78,246.47 82.78,246.14C82.78,245.81 82.79,245.48 82.79,245.15C82.79,244.82 82.79,244.48 82.79,244.15C82.79,243.82 82.79,243.49 82.79,243.16C82.79,242.83 82.78,242.49 82.78,242.16C82.78,241.83 82.78,241.5 82.78,241.17C82.78,240.84 82.78,240.5 82.78,240.17C82.78,239.84 82.78,239.51 82.78,239.18C82.78,238.85 82.78,238.51 82.78,238.18C82.78,237.85 82.78,237.52 82.78,237.19C82.78,236.86 82.78,236.52 82.78,236.19C82.78,235.86 82.78,235.53 82.78,235.2C82.78,234.87 82.78,234.53 82.78,234.2C82.78,233.87 82.79,233.54 82.79,233.21C82.79,232.88 82.79,232.54 82.79,232.21C82.79,231.88 82.79,231.55 82.79,231.22C82.79,230.89 82.8,230.55 82.8,230.22C82.8,229.89 82.81,229.56 82.81,229.23C82.81,228.9 82.81,228.56 82.81,228.23C82.81,227.9 82.82,227.57 82.82,227.24C82.82,226.91 82.83,226.57 82.83,226.24C82.83,225.91 82.84,225.58 82.84,225.25C82.84,224.92 82.85,224.58 82.85,224.25C82.85,223.92 82.86,223.58 82.86,223.25C82.86,222.92 82.87,222.59 82.87,222.26C82.88,221.93 82.88,221.59 82.89,221.26C82.89,220.93 82.9,220.6 82.9,220.27C82.9,219.94 82.9,219.6 82.91,219.27C82.91,218.94 82.93,218.61 82.93,218.28C82.94,217.95 82.93,217.61 82.94,217.28C82.94,216.95 82.95,216.62 82.96,216.29C82.97,215.96 82.97,215.62 82.98,215.29C82.99,214.96 83,214.63 83.01,214.3C83.02,213.97 83.02,213.63 83.03,213.3C83.04,212.97 83.05,212.64 83.06,212.31C83.07,211.98 83.09,211.64 83.1,211.31C83.11,210.98 83.13,210.65 83.14,210.32C83.16,209.99 83.17,209.65 83.19,209.32C83.21,208.99 83.22,208.66 83.24,208.33C83.26,208 83.28,207.66 83.3,207.33C83.32,207 83.35,206.67 83.38,206.34C83.41,206.01 83.43,205.67 83.46,205.34C83.49,205.01 83.52,204.68 83.55,204.35C83.58,204.02 83.61,203.68 83.65,203.35C83.69,203.02 83.73,202.69 83.77,202.36C83.81,202.03 83.86,201.69 83.91,201.36C83.96,201.03 84.02,200.7 84.08,200.37C84.14,200.04 84.2,199.7 84.27,199.37C84.34,199.04 84.42,198.71 84.5,198.38C84.58,198.05 84.67,197.71 84.77,197.38C84.87,197.05 84.98,196.71 85.09,196.38C85.21,196.05 85.33,195.72 85.46,195.39C85.59,195.06 85.74,194.72 85.89,194.39C86.05,194.06 86.21,193.73 86.39,193.4C86.57,193.06 86.76,192.73 86.97,192.4C87.18,192.07 87.4,191.74 87.63,191.41C87.87,191.07 88.12,190.74 88.39,190.41C88.66,190.07 88.95,189.75 89.25,189.42C89.56,189.08 89.88,188.75 90.21,188.42C90.55,188.08 90.91,187.76 91.28,187.43C91.66,187.09 92.06,186.76 92.46,186.43C92.87,186.09 93.3,185.77 93.73,185.44C94.17,185.1 94.63,184.77 95.09,184.44C95.55,184.11 96.02,183.78 96.5,183.45C96.98,183.12 97.47,182.78 97.96,182.45C98.45,182.12 98.94,181.79 99.43,181.46C99.92,181.13 100.4,180.79 100.88,180.46C101.36,180.13 101.84,179.81 102.3,179.47C102.75,179.14 103.2,178.81 103.63,178.47C104.05,178.14 104.47,177.82 104.86,177.48C105.24,177.15 105.6,176.82 105.93,176.48C106.25,176.16 106.56,175.83 106.82,175.49C107.07,175.17 107.29,174.83 107.47,174.49C107.64,174.17 107.79,173.84 107.87,173.5C107.95,173.17 107.99,172.83 107.98,172.5C107.97,172.17 107.91,171.83 107.81,171.5C107.71,171.16 107.55,170.83 107.37,170.51C107.18,170.17 106.94,169.83 106.68,169.51C106.41,169.17 106.11,168.84 105.79,168.52C105.46,168.18 105.1,167.85 104.73,167.52C104.35,167.18 103.96,166.86 103.55,166.53C103.13,166.19 102.7,165.86 102.26,165.53C101.82,165.2 101.36,164.87 100.9,164.54C100.44,164.21 99.96,163.87 99.49,163.54C99.02,163.21 98.54,162.88 98.07,162.55C97.6,162.22 97.12,161.88 96.65,161.55C96.19,161.22 95.72,160.89 95.27,160.56C94.82,160.23 94.37,159.9 93.94,159.56C93.51,159.23 93.09,158.91 92.69,158.57C92.29,158.24 91.91,157.91 91.54,157.57C91.18,157.24 90.82,156.92 90.48,156.58C90.15,156.25 89.83,155.92 89.52,155.58C89.22,155.25 88.92,154.93 88.65,154.59C88.38,154.26 88.13,153.93 87.89,153.59C87.65,153.26 87.42,152.93 87.21,152.6C87,152.27 86.81,151.93 86.62,151.6C86.44,151.27 86.26,150.94 86.1,150.61C85.94,150.28 85.79,149.94 85.65,149.61C85.51,149.28 85.39,148.95 85.27,148.62C85.15,148.29 85.05,147.95 84.95,147.62C84.85,147.29 84.76,146.96 84.67,146.63C84.58,146.3 84.5,145.96 84.43,145.63C84.36,145.3 84.29,144.96 84.23,144.63C84.17,144.3 84.11,143.97 84.06,143.64C84.01,143.31 83.96,142.97 83.91,142.64C83.86,142.31 83.82,141.98 83.78,141.65C83.74,141.32 83.71,140.98 83.67,140.65C83.64,140.32 83.6,139.99 83.57,139.66C83.54,139.33 83.51,138.99 83.48,138.66C83.45,138.33 83.42,138 83.4,137.67C83.37,137.34 83.35,137 83.33,136.67C83.31,136.34 83.29,136.01 83.27,135.68C83.25,135.35 83.24,135.01 83.22,134.68C83.21,134.35 83.19,134.02 83.18,133.69C83.17,133.36 83.15,133.02 83.14,132.69C83.13,132.36 83.11,132.03 83.1,131.7C83.09,131.37 83.08,131.03 83.07,130.7C83.06,130.37 83.05,130.04 83.04,129.71C83.03,129.38 83.03,129.04 83.02,128.71C83.01,128.38 83,128.05 82.99,127.72C82.98,127.39 82.98,127.05 82.97,126.72C82.96,126.39 82.96,126.06 82.95,125.73C82.94,125.4 82.94,125.06 82.93,124.73C82.93,124.4 82.92,124.07 82.92,123.74C82.91,123.41 82.91,123.07 82.9,122.74C82.9,122.41 82.89,122.08 82.89,121.75C82.88,121.42 82.88,121.08 82.87,120.75C82.87,120.42 82.86,120.08 82.86,119.75C82.86,119.42 82.85,119.09 82.85,118.76C82.85,118.43 82.84,118.09 82.84,117.76C82.84,117.43 82.83,117.1 82.83,116.77C82.83,116.44 82.82,116.1 82.82,115.77C82.82,115.44 82.81,115.11 82.81,114.78C82.81,114.45 82.81,114.11 82.81,113.78C82.81,113.45 82.8,113.12 82.8,112.79C82.8,112.46 82.79,112.12 82.79,111.79C82.79,111.46 82.79,111.13 82.79,110.8C82.79,110.47 82.79,110.13 82.79,109.8C82.79,109.47 82.78,109.14 82.78,108.81C82.78,108.48 82.78,108.14 82.78,107.81C82.78,107.48 82.78,107.15 82.78,106.82C82.78,106.49 82.78,106.15 82.78,105.82C82.78,105.49 82.78,105.16 82.78,104.83C82.78,104.5 82.78,104.16 82.78,103.83C82.78,103.5 82.78,103.17 82.78,102.84C82.78,102.51 82.77,102.17 82.77,101.84C82.77,101.51 82.77,101.18 82.77,100.85C82.77,100.52 82.77,100.18 82.77,99.85C82.77,99.52 82.77,99.19 82.77,98.86C82.77,98.53 82.76,98.19 82.76,97.86C82.76,97.53 82.76,97.2 82.76,96.87C82.76,96.54 82.76,96.2 82.76,95.87C82.76,95.54 82.75,95.21 82.75,94.88C82.75,94.55 82.75,94.21 82.75,93.88C82.75,93.55 82.74,93.21 82.74,92.88C82.74,92.55 82.74,92.22 82.74,91.89C82.74,91.56 82.73,91.22 82.73,90.89C82.73,90.56 82.73,90.23 82.73,89.9C82.73,89.57 82.72,89.23 82.72,88.9C82.72,88.57 82.72,88.24 82.72,87.91C82.72,87.58 82.71,87.24 82.71,86.91C82.71,86.58 82.71,86.25 82.71,85.92C82.71,85.59 82.7,85.25 82.7,84.92C82.7,84.59 82.7,84.26 82.7,83.93C82.7,83.6 82.7,83.26 82.7,82.93C82.7,82.6 82.69,82.27 82.69,81.94C82.69,81.61 82.69,81.27 82.69,80.94C82.69,80.61 82.69,80.28 82.69,79.95C82.69,79.62 82.69,79.28 82.69,78.95C82.69,78.62 82.68,78.29 82.68,77.96C82.68,77.63 82.68,77.29 82.68,76.96C82.68,76.63 82.68,76.3 82.68,75.97C82.68,75.64 82.68,75.3 82.68,74.97C82.68,74.64 82.68,74.31 82.68,73.98C82.68,73.65 82.68,73.31 82.68,72.98C82.68,72.65 82.68,72.32 82.68,71.99C82.68,71.66 82.68,71.32 82.68,70.99C82.68,70.66 82.68,70.33 82.68,70C82.68,69.67 82.68,69.33 82.68,69C82.68,68.67 82.68,68.33 82.68,68C82.68,67.67 82.68,67.34 82.68,67.01C82.68,66.68 82.68,66.34 82.68,66.01C82.68,65.68 82.68,65.35 82.68,65.02C82.68,64.69 82.68,64.35 82.68,64.02C82.68,63.69 82.68,63.36 82.68,63.03C82.68,62.7 82.68,62.36 82.68,62.03C82.68,61.7 82.68,61.37 82.68,61.04C82.68,60.71 82.68,60.37 82.68,60.04C82.68,59.71 82.68,59.38 82.68,59.05C82.68,58.72 82.67,58.38 82.67,58.05C82.67,57.72 82.67,57.39 82.67,57.06C82.67,56.73 82.67,56.39 82.67,56.06C82.67,55.73 82.67,55.4 82.67,55.07C82.67,54.74 82.67,54.4 82.67,54.07C82.67,53.74 82.67,53.41 82.67,53.08C82.67,52.75 82.67,52.41 82.67,52.08C82.67,51.75 82.67,51.42 82.67,51.09C82.67,50.76 82.67,50.42 82.67,50.09C82.67,49.76 82.67,49.43 82.67,49.1C82.67,48.77 82.67,48.43 82.67,48.1C82.67,47.77 82.67,47.44 82.67,47.11C82.67,46.78 82.67,46.44 82.67,46.11C82.67,45.78 82.67,45.45 82.67,45.12C82.67,44.79 82.67,44.45 82.67,44.12C82.67,43.79 82.67,43.46 82.67,43.13C82.67,42.8 82.67,42.46 82.67,42.13C82.67,41.8 82.67,41.46 82.67,41.13C82.67,40.8 82.67,40.47 82.67,40.14C82.67,39.81 82.67,39.47 82.67,39.14C82.67,38.81 82.67,38.48 82.67,38.15C82.67,37.82 82.67,37.48 82.67,37.15C82.67,36.82 82.67,36.49 82.67,36.16C82.67,35.83 82.67,35.49 82.67,35.16C82.67,34.83 82.67,34.5 82.67,34.17C82.67,33.84 82.67,33.5 82.67,33.17C82.67,32.84 82.67,32.51 82.67,32.18C82.67,31.85 82.67,31.51 82.67,31.18C82.67,30.85 82.67,30.52 82.67,30.19C82.67,29.86 82.67,29.52 82.67,29.19C82.67,28.86 82.67,28.53 82.67,28.2C82.67,27.87 82.67,27.53 82.67,27.2C82.67,26.87 82.67,26.54 82.67,26.21C82.67,25.88 82.67,25.54 82.67,25.21C82.67,24.88 82.68,24.55 82.68,24.22C82.68,23.89 82.68,23.55 82.68,23.22C82.68,22.89 82.67,22.56 82.67,22.23C82.67,21.9 82.67,21.56 82.67,21.23C82.67,20.9 82.67,20.57 82.67,20.24C82.67,19.91 82.67,19.57 82.67,19.24C82.67,18.91 82.67,18.58 82.67,18.25Q82.67,17.92 82.67,17.25L82.67,17.25Q82.66,17.92 82.66,18.25C82.66,18.58 82.66,18.91 82.66,19.24C82.66,19.57 82.66,19.91 82.66,20.24C82.66,20.57 82.66,20.9 82.66,21.23C82.66,21.56 82.66,21.9 82.66,22.23C82.66,22.56 82.66,22.89 82.66,23.22C82.66,23.55 82.66,23.89 82.66,24.22C82.66,24.55 82.66,24.88 82.66,25.21C82.66,25.54 82.66,25.88 82.66,26.21C82.66,26.54 82.66,26.87 82.66,27.2C82.66,27.53 82.66,27.87 82.66,28.2C82.66,28.53 82.66,28.86 82.66,29.19C82.66,29.52 82.66,29.86 82.66,30.19C82.66,30.52 82.66,30.85 82.66,31.18C82.66,31.51 82.66,31.85 82.66,32.18C82.66,32.51 82.66,32.84 82.66,33.17C82.66,33.5 82.66,33.84 82.66,34.17C82.66,34.5 82.66,34.83 82.66,35.16C82.66,35.49 82.66,35.83 82.66,36.16C82.66,36.49 82.66,36.82 82.66,37.15C82.66,37.48 82.66,37.82 82.66,38.15C82.66,38.48 82.66,38.81 82.66,39.14C82.66,39.47 82.66,39.81 82.66,40.14C82.66,40.47 82.66,40.8 82.66,41.13C82.66,41.46 82.66,41.8 82.66,42.13C82.66,42.46 82.66,42.8 82.66,43.13C82.66,43.46 82.66,43.79 82.66,44.12C82.66,44.45 82.66,44.79 82.66,45.12C82.66,45.45 82.66,45.78 82.66,46.11C82.66,46.44 82.66,46.78 82.66,47.11C82.66,47.44 82.66,47.77 82.66,48.1C82.66,48.43 82.66,48.77 82.66,49.1C82.66,49.43 82.66,49.76 82.66,50.09C82.66,50.42 82.66,50.76 82.66,51.09C82.66,51.42 82.66,51.75 82.66,52.08C82.66,52.41 82.66,52.75 82.66,53.08C82.66,53.41 82.66,53.74 82.66,54.07C82.66,54.4 82.66,54.74 82.66,55.07C82.66,55.4 82.66,55.73 82.66,56.06C82.66,56.39 82.66,56.73 82.66,57.06C82.66,57.39 82.66,57.72 82.66,58.05C82.66,58.38 82.66,58.72 82.66,59.05C82.66,59.38 82.66,59.71 82.66,60.04C82.66,60.37 82.66,60.71 82.66,61.04C82.66,61.37 82.66,61.7 82.66,62.03C82.66,62.36 82.66,62.7 82.66,63.03C82.66,63.36 82.66,63.69 82.66,64.02C82.66,64.35 82.66,64.69 82.66,65.02C82.66,65.35 82.65,65.68 82.65,66.01C82.65,66.34 82.65,66.68 82.65,67.01C82.65,67.34 82.65,67.67 82.65,68C82.65,68.33 82.65,68.67 82.65,69C82.65,69.33 82.65,69.67 82.65,70C82.65,70.33 82.65,70.66 82.65,70.99C82.65,71.32 82.65,71.66 82.65,71.99C82.65,72.32 82.65,72.65 82.65,72.98C82.65,73.31 82.65,73.65 82.65,73.98C82.65,74.31 82.65,74.64 82.65,74.97C82.65,75.3 82.65,75.64 82.65,75.97C82.65,76.3 82.65,76.63 82.65,76.96C82.65,77.29 82.65,77.63 82.65,77.96C82.65,78.29 82.65,78.62 82.65,78.95C82.65,79.28 82.64,79.62 82.64,79.95C82.64,80.28 82.64,80.61 82.64,80.94C82.64,81.27 82.64,81.61 82.64,81.94C82.64,82.27 82.64,82.6 82.64,82.93C82.64,83.26 82.63,83.6 82.63,83.93C82.63,84.26 82.63,84.59 82.63,84.92C82.63,85.25 82.63,85.59 82.63,85.92C82.63,86.25 82.62,86.58 82.62,86.91C82.62,87.24 82.62,87.58 82.62,87.91C82.62,88.24 82.61,88.57 82.61,88.9C82.61,89.23 82.61,89.57 82.61,89.9C82.61,90.23 82.6,90.56 82.6,90.89C82.6,91.22 82.6,91.56 82.6,91.89C82.6,92.22 82.59,92.55 82.59,92.88C82.59,93.21 82.59,93.55 82.59,93.88C82.59,94.21 82.58,94.55 82.58,94.88C82.58,95.21 82.58,95.54 82.58,95.87C82.58,96.2 82.57,96.54 82.57,96.87C82.57,97.2 82.57,97.53 82.57,97.86C82.57,98.19 82.57,98.53 82.57,98.86C82.57,99.19 82.56,99.52 82.56,99.85C82.56,100.18 82.56,100.52 82.56,100.85C82.56,101.18 82.56,101.51 82.56,101.84C82.56,102.17 82.56,102.51 82.56,102.84C82.56,103.17 82.56,103.5 82.56,103.83C82.56,104.16 82.56,104.5 82.56,104.83C82.56,105.16 82.55,105.49 82.55,105.82C82.55,106.15 82.55,106.49 82.55,106.82C82.55,107.15 82.55,107.48 82.55,107.81C82.55,108.14 82.55,108.48 82.55,108.81C82.55,109.14 82.55,109.47 82.55,109.8C82.55,110.13 82.54,110.47 82.54,110.8C82.54,111.13 82.54,111.46 82.54,111.79C82.54,112.12 82.53,112.46 82.53,112.79C82.53,113.12 82.53,113.45 82.53,113.78C82.53,114.11 82.52,114.45 82.52,114.78C82.52,115.11 82.51,115.44 82.51,115.77C82.51,116.1 82.5,116.44 82.5,116.77C82.5,117.1 82.49,117.43 82.49,117.76C82.49,118.09 82.48,118.43 82.48,118.76C82.48,119.09 82.47,119.42 82.47,119.75C82.47,120.08 82.46,120.42 82.46,120.75C82.46,121.08 82.46,121.42 82.45,121.75C82.45,122.08 82.43,122.41 82.43,122.74C82.42,123.07 82.43,123.41 82.42,123.74C82.42,124.07 82.41,124.4 82.4,124.73C82.39,125.06 82.39,125.4 82.38,125.73C82.37,126.06 82.37,126.39 82.36,126.72C82.35,127.05 82.35,127.39 82.34,127.72C82.33,128.05 82.33,128.38 82.32,128.71C82.31,129.04 82.3,129.38 82.29,129.71C82.28,130.04 82.27,130.37 82.26,130.7C82.25,131.03 82.24,131.37 82.23,131.7C82.22,132.03 82.21,132.36 82.2,132.69C82.19,133.02 82.18,133.36 82.16,133.69C82.15,134.02 82.13,134.35 82.11,134.68C82.09,135.01 82.08,135.35 82.06,135.68C82.04,136.01 82.02,136.34 82,136.67C81.98,137 81.96,137.34 81.93,137.67C81.91,138 81.88,138.33 81.85,138.66C81.82,138.99 81.79,139.33 81.76,139.66C81.73,139.99 81.69,140.32 81.66,140.65C81.62,140.98 81.59,141.32 81.55,141.65C81.51,141.98 81.47,142.31 81.42,142.64C81.37,142.97 81.32,143.31 81.27,143.64C81.22,143.97 81.16,144.3 81.1,144.63C81.04,144.96 80.97,145.3 80.9,145.63C80.83,145.96 80.75,146.3 80.66,146.63C80.58,146.96 80.49,147.29 80.39,147.62C80.29,147.95 80.18,148.29 80.06,148.62C79.94,148.95 79.82,149.28 79.68,149.61C79.54,149.94 79.39,150.28 79.23,150.61C79.07,150.94 78.9,151.27 78.72,151.6C78.53,151.94 78.33,152.27 78.12,152.6C77.91,152.93 77.68,153.26 77.44,153.59C77.2,153.93 76.95,154.26 76.68,154.59C76.41,154.93 76.12,155.25 75.82,155.58C75.51,155.92 75.19,156.25 74.86,156.58C74.52,156.92 74.16,157.24 73.8,157.57C73.43,157.91 73.04,158.24 72.64,158.57C72.23,158.91 71.81,159.23 71.39,159.56C70.96,159.89 70.52,160.23 70.07,160.56C69.62,160.89 69.15,161.22 68.68,161.55C68.21,161.88 67.74,162.22 67.27,162.55C66.8,162.88 66.31,163.21 65.84,163.54C65.37,163.87 64.9,164.21 64.44,164.54C63.98,164.87 63.52,165.2 63.08,165.53C62.64,165.86 62.21,166.19 61.79,166.53C61.38,166.86 60.98,167.18 60.6,167.52C60.23,167.85 59.87,168.18 59.54,168.52C59.22,168.84 58.92,169.17 58.65,169.51C58.4,169.83 58.16,170.17 57.97,170.51C57.79,170.83 57.62,171.16 57.52,171.5C57.42,171.83 57.36,172.17 57.35,172.5C57.34,172.83 57.38,173.17 57.46,173.5C57.54,173.84 57.69,174.17 57.86,174.49C58.04,174.83 58.27,175.17 58.52,175.49C58.78,175.83 59.08,176.16 59.4,176.48C59.73,176.82 60.1,177.15 60.48,177.48C60.87,177.82 61.28,178.14 61.7,178.47C62.13,178.81 62.59,179.14 63.04,179.47C63.5,179.8 63.97,180.13 64.45,180.46C64.93,180.79 65.42,181.13 65.91,181.46C66.4,181.79 66.89,182.12 67.38,182.45C67.87,182.78 68.35,183.12 68.83,183.45C69.31,183.78 69.79,184.11 70.25,184.44C70.71,184.77 71.16,185.1 71.6,185.44C72.03,185.77 72.46,186.09 72.87,186.43C73.27,186.76 73.67,187.09 74.05,187.43C74.42,187.76 74.78,188.08 75.12,188.42C75.46,188.75 75.78,189.08 76.09,189.42C76.39,189.75 76.68,190.07 76.95,190.41C77.21,190.74 77.46,191.07 77.7,191.41C77.93,191.74 78.16,192.07 78.37,192.4C78.57,192.73 78.76,193.07 78.94,193.4C79.12,193.73 79.28,194.06 79.44,194.39C79.6,194.72 79.75,195.06 79.88,195.39C80.01,195.72 80.13,196.05 80.24,196.38C80.35,196.71 80.46,197.05 80.56,197.38C80.66,197.71 80.75,198.05 80.83,198.38C80.91,198.71 80.99,199.04 81.06,199.37C81.13,199.7 81.19,200.04 81.25,200.37C81.31,200.7 81.37,201.03 81.42,201.36C81.47,201.69 81.52,202.03 81.56,202.36C81.6,202.69 81.64,203.02 81.68,203.35C81.72,203.68 81.76,204.02 81.79,204.35C81.82,204.68 81.85,205.01 81.88,205.34C81.91,205.67 81.93,206.01 81.96,206.34C81.98,206.67 82.01,207 82.03,207.33C82.05,207.66 82.07,208 82.09,208.33C82.11,208.66 82.13,208.99 82.15,209.32C82.17,209.65 82.18,209.99 82.19,210.32C82.2,210.65 82.22,210.98 82.23,211.31C82.24,211.64 82.26,211.98 82.27,212.31C82.28,212.64 82.29,212.97 82.3,213.3C82.31,213.63 82.32,213.97 82.33,214.3C82.34,214.63 82.34,214.96 82.35,215.29C82.36,215.62 82.36,215.96 82.37,216.29C82.38,216.62 82.38,216.95 82.39,217.28C82.4,217.61 82.4,217.95 82.41,218.28C82.41,218.61 82.42,218.94 82.42,219.27C82.43,219.6 82.43,219.94 82.44,220.27C82.44,220.6 82.45,220.93 82.45,221.26C82.45,221.59 82.46,221.93 82.46,222.26C82.46,222.59 82.47,222.92 82.47,223.25C82.47,223.58 82.48,223.92 82.48,224.25C82.48,224.58 82.49,224.92 82.49,225.25C82.49,225.58 82.5,225.91 82.5,226.24C82.5,226.57 82.51,226.91 82.51,227.24C82.51,227.57 82.52,227.9 82.52,228.23C82.52,228.56 82.53,228.9 82.53,229.23C82.53,229.56 82.53,229.89 82.53,230.22C82.53,230.55 82.54,230.89 82.54,231.22C82.54,231.55 82.54,231.88 82.54,232.21C82.54,232.54 82.55,232.88 82.55,233.21C82.55,233.54 82.55,233.87 82.55,234.2C82.55,234.53 82.55,234.87 82.55,235.2C82.55,235.53 82.56,235.86 82.56,236.19C82.56,236.52 82.56,236.86 82.56,237.19C82.56,237.52 82.56,237.85 82.56,238.18C82.56,238.51 82.55,238.85 82.55,239.18C82.55,239.51 82.55,239.84 82.55,240.17C82.55,240.5 82.55,240.84 82.55,241.17C82.55,241.5 82.55,241.83 82.55,242.16C82.55,242.49 82.55,242.83 82.55,243.16C82.55,243.49 82.55,243.82 82.55,244.15C82.55,244.48 82.55,244.82 82.55,245.15C82.55,245.48 82.55,245.81 82.55,246.14C82.55,246.47 82.55,246.81 82.55,247.14C82.55,247.47 82.56,247.8 82.56,248.13C82.56,248.46 82.56,248.8 82.56,249.13C82.56,249.46 82.57,249.8 82.57,250.13C82.57,250.46 82.57,250.79 82.57,251.12C82.57,251.45 82.58,251.79 82.58,252.12C82.58,252.45 82.59,252.78 82.59,253.11C82.59,253.44 82.59,253.78 82.59,254.11C82.59,254.44 82.6,254.77 82.6,255.1C82.6,255.43 82.61,255.77 82.61,256.1C82.61,256.43 82.62,256.76 82.62,257.09C82.62,257.42 82.62,257.76 82.62,258.09C82.62,258.42 82.63,258.75 82.63,259.08C82.63,259.41 82.63,259.75 82.63,260.08C82.63,260.41 82.63,260.74 82.63,261.07C82.63,261.4 82.64,261.74 82.64,262.07C82.64,262.4 82.64,262.73 82.64,263.06C82.64,263.39 82.64,263.73 82.64,264.06C82.64,264.39 82.64,264.72 82.64,265.05C82.64,265.38 82.64,265.72 82.64,266.05C82.64,266.38 82.65,266.71 82.65,267.04C82.65,267.37 82.65,267.71 82.65,268.04C82.65,268.37 82.65,268.7 82.65,269.03C82.65,269.36 82.65,269.7 82.65,270.03C82.65,270.36 82.65,270.69 82.65,271.02C82.65,271.35 82.65,271.69 82.65,272.02C82.65,272.35 82.65,272.68 82.65,273.01C82.65,273.34 82.65,273.68 82.65,274.01C82.65,274.34 82.65,274.67 82.65,275C82.65,275.33 82.65,275.67 82.65,276C82.65,276.33 82.65,276.67 82.65,277C82.65,277.33 82.65,277.66 82.65,277.99C82.65,278.32 82.66,278.66 82.66,278.99C82.66,279.32 82.66,279.65 82.66,279.98C82.66,280.31 82.66,280.65 82.66,280.98C82.66,281.31 82.66,281.64 82.66,281.97C82.66,282.3 82.66,282.64 82.66,282.97C82.66,283.3 82.66,283.63 82.66,283.96C82.66,284.29 82.66,284.63 82.66,284.96C82.66,285.29 82.66,285.62 82.66,285.95C82.66,286.28 82.66,286.62 82.66,286.95C82.66,287.28 82.66,287.61 82.66,287.94C82.66,288.27 82.66,288.61 82.66,288.94C82.66,289.27 82.66,289.6 82.66,289.93C82.66,290.26 82.66,290.6 82.66,290.93C82.66,291.26 82.66,291.59 82.66,291.92C82.66,292.25 82.66,292.59 82.66,292.92C82.66,293.25 82.66,293.58 82.66,293.91C82.66,294.24 82.66,294.58 82.66,294.91C82.66,295.24 82.66,295.57 82.66,295.9C82.66,296.23 82.66,296.57 82.66,296.9C82.66,297.23 82.66,297.56 82.66,297.89C82.66,298.22 82.66,298.56 82.66,298.89C82.66,299.22 82.66,299.55 82.66,299.88C82.66,300.21 82.66,300.55 82.66,300.88C82.66,301.21 82.66,301.55 82.66,301.88C82.66,302.21 82.66,302.54 82.66,302.87C82.66,303.2 82.66,303.54 82.66,303.87C82.66,304.2 82.66,304.53 82.66,304.86C82.66,305.19 82.66,305.53 82.66,305.86C82.66,306.19 82.66,306.52 82.66,306.85C82.66,307.18 82.66,307.52 82.66,307.85C82.66,308.18 82.66,308.51 82.66,308.84C82.66,309.17 82.66,309.51 82.66,309.84C82.66,310.17 82.66,310.5 82.66,310.83C82.66,311.16 82.66,311.5 82.66,311.83C82.66,312.16 82.66,312.49 82.66,312.82C82.66,313.15 82.66,313.49 82.66,313.82C82.66,314.15 82.66,314.48 82.66,314.81C82.66,315.14 82.66,315.48 82.66,315.81C82.66,316.14 82.66,316.47 82.66,316.8C82.66,317.13 82.66,317.47 82.66,317.8C82.66,318.13 82.66,318.46 82.66,318.79C82.66,319.12 82.66,319.46 82.66,319.79C82.66,320.12 82.66,320.45 82.66,320.78C82.66,321.11 82.66,321.45 82.66,321.78C82.66,322.11 82.66,322.44 82.66,322.77C82.66,323.1 82.66,323.44 82.66,323.77C82.66,324.1 82.66,324.43 82.66,324.76C82.66,325.09 82.66,325.43 82.66,325.76C82.66,326.09 82.66,326.42 82.66,326.75Q82.66,327.08 82.67,327.75Z" style="vector-effect: non-scaling-stroke; stroke-width: 2px; stroke: rgb(31, 119, 180); stroke-opacity: 1; fill: rgb(31, 119, 180); fill-opacity: 0.5;"/></g><g class="trace violins" style="opacity: 1;"><path class="violin" d="M155,327.75Q155,327.08 155,326.75C155,326.42 155.01,326.09 155.01,325.76C155.01,325.43 155.01,325.09 155.01,324.76C155.01,324.43 155.01,324.1 155.01,323.77C155.01,323.44 155.01,323.1 155.01,322.77C155.01,322.44 155.02,322.11 155.02,321.78C155.02,321.45 155.02,321.11 155.02,320.78C155.02,320.45 155.01,320.12 155.01,319.79C155.01,319.46 155.01,319.12 155.01,318.79C155.01,318.46 155.01,318.13 155.01,317.8C155.01,317.47 155.01,317.13 155.01,316.8C155.01,316.47 155.01,316.14 155.01,315.81C155.01,315.48 155.01,315.14 155.01,314.81C155.01,314.48 155.01,314.15 155.01,313.82C155.01,313.49 155.01,313.15 155.01,312.82C155.01,312.49 155.01,312.16 155.01,311.83C155.01,311.5 155.01,311.16 155.01,310.83C155.01,310.5 155.01,310.17 155.01,309.84C155.01,309.51 155.01,309.17 155.01,308.84C155.01,308.51 155.01,308.18 155.01,307.85C155.01,307.52 155.01,307.18 155.01,306.85C155.01,306.52 155.01,306.19 155.01,305.86C155.01,305.53 155.01,305.19 155.01,304.86C155.01,304.53 155.01,304.2 155.01,303.87C155.01,303.54 155.01,303.2 155.01,302.87C155.01,302.54 155.01,302.21 155.01,301.88C155.01,301.55 155.01,301.21 155.01,300.88C155.01,300.55 155.01,300.21 155.01,299.88C155.01,299.55 155.01,299.22 155.01,298.89C155.01,298.56 155.01,298.22 155.01,297.89C155.01,297.56 155.01,297.23 155.01,296.9C155.01,296.57 155.01,296.23 155.01,295.9C155.01,295.57 155.01,295.24 155.01,294.91C155.01,294.58 155.01,294.24 155.01,293.91C155.01,293.58 155.01,293.25 155.01,292.92C155.01,292.59 155.01,292.25 155.01,291.92C155.01,291.59 155.01,291.26 155.01,290.93C155.01,290.6 155.01,290.26 155.01,289.93C155.01,289.6 155.01,289.27 155.01,288.94C155.01,288.61 155.02,288.27 155.02,287.94C155.02,287.61 155.02,287.28 155.02,286.95C155.02,286.62 155.02,286.28 155.02,285.95C155.02,285.62 155.02,285.29 155.02,284.96C155.02,284.63 155.02,284.29 155.02,283.96C155.02,283.63 155.02,283.3 155.02,282.97C155.02,282.64 155.02,282.3 155.02,281.97C155.02,281.64 155.02,281.31 155.02,280.98C155.02,280.65 155.02,280.31 155.02,279.98C155.02,279.65 155.02,279.32 155.02,278.99C155.02,278.66 155.02,278.32 155.02,277.99C155.02,277.66 155.02,277.33 155.02,277C155.02,276.67 155.02,276.33 155.02,276C155.02,275.67 155.02,275.33 155.02,275C155.02,274.67 155.02,274.34 155.02,274.01C155.02,273.68 155.02,273.34 155.02,273.01C155.02,272.68 155.02,272.35 155.02,272.02C155.02,271.69 155.03,271.35 155.03,271.02C155.03,270.69 155.03,270.36 155.03,270.03C155.03,269.7 155.03,269.36 155.03,269.03C155.03,268.7 155.03,268.37 155.03,268.04C155.03,267.71 155.03,267.37 155.03,267.04C155.03,266.71 155.04,266.38 155.04,266.05C155.04,265.72 155.04,265.38 155.04,265.05C155.04,264.72 155.04,264.39 155.04,264.06C155.04,263.73 155.04,263.39 155.04,263.06C155.04,262.73 155.04,262.4 155.04,262.07C155.04,261.74 155.04,261.4 155.04,261.07C155.04,260.74 155.05,260.41 155.05,260.08C155.05,259.75 155.05,259.41 155.05,259.08C155.05,258.75 155.05,258.42 155.05,258.09C155.05,257.76 155.06,257.42 155.06,257.09C155.06,256.76 155.07,256.43 155.07,256.1C155.07,255.77 155.07,255.43 155.07,255.1C155.07,254.77 155.08,254.44 155.08,254.11C155.08,253.78 155.09,253.44 155.09,253.11C155.09,252.78 155.1,252.45 155.1,252.12C155.1,251.79 155.11,251.45 155.11,251.12C155.11,250.79 155.12,250.46 155.12,250.13C155.12,249.8 155.13,249.46 155.13,249.13C155.13,248.8 155.13,248.46 155.13,248.13C155.13,247.8 155.14,247.47 155.14,247.14C155.14,246.81 155.14,246.47 155.14,246.14C155.14,245.81 155.15,245.48 155.15,245.15C155.15,244.82 155.15,244.48 155.15,244.15C155.15,243.82 155.15,243.49 155.15,243.16C155.15,242.83 155.15,242.49 155.15,242.16C155.15,241.83 155.15,241.5 155.15,241.17C155.15,240.84 155.15,240.5 155.15,240.17C155.15,239.84 155.15,239.51 155.15,239.18C155.15,238.85 155.15,238.51 155.15,238.18C155.15,237.85 155.15,237.52 155.15,237.19C155.15,236.86 155.16,236.52 155.16,236.19C155.16,235.86 155.16,235.53 155.16,235.2C155.16,234.87 155.17,234.53 155.17,234.2C155.17,233.87 155.17,233.54 155.17,233.21C155.17,232.88 155.18,232.54 155.18,232.21C155.18,231.88 155.18,231.55 155.18,231.22C155.18,230.89 155.19,230.55 155.19,230.22C155.19,229.89 155.19,229.56 155.19,229.23C155.19,228.9 155.2,228.56 155.2,228.23C155.2,227.9 155.21,227.57 155.21,227.24C155.22,226.91 155.22,226.57 155.23,226.24C155.23,225.91 155.24,225.58 155.24,225.25C155.24,224.92 155.25,224.58 155.25,224.25C155.25,223.92 155.25,223.58 155.26,223.25C155.26,222.92 155.28,222.59 155.28,222.26C155.29,221.93 155.29,221.59 155.29,221.26C155.29,220.93 155.3,220.6 155.3,220.27C155.31,219.94 155.31,219.6 155.32,219.27C155.33,218.94 155.33,218.61 155.34,218.28C155.35,217.95 155.35,217.61 155.36,217.28C155.37,216.95 155.38,216.62 155.39,216.29C155.4,215.96 155.41,215.62 155.42,215.29C155.43,214.96 155.44,214.63 155.45,214.3C155.46,213.97 155.47,213.63 155.48,213.3C155.49,212.97 155.51,212.64 155.52,212.31C155.53,211.98 155.55,211.64 155.56,211.31C155.57,210.98 155.59,210.65 155.6,210.32C155.62,209.99 155.63,209.65 155.65,209.32C155.67,208.99 155.69,208.66 155.71,208.33C155.73,208 155.75,207.66 155.77,207.33C155.79,207 155.82,206.67 155.85,206.34C155.88,206.01 155.9,205.67 155.93,205.34C155.96,205.01 156,204.68 156.03,204.35C156.07,204.02 156.1,203.68 156.14,203.35C156.18,203.02 156.22,202.69 156.26,202.36C156.3,202.03 156.35,201.69 156.4,201.36C156.45,201.03 156.51,200.7 156.57,200.37C156.63,200.04 156.69,199.7 156.76,199.37C156.83,199.04 156.91,198.71 156.99,198.38C157.07,198.05 157.16,197.71 157.25,197.38C157.35,197.05 157.45,196.71 157.56,196.38C157.67,196.05 157.79,195.72 157.92,195.39C158.05,195.06 158.19,194.72 158.34,194.39C158.49,194.06 158.66,193.73 158.83,193.4C159.01,193.06 159.2,192.73 159.4,192.4C159.6,192.07 159.82,191.74 160.05,191.41C160.29,191.07 160.54,190.74 160.8,190.41C161.07,190.08 161.35,189.75 161.64,189.42C161.94,189.08 162.25,188.75 162.57,188.42C162.9,188.08 163.25,187.76 163.6,187.43C163.96,187.09 164.34,186.76 164.73,186.43C165.12,186.1 165.53,185.77 165.94,185.44C166.36,185.1 166.8,184.77 167.24,184.44C167.69,184.11 168.15,183.78 168.61,183.45C169.08,183.12 169.55,182.78 170.02,182.45C170.5,182.12 170.98,181.79 171.46,181.46C171.94,181.13 172.41,180.79 172.88,180.46C173.34,180.13 173.81,179.8 174.26,179.47C174.7,179.14 175.14,178.81 175.56,178.47C175.97,178.14 176.37,177.82 176.74,177.48C177.1,177.15 177.45,176.82 177.77,176.48C178.07,176.16 178.36,175.83 178.61,175.49C178.85,175.17 179.06,174.83 179.23,174.49C179.39,174.17 179.52,173.84 179.6,173.5C179.68,173.17 179.72,172.83 179.71,172.5C179.7,172.17 179.65,171.83 179.56,171.5C179.46,171.16 179.31,170.83 179.14,170.51C178.96,170.17 178.73,169.83 178.49,169.51C178.23,169.17 177.94,168.84 177.63,168.52C177.31,168.18 176.96,167.85 176.6,167.52C176.23,167.18 175.83,166.86 175.43,166.53C175.02,166.19 174.59,165.86 174.16,165.53C173.72,165.2 173.27,164.87 172.82,164.54C172.36,164.21 171.9,163.87 171.44,163.54C170.98,163.21 170.51,162.88 170.05,162.55C169.59,162.22 169.13,161.88 168.68,161.55C168.23,161.22 167.79,160.89 167.35,160.56C166.92,160.23 166.5,159.89 166.08,159.56C165.67,159.23 165.27,158.91 164.88,158.57C164.5,158.24 164.13,157.91 163.77,157.57C163.42,157.24 163.08,156.92 162.75,156.58C162.43,156.25 162.12,155.92 161.82,155.58C161.53,155.25 161.26,154.92 161,154.59C160.74,154.26 160.49,153.93 160.26,153.59C160.03,153.26 159.82,152.93 159.62,152.6C159.42,152.27 159.23,151.94 159.05,151.6C158.88,151.27 158.71,150.94 158.56,150.61C158.41,150.28 158.26,149.94 158.13,149.61C158,149.28 157.88,148.95 157.76,148.62C157.65,148.29 157.54,147.95 157.44,147.62C157.34,147.29 157.25,146.96 157.16,146.63C157.08,146.3 157,145.96 156.93,145.63C156.86,145.3 156.78,144.96 156.72,144.63C156.66,144.3 156.6,143.97 156.55,143.64C156.5,143.31 156.45,142.97 156.4,142.64C156.35,142.31 156.3,141.98 156.26,141.65C156.22,141.32 156.19,140.98 156.15,140.65C156.12,140.32 156.08,139.99 156.05,139.66C156.02,139.33 155.99,138.99 155.96,138.66C155.93,138.33 155.9,138 155.88,137.67C155.85,137.34 155.83,137 155.81,136.67C155.79,136.34 155.77,136.01 155.75,135.68C155.73,135.35 155.71,135.01 155.69,134.68C155.67,134.35 155.65,134.02 155.64,133.69C155.62,133.36 155.61,133.02 155.6,132.69C155.59,132.36 155.57,132.03 155.56,131.7C155.55,131.37 155.53,131.03 155.52,130.7C155.51,130.37 155.49,130.04 155.48,129.71C155.47,129.38 155.46,129.04 155.45,128.71C155.44,128.38 155.43,128.05 155.42,127.72C155.41,127.39 155.41,127.05 155.4,126.72C155.39,126.39 155.38,126.06 155.37,125.73C155.36,125.4 155.36,125.06 155.35,124.73C155.34,124.4 155.34,124.07 155.33,123.74C155.32,123.41 155.32,123.07 155.31,122.74C155.3,122.41 155.29,122.08 155.29,121.75C155.28,121.42 155.28,121.08 155.28,120.75C155.27,120.42 155.27,120.08 155.26,119.75C155.25,119.42 155.24,119.09 155.24,118.76C155.23,118.43 155.24,118.09 155.23,117.76C155.23,117.43 155.21,117.1 155.21,116.77C155.2,116.44 155.2,116.1 155.2,115.77C155.2,115.44 155.19,115.11 155.19,114.78C155.19,114.45 155.18,114.11 155.18,113.78C155.18,113.45 155.17,113.12 155.17,112.79C155.17,112.46 155.17,112.12 155.17,111.79C155.17,111.46 155.16,111.13 155.16,110.8C155.16,110.47 155.16,110.13 155.16,109.8C155.16,109.47 155.15,109.14 155.15,108.81C155.15,108.48 155.15,108.14 155.15,107.81C155.15,107.48 155.15,107.15 155.15,106.82C155.15,106.49 155.14,106.15 155.14,105.82C155.14,105.49 155.14,105.16 155.14,104.83C155.14,104.5 155.14,104.16 155.14,103.83C155.14,103.5 155.14,103.17 155.14,102.84C155.14,102.51 155.14,102.17 155.14,101.84C155.14,101.51 155.14,101.18 155.14,100.85C155.14,100.52 155.14,100.18 155.14,99.85C155.14,99.52 155.13,99.19 155.13,98.86C155.13,98.53 155.13,98.19 155.13,97.86C155.13,97.53 155.12,97.2 155.12,96.87C155.12,96.54 155.12,96.2 155.12,95.87C155.12,95.54 155.11,95.21 155.11,94.88C155.11,94.55 155.1,94.21 155.1,93.88C155.1,93.55 155.1,93.21 155.1,92.88C155.1,92.55 155.09,92.22 155.09,91.89C155.09,91.56 155.08,91.22 155.08,90.89C155.08,90.56 155.08,90.23 155.08,89.9C155.08,89.57 155.07,89.23 155.07,88.9C155.07,88.57 155.06,88.24 155.06,87.91C155.06,87.58 155.06,87.24 155.06,86.91C155.06,86.58 155.05,86.25 155.05,85.92C155.05,85.59 155.05,85.25 155.05,84.92C155.05,84.59 155.05,84.26 155.05,83.93C155.05,83.6 155.04,83.26 155.04,82.93C155.04,82.6 155.04,82.27 155.04,81.94C155.04,81.61 155.04,81.27 155.04,80.94C155.04,80.61 155.03,80.28 155.03,79.95C155.03,79.62 155.03,79.28 155.03,78.95C155.03,78.62 155.03,78.29 155.03,77.96C155.03,77.63 155.03,77.29 155.03,76.96C155.03,76.63 155.03,76.3 155.03,75.97C155.03,75.64 155.03,75.3 155.03,74.97C155.03,74.64 155.03,74.31 155.03,73.98C155.03,73.65 155.03,73.31 155.03,72.98C155.03,72.65 155.02,72.32 155.02,71.99C155.02,71.66 155.02,71.32 155.02,70.99C155.02,70.66 155.02,70.33 155.02,70C155.02,69.67 155.02,69.33 155.02,69C155.02,68.67 155.02,68.33 155.02,68C155.02,67.67 155.02,67.34 155.02,67.01C155.02,66.68 155.02,66.34 155.02,66.01C155.02,65.68 155.02,65.35 155.02,65.02C155.02,64.69 155.02,64.35 155.02,64.02C155.02,63.69 155.02,63.36 155.02,63.03C155.02,62.7 155.02,62.36 155.02,62.03C155.02,61.7 155.02,61.37 155.02,61.04C155.02,60.71 155.02,60.37 155.02,60.04C155.02,59.71 155.02,59.38 155.02,59.05C155.02,58.72 155.02,58.38 155.02,58.05C155.02,57.72 155.02,57.39 155.02,57.06C155.02,56.73 155.01,56.39 155.01,56.06C155.01,55.73 155.01,55.4 155.01,55.07C155.01,54.74 155.01,54.4 155.01,54.07C155.01,53.74 155.01,53.41 155.01,53.08C155.01,52.75 155.01,52.41 155.01,52.08C155.01,51.75 155.01,51.42 155.01,51.09C155.01,50.76 155.01,50.42 155.01,50.09C155.01,49.76 155.01,49.43 155.01,49.1C155.01,48.77 155.01,48.43 155.01,48.1C155.01,47.77 155.01,47.44 155.01,47.11C155.01,46.78 155.01,46.44 155.01,46.11C155.01,45.78 155.01,45.45 155.01,45.12C155.01,44.79 155.01,44.45 155.01,44.12C155.01,43.79 155.01,43.46 155.01,43.13C155.01,42.8 155.01,42.46 155.01,42.13C155.01,41.8 155.01,41.46 155.01,41.13C155.01,40.8 155.01,40.47 155.01,40.14C155.01,39.81 155.01,39.47 155.01,39.14C155.01,38.81 155.01,38.48 155.01,38.15C155.01,37.82 155.01,37.48 155.01,37.15C155.01,36.82 155.01,36.49 155.01,36.16C155.01,35.83 155.01,35.49 155.01,35.16C155.01,34.83 155.01,34.5 155.01,34.17C155.01,33.84 155.01,33.5 155.01,33.17C155.01,32.84 155.01,32.51 155.01,32.18C155.01,31.85 155.01,31.51 155.01,31.18C155.01,30.85 155.01,30.52 155.01,30.19C155.01,29.86 155.01,29.52 155.01,29.19C155.01,28.86 155.01,28.53 155.01,28.2C155.01,27.87 155.01,27.53 155.01,27.2C155.01,26.87 155.01,26.54 155.01,26.21C155.01,25.88 155.01,25.54 155.01,25.21C155.01,24.88 155.01,24.55 155.01,24.22C155.01,23.89 155.01,23.55 155.01,23.22C155.01,22.89 155.01,22.56 155.01,22.23C155.01,21.9 155.01,21.56 155.01,21.23C155.01,20.9 155.01,20.57 155.01,20.24C155.01,19.91 155.01,19.57 155.01,19.24C155.01,18.91 155,18.58 155,18.25Q155,17.92 155,17.25L155,17.25Q155,17.92 155,18.25C155,18.58 154.99,18.91 154.99,19.24C154.99,19.57 154.99,19.91 154.99,20.24C154.99,20.57 154.99,20.9 154.99,21.23C154.99,21.56 154.99,21.9 154.99,22.23C154.99,22.56 154.99,22.89 154.99,23.22C154.99,23.55 154.99,23.89 154.99,24.22C154.99,24.55 154.99,24.88 154.99,25.21C154.99,25.54 154.99,25.88 154.99,26.21C154.99,26.54 154.99,26.87 154.99,27.2C154.99,27.53 154.99,27.87 154.99,28.2C154.99,28.53 154.99,28.86 154.99,29.19C154.99,29.52 154.99,29.86 154.99,30.19C154.99,30.52 154.99,30.85 154.99,31.18C154.99,31.51 154.99,31.85 154.99,32.18C154.99,32.51 154.99,32.84 154.99,33.17C154.99,33.5 154.99,33.84 154.99,34.17C154.99,34.5 154.99,34.83 154.99,35.16C154.99,35.49 154.99,35.83 154.99,36.16C154.99,36.49 154.99,36.82 154.99,37.15C154.99,37.48 154.99,37.82 154.99,38.15C154.99,38.48 154.99,38.81 154.99,39.14C154.99,39.47 154.99,39.81 154.99,40.14C154.99,40.47 154.99,40.8 154.99,41.13C154.99,41.46 154.99,41.8 154.99,42.13C154.99,42.46 154.99,42.8 154.99,43.13C154.99,43.46 154.99,43.79 154.99,44.12C154.99,44.45 154.99,44.79 154.99,45.12C154.99,45.45 154.99,45.78 154.99,46.11C154.99,46.44 154.99,46.78 154.99,47.11C154.99,47.44 154.99,47.77 154.99,48.1C154.99,48.43 154.99,48.77 154.99,49.1C154.99,49.43 154.99,49.76 154.99,50.09C154.99,50.42 154.99,50.76 154.99,51.09C154.99,51.42 154.99,51.75 154.99,52.08C154.99,52.41 154.99,52.75 154.99,53.08C154.99,53.41 154.99,53.74 154.99,54.07C154.99,54.4 154.99,54.74 154.99,55.07C154.99,55.4 154.99,55.73 154.99,56.06C154.99,56.39 154.98,56.73 154.98,57.06C154.98,57.39 154.98,57.72 154.98,58.05C154.98,58.38 154.98,58.72 154.98,59.05C154.98,59.38 154.98,59.71 154.98,60.04C154.98,60.37 154.98,60.71 154.98,61.04C154.98,61.37 154.98,61.7 154.98,62.03C154.98,62.36 154.98,62.7 154.98,63.03C154.98,63.36 154.98,63.69 154.98,64.02C154.98,64.35 154.98,64.69 154.98,65.02C154.98,65.35 154.98,65.68 154.98,66.01C154.98,66.34 154.98,66.68 154.98,67.01C154.98,67.34 154.98,67.67 154.98,68C154.98,68.33 154.98,68.67 154.98,69C154.98,69.33 154.98,69.67 154.98,70C154.98,70.33 154.98,70.66 154.98,70.99C154.98,71.32 154.98,71.66 154.98,71.99C154.98,72.32 154.97,72.65 154.97,72.98C154.97,73.31 154.97,73.65 154.97,73.98C154.97,74.31 154.97,74.64 154.97,74.97C154.97,75.3 154.97,75.64 154.97,75.97C154.97,76.3 154.97,76.63 154.97,76.96C154.97,77.29 154.97,77.63 154.97,77.96C154.97,78.29 154.97,78.62 154.97,78.95C154.97,79.28 154.97,79.62 154.97,79.95C154.97,80.28 154.96,80.61 154.96,80.94C154.96,81.27 154.96,81.61 154.96,81.94C154.96,82.27 154.96,82.6 154.96,82.93C154.96,83.26 154.95,83.6 154.95,83.93C154.95,84.26 154.95,84.59 154.95,84.92C154.95,85.25 154.95,85.59 154.95,85.92C154.95,86.25 154.94,86.58 154.94,86.91C154.94,87.24 154.94,87.58 154.94,87.91C154.94,88.24 154.93,88.57 154.93,88.9C154.93,89.23 154.92,89.57 154.92,89.9C154.92,90.23 154.92,90.56 154.92,90.89C154.92,91.22 154.91,91.56 154.91,91.89C154.91,92.22 154.9,92.55 154.9,92.88C154.9,93.21 154.9,93.55 154.9,93.88C154.9,94.21 154.89,94.55 154.89,94.88C154.89,95.21 154.88,95.54 154.88,95.87C154.88,96.2 154.88,96.54 154.88,96.87C154.88,97.2 154.87,97.53 154.87,97.86C154.87,98.19 154.87,98.53 154.87,98.86C154.87,99.19 154.86,99.52 154.86,99.85C154.86,100.18 154.86,100.52 154.86,100.85C154.86,101.18 154.86,101.51 154.86,101.84C154.86,102.17 154.86,102.51 154.86,102.84C154.86,103.17 154.86,103.5 154.86,103.83C154.86,104.16 154.86,104.5 154.86,104.83C154.86,105.16 154.86,105.49 154.86,105.82C154.86,106.15 154.85,106.49 154.85,106.82C154.85,107.15 154.85,107.48 154.85,107.81C154.85,108.14 154.85,108.48 154.85,108.81C154.85,109.14 154.84,109.47 154.84,109.8C154.84,110.13 154.84,110.47 154.84,110.8C154.84,111.13 154.83,111.46 154.83,111.79C154.83,112.12 154.83,112.46 154.83,112.79C154.83,113.12 154.82,113.45 154.82,113.78C154.82,114.11 154.81,114.45 154.81,114.78C154.81,115.11 154.8,115.44 154.8,115.77C154.8,116.1 154.8,116.44 154.79,116.77C154.79,117.1 154.77,117.43 154.77,117.76C154.76,118.09 154.77,118.43 154.76,118.76C154.76,119.09 154.75,119.42 154.74,119.75C154.73,120.08 154.73,120.42 154.72,120.75C154.72,121.08 154.72,121.42 154.71,121.75C154.71,122.08 154.7,122.41 154.69,122.74C154.68,123.07 154.68,123.41 154.67,123.74C154.66,124.07 154.66,124.4 154.65,124.73C154.64,125.06 154.64,125.4 154.63,125.73C154.62,126.06 154.61,126.39 154.6,126.72C154.59,127.05 154.59,127.39 154.58,127.72C154.57,128.05 154.56,128.38 154.55,128.71C154.54,129.04 154.53,129.38 154.52,129.71C154.51,130.04 154.49,130.37 154.48,130.7C154.47,131.03 154.45,131.37 154.44,131.7C154.43,132.03 154.41,132.36 154.4,132.69C154.39,133.02 154.38,133.36 154.36,133.69C154.35,134.02 154.33,134.35 154.31,134.68C154.29,135.01 154.27,135.35 154.25,135.68C154.23,136.01 154.21,136.34 154.19,136.67C154.17,137 154.15,137.34 154.12,137.67C154.1,138 154.07,138.33 154.04,138.66C154.01,138.99 153.98,139.33 153.95,139.66C153.92,139.99 153.88,140.32 153.85,140.65C153.81,140.98 153.78,141.32 153.74,141.65C153.7,141.98 153.65,142.31 153.6,142.64C153.55,142.97 153.5,143.31 153.45,143.64C153.4,143.97 153.34,144.3 153.28,144.63C153.22,144.96 153.14,145.3 153.07,145.63C153,145.96 152.92,146.3 152.84,146.63C152.75,146.96 152.66,147.29 152.56,147.62C152.46,147.95 152.35,148.29 152.24,148.62C152.12,148.95 152,149.28 151.87,149.61C151.74,149.94 151.59,150.28 151.44,150.61C151.29,150.94 151.12,151.27 150.95,151.6C150.77,151.94 150.58,152.27 150.38,152.6C150.18,152.93 149.97,153.26 149.74,153.59C149.51,153.93 149.26,154.26 149,154.59C148.74,154.92 148.47,155.25 148.18,155.58C147.88,155.92 147.57,156.25 147.25,156.58C146.92,156.92 146.58,157.24 146.23,157.57C145.87,157.91 145.5,158.24 145.12,158.57C144.73,158.91 144.33,159.23 143.92,159.56C143.5,159.89 143.08,160.23 142.65,160.56C142.21,160.89 141.77,161.22 141.32,161.55C140.87,161.88 140.41,162.22 139.95,162.55C139.49,162.88 139.02,163.21 138.56,163.54C138.1,163.87 137.64,164.21 137.18,164.54C136.73,164.87 136.28,165.2 135.84,165.53C135.41,165.86 134.98,166.19 134.57,166.53C134.17,166.86 133.77,167.18 133.4,167.52C133.04,167.85 132.69,168.18 132.37,168.52C132.06,168.84 131.77,169.17 131.51,169.51C131.27,169.83 131.04,170.17 130.86,170.51C130.69,170.83 130.54,171.16 130.44,171.5C130.35,171.83 130.3,172.17 130.29,172.5C130.28,172.83 130.32,173.17 130.4,173.5C130.48,173.84 130.61,174.17 130.77,174.49C130.94,174.83 131.15,175.17 131.39,175.49C131.64,175.83 131.93,176.16 132.23,176.48C132.55,176.82 132.9,177.15 133.26,177.48C133.63,177.82 134.03,178.14 134.44,178.47C134.86,178.81 135.3,179.14 135.74,179.47C136.19,179.8 136.66,180.13 137.12,180.46C137.59,180.79 138.06,181.13 138.54,181.46C139.02,181.79 139.5,182.12 139.98,182.45C140.45,182.78 140.92,183.12 141.39,183.45C141.85,183.78 142.31,184.11 142.76,184.44C143.2,184.77 143.64,185.1 144.06,185.44C144.47,185.77 144.88,186.1 145.27,186.43C145.66,186.76 146.04,187.09 146.4,187.43C146.75,187.76 147.1,188.08 147.43,188.42C147.75,188.75 148.06,189.08 148.36,189.42C148.65,189.75 148.93,190.08 149.2,190.41C149.46,190.74 149.71,191.07 149.95,191.41C150.18,191.74 150.4,192.07 150.6,192.4C150.8,192.73 150.99,193.06 151.17,193.4C151.34,193.73 151.51,194.06 151.66,194.39C151.81,194.72 151.95,195.06 152.08,195.39C152.21,195.72 152.33,196.05 152.44,196.38C152.55,196.71 152.65,197.05 152.75,197.38C152.84,197.71 152.93,198.05 153.01,198.38C153.09,198.71 153.17,199.04 153.24,199.37C153.31,199.7 153.37,200.04 153.43,200.37C153.49,200.7 153.55,201.03 153.6,201.36C153.65,201.69 153.7,202.03 153.74,202.36C153.78,202.69 153.82,203.02 153.86,203.35C153.9,203.68 153.93,204.02 153.97,204.35C154,204.68 154.04,205.01 154.07,205.34C154.1,205.67 154.12,206.01 154.15,206.34C154.18,206.67 154.21,207 154.23,207.33C154.25,207.66 154.27,208 154.29,208.33C154.31,208.66 154.33,208.99 154.35,209.32C154.37,209.65 154.38,209.99 154.4,210.32C154.41,210.65 154.43,210.98 154.44,211.31C154.45,211.64 154.47,211.98 154.48,212.31C154.49,212.64 154.51,212.97 154.52,213.3C154.53,213.63 154.54,213.97 154.55,214.3C154.56,214.63 154.57,214.96 154.58,215.29C154.59,215.62 154.6,215.96 154.61,216.29C154.62,216.62 154.63,216.95 154.64,217.28C154.65,217.61 154.65,217.95 154.66,218.28C154.67,218.61 154.67,218.94 154.68,219.27C154.69,219.6 154.69,219.94 154.7,220.27C154.7,220.6 154.71,220.93 154.71,221.26C154.71,221.59 154.71,221.93 154.72,222.26C154.72,222.59 154.74,222.92 154.74,223.25C154.75,223.58 154.75,223.92 154.75,224.25C154.75,224.58 154.76,224.92 154.76,225.25C154.76,225.58 154.77,225.91 154.77,226.24C154.78,226.57 154.78,226.91 154.79,227.24C154.79,227.57 154.8,227.9 154.8,228.23C154.8,228.56 154.81,228.9 154.81,229.23C154.81,229.56 154.81,229.89 154.81,230.22C154.81,230.55 154.82,230.89 154.82,231.22C154.82,231.55 154.82,231.88 154.82,232.21C154.82,232.54 154.83,232.88 154.83,233.21C154.83,233.54 154.83,233.87 154.83,234.2C154.83,234.53 154.84,234.87 154.84,235.2C154.84,235.53 154.84,235.86 154.84,236.19C154.84,236.52 154.85,236.86 154.85,237.19C154.85,237.52 154.85,237.85 154.85,238.18C154.85,238.51 154.85,238.85 154.85,239.18C154.85,239.51 154.85,239.84 154.85,240.17C154.85,240.5 154.85,240.84 154.85,241.17C154.85,241.5 154.85,241.83 154.85,242.16C154.85,242.49 154.85,242.83 154.85,243.16C154.85,243.49 154.85,243.82 154.85,244.15C154.85,244.48 154.85,244.82 154.85,245.15C154.85,245.48 154.86,245.81 154.86,246.14C154.86,246.47 154.86,246.81 154.86,247.14C154.86,247.47 154.87,247.8 154.87,248.13C154.87,248.46 154.87,248.8 154.87,249.13C154.87,249.46 154.88,249.8 154.88,250.13C154.88,250.46 154.89,250.79 154.89,251.12C154.89,251.45 154.9,251.79 154.9,252.12C154.9,252.45 154.91,252.78 154.91,253.11C154.91,253.44 154.92,253.78 154.92,254.11C154.92,254.44 154.93,254.77 154.93,255.1C154.93,255.43 154.93,255.77 154.93,256.1C154.93,256.43 154.94,256.76 154.94,257.09C154.94,257.42 154.95,257.76 154.95,258.09C154.95,258.42 154.95,258.75 154.95,259.08C154.95,259.41 154.95,259.75 154.95,260.08C154.95,260.41 154.96,260.74 154.96,261.07C154.96,261.4 154.96,261.74 154.96,262.07C154.96,262.4 154.96,262.73 154.96,263.06C154.96,263.39 154.96,263.73 154.96,264.06C154.96,264.39 154.96,264.72 154.96,265.05C154.96,265.38 154.96,265.72 154.96,266.05C154.96,266.38 154.97,266.71 154.97,267.04C154.97,267.37 154.97,267.71 154.97,268.04C154.97,268.37 154.97,268.7 154.97,269.03C154.97,269.36 154.97,269.7 154.97,270.03C154.97,270.36 154.97,270.69 154.97,271.02C154.97,271.35 154.98,271.69 154.98,272.02C154.98,272.35 154.98,272.68 154.98,273.01C154.98,273.34 154.98,273.68 154.98,274.01C154.98,274.34 154.98,274.67 154.98,275C154.98,275.33 154.98,275.67 154.98,276C154.98,276.33 154.98,276.67 154.98,277C154.98,277.33 154.98,277.66 154.98,277.99C154.98,278.32 154.98,278.66 154.98,278.99C154.98,279.32 154.98,279.65 154.98,279.98C154.98,280.31 154.98,280.65 154.98,280.98C154.98,281.31 154.98,281.64 154.98,281.97C154.98,282.3 154.98,282.64 154.98,282.97C154.98,283.3 154.98,283.63 154.98,283.96C154.98,284.29 154.98,284.63 154.98,284.96C154.98,285.29 154.98,285.62 154.98,285.95C154.98,286.28 154.98,286.62 154.98,286.95C154.98,287.28 154.98,287.61 154.98,287.94C154.98,288.27 154.99,288.61 154.99,288.94C154.99,289.27 154.99,289.6 154.99,289.93C154.99,290.26 154.99,290.6 154.99,290.93C154.99,291.26 154.99,291.59 154.99,291.92C154.99,292.25 154.99,292.59 154.99,292.92C154.99,293.25 154.99,293.58 154.99,293.91C154.99,294.24 154.99,294.58 154.99,294.91C154.99,295.24 154.99,295.57 154.99,295.9C154.99,296.23 154.99,296.57 154.99,296.9C154.99,297.23 154.99,297.56 154.99,297.89C154.99,298.22 154.99,298.56 154.99,298.89C154.99,299.22 154.99,299.55 154.99,299.88C154.99,300.21 154.99,300.55 154.99,300.88C154.99,301.21 154.99,301.55 154.99,301.88C154.99,302.21 154.99,302.54 154.99,302.87C154.99,303.2 154.99,303.54 154.99,303.87C154.99,304.2 154.99,304.53 154.99,304.86C154.99,305.19 154.99,305.53 154.99,305.86C154.99,306.19 154.99,306.52 154.99,306.85C154.99,307.18 154.99,307.52 154.99,307.85C154.99,308.18 154.99,308.51 154.99,308.84C154.99,309.17 154.99,309.51 154.99,309.84C154.99,310.17 154.99,310.5 154.99,310.83C154.99,311.16 154.99,311.5 154.99,311.83C154.99,312.16 154.99,312.49 154.99,312.82C154.99,313.15 154.99,313.49 154.99,313.82C154.99,314.15 154.99,314.48 154.99,314.81C154.99,315.14 154.99,315.48 154.99,315.81C154.99,316.14 154.99,316.47 154.99,316.8C154.99,317.13 154.99,317.47 154.99,317.8C154.99,318.13 154.99,318.46 154.99,318.79C154.99,319.12 154.99,319.46 154.99,319.79C154.99,320.12 154.98,320.45 154.98,320.78C154.98,321.11 154.98,321.45 154.98,321.78C154.98,322.11 154.99,322.44 154.99,322.77C154.99,323.1 154.99,323.44 154.99,323.77C154.99,324.1 154.99,324.43 154.99,324.76C154.99,325.09 154.99,325.43 154.99,325.76C154.99,326.09 155,326.42 155,326.75Q155,327.08 155,327.75Z" style="vector-effect: non-scaling-stroke; stroke-width: 2px; stroke: rgb(255, 127, 14); stroke-opacity: 1; fill: rgb(255, 127, 14); fill-opacity: 0.5;"/></g><g class="trace violins" style="opacity: 1;"><path class="violin" d="M227.38,327.75Q227.41,327.08 227.43,326.75C227.45,326.42 227.47,326.09 227.49,325.76C227.51,325.43 227.54,325.09 227.57,324.76C227.6,324.43 227.63,324.1 227.65,323.77C227.68,323.44 227.7,323.1 227.72,322.77C227.74,322.44 227.74,322.11 227.75,321.78C227.76,321.45 227.76,321.11 227.75,320.78C227.74,320.45 227.73,320.12 227.71,319.79C227.69,319.46 227.67,319.12 227.65,318.79C227.63,318.46 227.61,318.13 227.59,317.8C227.57,317.47 227.55,317.13 227.54,316.8C227.53,316.47 227.52,316.14 227.51,315.81C227.5,315.48 227.5,315.14 227.49,314.81C227.49,314.48 227.48,314.15 227.48,313.82C227.48,313.49 227.48,313.15 227.48,312.82C227.48,312.49 227.48,312.16 227.48,311.83C227.48,311.5 227.49,311.16 227.49,310.83C227.49,310.5 227.49,310.17 227.49,309.84C227.49,309.51 227.49,309.17 227.49,308.84C227.49,308.51 227.5,308.18 227.5,307.85C227.5,307.52 227.5,307.18 227.5,306.85C227.5,306.52 227.5,306.19 227.5,305.86C227.5,305.53 227.51,305.19 227.51,304.86C227.51,304.53 227.51,304.2 227.51,303.87C227.51,303.54 227.51,303.2 227.51,302.87C227.51,302.54 227.52,302.21 227.52,301.88C227.52,301.55 227.52,301.21 227.52,300.88C227.52,300.55 227.52,300.21 227.52,299.88C227.52,299.55 227.52,299.22 227.52,298.89C227.52,298.56 227.53,298.22 227.53,297.89C227.53,297.56 227.53,297.23 227.53,296.9C227.53,296.57 227.53,296.23 227.53,295.9C227.53,295.57 227.54,295.24 227.54,294.91C227.54,294.58 227.54,294.24 227.54,293.91C227.54,293.58 227.55,293.25 227.55,292.92C227.55,292.59 227.55,292.25 227.55,291.92C227.55,291.59 227.56,291.26 227.56,290.93C227.56,290.6 227.56,290.26 227.56,289.93C227.56,289.6 227.57,289.27 227.57,288.94C227.57,288.61 227.58,288.27 227.58,287.94C227.58,287.61 227.58,287.28 227.58,286.95C227.58,286.62 227.59,286.28 227.59,285.95C227.59,285.62 227.59,285.29 227.59,284.96C227.59,284.63 227.6,284.29 227.6,283.96C227.6,283.63 227.6,283.3 227.6,282.97C227.6,282.64 227.61,282.3 227.61,281.97C227.61,281.64 227.61,281.31 227.61,280.98C227.61,280.65 227.62,280.31 227.62,279.98C227.62,279.65 227.63,279.32 227.63,278.99C227.63,278.66 227.64,278.32 227.64,277.99C227.64,277.66 227.65,277.33 227.65,277C227.65,276.67 227.66,276.33 227.66,276C227.66,275.67 227.67,275.33 227.67,275C227.67,274.67 227.68,274.34 227.68,274.01C227.68,273.68 227.69,273.34 227.69,273.01C227.69,272.68 227.7,272.35 227.7,272.02C227.7,271.69 227.71,271.35 227.71,271.02C227.71,270.69 227.72,270.36 227.72,270.03C227.72,269.7 227.73,269.36 227.73,269.03C227.73,268.7 227.73,268.37 227.73,268.04C227.73,267.71 227.74,267.37 227.74,267.04C227.74,266.71 227.75,266.38 227.75,266.05C227.75,265.72 227.76,265.38 227.76,265.05C227.76,264.72 227.76,264.39 227.76,264.06C227.76,263.73 227.77,263.39 227.77,263.06C227.77,262.73 227.78,262.4 227.78,262.07C227.78,261.74 227.79,261.4 227.79,261.07C227.79,260.74 227.8,260.41 227.8,260.08C227.81,259.75 227.81,259.41 227.82,259.08C227.82,258.75 227.83,258.42 227.83,258.09C227.84,257.76 227.84,257.42 227.85,257.09C227.86,256.76 227.87,256.43 227.87,256.1C227.88,255.77 227.87,255.43 227.88,255.1C227.89,254.77 227.9,254.44 227.91,254.11C227.92,253.78 227.92,253.44 227.93,253.11C227.94,252.78 227.94,252.45 227.95,252.12C227.96,251.79 227.96,251.45 227.97,251.12C227.98,250.79 227.99,250.46 228,250.13C228.01,249.8 228.01,249.46 228.02,249.13C228.03,248.8 228.03,248.46 228.04,248.13C228.05,247.8 228.05,247.47 228.06,247.14C228.07,246.81 228.07,246.47 228.08,246.14C228.08,245.81 228.09,245.48 228.09,245.15C228.1,244.82 228.1,244.48 228.11,244.15C228.12,243.82 228.12,243.49 228.13,243.16C228.14,242.83 228.14,242.49 228.15,242.16C228.16,241.83 228.16,241.5 228.17,241.17C228.18,240.84 228.18,240.5 228.19,240.17C228.2,239.84 228.2,239.51 228.21,239.18C228.22,238.85 228.22,238.51 228.23,238.18C228.24,237.85 228.25,237.52 228.26,237.19C228.27,236.86 228.27,236.52 228.28,236.19C228.29,235.86 228.29,235.53 228.3,235.2C228.31,234.87 228.32,234.53 228.33,234.2C228.34,233.87 228.34,233.54 228.35,233.21C228.36,232.88 228.37,232.54 228.38,232.21C228.39,231.88 228.4,231.55 228.41,231.22C228.42,230.89 228.43,230.55 228.44,230.22C228.45,229.89 228.46,229.56 228.47,229.23C228.48,228.9 228.49,228.56 228.5,228.23C228.51,227.9 228.52,227.57 228.53,227.24C228.54,226.91 228.55,226.57 228.56,226.24C228.57,225.91 228.58,225.58 228.59,225.25C228.6,224.92 228.61,224.58 228.62,224.25C228.63,223.92 228.64,223.58 228.65,223.25C228.66,222.92 228.67,222.59 228.68,222.26C228.69,221.93 228.7,221.59 228.71,221.26C228.72,220.93 228.72,220.6 228.73,220.27C228.74,219.94 228.75,219.6 228.76,219.27C228.77,218.94 228.79,218.61 228.8,218.28C228.81,217.95 228.82,217.61 228.83,217.28C228.84,216.95 228.87,216.62 228.88,216.29C228.9,215.96 228.9,215.62 228.92,215.29C228.93,214.96 228.95,214.63 228.97,214.3C228.99,213.97 229,213.63 229.02,213.3C229.04,212.97 229.05,212.64 229.07,212.31C229.09,211.98 229.1,211.64 229.12,211.31C229.14,210.98 229.15,210.65 229.17,210.32C229.19,209.99 229.21,209.65 229.23,209.32C229.25,208.99 229.28,208.66 229.3,208.33C229.32,208 229.34,207.66 229.37,207.33C229.39,207 229.42,206.67 229.45,206.34C229.48,206.01 229.5,205.67 229.53,205.34C229.56,205.01 229.59,204.68 229.62,204.35C229.65,204.02 229.68,203.68 229.72,203.35C229.75,203.02 229.79,202.69 229.83,202.36C229.87,202.03 229.91,201.69 229.95,201.36C229.99,201.03 230.03,200.7 230.08,200.37C230.13,200.04 230.18,199.7 230.23,199.37C230.28,199.04 230.34,198.71 230.4,198.38C230.46,198.05 230.53,197.71 230.6,197.38C230.67,197.05 230.75,196.71 230.83,196.38C230.91,196.05 231,195.72 231.09,195.39C231.18,195.06 231.28,194.72 231.38,194.39C231.48,194.06 231.59,193.73 231.71,193.4C231.83,193.07 231.95,192.73 232.08,192.4C232.21,192.07 232.35,191.74 232.5,191.41C232.65,191.08 232.8,190.74 232.96,190.41C233.12,190.08 233.3,189.75 233.48,189.42C233.66,189.09 233.85,188.75 234.05,188.42C234.25,188.09 234.46,187.76 234.68,187.43C234.9,187.1 235.14,186.76 235.38,186.43C235.62,186.1 235.87,185.77 236.13,185.44C236.39,185.11 236.67,184.77 236.94,184.44C237.22,184.11 237.5,183.78 237.78,183.45C238.07,183.12 238.36,182.78 238.65,182.45C238.94,182.12 239.23,181.79 239.52,181.46C239.81,181.13 240.1,180.79 240.38,180.46C240.66,180.13 240.94,179.8 241.21,179.47C241.48,179.14 241.74,178.81 241.99,178.47C242.24,178.14 242.48,177.81 242.7,177.48C242.92,177.15 243.13,176.82 243.32,176.48C243.51,176.15 243.68,175.83 243.83,175.49C243.98,175.16 244.11,174.83 244.21,174.49C244.31,174.16 244.39,173.83 244.44,173.5C244.49,173.17 244.51,172.83 244.5,172.5C244.49,172.17 244.46,171.83 244.4,171.5C244.34,171.17 244.25,170.84 244.14,170.51C244.03,170.17 243.89,169.84 243.74,169.51C243.58,169.17 243.4,168.85 243.21,168.52C243.01,168.18 242.79,167.85 242.57,167.52C242.34,167.19 242.1,166.86 241.85,166.53C241.6,166.2 241.34,165.86 241.07,165.53C240.8,165.2 240.52,164.87 240.24,164.54C239.96,164.21 239.68,163.87 239.4,163.54C239.12,163.21 238.82,162.88 238.54,162.55C238.26,162.22 237.99,161.88 237.71,161.55C237.44,161.22 237.16,160.89 236.89,160.56C236.63,160.23 236.37,159.89 236.12,159.56C235.87,159.23 235.63,158.9 235.39,158.57C235.15,158.24 234.92,157.9 234.7,157.57C234.48,157.24 234.27,156.91 234.07,156.58C233.87,156.25 233.67,155.91 233.48,155.58C233.3,155.25 233.12,154.92 232.95,154.59C232.78,154.26 232.63,153.92 232.48,153.59C232.33,153.26 232.18,152.93 232.05,152.6C231.92,152.27 231.8,151.93 231.68,151.6C231.56,151.27 231.45,150.94 231.35,150.61C231.25,150.28 231.15,149.94 231.06,149.61C230.97,149.28 230.89,148.95 230.81,148.62C230.73,148.29 230.66,147.95 230.59,147.62C230.52,147.29 230.47,146.96 230.41,146.63C230.35,146.3 230.29,145.96 230.24,145.63C230.19,145.3 230.14,144.96 230.1,144.63C230.06,144.3 230.02,143.97 229.98,143.64C229.94,143.31 229.91,142.97 229.87,142.64C229.84,142.31 229.8,141.98 229.77,141.65C229.74,141.32 229.7,140.98 229.67,140.65C229.64,140.32 229.61,139.99 229.58,139.66C229.55,139.33 229.52,138.99 229.49,138.66C229.46,138.33 229.44,138 229.41,137.67C229.38,137.34 229.36,137 229.33,136.67C229.3,136.34 229.27,136.01 229.25,135.68C229.22,135.35 229.2,135.01 229.18,134.68C229.16,134.35 229.13,134.02 229.11,133.69C229.09,133.36 229.07,133.02 229.05,132.69C229.03,132.36 229.01,132.03 228.99,131.7C228.97,131.37 228.96,131.03 228.94,130.7C228.93,130.37 228.91,130.04 228.9,129.71C228.89,129.38 228.87,129.04 228.86,128.71C228.85,128.38 228.83,128.05 228.82,127.72C228.81,127.39 228.79,127.05 228.78,126.72C228.77,126.39 228.75,126.06 228.74,125.73C228.73,125.4 228.71,125.06 228.7,124.73C228.69,124.4 228.67,124.07 228.66,123.74C228.65,123.41 228.63,123.07 228.62,122.74C228.61,122.41 228.6,122.08 228.59,121.75C228.58,121.42 228.56,121.08 228.55,120.75C228.54,120.42 228.53,120.08 228.52,119.75C228.51,119.42 228.5,119.09 228.49,118.76C228.48,118.43 228.47,118.09 228.46,117.76C228.45,117.43 228.45,117.1 228.44,116.77C228.43,116.44 228.42,116.1 228.41,115.77C228.4,115.44 228.39,115.11 228.38,114.78C228.37,114.45 228.36,114.11 228.35,113.78C228.34,113.45 228.34,113.12 228.33,112.79C228.32,112.46 228.31,112.12 228.3,111.79C228.29,111.46 228.29,111.13 228.28,110.8C228.27,110.47 228.26,110.13 228.25,109.8C228.24,109.47 228.23,109.14 228.23,108.81C228.22,108.48 228.23,108.14 228.22,107.81C228.22,107.48 228.21,107.15 228.2,106.82C228.19,106.49 228.19,106.15 228.18,105.82C228.18,105.49 228.17,105.16 228.17,104.83C228.16,104.5 228.16,104.16 228.15,103.83C228.14,103.5 228.14,103.17 228.13,102.84C228.12,102.51 228.12,102.17 228.11,101.84C228.1,101.51 228.09,101.18 228.09,100.85C228.08,100.52 228.09,100.18 228.08,99.85C228.08,99.52 228.07,99.19 228.06,98.86C228.05,98.53 228.05,98.19 228.04,97.86C228.04,97.53 228.03,97.2 228.03,96.87C228.02,96.54 228.02,96.2 228.01,95.87C228.01,95.54 228,95.21 228,94.88C227.99,94.55 227.99,94.21 227.98,93.88C227.98,93.55 227.98,93.21 227.97,92.88C227.97,92.55 227.95,92.22 227.95,91.89C227.94,91.56 227.94,91.22 227.94,90.89C227.94,90.56 227.93,90.23 227.93,89.9C227.92,89.57 227.92,89.23 227.91,88.9C227.91,88.57 227.9,88.24 227.9,87.91C227.89,87.58 227.89,87.24 227.88,86.91C227.88,86.58 227.87,86.25 227.87,85.92C227.86,85.59 227.86,85.25 227.85,84.92C227.85,84.59 227.84,84.26 227.84,83.93C227.84,83.6 227.83,83.26 227.83,82.93C227.83,82.6 227.82,82.27 227.82,81.94C227.81,81.61 227.81,81.27 227.8,80.94C227.8,80.61 227.79,80.28 227.79,79.95C227.79,79.62 227.78,79.28 227.78,78.95C227.78,78.62 227.77,78.29 227.77,77.96C227.77,77.63 227.76,77.29 227.76,76.96C227.76,76.63 227.75,76.3 227.75,75.97C227.75,75.64 227.74,75.3 227.74,74.97C227.74,74.64 227.74,74.31 227.74,73.98C227.74,73.65 227.73,73.31 227.73,72.98C227.73,72.65 227.72,72.32 227.72,71.99C227.72,71.66 227.71,71.32 227.71,70.99C227.71,70.66 227.7,70.33 227.7,70C227.7,69.67 227.69,69.33 227.69,69C227.69,68.67 227.68,68.33 227.68,68C227.68,67.67 227.67,67.34 227.67,67.01C227.67,66.68 227.66,66.34 227.66,66.01C227.66,65.68 227.65,65.35 227.65,65.02C227.65,64.69 227.65,64.35 227.65,64.02C227.65,63.69 227.64,63.36 227.64,63.03C227.64,62.7 227.64,62.36 227.64,62.03C227.64,61.7 227.63,61.37 227.63,61.04C227.63,60.71 227.63,60.37 227.63,60.04C227.63,59.71 227.62,59.38 227.62,59.05C227.62,58.72 227.62,58.38 227.62,58.05C227.62,57.72 227.61,57.39 227.61,57.06C227.61,56.73 227.6,56.39 227.6,56.06C227.6,55.73 227.59,55.4 227.59,55.07C227.59,54.74 227.59,54.4 227.59,54.07C227.59,53.74 227.58,53.41 227.58,53.08C227.58,52.75 227.58,52.41 227.58,52.08C227.58,51.75 227.57,51.42 227.57,51.09C227.57,50.76 227.57,50.42 227.57,50.09C227.57,49.76 227.56,49.43 227.56,49.1C227.56,48.77 227.56,48.43 227.56,48.1C227.56,47.77 227.56,47.44 227.56,47.11C227.56,46.78 227.55,46.44 227.55,46.11C227.55,45.78 227.54,45.45 227.54,45.12C227.54,44.79 227.54,44.45 227.54,44.12C227.54,43.79 227.53,43.46 227.53,43.13C227.53,42.8 227.52,42.46 227.52,42.13C227.52,41.8 227.52,41.46 227.52,41.13C227.52,40.8 227.51,40.47 227.51,40.14C227.51,39.81 227.51,39.47 227.51,39.14C227.51,38.81 227.5,38.48 227.5,38.15C227.5,37.82 227.5,37.48 227.5,37.15C227.5,36.82 227.5,36.49 227.5,36.16C227.5,35.83 227.49,35.49 227.49,35.16C227.49,34.83 227.49,34.5 227.49,34.17C227.49,33.84 227.49,33.5 227.49,33.17C227.49,32.84 227.48,32.51 227.48,32.18C227.48,31.85 227.48,31.51 227.48,31.18C227.48,30.85 227.49,30.52 227.49,30.19C227.5,29.86 227.5,29.52 227.51,29.19C227.52,28.86 227.53,28.53 227.54,28.2C227.55,27.87 227.56,27.53 227.58,27.2C227.6,26.87 227.62,26.54 227.64,26.21C227.66,25.88 227.68,25.54 227.69,25.21C227.7,24.88 227.71,24.55 227.72,24.22C227.73,23.89 227.73,23.55 227.72,23.22C227.71,22.89 227.7,22.56 227.68,22.23C227.66,21.9 227.64,21.56 227.62,21.23C227.6,20.9 227.57,20.57 227.55,20.24C227.53,19.91 227.5,19.57 227.48,19.24C227.46,18.91 227.44,18.58 227.42,18.25Q227.4,17.92 227.38,17.25L227.29,17.25Q227.27,17.92 227.25,18.25C227.23,18.58 227.21,18.91 227.19,19.24C227.17,19.57 227.15,19.91 227.12,20.24C227.1,20.57 227.06,20.9 227.04,21.23C227.02,21.56 227,21.9 226.98,22.23C226.97,22.56 226.96,22.89 226.95,23.22C226.94,23.55 226.94,23.89 226.95,24.22C226.96,24.55 226.97,24.88 226.98,25.21C226.99,25.54 227.01,25.88 227.03,26.21C227.05,26.54 227.06,26.87 227.08,27.2C227.1,27.53 227.12,27.87 227.13,28.2C227.14,28.53 227.15,28.86 227.16,29.19C227.17,29.52 227.18,29.86 227.18,30.19C227.18,30.52 227.18,30.85 227.18,31.18C227.18,31.51 227.18,31.85 227.18,32.18C227.18,32.51 227.18,32.84 227.18,33.17C227.18,33.5 227.18,33.84 227.18,34.17C227.18,34.5 227.17,34.83 227.17,35.16C227.17,35.49 227.17,35.83 227.17,36.16C227.17,36.49 227.17,36.82 227.17,37.15C227.17,37.48 227.16,37.82 227.16,38.15C227.16,38.48 227.16,38.81 227.16,39.14C227.16,39.47 227.15,39.81 227.15,40.14C227.15,40.47 227.15,40.8 227.15,41.13C227.15,41.46 227.14,41.8 227.14,42.13C227.14,42.46 227.14,42.8 227.14,43.13C227.14,43.46 227.13,43.79 227.13,44.12C227.13,44.45 227.12,44.79 227.12,45.12C227.12,45.45 227.12,45.78 227.12,46.11C227.12,46.44 227.11,46.78 227.11,47.11C227.11,47.44 227.11,47.77 227.11,48.1C227.11,48.43 227.1,48.77 227.1,49.1C227.1,49.43 227.1,49.76 227.1,50.09C227.1,50.42 227.09,50.76 227.09,51.09C227.09,51.42 227.09,51.75 227.09,52.08C227.09,52.41 227.09,52.75 227.09,53.08C227.09,53.41 227.08,53.74 227.08,54.07C227.08,54.4 227.07,54.74 227.07,55.07C227.07,55.4 227.06,55.73 227.06,56.06C227.06,56.39 227.06,56.73 227.06,57.06C227.06,57.39 227.05,57.72 227.05,58.05C227.05,58.38 227.05,58.72 227.05,59.05C227.05,59.38 227.04,59.71 227.04,60.04C227.04,60.37 227.04,60.71 227.04,61.04C227.04,61.37 227.03,61.7 227.03,62.03C227.03,62.36 227.03,62.7 227.03,63.03C227.03,63.36 227.02,63.69 227.02,64.02C227.02,64.35 227.01,64.69 227.01,65.02C227.01,65.35 227,65.68 227,66.01C227,66.34 227,66.68 227,67.01C227,67.34 226.99,67.67 226.99,68C226.99,68.33 226.98,68.67 226.98,69C226.98,69.33 226.97,69.67 226.97,70C226.97,70.33 226.96,70.66 226.96,70.99C226.96,71.32 226.95,71.66 226.95,71.99C226.95,72.32 226.94,72.65 226.94,72.98C226.94,73.31 226.93,73.65 226.93,73.98C226.93,74.31 226.92,74.64 226.92,74.97C226.92,75.3 226.92,75.64 226.92,75.97C226.92,76.3 226.91,76.63 226.91,76.96C226.91,77.29 226.9,77.63 226.9,77.96C226.9,78.29 226.89,78.62 226.89,78.95C226.88,79.28 226.88,79.62 226.87,79.95C226.87,80.28 226.86,80.61 226.86,80.94C226.86,81.27 226.85,81.61 226.85,81.94C226.85,82.27 226.84,82.6 226.84,82.93C226.84,83.26 226.84,83.6 226.83,83.93C226.83,84.26 226.81,84.59 226.81,84.92C226.8,85.25 226.8,85.59 226.8,85.92C226.8,86.25 226.79,86.58 226.79,86.91C226.78,87.24 226.78,87.58 226.77,87.91C226.77,88.24 226.76,88.57 226.76,88.9C226.75,89.23 226.75,89.57 226.74,89.9C226.74,90.23 226.73,90.56 226.73,90.89C226.72,91.22 226.72,91.56 226.71,91.89C226.71,92.22 226.7,92.55 226.7,92.88C226.69,93.21 226.69,93.55 226.68,93.88C226.68,94.21 226.67,94.55 226.67,94.88C226.67,95.21 226.66,95.54 226.66,95.87C226.65,96.2 226.65,96.54 226.64,96.87C226.64,97.2 226.63,97.53 226.63,97.86C226.62,98.19 226.62,98.53 226.61,98.86C226.6,99.19 226.6,99.52 226.59,99.85C226.58,100.18 226.58,100.52 226.57,100.85C226.56,101.18 226.55,101.51 226.55,101.84C226.54,102.17 226.55,102.51 226.54,102.84C226.54,103.17 226.53,103.5 226.52,103.83C226.51,104.16 226.51,104.5 226.5,104.83C226.49,105.16 226.48,105.49 226.48,105.82C226.47,106.15 226.48,106.49 226.47,106.82C226.47,107.15 226.46,107.48 226.45,107.81C226.44,108.14 226.44,108.48 226.43,108.81C226.42,109.14 226.42,109.47 226.41,109.8C226.4,110.13 226.4,110.47 226.39,110.8C226.38,111.13 226.38,111.46 226.37,111.79C226.36,112.12 226.35,112.46 226.34,112.79C226.33,113.12 226.32,113.45 226.31,113.78C226.3,114.11 226.29,114.45 226.28,114.78C226.27,115.11 226.27,115.44 226.26,115.77C226.25,116.1 226.24,116.44 226.23,116.77C226.22,117.1 226.21,117.43 226.2,117.76C226.19,118.09 226.18,118.43 226.17,118.76C226.16,119.09 226.16,119.42 226.15,119.75C226.14,120.08 226.12,120.42 226.11,120.75C226.1,121.08 226.09,121.42 226.08,121.75C226.07,122.08 226.05,122.41 226.04,122.74C226.03,123.07 226.01,123.41 226,123.74C225.99,124.07 225.97,124.4 225.96,124.73C225.95,125.06 225.93,125.4 225.92,125.73C225.91,126.06 225.89,126.39 225.88,126.72C225.87,127.05 225.85,127.39 225.84,127.72C225.83,128.05 225.82,128.38 225.81,128.71C225.8,129.04 225.79,129.38 225.77,129.71C225.76,130.04 225.73,130.37 225.72,130.7C225.7,131.03 225.7,131.37 225.68,131.7C225.66,132.03 225.64,132.36 225.62,132.69C225.6,133.02 225.58,133.36 225.56,133.69C225.54,134.02 225.51,134.35 225.49,134.68C225.47,135.01 225.45,135.35 225.42,135.68C225.4,136.01 225.37,136.34 225.34,136.67C225.31,137 225.29,137.34 225.26,137.67C225.23,138 225.2,138.33 225.17,138.66C225.14,138.99 225.12,139.33 225.09,139.66C225.06,139.99 225.03,140.32 225,140.65C224.97,140.98 224.93,141.32 224.9,141.65C224.87,141.98 224.83,142.31 224.8,142.64C224.76,142.97 224.73,143.31 224.69,143.64C224.65,143.97 224.6,144.3 224.56,144.63C224.51,144.96 224.47,145.3 224.42,145.63C224.37,145.96 224.32,146.3 224.26,146.63C224.2,146.96 224.14,147.29 224.07,147.62C224,147.95 223.94,148.29 223.86,148.62C223.78,148.95 223.7,149.28 223.61,149.61C223.52,149.94 223.42,150.28 223.32,150.61C223.22,150.94 223.11,151.27 222.99,151.6C222.87,151.93 222.74,152.27 222.61,152.6C222.48,152.93 222.34,153.26 222.19,153.59C222.04,153.92 221.88,154.26 221.71,154.59C221.54,154.92 221.36,155.25 221.18,155.58C220.99,155.91 220.8,156.25 220.6,156.58C220.4,156.91 220.19,157.24 219.97,157.57C219.75,157.9 219.52,158.24 219.28,158.57C219.04,158.9 218.8,159.23 218.55,159.56C218.3,159.89 218.03,160.23 217.77,160.56C217.5,160.89 217.23,161.22 216.96,161.55C216.68,161.88 216.4,162.22 216.12,162.55C215.84,162.88 215.55,163.21 215.27,163.54C214.99,163.87 214.7,164.21 214.42,164.54C214.14,164.87 213.87,165.2 213.6,165.53C213.33,165.86 213.06,166.19 212.81,166.53C212.56,166.86 212.32,167.19 212.09,167.52C211.87,167.85 211.66,168.18 211.46,168.52C211.27,168.85 211.09,169.17 210.93,169.51C210.78,169.84 210.64,170.17 210.53,170.51C210.42,170.84 210.33,171.17 210.27,171.5C210.21,171.83 210.18,172.17 210.17,172.5C210.16,172.83 210.18,173.17 210.23,173.5C210.28,173.83 210.36,174.16 210.46,174.49C210.56,174.83 210.69,175.16 210.83,175.49C210.98,175.83 211.15,176.15 211.34,176.48C211.53,176.82 211.75,177.15 211.97,177.48C212.19,177.81 212.43,178.14 212.68,178.47C212.93,178.81 213.19,179.14 213.46,179.47C213.73,179.8 214.01,180.13 214.29,180.46C214.57,180.79 214.86,181.13 215.15,181.46C215.44,181.79 215.73,182.12 216.02,182.45C216.31,182.78 216.6,183.12 216.89,183.45C217.17,183.78 217.46,184.11 217.73,184.44C218,184.77 218.27,185.11 218.53,185.44C218.79,185.77 219.05,186.1 219.29,186.43C219.53,186.76 219.76,187.1 219.98,187.43C220.2,187.76 220.42,188.09 220.62,188.42C220.82,188.75 221.01,189.09 221.19,189.42C221.37,189.75 221.54,190.08 221.7,190.41C221.86,190.74 222.02,191.08 222.17,191.41C222.32,191.74 222.45,192.07 222.58,192.4C222.71,192.73 222.83,193.07 222.95,193.4C223.07,193.73 223.18,194.06 223.29,194.39C223.39,194.72 223.49,195.06 223.58,195.39C223.67,195.72 223.76,196.05 223.84,196.38C223.92,196.71 224,197.05 224.07,197.38C224.14,197.71 224.2,198.05 224.26,198.38C224.32,198.71 224.39,199.04 224.44,199.37C224.5,199.7 224.54,200.04 224.59,200.37C224.64,200.7 224.68,201.03 224.72,201.36C224.76,201.69 224.8,202.03 224.84,202.36C224.88,202.69 224.91,203.02 224.94,203.35C224.97,203.68 225.01,204.02 225.04,204.35C225.07,204.68 225.1,205.01 225.13,205.34C225.16,205.67 225.19,206.01 225.22,206.34C225.25,206.67 225.28,207 225.3,207.33C225.33,207.66 225.35,208 225.37,208.33C225.39,208.66 225.41,208.99 225.43,209.32C225.45,209.65 225.47,209.99 225.49,210.32C225.51,210.65 225.53,210.98 225.55,211.31C225.57,211.64 225.58,211.98 225.6,212.31C225.62,212.64 225.63,212.97 225.65,213.3C225.67,213.63 225.68,213.97 225.7,214.3C225.71,214.63 225.73,214.96 225.74,215.29C225.76,215.62 225.77,215.96 225.79,216.29C225.8,216.62 225.82,216.95 225.83,217.28C225.84,217.61 225.86,217.95 225.87,218.28C225.88,218.61 225.89,218.94 225.9,219.27C225.91,219.6 225.92,219.94 225.93,220.27C225.94,220.6 225.95,220.93 225.96,221.26C225.97,221.59 225.98,221.93 225.99,222.26C226,222.59 226.01,222.92 226.02,223.25C226.03,223.58 226.04,223.92 226.05,224.25C226.06,224.58 226.07,224.92 226.08,225.25C226.09,225.58 226.1,225.91 226.11,226.24C226.12,226.57 226.13,226.91 226.14,227.24C226.15,227.57 226.16,227.9 226.17,228.23C226.18,228.56 226.19,228.9 226.2,229.23C226.21,229.56 226.22,229.89 226.23,230.22C226.24,230.55 226.25,230.89 226.26,231.22C226.27,231.55 226.28,231.88 226.29,232.21C226.3,232.54 226.3,232.88 226.31,233.21C226.32,233.54 226.33,233.87 226.34,234.2C226.35,234.53 226.35,234.87 226.36,235.2C226.37,235.53 226.38,235.86 226.39,236.19C226.4,236.52 226.4,236.86 226.41,237.19C226.42,237.52 226.42,237.85 226.43,238.18C226.44,238.51 226.44,238.85 226.45,239.18C226.46,239.51 226.46,239.84 226.47,240.17C226.48,240.5 226.48,240.84 226.49,241.17C226.5,241.5 226.5,241.83 226.51,242.16C226.52,242.49 226.52,242.83 226.53,243.16C226.54,243.49 226.54,243.82 226.55,244.15C226.56,244.48 226.56,244.82 226.57,245.15C226.58,245.48 226.58,245.81 226.59,246.14C226.6,246.47 226.6,246.81 226.61,247.14C226.62,247.47 226.62,247.8 226.63,248.13C226.64,248.46 226.64,248.8 226.65,249.13C226.66,249.46 226.66,249.8 226.67,250.13C226.68,250.46 226.68,250.79 226.69,251.12C226.7,251.45 226.71,251.79 226.72,252.12C226.73,252.45 226.73,252.78 226.74,253.11C226.75,253.44 226.75,253.78 226.76,254.11C226.77,254.44 226.77,254.77 226.78,255.1C226.79,255.43 226.79,255.77 226.8,256.1C226.81,256.43 226.81,256.76 226.82,257.09C226.83,257.42 226.83,257.76 226.84,258.09C226.84,258.42 226.85,258.75 226.85,259.08C226.85,259.41 226.86,259.75 226.86,260.08C226.86,260.41 226.87,260.74 226.87,261.07C226.88,261.4 226.89,261.74 226.89,262.07C226.89,262.4 226.89,262.73 226.89,263.06C226.89,263.39 226.9,263.73 226.9,264.06C226.9,264.39 226.91,264.72 226.91,265.05C226.91,265.38 226.92,265.72 226.92,266.05C226.92,266.38 226.93,266.71 226.93,267.04C226.93,267.37 226.93,267.71 226.93,268.04C226.93,268.37 226.94,268.7 226.94,269.03C226.94,269.36 226.95,269.7 226.95,270.03C226.95,270.36 226.95,270.69 226.95,271.02C226.95,271.35 226.96,271.69 226.96,272.02C226.96,272.35 226.97,272.68 226.97,273.01C226.97,273.34 226.98,273.68 226.98,274.01C226.98,274.34 226.99,274.67 226.99,275C226.99,275.33 227,275.67 227,276C227.01,276.33 227.01,276.67 227.02,277C227.02,277.33 227.03,277.66 227.03,277.99C227.03,278.32 227.04,278.66 227.04,278.99C227.04,279.32 227.05,279.65 227.05,279.98C227.05,280.31 227.05,280.65 227.05,280.98C227.05,281.31 227.06,281.64 227.06,281.97C227.06,282.3 227.06,282.64 227.06,282.97C227.06,283.3 227.07,283.63 227.07,283.96C227.07,284.29 227.07,284.63 227.07,284.96C227.07,285.29 227.08,285.62 227.08,285.95C227.08,286.28 227.08,286.62 227.08,286.95C227.08,287.28 227.09,287.61 227.09,287.94C227.09,288.27 227.1,288.61 227.1,288.94C227.1,289.27 227.1,289.6 227.1,289.93C227.1,290.26 227.11,290.6 227.11,290.93C227.11,291.26 227.12,291.59 227.12,291.92C227.12,292.25 227.12,292.59 227.12,292.92C227.12,293.25 227.12,293.58 227.12,293.91C227.12,294.24 227.13,294.58 227.13,294.91C227.13,295.24 227.13,295.57 227.13,295.9C227.13,296.23 227.14,296.57 227.14,296.9C227.14,297.23 227.14,297.56 227.14,297.89C227.14,298.22 227.14,298.56 227.14,298.89C227.14,299.22 227.15,299.55 227.15,299.88C227.15,300.21 227.15,300.55 227.15,300.88C227.15,301.21 227.15,301.55 227.15,301.88C227.15,302.21 227.15,302.54 227.15,302.87C227.15,303.2 227.16,303.54 227.16,303.87C227.16,304.2 227.16,304.53 227.16,304.86C227.16,305.19 227.16,305.53 227.16,305.86C227.16,306.19 227.17,306.52 227.17,306.85C227.17,307.18 227.17,307.52 227.17,307.85C227.17,308.18 227.17,308.51 227.17,308.84C227.17,309.17 227.18,309.51 227.18,309.84C227.18,310.17 227.18,310.5 227.18,310.83C227.18,311.16 227.18,311.5 227.18,311.83C227.18,312.16 227.18,312.49 227.18,312.82C227.18,313.15 227.18,313.49 227.18,313.82C227.18,314.15 227.17,314.48 227.17,314.81C227.17,315.14 227.17,315.48 227.16,315.81C227.15,316.14 227.13,316.47 227.12,316.8C227.1,317.13 227.09,317.47 227.07,317.8C227.05,318.13 227.03,318.46 227.01,318.79C226.99,319.12 226.98,319.46 226.96,319.79C226.95,320.12 226.93,320.45 226.92,320.78C226.91,321.11 226.91,321.45 226.92,321.78C226.93,322.11 226.93,322.44 226.95,322.77C226.97,323.1 226.99,323.44 227.02,323.77C227.04,324.1 227.07,324.43 227.1,324.76C227.13,325.09 227.16,325.43 227.18,325.76C227.2,326.09 227.22,326.42 227.24,326.75Q227.26,327.08 227.28,327.75Z" style="vector-effect: non-scaling-stroke; stroke-width: 2px; stroke: rgb(44, 160, 44); stroke-opacity: 1; fill: rgb(44, 160, 44); fill-opacity: 0.5;"/></g></g></g><g class="overplot"/><path class="xlines-above crisp" style="fill: none; stroke-width: 1px; stroke: rgb(36, 36, 36); stroke-opacity: 1;" d="M69,365.5H380"/><path class="ylines-above crisp" style="fill: none; stroke-width: 1px; stroke: rgb(36, 36, 36); stroke-opacity: 1;" d="M69.5,20V365"/><g class="overlines-above"/><g class="xaxislayer-above"><path class="xtick ticks crisp" d="M0,366v5" transform="translate(225,0)" style="stroke: rgb(68, 68, 68); stroke-opacity: 1; stroke-width: 1px;"/><g class="xtick"><text text-anchor="middle" x="0" y="385.4" transform="translate(225,0)" style="font-family: 'Open Sans', verdana, arial, sans-serif; font-size: 12px; fill: rgb(36, 36, 36); fill-opacity: 1; white-space: pre;"> </text></g></g><g class="yaxislayer-above"><path class="ytick ticks crisp" d="M69,0h-5" transform="translate(0,341.78)" style="stroke: rgb(68, 68, 68); stroke-opacity: 1; stroke-width: 1px;"/><path class="ytick ticks crisp" d="M69,0h-5" transform="translate(0,267.14)" style="stroke: rgb(68, 68, 68); stroke-opacity: 1; stroke-width: 1px;"/><path class="ytick ticks crisp" d="M69,0h-5" transform="translate(0,192.5)" style="stroke: rgb(68, 68, 68); stroke-opacity: 1; stroke-width: 1px;"/><path class="ytick ticks crisp" d="M69,0h-5" transform="translate(0,117.86)" style="stroke: rgb(68, 68, 68); stroke-opacity: 1; stroke-width: 1px;"/><path class="ytick ticks crisp" d="M69,0h-5" transform="translate(0,43.22)" style="stroke: rgb(68, 68, 68); stroke-opacity: 1; stroke-width: 1px;"/><g class="ytick"><text text-anchor="end" x="61.6" y="4.199999999999999" transform="translate(0,341.78)" style="font-family: 'Open Sans', verdana, arial, sans-serif; font-size: 12px; fill: rgb(36, 36, 36); fill-opacity: 1; white-space: pre;">10</text></g><g class="ytick"><text text-anchor="end" x="61.6" y="4.199999999999999" transform="translate(0,267.14)" style="font-family: 'Open Sans', verdana, arial, sans-serif; font-size: 12px; fill: rgb(36, 36, 36); fill-opacity: 1; white-space: pre;">5</text></g><g class="ytick"><text text-anchor="end" x="61.6" y="4.199999999999999" transform="translate(0,192.5)" style="font-family: 'Open Sans', verdana, arial, sans-serif; font-size: 12px; fill: rgb(36, 36, 36); fill-opacity: 1; white-space: pre;">0</text></g><g class="ytick"><text text-anchor="end" x="61.6" y="4.199999999999999" transform="translate(0,117.86)" style="font-family: 'Open Sans', verdana, arial, sans-serif; font-size: 12px; fill: rgb(36, 36, 36); fill-opacity: 1; white-space: pre;">5</text></g><g class="ytick"><text text-anchor="end" x="61.6" y="4.199999999999999" transform="translate(0,43.22)" style="font-family: 'Open Sans', verdana, arial, sans-serif; font-size: 12px; fill: rgb(36, 36, 36); fill-opacity: 1; white-space: pre;">10</text></g></g><g class="overaxes-above"/></g></g><g class="polarlayer"/><g class="ternarylayer"/><g class="geolayer"/><g class="funnelarealayer"/><g class="pielayer"/><g class="treemaplayer"/><g class="sunburstlayer"/><g class="glimages"/><defs id="topdefs-e167f6"><g class="clips"/><clipPath id="legende167f6"><rect width="67" height="83" x="0" y="0"/></clipPath></defs><g class="layer-above"><g class="imagelayer"/><g class="shapelayer"/></g><g class="infolayer"><g class="legend" pointer-events="all" transform="translate(318,20)"><rect class="bg" shape-rendering="crispEdges" style="stroke: rgb(68, 68, 68); stroke-opacity: 1; fill: rgb(255, 255, 255); fill-opacity: 1; stroke-width: 0px;" width="67" height="83" x="0" y="0"/><g class="scrollbox" transform="" clip-path="url('#legende167f6')"><text class="legendtitletext" text-anchor="start" x="2" y="15.600000000000001" style="font-family: 'Open Sans', verdana, arial, sans-serif; font-size: 12px; fill: rgb(36, 36, 36); fill-opacity: 1; white-space: pre;">moa_sum</text><g class="groups" transform=""><g class="traces" transform="translate(0,30.1)" style="opacity: 1;"><text class="legendtext" text-anchor="start" x="40" y="4.680000000000001" style="font-family: 'Open Sans', verdana, arial, sans-serif; font-size: 12px; fill: rgb(36, 36, 36); fill-opacity: 1; white-space: pre;">0</text><g class="layers" style="opacity: 1;"><g class="legendfill"/><g class="legendlines"/><g class="legendsymbols"><g class="legendpoints"><path class="legendbox" d="M6,6H-6V-6H6Z" transform="translate(20,0)" style="stroke-width: 2px; fill: rgb(31, 119, 180); fill-opacity: 0.5; stroke: rgb(31, 119, 180); stroke-opacity: 1;"/></g></g></g><rect class="legendtoggle" x="0" y="-9.5" width="61.671875" height="19" style="fill: rgb(0, 0, 0); fill-opacity: 0;"/></g></g><g class="groups" transform=""><g class="traces" transform="translate(0,49.1)" style="opacity: 1;"><text class="legendtext" text-anchor="start" x="40" y="4.680000000000001" style="font-family: 'Open Sans', verdana, arial, sans-serif; font-size: 12px; fill: rgb(36, 36, 36); fill-opacity: 1; white-space: pre;">1</text><g class="layers" style="opacity: 1;"><g class="legendfill"/><g class="legendlines"/><g class="legendsymbols"><g class="legendpoints"><path class="legendbox" d="M6,6H-6V-6H6Z" transform="translate(20,0)" style="stroke-width: 2px; fill: rgb(255, 127, 14); fill-opacity: 0.5; stroke: rgb(255, 127, 14); stroke-opacity: 1;"/></g></g></g><rect class="legendtoggle" x="0" y="-9.5" width="61.671875" height="19" style="fill: rgb(0, 0, 0); fill-opacity: 0;"/></g></g><g class="groups" transform=""><g class="traces" transform="translate(0,68.1)" style="opacity: 1;"><text class="legendtext" text-anchor="start" x="40" y="4.680000000000001" style="font-family: 'Open Sans', verdana, arial, sans-serif; font-size: 12px; fill: rgb(36, 36, 36); fill-opacity: 1; white-space: pre;">> 2</text><g class="layers" style="opacity: 1;"><g class="legendfill"/><g class="legendlines"/><g class="legendsymbols"><g class="legendpoints"><path class="legendbox" d="M6,6H-6V-6H6Z" transform="translate(20,0)" style="stroke-width: 2px; fill: rgb(44, 160, 44); fill-opacity: 0.5; stroke: rgb(44, 160, 44); stroke-opacity: 1;"/></g></g></g><rect class="legendtoggle" x="0" y="-9.5" width="61.671875" height="19" style="fill: rgb(0, 0, 0); fill-opacity: 0;"/></g></g></g><rect class="scrollbar" rx="20" ry="3" width="0" height="0" style="fill: rgb(128, 139, 164); fill-opacity: 1;" x="0" y="0"/></g><g class="g-gtitle"/><g class="g-xtitle"/><g class="g-ytitle" transform="translate(2.2841796875,0)"><text class="ytitle" transform="rotate(-90,11.715625000000003,192.5)" x="11.715625000000003" y="192.5" text-anchor="middle" style="font-family: 'Open Sans', verdana, arial, sans-serif; font-size: 14px; fill: rgb(36, 36, 36); opacity: 1; font-weight: normal; white-space: pre;">Gene expression</text></g></g></svg>