<svg class="main-svg" xmlns="http://www.w3.org/2000/svg" xmlns:xlink="http://www.w3.org/1999/xlink" width="290" height="400" style="" viewBox="0 0 290 400"><rect x="0" y="0" width="290" height="400" style="fill: rgb(255, 255, 255); fill-opacity: 1;"/><defs id="defs-7f5dc9"><g class="clips"><clipPath id="clip7f5dc9xyplot" class="plotclip"><rect width="200" height="345"/></clipPath><clipPath class="axesclip" id="clip7f5dc9x"><rect x="70" y="0" width="200" height="400"/></clipPath><clipPath class="axesclip" id="clip7f5dc9y"><rect x="0" y="20" width="290" height="345"/></clipPath><clipPath class="axesclip" id="clip7f5dc9xy"><rect x="70" y="20" width="200" height="345"/></clipPath></g><g class="gradients"/></defs><g class="bglayer"/><g class="layer-below"><g class="imagelayer"/><g class="shapelayer"/></g><g class="cartesianlayer"><g class="subplot xy"><g class="layer-subplot"><g class="shapelayer"/><g class="imagelayer"/></g><g class="gridlayer"><g class="x"/><g class="y"/></g><g class="zerolinelayer"/><path class="xlines-below"/><path class="ylines-below"/><g class="overlines-below"/><g class="xaxislayer-below"/><g class="yaxislayer-below"/><g class="overaxes-below"/><g class="plot" transform="translate(70,20)" clip-path="url('#clip7f5dc9xyplot')"><g class="violinlayer mlayer"><g class="trace violins" style="opacity: 1;"><path class="violin" d="M100.01,327.75Q100.01,327.08 100.01,326.75C100.01,326.42 100.02,326.09 100.02,325.76C100.02,325.43 100.02,325.09 100.03,324.76C100.03,324.43 100.05,324.1 100.05,323.77C100.06,323.44 100.06,323.1 100.06,322.77C100.06,322.44 100.06,322.11 100.06,321.78C100.06,321.45 100.06,321.11 100.06,320.78C100.06,320.45 100.05,320.12 100.05,319.79C100.05,319.46 100.04,319.12 100.04,318.79C100.04,318.46 100.04,318.13 100.04,317.8C100.04,317.47 100.03,317.13 100.03,316.8C100.03,316.47 100.02,316.14 100.02,315.81C100.02,315.48 100.02,315.14 100.02,314.81C100.02,314.48 100.02,314.15 100.02,313.82C100.02,313.49 100.02,313.15 100.02,312.82C100.02,312.49 100.02,312.16 100.02,311.83C100.02,311.5 100.02,311.16 100.02,310.83C100.02,310.5 100.02,310.17 100.02,309.84C100.02,309.51 100.02,309.17 100.02,308.84C100.02,308.51 100.02,308.18 100.02,307.85C100.02,307.52 100.02,307.18 100.02,306.85C100.02,306.52 100.02,306.19 100.02,305.86C100.02,305.53 100.03,305.19 100.03,304.86C100.03,304.53 100.03,304.2 100.03,303.87C100.03,303.54 100.03,303.2 100.03,302.87C100.03,302.54 100.03,302.21 100.03,301.88C100.03,301.55 100.03,301.21 100.03,300.88C100.03,300.55 100.03,300.21 100.03,299.88C100.03,299.55 100.03,299.22 100.03,298.89C100.03,298.56 100.03,298.22 100.03,297.89C100.03,297.56 100.03,297.23 100.03,296.9C100.03,296.57 100.03,296.23 100.03,295.9C100.03,295.57 100.03,295.24 100.03,294.91C100.03,294.58 100.03,294.24 100.03,293.91C100.03,293.58 100.03,293.25 100.03,292.92C100.03,292.59 100.03,292.25 100.03,291.92C100.03,291.59 100.03,291.26 100.03,290.93C100.03,290.6 100.03,290.26 100.03,289.93C100.03,289.6 100.03,289.27 100.03,288.94C100.03,288.61 100.03,288.27 100.03,287.94C100.03,287.61 100.04,287.28 100.04,286.95C100.04,286.62 100.04,286.28 100.04,285.95C100.04,285.62 100.04,285.29 100.04,284.96C100.04,284.63 100.04,284.29 100.04,283.96C100.04,283.63 100.04,283.3 100.04,282.97C100.04,282.64 100.04,282.3 100.04,281.97C100.04,281.64 100.04,281.31 100.04,280.98C100.04,280.65 100.04,280.31 100.04,279.98C100.04,279.65 100.05,279.32 100.05,278.99C100.05,278.66 100.05,278.32 100.05,277.99C100.05,277.66 100.05,277.33 100.05,277C100.05,276.67 100.05,276.33 100.05,276C100.05,275.67 100.05,275.33 100.05,275C100.05,274.67 100.05,274.34 100.05,274.01C100.05,273.68 100.05,273.34 100.05,273.01C100.05,272.68 100.05,272.35 100.05,272.02C100.05,271.69 100.05,271.35 100.05,271.02C100.05,270.69 100.05,270.36 100.05,270.03C100.05,269.7 100.06,269.36 100.06,269.03C100.06,268.7 100.06,268.37 100.06,268.04C100.06,267.71 100.06,267.37 100.06,267.04C100.06,266.71 100.07,266.38 100.07,266.05C100.07,265.72 100.07,265.38 100.07,265.05C100.07,264.72 100.08,264.39 100.08,264.06C100.08,263.73 100.08,263.39 100.08,263.06C100.08,262.73 100.09,262.4 100.09,262.07C100.09,261.74 100.1,261.4 100.1,261.07C100.1,260.74 100.1,260.41 100.1,260.08C100.1,259.75 100.11,259.41 100.11,259.08C100.11,258.75 100.12,258.42 100.12,258.09C100.12,257.76 100.13,257.42 100.13,257.09C100.13,256.76 100.14,256.43 100.14,256.1C100.14,255.77 100.14,255.43 100.15,255.1C100.15,254.77 100.17,254.44 100.17,254.11C100.18,253.78 100.17,253.44 100.18,253.11C100.18,252.78 100.2,252.45 100.2,252.12C100.21,251.79 100.2,251.45 100.21,251.12C100.21,250.79 100.23,250.46 100.23,250.13C100.24,249.8 100.24,249.46 100.24,249.13C100.25,248.8 100.25,248.46 100.26,248.13C100.26,247.8 100.27,247.47 100.27,247.14C100.27,246.81 100.28,246.47 100.28,246.14C100.28,245.81 100.28,245.48 100.28,245.15C100.28,244.82 100.29,244.48 100.29,244.15C100.29,243.82 100.29,243.49 100.29,243.16C100.29,242.83 100.29,242.49 100.29,242.16C100.29,241.83 100.29,241.5 100.29,241.17C100.29,240.84 100.29,240.5 100.29,240.17C100.29,239.84 100.29,239.51 100.29,239.18C100.29,238.85 100.3,238.51 100.3,238.18C100.3,237.85 100.3,237.52 100.3,237.19C100.3,236.86 100.3,236.52 100.3,236.19C100.3,235.86 100.31,235.53 100.31,235.2C100.31,234.87 100.31,234.53 100.31,234.2C100.31,233.87 100.32,233.54 100.32,233.21C100.32,232.88 100.33,232.54 100.33,232.21C100.33,231.88 100.33,231.55 100.33,231.22C100.33,230.89 100.34,230.55 100.34,230.22C100.34,229.89 100.35,229.56 100.35,229.23C100.35,228.9 100.36,228.56 100.36,228.23C100.36,227.9 100.37,227.57 100.37,227.24C100.38,226.91 100.38,226.57 100.39,226.24C100.39,225.91 100.39,225.58 100.4,225.25C100.41,224.92 100.42,224.58 100.43,224.25C100.44,223.92 100.44,223.58 100.45,223.25C100.46,222.92 100.47,222.59 100.48,222.26C100.49,221.93 100.49,221.59 100.5,221.26C100.51,220.93 100.52,220.6 100.53,220.27C100.54,219.94 100.56,219.6 100.57,219.27C100.58,218.94 100.59,218.61 100.6,218.28C100.61,217.95 100.63,217.61 100.64,217.28C100.65,216.95 100.67,216.62 100.68,216.29C100.69,215.96 100.7,215.62 100.72,215.29C100.73,214.96 100.75,214.63 100.77,214.3C100.79,213.97 100.8,213.63 100.82,213.3C100.84,212.97 100.87,212.64 100.89,212.31C100.91,211.98 100.93,211.64 100.96,211.31C100.98,210.98 101.01,210.65 101.04,210.32C101.07,209.99 101.1,209.65 101.13,209.32C101.16,208.99 101.2,208.66 101.23,208.33C101.27,208 101.3,207.66 101.34,207.33C101.38,207 101.42,206.67 101.46,206.34C101.51,206.01 101.56,205.67 101.61,205.34C101.66,205.01 101.71,204.68 101.77,204.35C101.83,204.02 101.89,203.68 101.96,203.35C102.03,203.02 102.11,202.69 102.19,202.36C102.28,202.03 102.37,201.69 102.47,201.36C102.57,201.03 102.67,200.7 102.79,200.37C102.91,200.04 103.03,199.7 103.17,199.37C103.31,199.04 103.46,198.71 103.62,198.38C103.78,198.04 103.96,197.71 104.15,197.38C104.35,197.04 104.56,196.71 104.78,196.38C105.01,196.04 105.25,195.72 105.51,195.39C105.78,195.05 106.05,194.72 106.35,194.39C106.66,194.05 106.99,193.73 107.34,193.4C107.7,193.06 108.07,192.73 108.47,192.4C108.88,192.06 109.32,191.73 109.77,191.41C110.24,191.07 110.73,190.74 111.24,190.41C111.77,190.07 112.32,189.74 112.89,189.42C113.49,189.08 114.11,188.75 114.75,188.42C115.42,188.08 116.1,187.76 116.81,187.43C117.54,187.09 118.3,186.76 119.07,186.43C119.87,186.09 120.69,185.77 121.52,185.44C122.37,185.1 123.25,184.77 124.13,184.44C125.03,184.1 125.95,183.78 126.87,183.45C127.8,183.12 128.73,182.78 129.67,182.45C130.61,182.12 131.56,181.79 132.5,181.46C133.44,181.13 134.37,180.79 135.3,180.46C136.21,180.13 137.12,179.81 138.01,179.47C138.88,179.14 139.74,178.81 140.58,178.47C141.38,178.14 142.18,177.82 142.93,177.48C143.65,177.16 144.35,176.83 145,176.48C145.6,176.16 146.18,175.84 146.7,175.49C147.17,175.17 147.62,174.85 147.98,174.49C148.29,174.18 148.59,173.85 148.76,173.5C148.91,173.18 149.01,172.83 149,172.5C148.99,172.17 148.86,171.82 148.69,171.5C148.5,171.15 148.19,170.82 147.86,170.51C147.49,170.16 147.02,169.83 146.54,169.51C146.01,169.16 145.42,168.84 144.81,168.52C144.16,168.18 143.46,167.84 142.74,167.52C141.98,167.18 141.19,166.86 140.38,166.53C139.54,166.19 138.68,165.86 137.81,165.53C136.92,165.19 136.02,164.87 135.11,164.54C134.19,164.21 133.25,163.87 132.32,163.54C131.39,163.21 130.46,162.88 129.53,162.55C128.61,162.22 127.7,161.88 126.79,161.55C125.9,161.22 125,160.9 124.13,160.56C123.28,160.23 122.44,159.9 121.61,159.56C120.81,159.23 120.01,158.91 119.24,158.57C118.49,158.24 117.76,157.91 117.05,157.57C116.36,157.24 115.69,156.92 115.04,156.58C114.42,156.25 113.81,155.92 113.23,155.58C112.67,155.26 112.13,154.93 111.61,154.59C111.11,154.26 110.62,153.93 110.16,153.59C109.72,153.27 109.29,152.94 108.89,152.6C108.5,152.27 108.13,151.94 107.78,151.6C107.44,151.27 107.11,150.95 106.8,150.61C106.5,150.28 106.22,149.95 105.95,149.61C105.69,149.28 105.45,148.95 105.22,148.62C104.99,148.29 104.78,147.96 104.58,147.62C104.38,147.29 104.2,146.96 104.03,146.63C103.86,146.3 103.7,145.97 103.55,145.63C103.4,145.3 103.28,144.96 103.15,144.63C103.03,144.3 102.91,143.97 102.8,143.64C102.69,143.31 102.6,142.97 102.51,142.64C102.42,142.31 102.33,141.98 102.25,141.65C102.17,141.32 102.11,140.98 102.04,140.65C101.97,140.32 101.91,139.99 101.85,139.66C101.79,139.33 101.74,138.99 101.69,138.66C101.64,138.33 101.59,138 101.55,137.67C101.51,137.34 101.47,137 101.43,136.67C101.39,136.34 101.35,136.01 101.32,135.68C101.28,135.35 101.25,135.01 101.22,134.68C101.19,134.35 101.16,134.02 101.13,133.69C101.1,133.36 101.08,133.02 101.05,132.69C101.03,132.36 101,132.03 100.98,131.7C100.96,131.37 100.93,131.03 100.91,130.7C100.89,130.37 100.87,130.04 100.85,129.71C100.83,129.38 100.82,129.04 100.8,128.71C100.78,128.38 100.77,128.05 100.75,127.72C100.73,127.39 100.72,127.05 100.7,126.72C100.69,126.39 100.67,126.06 100.66,125.73C100.65,125.4 100.63,125.06 100.62,124.73C100.61,124.4 100.59,124.07 100.58,123.74C100.57,123.41 100.55,123.07 100.54,122.74C100.53,122.41 100.52,122.08 100.51,121.75C100.5,121.42 100.5,121.08 100.49,120.75C100.48,120.42 100.47,120.08 100.46,119.75C100.45,119.42 100.44,119.09 100.44,118.76C100.43,118.43 100.44,118.09 100.43,117.76C100.43,117.43 100.42,117.1 100.41,116.77C100.4,116.44 100.4,116.1 100.39,115.77C100.38,115.44 100.38,115.11 100.37,114.78C100.36,114.45 100.36,114.11 100.35,113.78C100.35,113.45 100.34,113.12 100.34,112.79C100.33,112.46 100.33,112.12 100.32,111.79C100.32,111.46 100.31,111.13 100.31,110.8C100.31,110.47 100.3,110.13 100.3,109.8C100.3,109.47 100.29,109.14 100.29,108.81C100.29,108.48 100.28,108.14 100.28,107.81C100.28,107.48 100.28,107.15 100.28,106.82C100.28,106.49 100.28,106.15 100.28,105.82C100.28,105.49 100.28,105.16 100.28,104.83C100.28,104.5 100.28,104.16 100.28,103.83C100.28,103.5 100.28,103.17 100.28,102.84C100.28,102.51 100.28,102.17 100.28,101.84C100.28,101.51 100.28,101.18 100.28,100.85C100.28,100.52 100.28,100.18 100.28,99.85C100.28,99.52 100.27,99.19 100.27,98.86C100.27,98.53 100.26,98.19 100.26,97.86C100.26,97.53 100.25,97.2 100.25,96.87C100.25,96.54 100.24,96.2 100.24,95.87C100.24,95.54 100.23,95.21 100.23,94.88C100.22,94.55 100.22,94.21 100.21,93.88C100.21,93.55 100.21,93.21 100.2,92.88C100.2,92.55 100.18,92.22 100.18,91.89C100.17,91.56 100.17,91.22 100.17,90.89C100.17,90.56 100.16,90.23 100.16,89.9C100.16,89.57 100.15,89.23 100.15,88.9C100.15,88.57 100.14,88.24 100.14,87.91C100.14,87.58 100.13,87.24 100.13,86.91C100.13,86.58 100.12,86.25 100.12,85.92C100.12,85.59 100.11,85.25 100.11,84.92C100.11,84.59 100.1,84.26 100.1,83.93C100.1,83.6 100.1,83.26 100.1,82.93C100.1,82.6 100.09,82.27 100.09,81.94C100.09,81.61 100.08,81.27 100.08,80.94C100.08,80.61 100.08,80.28 100.08,79.95C100.08,79.62 100.08,79.28 100.08,78.95C100.08,78.62 100.08,78.29 100.08,77.96C100.08,77.63 100.07,77.29 100.07,76.96C100.07,76.63 100.07,76.3 100.07,75.97C100.07,75.64 100.07,75.3 100.07,74.97C100.07,74.64 100.07,74.31 100.07,73.98C100.07,73.65 100.06,73.31 100.06,72.98C100.06,72.65 100.06,72.32 100.06,71.99C100.06,71.66 100.06,71.32 100.06,70.99C100.06,70.66 100.05,70.33 100.05,70C100.05,69.67 100.05,69.33 100.05,69C100.05,68.67 100.05,68.33 100.05,68C100.05,67.67 100.05,67.34 100.05,67.01C100.05,66.68 100.05,66.34 100.05,66.01C100.05,65.68 100.05,65.35 100.05,65.02C100.05,64.69 100.05,64.35 100.05,64.02C100.05,63.69 100.05,63.36 100.05,63.03C100.05,62.7 100.05,62.36 100.05,62.03C100.05,61.7 100.05,61.37 100.05,61.04C100.05,60.71 100.04,60.37 100.04,60.04C100.04,59.71 100.04,59.38 100.04,59.05C100.04,58.72 100.04,58.38 100.04,58.05C100.04,57.72 100.04,57.39 100.04,57.06C100.04,56.73 100.04,56.39 100.04,56.06C100.04,55.73 100.03,55.4 100.03,55.07C100.03,54.74 100.03,54.4 100.03,54.07C100.03,53.74 100.03,53.41 100.03,53.08C100.03,52.75 100.03,52.41 100.03,52.08C100.03,51.75 100.03,51.42 100.03,51.09C100.03,50.76 100.03,50.42 100.03,50.09C100.03,49.76 100.03,49.43 100.03,49.1C100.03,48.77 100.03,48.43 100.03,48.1C100.03,47.77 100.03,47.44 100.03,47.11C100.03,46.78 100.03,46.44 100.03,46.11C100.03,45.78 100.03,45.45 100.03,45.12C100.03,44.79 100.03,44.45 100.03,44.12C100.03,43.79 100.03,43.46 100.03,43.13C100.03,42.8 100.03,42.46 100.03,42.13C100.03,41.8 100.03,41.46 100.03,41.13C100.03,40.8 100.02,40.47 100.02,40.14C100.02,39.81 100.02,39.47 100.02,39.14C100.02,38.81 100.02,38.48 100.02,38.15C100.02,37.82 100.02,37.48 100.02,37.15C100.02,36.82 100.02,36.49 100.02,36.16C100.02,35.83 100.02,35.49 100.02,35.16C100.02,34.83 100.01,34.5 100.01,34.17C100.01,33.84 100.01,33.5 100.01,33.17C100.01,32.84 100.01,32.51 100.01,32.18C100.01,31.85 100.01,31.51 100.01,31.18C100.01,30.85 100.01,30.52 100.01,30.19C100.01,29.86 100.01,29.52 100.01,29.19C100.01,28.86 100.02,28.53 100.02,28.2C100.02,27.87 100.02,27.53 100.02,27.2C100.02,26.87 100.03,26.54 100.03,26.21C100.03,25.88 100.03,25.54 100.03,25.21C100.03,24.88 100.03,24.55 100.03,24.22C100.03,23.89 100.04,23.55 100.04,23.22C100.04,22.89 100.03,22.56 100.03,22.23C100.03,21.9 100.03,21.56 100.03,21.23C100.03,20.9 100.02,20.57 100.02,20.24C100.02,19.91 100.01,19.57 100.01,19.24C100.01,18.91 100.01,18.58 100.01,18.25Q100.01,17.92 100,17.25L100,17.25Q99.99,17.92 99.99,18.25C99.99,18.58 99.99,18.91 99.99,19.24C99.99,19.57 99.98,19.91 99.98,20.24C99.98,20.57 99.97,20.9 99.97,21.23C99.97,21.56 99.97,21.9 99.97,22.23C99.97,22.56 99.96,22.89 99.96,23.22C99.96,23.55 99.97,23.89 99.97,24.22C99.97,24.55 99.97,24.88 99.97,25.21C99.97,25.54 99.97,25.88 99.97,26.21C99.97,26.54 99.98,26.87 99.98,27.2C99.98,27.53 99.98,27.87 99.98,28.2C99.98,28.53 99.99,28.86 99.99,29.19C99.99,29.52 99.99,29.86 99.99,30.19C99.99,30.52 99.99,30.85 99.99,31.18C99.99,31.51 99.99,31.85 99.99,32.18C99.99,32.51 99.99,32.84 99.99,33.17C99.99,33.5 99.99,33.84 99.99,34.17C99.99,34.5 99.98,34.83 99.98,35.16C99.98,35.49 99.98,35.83 99.98,36.16C99.98,36.49 99.98,36.82 99.98,37.15C99.98,37.48 99.98,37.82 99.98,38.15C99.98,38.48 99.98,38.81 99.98,39.14C99.98,39.47 99.98,39.81 99.98,40.14C99.98,40.47 99.97,40.8 99.97,41.13C99.97,41.46 99.97,41.8 99.97,42.13C99.97,42.46 99.97,42.8 99.97,43.13C99.97,43.46 99.97,43.79 99.97,44.12C99.97,44.45 99.97,44.79 99.97,45.12C99.97,45.45 99.97,45.78 99.97,46.11C99.97,46.44 99.97,46.78 99.97,47.11C99.97,47.44 99.97,47.77 99.97,48.1C99.97,48.43 99.97,48.77 99.97,49.1C99.97,49.43 99.97,49.76 99.97,50.09C99.97,50.42 99.97,50.76 99.97,51.09C99.97,51.42 99.97,51.75 99.97,52.08C99.97,52.41 99.97,52.75 99.97,53.08C99.97,53.41 99.97,53.74 99.97,54.07C99.97,54.4 99.97,54.74 99.97,55.07C99.97,55.4 99.96,55.73 99.96,56.06C99.96,56.39 99.96,56.73 99.96,57.06C99.96,57.39 99.96,57.72 99.96,58.05C99.96,58.38 99.96,58.72 99.96,59.05C99.96,59.38 99.96,59.71 99.96,60.04C99.96,60.37 99.95,60.71 99.95,61.04C99.95,61.37 99.95,61.7 99.95,62.03C99.95,62.36 99.95,62.7 99.95,63.03C99.95,63.36 99.95,63.69 99.95,64.02C99.95,64.35 99.95,64.69 99.95,65.02C99.95,65.35 99.95,65.68 99.95,66.01C99.95,66.34 99.95,66.68 99.95,67.01C99.95,67.34 99.95,67.67 99.95,68C99.95,68.33 99.95,68.67 99.95,69C99.95,69.33 99.95,69.67 99.95,70C99.95,70.33 99.94,70.66 99.94,70.99C99.94,71.32 99.94,71.66 99.94,71.99C99.94,72.32 99.94,72.65 99.94,72.98C99.94,73.31 99.93,73.65 99.93,73.98C99.93,74.31 99.93,74.64 99.93,74.97C99.93,75.3 99.93,75.64 99.93,75.97C99.93,76.3 99.93,76.63 99.93,76.96C99.93,77.29 99.92,77.63 99.92,77.96C99.92,78.29 99.92,78.62 99.92,78.95C99.92,79.28 99.92,79.62 99.92,79.95C99.92,80.28 99.92,80.61 99.92,80.94C99.92,81.27 99.91,81.61 99.91,81.94C99.91,82.27 99.9,82.6 99.9,82.93C99.9,83.26 99.9,83.6 99.9,83.93C99.9,84.26 99.89,84.59 99.89,84.92C99.89,85.25 99.88,85.59 99.88,85.92C99.88,86.25 99.87,86.58 99.87,86.91C99.87,87.24 99.86,87.58 99.86,87.91C99.86,88.24 99.85,88.57 99.85,88.9C99.85,89.23 99.84,89.57 99.84,89.9C99.84,90.23 99.83,90.56 99.83,90.89C99.83,91.22 99.83,91.56 99.82,91.89C99.82,92.22 99.8,92.55 99.8,92.88C99.79,93.21 99.79,93.55 99.79,93.88C99.78,94.21 99.78,94.55 99.77,94.88C99.77,95.21 99.76,95.54 99.76,95.87C99.76,96.2 99.75,96.54 99.75,96.87C99.75,97.2 99.74,97.53 99.74,97.86C99.74,98.19 99.73,98.53 99.73,98.86C99.73,99.19 99.72,99.52 99.72,99.85C99.72,100.18 99.72,100.52 99.72,100.85C99.72,101.18 99.72,101.51 99.72,101.84C99.72,102.17 99.72,102.51 99.72,102.84C99.72,103.17 99.72,103.5 99.72,103.83C99.72,104.16 99.72,104.5 99.72,104.83C99.72,105.16 99.72,105.49 99.72,105.82C99.72,106.15 99.72,106.49 99.72,106.82C99.72,107.15 99.72,107.48 99.72,107.81C99.72,108.14 99.71,108.48 99.71,108.81C99.71,109.14 99.7,109.47 99.7,109.8C99.7,110.13 99.69,110.47 99.69,110.8C99.69,111.13 99.68,111.46 99.68,111.79C99.67,112.12 99.67,112.46 99.66,112.79C99.66,113.12 99.65,113.45 99.65,113.78C99.64,114.11 99.64,114.45 99.63,114.78C99.62,115.11 99.62,115.44 99.61,115.77C99.6,116.1 99.6,116.44 99.59,116.77C99.58,117.1 99.57,117.43 99.57,117.76C99.56,118.09 99.57,118.43 99.56,118.76C99.56,119.09 99.55,119.42 99.54,119.75C99.53,120.08 99.52,120.42 99.51,120.75C99.5,121.08 99.5,121.42 99.49,121.75C99.48,122.08 99.47,122.41 99.46,122.74C99.45,123.07 99.43,123.41 99.42,123.74C99.41,124.07 99.39,124.4 99.38,124.73C99.37,125.06 99.35,125.4 99.34,125.73C99.33,126.06 99.31,126.39 99.3,126.72C99.28,127.05 99.27,127.39 99.25,127.72C99.23,128.05 99.22,128.38 99.2,128.71C99.18,129.04 99.17,129.38 99.15,129.71C99.13,130.04 99.11,130.37 99.09,130.7C99.07,131.03 99.04,131.37 99.02,131.7C99,132.03 98.97,132.36 98.95,132.69C98.92,133.02 98.9,133.36 98.87,133.69C98.84,134.02 98.81,134.35 98.78,134.68C98.75,135.01 98.72,135.35 98.68,135.68C98.65,136.01 98.61,136.34 98.57,136.67C98.53,137 98.49,137.34 98.45,137.67C98.41,138 98.36,138.33 98.31,138.66C98.26,138.99 98.21,139.33 98.15,139.66C98.09,139.99 98.03,140.32 97.96,140.65C97.89,140.98 97.83,141.32 97.75,141.65C97.67,141.98 97.58,142.31 97.49,142.64C97.4,142.97 97.31,143.31 97.2,143.64C97.09,143.97 96.97,144.3 96.85,144.63C96.72,144.96 96.6,145.3 96.45,145.63C96.3,145.97 96.14,146.3 95.97,146.63C95.8,146.96 95.62,147.29 95.42,147.62C95.22,147.96 95.01,148.29 94.78,148.62C94.55,148.95 94.31,149.28 94.05,149.61C93.78,149.95 93.5,150.28 93.2,150.61C92.89,150.95 92.56,151.27 92.22,151.6C91.87,151.94 91.5,152.27 91.11,152.6C90.71,152.94 90.28,153.27 89.84,153.59C89.38,153.93 88.89,154.26 88.39,154.59C87.87,154.93 87.33,155.26 86.77,155.58C86.19,155.92 85.58,156.25 84.96,156.58C84.31,156.92 83.64,157.24 82.95,157.57C82.24,157.91 81.51,158.24 80.76,158.57C79.99,158.91 79.19,159.23 78.39,159.56C77.56,159.9 76.72,160.23 75.87,160.56C75,160.9 74.1,161.22 73.21,161.55C72.3,161.88 71.39,162.22 70.47,162.55C69.54,162.88 68.61,163.21 67.68,163.54C66.75,163.87 65.81,164.21 64.89,164.54C63.98,164.87 63.08,165.19 62.19,165.53C61.32,165.86 60.46,166.19 59.62,166.53C58.81,166.86 58.02,167.18 57.26,167.52C56.54,167.84 55.84,168.18 55.19,168.52C54.58,168.84 53.99,169.16 53.46,169.51C52.98,169.83 52.51,170.16 52.14,170.51C51.81,170.82 51.5,171.15 51.31,171.5C51.14,171.82 51.01,172.17 51,172.5C50.99,172.83 51.09,173.18 51.24,173.5C51.41,173.85 51.71,174.18 52.02,174.49C52.38,174.85 52.83,175.17 53.3,175.49C53.82,175.84 54.4,176.16 55,176.48C55.65,176.83 56.35,177.16 57.07,177.48C57.82,177.82 58.62,178.14 59.42,178.47C60.26,178.81 61.12,179.14 61.99,179.47C62.88,179.81 63.79,180.13 64.7,180.46C65.63,180.79 66.56,181.13 67.5,181.46C68.44,181.79 69.39,182.12 70.33,182.45C71.27,182.78 72.2,183.12 73.13,183.45C74.05,183.78 74.97,184.1 75.87,184.44C76.75,184.77 77.63,185.1 78.48,185.44C79.31,185.77 80.13,186.09 80.93,186.43C81.7,186.76 82.46,187.09 83.19,187.43C83.9,187.76 84.58,188.08 85.25,188.42C85.89,188.75 86.51,189.08 87.11,189.42C87.68,189.74 88.23,190.07 88.76,190.41C89.27,190.74 89.76,191.07 90.23,191.41C90.68,191.73 91.12,192.06 91.53,192.4C91.93,192.73 92.3,193.06 92.66,193.4C93.01,193.73 93.34,194.05 93.65,194.39C93.95,194.72 94.22,195.05 94.49,195.39C94.75,195.72 94.99,196.04 95.22,196.38C95.44,196.71 95.65,197.04 95.85,197.38C96.04,197.71 96.22,198.04 96.38,198.38C96.54,198.71 96.69,199.04 96.83,199.37C96.97,199.7 97.09,200.04 97.21,200.37C97.33,200.7 97.43,201.03 97.53,201.36C97.63,201.69 97.72,202.03 97.81,202.36C97.89,202.69 97.97,203.02 98.04,203.35C98.11,203.68 98.17,204.02 98.23,204.35C98.29,204.68 98.34,205.01 98.39,205.34C98.44,205.67 98.49,206.01 98.54,206.34C98.58,206.67 98.62,207 98.66,207.33C98.7,207.66 98.73,208 98.77,208.33C98.8,208.66 98.84,208.99 98.87,209.32C98.9,209.65 98.93,209.99 98.96,210.32C98.99,210.65 99.02,210.98 99.04,211.31C99.07,211.64 99.09,211.98 99.11,212.31C99.13,212.64 99.16,212.97 99.18,213.3C99.2,213.63 99.21,213.97 99.23,214.3C99.25,214.63 99.27,214.96 99.28,215.29C99.3,215.62 99.31,215.96 99.32,216.29C99.33,216.62 99.35,216.95 99.36,217.28C99.37,217.61 99.39,217.95 99.4,218.28C99.41,218.61 99.42,218.94 99.43,219.27C99.44,219.6 99.46,219.94 99.47,220.27C99.48,220.6 99.49,220.93 99.5,221.26C99.51,221.59 99.51,221.93 99.52,222.26C99.53,222.59 99.54,222.92 99.55,223.25C99.56,223.58 99.56,223.92 99.57,224.25C99.58,224.58 99.59,224.92 99.6,225.25C99.61,225.58 99.61,225.91 99.61,226.24C99.62,226.57 99.62,226.91 99.63,227.24C99.63,227.57 99.64,227.9 99.64,228.23C99.64,228.56 99.65,228.9 99.65,229.23C99.65,229.56 99.66,229.89 99.66,230.22C99.66,230.55 99.67,230.89 99.67,231.22C99.67,231.55 99.67,231.88 99.67,232.21C99.67,232.54 99.68,232.88 99.68,233.21C99.68,233.54 99.69,233.87 99.69,234.2C99.69,234.53 99.69,234.87 99.69,235.2C99.69,235.53 99.7,235.86 99.7,236.19C99.7,236.52 99.7,236.86 99.7,237.19C99.7,237.52 99.7,237.85 99.7,238.18C99.7,238.51 99.71,238.85 99.71,239.18C99.71,239.51 99.71,239.84 99.71,240.17C99.71,240.5 99.71,240.84 99.71,241.17C99.71,241.5 99.71,241.83 99.71,242.16C99.71,242.49 99.71,242.83 99.71,243.16C99.71,243.49 99.71,243.82 99.71,244.15C99.71,244.48 99.72,244.82 99.72,245.15C99.72,245.48 99.72,245.81 99.72,246.14C99.72,246.47 99.73,246.81 99.73,247.14C99.73,247.47 99.74,247.8 99.74,248.13C99.75,248.46 99.75,248.8 99.76,249.13C99.76,249.46 99.76,249.8 99.77,250.13C99.77,250.46 99.79,250.79 99.79,251.12C99.8,251.45 99.79,251.79 99.8,252.12C99.8,252.45 99.82,252.78 99.82,253.11C99.83,253.44 99.82,253.78 99.83,254.11C99.83,254.44 99.85,254.77 99.85,255.1C99.86,255.43 99.86,255.77 99.86,256.1C99.86,256.43 99.87,256.76 99.87,257.09C99.87,257.42 99.88,257.76 99.88,258.09C99.88,258.42 99.89,258.75 99.89,259.08C99.89,259.41 99.9,259.75 99.9,260.08C99.9,260.41 99.9,260.74 99.9,261.07C99.9,261.4 99.91,261.74 99.91,262.07C99.91,262.4 99.92,262.73 99.92,263.06C99.92,263.39 99.92,263.73 99.92,264.06C99.92,264.39 99.93,264.72 99.93,265.05C99.93,265.38 99.93,265.72 99.93,266.05C99.93,266.38 99.94,266.71 99.94,267.04C99.94,267.37 99.94,267.71 99.94,268.04C99.94,268.37 99.94,268.7 99.94,269.03C99.94,269.36 99.95,269.7 99.95,270.03C99.95,270.36 99.95,270.69 99.95,271.02C99.95,271.35 99.95,271.69 99.95,272.02C99.95,272.35 99.95,272.68 99.95,273.01C99.95,273.34 99.95,273.68 99.95,274.01C99.95,274.34 99.95,274.67 99.95,275C99.95,275.33 99.95,275.67 99.95,276C99.95,276.33 99.95,276.67 99.95,277C99.95,277.33 99.95,277.66 99.95,277.99C99.95,278.32 99.95,278.66 99.95,278.99C99.95,279.32 99.96,279.65 99.96,279.98C99.96,280.31 99.96,280.65 99.96,280.98C99.96,281.31 99.96,281.64 99.96,281.97C99.96,282.3 99.96,282.64 99.96,282.97C99.96,283.3 99.96,283.63 99.96,283.96C99.96,284.29 99.96,284.63 99.96,284.96C99.96,285.29 99.96,285.62 99.96,285.95C99.96,286.28 99.96,286.62 99.96,286.95C99.96,287.28 99.97,287.61 99.97,287.94C99.97,288.27 99.97,288.61 99.97,288.94C99.97,289.27 99.97,289.6 99.97,289.93C99.97,290.26 99.97,290.6 99.97,290.93C99.97,291.26 99.97,291.59 99.97,291.92C99.97,292.25 99.97,292.59 99.97,292.92C99.97,293.25 99.97,293.58 99.97,293.91C99.97,294.24 99.97,294.58 99.97,294.91C99.97,295.24 99.97,295.57 99.97,295.9C99.97,296.23 99.97,296.57 99.97,296.9C99.97,297.23 99.97,297.56 99.97,297.89C99.97,298.22 99.97,298.56 99.97,298.89C99.97,299.22 99.97,299.55 99.97,299.88C99.97,300.21 99.97,300.55 99.97,300.88C99.97,301.21 99.97,301.55 99.97,301.88C99.97,302.21 99.97,302.54 99.97,302.87C99.97,303.2 99.97,303.54 99.97,303.87C99.97,304.2 99.97,304.53 99.97,304.86C99.97,305.19 99.98,305.53 99.98,305.86C99.98,306.19 99.98,306.52 99.98,306.85C99.98,307.18 99.98,307.52 99.98,307.85C99.98,308.18 99.98,308.51 99.98,308.84C99.98,309.17 99.98,309.51 99.98,309.84C99.98,310.17 99.98,310.5 99.98,310.83C99.98,311.16 99.98,311.5 99.98,311.83C99.98,312.16 99.98,312.49 99.98,312.82C99.98,313.15 99.98,313.49 99.98,313.82C99.98,314.15 99.98,314.48 99.98,314.81C99.98,315.14 99.98,315.48 99.98,315.81C99.98,316.14 99.97,316.47 99.97,316.8C99.97,317.13 99.96,317.47 99.96,317.8C99.96,318.13 99.96,318.46 99.96,318.79C99.96,319.12 99.95,319.46 99.95,319.79C99.95,320.12 99.94,320.45 99.94,320.78C99.94,321.11 99.94,321.45 99.94,321.78C99.94,322.11 99.94,322.44 99.94,322.77C99.94,323.1 99.94,323.44 99.95,323.77C99.95,324.1 99.97,324.43 99.97,324.76C99.98,325.09 99.98,325.43 99.98,325.76C99.98,326.09 99.99,326.42 99.99,326.75Q99.99,327.08 99.99,327.75Z" style="vector-effect: non-scaling-stroke; stroke-width: 2px; stroke: rgb(31, 119, 180); stroke-opacity: 1; fill: rgb(31, 119, 180); fill-opacity: 0.5;"/></g><g class="trace violins" style="opacity: 1;"><path class="violin" d="M100.01,327.75Q100.02,327.08 100.02,326.75C100.02,326.42 100.03,326.09 100.03,325.76C100.04,325.43 100.04,325.09 100.05,324.76C100.05,324.43 100.06,324.1 100.06,323.77C100.07,323.44 100.08,323.1 100.08,322.77C100.08,322.44 100.08,322.11 100.08,321.78C100.08,321.45 100.08,321.11 100.08,320.78C100.08,320.45 100.08,320.12 100.08,319.79C100.08,319.46 100.07,319.12 100.07,318.79C100.07,318.46 100.06,318.13 100.06,317.8C100.06,317.47 100.05,317.13 100.05,316.8C100.05,316.47 100.04,316.14 100.04,315.81C100.04,315.48 100.04,315.14 100.04,314.81C100.04,314.48 100.04,314.15 100.04,313.82C100.04,313.49 100.04,313.15 100.04,312.82C100.04,312.49 100.04,312.16 100.04,311.83C100.04,311.5 100.04,311.16 100.04,310.83C100.04,310.5 100.04,310.17 100.04,309.84C100.04,309.51 100.04,309.17 100.04,308.84C100.04,308.51 100.04,308.18 100.04,307.85C100.04,307.52 100.04,307.18 100.04,306.85C100.04,306.52 100.04,306.19 100.04,305.86C100.04,305.53 100.04,305.19 100.04,304.86C100.04,304.53 100.04,304.2 100.04,303.87C100.04,303.54 100.04,303.2 100.04,302.87C100.04,302.54 100.04,302.21 100.04,301.88C100.04,301.55 100.05,301.21 100.05,300.88C100.05,300.55 100.05,300.21 100.05,299.88C100.05,299.55 100.05,299.22 100.05,298.89C100.05,298.56 100.05,298.22 100.05,297.89C100.05,297.56 100.06,297.23 100.06,296.9C100.06,296.57 100.06,296.23 100.06,295.9C100.06,295.57 100.06,295.24 100.06,294.91C100.06,294.58 100.06,294.24 100.06,293.91C100.06,293.58 100.06,293.25 100.06,292.92C100.06,292.59 100.06,292.25 100.06,291.92C100.06,291.59 100.07,291.26 100.07,290.93C100.07,290.6 100.07,290.26 100.07,289.93C100.07,289.6 100.07,289.27 100.07,288.94C100.07,288.61 100.07,288.27 100.07,287.94C100.07,287.61 100.07,287.28 100.07,286.95C100.07,286.62 100.07,286.28 100.07,285.95C100.07,285.62 100.07,285.29 100.07,284.96C100.07,284.63 100.08,284.29 100.08,283.96C100.08,283.63 100.08,283.3 100.08,282.97C100.08,282.64 100.08,282.3 100.08,281.97C100.08,281.64 100.08,281.31 100.08,280.98C100.08,280.65 100.09,280.31 100.09,279.98C100.09,279.65 100.09,279.32 100.09,278.99C100.09,278.66 100.1,278.32 100.1,277.99C100.1,277.66 100.1,277.33 100.1,277C100.1,276.67 100.1,276.33 100.1,276C100.1,275.67 100.11,275.33 100.11,275C100.11,274.67 100.11,274.34 100.11,274.01C100.11,273.68 100.11,273.34 100.11,273.01C100.11,272.68 100.11,272.35 100.11,272.02C100.11,271.69 100.11,271.35 100.11,271.02C100.11,270.69 100.11,270.36 100.11,270.03C100.11,269.7 100.11,269.36 100.11,269.03C100.11,268.7 100.12,268.37 100.12,268.04C100.12,267.71 100.12,267.37 100.12,267.04C100.12,266.71 100.12,266.38 100.12,266.05C100.12,265.72 100.13,265.38 100.13,265.05C100.13,264.72 100.13,264.39 100.13,264.06C100.13,263.73 100.14,263.39 100.14,263.06C100.14,262.73 100.15,262.4 100.15,262.07C100.15,261.74 100.15,261.4 100.15,261.07C100.15,260.74 100.16,260.41 100.16,260.08C100.16,259.75 100.17,259.41 100.17,259.08C100.17,258.75 100.18,258.42 100.18,258.09C100.19,257.76 100.19,257.42 100.2,257.09C100.2,256.76 100.21,256.43 100.21,256.1C100.21,255.77 100.21,255.43 100.22,255.1C100.22,254.77 100.24,254.44 100.24,254.11C100.25,253.78 100.24,253.44 100.25,253.11C100.25,252.78 100.27,252.45 100.27,252.12C100.28,251.79 100.27,251.45 100.28,251.12C100.28,250.79 100.3,250.46 100.3,250.13C100.31,249.8 100.31,249.46 100.31,249.13C100.31,248.8 100.32,248.46 100.32,248.13C100.32,247.8 100.33,247.47 100.33,247.14C100.33,246.81 100.33,246.47 100.33,246.14C100.33,245.81 100.34,245.48 100.34,245.15C100.34,244.82 100.34,244.48 100.34,244.15C100.34,243.82 100.34,243.49 100.34,243.16C100.34,242.83 100.34,242.49 100.34,242.16C100.34,241.83 100.35,241.5 100.35,241.17C100.35,240.84 100.35,240.5 100.35,240.17C100.35,239.84 100.36,239.51 100.36,239.18C100.36,238.85 100.37,238.51 100.37,238.18C100.37,237.85 100.38,237.52 100.38,237.19C100.38,236.86 100.39,236.52 100.39,236.19C100.39,235.86 100.4,235.53 100.4,235.2C100.41,234.87 100.41,234.53 100.42,234.2C100.42,233.87 100.43,233.54 100.43,233.21C100.44,232.88 100.44,232.54 100.45,232.21C100.45,231.88 100.46,231.55 100.46,231.22C100.47,230.89 100.47,230.55 100.48,230.22C100.48,229.89 100.49,229.56 100.49,229.23C100.5,228.9 100.5,228.56 100.51,228.23C100.51,227.9 100.52,227.57 100.52,227.24C100.53,226.91 100.53,226.57 100.54,226.24C100.55,225.91 100.55,225.58 100.56,225.25C100.57,224.92 100.57,224.58 100.58,224.25C100.59,223.92 100.59,223.58 100.6,223.25C100.61,222.92 100.62,222.59 100.63,222.26C100.64,221.93 100.65,221.59 100.66,221.26C100.67,220.93 100.68,220.6 100.69,220.27C100.7,219.94 100.71,219.6 100.72,219.27C100.73,218.94 100.75,218.61 100.76,218.28C100.77,217.95 100.79,217.61 100.8,217.28C100.81,216.95 100.82,216.62 100.83,216.29C100.84,215.96 100.86,215.62 100.88,215.29C100.9,214.96 100.91,214.63 100.93,214.3C100.95,213.97 100.96,213.63 100.98,213.3C101,212.97 101.02,212.64 101.04,212.31C101.06,211.98 101.08,211.64 101.11,211.31C101.13,210.98 101.16,210.65 101.19,210.32C101.22,209.99 101.25,209.65 101.28,209.32C101.31,208.99 101.35,208.66 101.39,208.33C101.43,208 101.46,207.66 101.5,207.33C101.54,207 101.59,206.67 101.63,206.34C101.68,206.01 101.72,205.67 101.77,205.34C101.82,205.01 101.88,204.68 101.94,204.35C102,204.02 102.07,203.68 102.14,203.35C102.21,203.02 102.28,202.69 102.36,202.36C102.44,202.03 102.54,201.69 102.64,201.36C102.74,201.03 102.84,200.7 102.96,200.37C103.08,200.04 103.2,199.7 103.34,199.37C103.48,199.04 103.62,198.71 103.78,198.38C103.94,198.05 104.11,197.71 104.3,197.38C104.49,197.04 104.69,196.71 104.91,196.38C105.13,196.04 105.37,195.72 105.62,195.39C105.88,195.05 106.15,194.72 106.44,194.39C106.74,194.05 107.05,193.72 107.39,193.4C107.74,193.06 108.11,192.73 108.5,192.4C108.9,192.06 109.32,191.73 109.76,191.41C110.22,191.07 110.71,190.74 111.21,190.41C111.73,190.07 112.28,189.74 112.84,189.42C113.43,189.08 114.03,188.75 114.66,188.42C115.31,188.08 116,187.76 116.69,187.43C117.41,187.09 118.15,186.76 118.91,186.43C119.69,186.09 120.5,185.77 121.31,185.44C122.15,185.1 123.01,184.77 123.87,184.44C124.75,184.11 125.64,183.78 126.54,183.45C127.45,183.12 128.36,182.78 129.28,182.45C130.2,182.12 131.12,181.79 132.04,181.46C132.95,181.13 133.86,180.79 134.76,180.46C135.64,180.13 136.53,179.81 137.39,179.47C138.23,179.14 139.07,178.81 139.88,178.47C140.66,178.14 141.43,177.82 142.16,177.48C142.86,177.16 143.54,176.82 144.18,176.48C144.77,176.16 145.35,175.84 145.86,175.49C146.32,175.17 146.78,174.85 147.13,174.49C147.44,174.18 147.73,173.85 147.9,173.5C148.05,173.18 148.15,172.83 148.14,172.5C148.13,172.17 148,171.82 147.83,171.5C147.64,171.15 147.32,170.82 146.99,170.51C146.62,170.16 146.15,169.83 145.67,169.51C145.14,169.16 144.55,168.84 143.95,168.52C143.3,168.18 142.61,167.84 141.9,167.52C141.16,167.18 140.38,166.86 139.59,166.53C138.78,166.19 137.93,165.86 137.09,165.53C136.23,165.19 135.35,164.87 134.47,164.54C133.58,164.21 132.68,163.87 131.78,163.54C130.88,163.21 129.98,162.88 129.09,162.55C128.2,162.22 127.31,161.88 126.43,161.55C125.57,161.22 124.71,160.89 123.86,160.56C123.03,160.23 122.21,159.9 121.4,159.56C120.62,159.23 119.84,158.91 119.09,158.57C118.36,158.24 117.64,157.91 116.94,157.57C116.27,157.24 115.61,156.92 114.97,156.58C114.35,156.25 113.75,155.92 113.17,155.58C112.61,155.25 112.07,154.93 111.55,154.59C111.05,154.26 110.56,153.93 110.1,153.59C109.66,153.27 109.23,152.94 108.82,152.6C108.43,152.27 108.05,151.94 107.7,151.6C107.36,151.27 107.04,150.95 106.73,150.61C106.43,150.28 106.15,149.95 105.89,149.61C105.63,149.28 105.39,148.96 105.17,148.62C104.95,148.29 104.75,147.96 104.56,147.62C104.38,147.29 104.21,146.96 104.05,146.63C103.89,146.3 103.75,145.97 103.61,145.63C103.47,145.3 103.35,144.96 103.23,144.63C103.12,144.3 103.02,143.97 102.92,143.64C102.82,143.31 102.73,142.97 102.64,142.64C102.55,142.31 102.47,141.98 102.4,141.65C102.33,141.32 102.26,140.98 102.2,140.65C102.14,140.32 102.08,139.99 102.02,139.66C101.96,139.33 101.91,138.99 101.86,138.66C101.81,138.33 101.76,138 101.72,137.67C101.67,137.34 101.63,137 101.59,136.67C101.55,136.34 101.51,136.01 101.47,135.68C101.43,135.35 101.4,135.01 101.36,134.68C101.33,134.35 101.29,134.02 101.26,133.69C101.23,133.36 101.21,133.02 101.18,132.69C101.15,132.36 101.12,132.03 101.1,131.7C101.07,131.37 101.05,131.03 101.03,130.7C101.01,130.37 100.99,130.04 100.97,129.71C100.95,129.38 100.93,129.04 100.91,128.71C100.89,128.38 100.88,128.05 100.87,127.72C100.85,127.39 100.84,127.05 100.82,126.72C100.81,126.39 100.79,126.06 100.78,125.73C100.77,125.4 100.75,125.06 100.74,124.73C100.73,124.4 100.71,124.07 100.7,123.74C100.69,123.41 100.68,123.07 100.67,122.74C100.66,122.41 100.64,122.08 100.63,121.75C100.62,121.42 100.61,121.08 100.6,120.75C100.59,120.42 100.59,120.08 100.58,119.75C100.57,119.42 100.56,119.09 100.55,118.76C100.54,118.43 100.54,118.09 100.53,117.76C100.52,117.43 100.52,117.1 100.51,116.77C100.5,116.44 100.5,116.1 100.49,115.77C100.48,115.44 100.48,115.11 100.47,114.78C100.46,114.45 100.46,114.11 100.45,113.78C100.44,113.45 100.43,113.12 100.43,112.79C100.42,112.46 100.43,112.12 100.42,111.79C100.42,111.46 100.4,111.13 100.4,110.8C100.39,110.47 100.39,110.13 100.39,109.8C100.39,109.47 100.38,109.14 100.38,108.81C100.38,108.48 100.37,108.14 100.37,107.81C100.37,107.48 100.36,107.15 100.36,106.82C100.36,106.49 100.35,106.15 100.35,105.82C100.35,105.49 100.34,105.16 100.34,104.83C100.34,104.5 100.34,104.16 100.34,103.83C100.34,103.5 100.33,103.17 100.33,102.84C100.33,102.51 100.33,102.17 100.33,101.84C100.33,101.51 100.32,101.18 100.32,100.85C100.32,100.52 100.31,100.18 100.31,99.85C100.31,99.52 100.31,99.19 100.31,98.86C100.31,98.53 100.3,98.19 100.3,97.86C100.3,97.53 100.29,97.2 100.29,96.87C100.29,96.54 100.29,96.2 100.29,95.87C100.29,95.54 100.28,95.21 100.28,94.88C100.27,94.55 100.27,94.21 100.26,93.88C100.26,93.55 100.25,93.21 100.25,92.88C100.25,92.55 100.24,92.22 100.24,91.89C100.23,91.56 100.23,91.22 100.22,90.89C100.21,90.56 100.2,90.23 100.2,89.9C100.19,89.57 100.19,89.23 100.19,88.9C100.19,88.57 100.18,88.24 100.18,87.91C100.17,87.58 100.16,87.24 100.16,86.91C100.16,86.58 100.16,86.25 100.16,85.92C100.16,85.59 100.15,85.25 100.15,84.92C100.15,84.59 100.14,84.26 100.14,83.93C100.14,83.6 100.14,83.26 100.14,82.93C100.14,82.6 100.14,82.27 100.14,81.94C100.14,81.61 100.13,81.27 100.13,80.94C100.13,80.61 100.13,80.28 100.13,79.95C100.13,79.62 100.12,79.28 100.12,78.95C100.12,78.62 100.12,78.29 100.12,77.96C100.12,77.63 100.12,77.29 100.12,76.96C100.12,76.63 100.11,76.3 100.11,75.97C100.11,75.64 100.11,75.3 100.11,74.97C100.11,74.64 100.1,74.31 100.1,73.98C100.1,73.65 100.1,73.31 100.1,72.98C100.1,72.65 100.1,72.32 100.1,71.99C100.1,71.66 100.09,71.32 100.09,70.99C100.09,70.66 100.09,70.33 100.09,70C100.09,69.67 100.09,69.33 100.09,69C100.09,68.67 100.09,68.33 100.09,68C100.09,67.67 100.09,67.34 100.09,67.01C100.09,66.68 100.08,66.34 100.08,66.01C100.08,65.68 100.08,65.35 100.08,65.02C100.08,64.69 100.08,64.35 100.08,64.02C100.08,63.69 100.08,63.36 100.08,63.03C100.08,62.7 100.08,62.36 100.08,62.03C100.08,61.7 100.08,61.37 100.08,61.04C100.08,60.71 100.08,60.37 100.08,60.04C100.08,59.71 100.08,59.38 100.08,59.05C100.08,58.72 100.08,58.38 100.08,58.05C100.08,57.72 100.08,57.39 100.08,57.06C100.08,56.73 100.07,56.39 100.07,56.06C100.07,55.73 100.07,55.4 100.07,55.07C100.07,54.74 100.07,54.4 100.07,54.07C100.07,53.74 100.06,53.41 100.06,53.08C100.06,52.75 100.06,52.41 100.06,52.08C100.06,51.75 100.06,51.42 100.06,51.09C100.06,50.76 100.06,50.42 100.06,50.09C100.06,49.76 100.05,49.43 100.05,49.1C100.05,48.77 100.05,48.43 100.05,48.1C100.05,47.77 100.05,47.44 100.05,47.11C100.05,46.78 100.05,46.44 100.05,46.11C100.05,45.78 100.05,45.45 100.05,45.12C100.05,44.79 100.05,44.45 100.05,44.12C100.05,43.79 100.05,43.46 100.05,43.13C100.05,42.8 100.05,42.46 100.05,42.13C100.05,41.8 100.05,41.46 100.05,41.13C100.05,40.8 100.05,40.47 100.05,40.14C100.05,39.81 100.05,39.47 100.05,39.14C100.05,38.81 100.05,38.48 100.05,38.15C100.05,37.82 100.04,37.48 100.04,37.15C100.04,36.82 100.04,36.49 100.04,36.16C100.04,35.83 100.04,35.49 100.04,35.16C100.04,34.83 100.04,34.5 100.04,34.17C100.04,33.84 100.04,33.5 100.04,33.17C100.04,32.84 100.04,32.51 100.04,32.18C100.04,31.85 100.04,31.51 100.04,31.18C100.04,30.85 100.04,30.52 100.04,30.19C100.04,29.86 100.04,29.52 100.04,29.19C100.04,28.86 100.05,28.53 100.05,28.2C100.05,27.87 100.06,27.53 100.06,27.2C100.06,26.87 100.07,26.54 100.07,26.21C100.07,25.88 100.08,25.54 100.08,25.21C100.08,24.88 100.08,24.55 100.08,24.22C100.08,23.89 100.08,23.55 100.08,23.22C100.08,22.89 100.07,22.56 100.07,22.23C100.07,21.9 100.07,21.56 100.06,21.23C100.06,20.9 100.04,20.57 100.04,20.24C100.03,19.91 100.03,19.57 100.03,19.24C100.03,18.91 100.02,18.58 100.02,18.25Q100.02,17.92 100.01,17.25L99.99,17.25Q99.98,17.92 99.98,18.25C99.98,18.58 99.97,18.91 99.97,19.24C99.97,19.57 99.97,19.91 99.96,20.24C99.96,20.57 99.94,20.9 99.94,21.23C99.93,21.56 99.93,21.9 99.93,22.23C99.93,22.56 99.92,22.89 99.92,23.22C99.92,23.55 99.92,23.89 99.92,24.22C99.92,24.55 99.92,24.88 99.92,25.21C99.92,25.54 99.93,25.88 99.93,26.21C99.93,26.54 99.94,26.87 99.94,27.2C99.94,27.53 99.95,27.87 99.95,28.2C99.95,28.53 99.96,28.86 99.96,29.19C99.96,29.52 99.96,29.86 99.96,30.19C99.96,30.52 99.96,30.85 99.96,31.18C99.96,31.51 99.96,31.85 99.96,32.18C99.96,32.51 99.96,32.84 99.96,33.17C99.96,33.5 99.96,33.84 99.96,34.17C99.96,34.5 99.96,34.83 99.96,35.16C99.96,35.49 99.96,35.83 99.96,36.16C99.96,36.49 99.96,36.82 99.96,37.15C99.96,37.48 99.95,37.82 99.95,38.15C99.95,38.48 99.95,38.81 99.95,39.14C99.95,39.47 99.95,39.81 99.95,40.14C99.95,40.47 99.95,40.8 99.95,41.13C99.95,41.46 99.95,41.8 99.95,42.13C99.95,42.46 99.95,42.8 99.95,43.13C99.95,43.46 99.95,43.79 99.95,44.12C99.95,44.45 99.95,44.79 99.95,45.12C99.95,45.45 99.95,45.78 99.95,46.11C99.95,46.44 99.95,46.78 99.95,47.11C99.95,47.44 99.95,47.77 99.95,48.1C99.95,48.43 99.95,48.77 99.95,49.1C99.95,49.43 99.94,49.76 99.94,50.09C99.94,50.42 99.94,50.76 99.94,51.09C99.94,51.42 99.94,51.75 99.94,52.08C99.94,52.41 99.94,52.75 99.94,53.08C99.94,53.41 99.93,53.74 99.93,54.07C99.93,54.4 99.93,54.74 99.93,55.07C99.93,55.4 99.93,55.73 99.93,56.06C99.93,56.39 99.92,56.73 99.92,57.06C99.92,57.39 99.92,57.72 99.92,58.05C99.92,58.38 99.92,58.72 99.92,59.05C99.92,59.38 99.92,59.71 99.92,60.04C99.92,60.37 99.92,60.71 99.92,61.04C99.92,61.37 99.92,61.7 99.92,62.03C99.92,62.36 99.92,62.7 99.92,63.03C99.92,63.36 99.92,63.69 99.92,64.02C99.92,64.35 99.92,64.69 99.92,65.02C99.92,65.35 99.92,65.68 99.92,66.01C99.92,66.34 99.91,66.68 99.91,67.01C99.91,67.34 99.91,67.67 99.91,68C99.91,68.33 99.91,68.67 99.91,69C99.91,69.33 99.91,69.67 99.91,70C99.91,70.33 99.91,70.66 99.91,70.99C99.91,71.32 99.9,71.66 99.9,71.99C99.9,72.32 99.9,72.65 99.9,72.98C99.9,73.31 99.9,73.65 99.9,73.98C99.9,74.31 99.89,74.64 99.89,74.97C99.89,75.3 99.89,75.64 99.89,75.97C99.89,76.3 99.88,76.63 99.88,76.96C99.88,77.29 99.88,77.63 99.88,77.96C99.88,78.29 99.88,78.62 99.88,78.95C99.88,79.28 99.87,79.62 99.87,79.95C99.87,80.28 99.87,80.61 99.87,80.94C99.87,81.27 99.86,81.61 99.86,81.94C99.86,82.27 99.86,82.6 99.86,82.93C99.86,83.26 99.86,83.6 99.86,83.93C99.86,84.26 99.85,84.59 99.85,84.92C99.85,85.25 99.84,85.59 99.84,85.92C99.84,86.25 99.84,86.58 99.84,86.91C99.84,87.24 99.83,87.58 99.82,87.91C99.82,88.24 99.81,88.57 99.81,88.9C99.81,89.23 99.81,89.57 99.8,89.9C99.8,90.23 99.79,90.56 99.78,90.89C99.77,91.22 99.77,91.56 99.76,91.89C99.76,92.22 99.75,92.55 99.75,92.88C99.75,93.21 99.74,93.55 99.74,93.88C99.73,94.21 99.73,94.55 99.72,94.88C99.72,95.21 99.71,95.54 99.71,95.87C99.71,96.2 99.71,96.54 99.71,96.87C99.71,97.2 99.7,97.53 99.7,97.86C99.7,98.19 99.69,98.53 99.69,98.86C99.69,99.19 99.69,99.52 99.69,99.85C99.69,100.18 99.68,100.52 99.68,100.85C99.68,101.18 99.67,101.51 99.67,101.84C99.67,102.17 99.67,102.51 99.67,102.84C99.67,103.17 99.66,103.5 99.66,103.83C99.66,104.16 99.66,104.5 99.66,104.83C99.66,105.16 99.65,105.49 99.65,105.82C99.65,106.15 99.64,106.49 99.64,106.82C99.64,107.15 99.63,107.48 99.63,107.81C99.63,108.14 99.62,108.48 99.62,108.81C99.62,109.14 99.61,109.47 99.61,109.8C99.61,110.13 99.61,110.47 99.6,110.8C99.6,111.13 99.58,111.46 99.58,111.79C99.57,112.12 99.58,112.46 99.57,112.79C99.57,113.12 99.56,113.45 99.55,113.78C99.54,114.11 99.54,114.45 99.53,114.78C99.52,115.11 99.52,115.44 99.51,115.77C99.5,116.1 99.5,116.44 99.49,116.77C99.48,117.1 99.48,117.43 99.47,117.76C99.46,118.09 99.46,118.43 99.45,118.76C99.44,119.09 99.43,119.42 99.42,119.75C99.41,120.08 99.41,120.42 99.4,120.75C99.39,121.08 99.38,121.42 99.37,121.75C99.36,122.08 99.34,122.41 99.33,122.74C99.32,123.07 99.31,123.41 99.3,123.74C99.29,124.07 99.27,124.4 99.26,124.73C99.25,125.06 99.23,125.4 99.22,125.73C99.21,126.06 99.19,126.39 99.18,126.72C99.16,127.05 99.15,127.39 99.13,127.72C99.12,128.05 99.11,128.38 99.09,128.71C99.07,129.04 99.05,129.38 99.03,129.71C99.01,130.04 98.99,130.37 98.97,130.7C98.95,131.03 98.93,131.37 98.9,131.7C98.88,132.03 98.85,132.36 98.82,132.69C98.79,133.02 98.77,133.36 98.74,133.69C98.71,134.02 98.67,134.35 98.64,134.68C98.6,135.01 98.57,135.35 98.53,135.68C98.49,136.01 98.45,136.34 98.41,136.67C98.37,137 98.33,137.34 98.28,137.67C98.24,138 98.19,138.33 98.14,138.66C98.09,138.99 98.04,139.33 97.98,139.66C97.92,139.99 97.86,140.32 97.8,140.65C97.74,140.98 97.67,141.32 97.6,141.65C97.53,141.98 97.45,142.31 97.36,142.64C97.27,142.97 97.18,143.31 97.08,143.64C96.98,143.97 96.88,144.3 96.77,144.63C96.65,144.96 96.53,145.3 96.39,145.63C96.25,145.97 96.11,146.3 95.95,146.63C95.79,146.96 95.62,147.29 95.44,147.62C95.25,147.96 95.05,148.29 94.83,148.62C94.61,148.96 94.37,149.28 94.11,149.61C93.85,149.95 93.57,150.28 93.27,150.61C92.96,150.95 92.64,151.27 92.3,151.6C91.95,151.94 91.57,152.27 91.18,152.6C90.77,152.94 90.34,153.27 89.9,153.59C89.44,153.93 88.95,154.26 88.45,154.59C87.93,154.93 87.39,155.25 86.83,155.58C86.25,155.92 85.65,156.25 85.03,156.58C84.39,156.92 83.73,157.24 83.06,157.57C82.36,157.91 81.64,158.24 80.91,158.57C80.16,158.91 79.38,159.23 78.6,159.56C77.79,159.9 76.97,160.23 76.14,160.56C75.29,160.89 74.43,161.22 73.57,161.55C72.69,161.88 71.8,162.22 70.91,162.55C70.02,162.88 69.12,163.21 68.22,163.54C67.32,163.87 66.42,164.21 65.53,164.54C64.65,164.87 63.77,165.19 62.91,165.53C62.07,165.86 61.22,166.19 60.41,166.53C59.62,166.86 58.84,167.18 58.1,167.52C57.39,167.84 56.7,168.18 56.05,168.52C55.45,168.84 54.86,169.16 54.33,169.51C53.85,169.83 53.38,170.16 53.01,170.51C52.68,170.82 52.36,171.15 52.17,171.5C52,171.82 51.87,172.17 51.86,172.5C51.85,172.83 51.95,173.18 52.1,173.5C52.27,173.85 52.56,174.18 52.87,174.49C53.22,174.85 53.68,175.17 54.14,175.49C54.65,175.84 55.23,176.16 55.82,176.48C56.46,176.82 57.14,177.16 57.84,177.48C58.57,177.82 59.34,178.14 60.12,178.47C60.93,178.81 61.77,179.14 62.61,179.47C63.47,179.81 64.36,180.13 65.24,180.46C66.14,180.79 67.05,181.13 67.96,181.46C68.88,181.79 69.8,182.12 70.72,182.45C71.64,182.78 72.55,183.12 73.46,183.45C74.36,183.78 75.25,184.11 76.13,184.44C76.99,184.77 77.85,185.1 78.69,185.44C79.5,185.77 80.31,186.09 81.09,186.43C81.85,186.76 82.59,187.09 83.31,187.43C84,187.76 84.69,188.08 85.34,188.42C85.97,188.75 86.57,189.08 87.16,189.42C87.72,189.74 88.27,190.07 88.79,190.41C89.29,190.74 89.78,191.07 90.24,191.41C90.68,191.73 91.1,192.06 91.5,192.4C91.89,192.73 92.26,193.06 92.61,193.4C92.95,193.72 93.26,194.05 93.56,194.39C93.85,194.72 94.12,195.05 94.38,195.39C94.63,195.72 94.87,196.04 95.09,196.38C95.31,196.71 95.51,197.04 95.7,197.38C95.89,197.71 96.06,198.05 96.22,198.38C96.38,198.71 96.52,199.04 96.66,199.37C96.8,199.7 96.92,200.04 97.04,200.37C97.16,200.7 97.26,201.03 97.36,201.36C97.46,201.69 97.56,202.03 97.64,202.36C97.72,202.69 97.79,203.02 97.86,203.35C97.93,203.68 98,204.02 98.06,204.35C98.12,204.68 98.18,205.01 98.23,205.34C98.28,205.67 98.32,206.01 98.37,206.34C98.41,206.67 98.46,207 98.5,207.33C98.54,207.66 98.57,208 98.61,208.33C98.65,208.66 98.69,208.99 98.72,209.32C98.75,209.65 98.78,209.99 98.81,210.32C98.84,210.65 98.87,210.98 98.89,211.31C98.92,211.64 98.94,211.98 98.96,212.31C98.98,212.64 99,212.97 99.02,213.3C99.04,213.63 99.05,213.97 99.07,214.3C99.09,214.63 99.1,214.96 99.12,215.29C99.14,215.62 99.16,215.96 99.17,216.29C99.18,216.62 99.19,216.95 99.2,217.28C99.21,217.61 99.23,217.95 99.24,218.28C99.25,218.61 99.27,218.94 99.28,219.27C99.29,219.6 99.3,219.94 99.31,220.27C99.32,220.6 99.33,220.93 99.34,221.26C99.35,221.59 99.36,221.93 99.37,222.26C99.38,222.59 99.39,222.92 99.4,223.25C99.41,223.58 99.41,223.92 99.42,224.25C99.43,224.58 99.43,224.92 99.44,225.25C99.45,225.58 99.45,225.91 99.46,226.24C99.47,226.57 99.47,226.91 99.48,227.24C99.48,227.57 99.49,227.9 99.49,228.23C99.5,228.56 99.5,228.9 99.51,229.23C99.51,229.56 99.52,229.89 99.52,230.22C99.53,230.55 99.53,230.89 99.54,231.22C99.54,231.55 99.55,231.88 99.55,232.21C99.56,232.54 99.56,232.88 99.57,233.21C99.57,233.54 99.58,233.87 99.58,234.2C99.59,234.53 99.59,234.87 99.6,235.2C99.6,235.53 99.61,235.86 99.61,236.19C99.61,236.52 99.62,236.86 99.62,237.19C99.62,237.52 99.63,237.85 99.63,238.18C99.63,238.51 99.64,238.85 99.64,239.18C99.64,239.51 99.65,239.84 99.65,240.17C99.65,240.5 99.65,240.84 99.65,241.17C99.65,241.5 99.66,241.83 99.66,242.16C99.66,242.49 99.66,242.83 99.66,243.16C99.66,243.49 99.66,243.82 99.66,244.15C99.66,244.48 99.66,244.82 99.66,245.15C99.66,245.48 99.67,245.81 99.67,246.14C99.67,246.47 99.67,246.81 99.67,247.14C99.67,247.47 99.68,247.8 99.68,248.13C99.68,248.46 99.69,248.8 99.69,249.13C99.69,249.46 99.69,249.8 99.7,250.13C99.7,250.46 99.72,250.79 99.72,251.12C99.73,251.45 99.72,251.79 99.73,252.12C99.73,252.45 99.75,252.78 99.75,253.11C99.76,253.44 99.75,253.78 99.76,254.11C99.76,254.44 99.78,254.77 99.78,255.1C99.79,255.43 99.79,255.77 99.79,256.1C99.79,256.43 99.8,256.76 99.8,257.09C99.81,257.42 99.81,257.76 99.82,258.09C99.82,258.42 99.83,258.75 99.83,259.08C99.83,259.41 99.84,259.75 99.84,260.08C99.84,260.41 99.85,260.74 99.85,261.07C99.85,261.4 99.85,261.74 99.85,262.07C99.85,262.4 99.86,262.73 99.86,263.06C99.86,263.39 99.87,263.73 99.87,264.06C99.87,264.39 99.87,264.72 99.87,265.05C99.87,265.38 99.88,265.72 99.88,266.05C99.88,266.38 99.88,266.71 99.88,267.04C99.88,267.37 99.88,267.71 99.88,268.04C99.88,268.37 99.89,268.7 99.89,269.03C99.89,269.36 99.89,269.7 99.89,270.03C99.89,270.36 99.89,270.69 99.89,271.02C99.89,271.35 99.89,271.69 99.89,272.02C99.89,272.35 99.89,272.68 99.89,273.01C99.89,273.34 99.89,273.68 99.89,274.01C99.89,274.34 99.89,274.67 99.89,275C99.89,275.33 99.9,275.67 99.9,276C99.9,276.33 99.9,276.67 99.9,277C99.9,277.33 99.9,277.66 99.9,277.99C99.9,278.32 99.91,278.66 99.91,278.99C99.91,279.32 99.91,279.65 99.91,279.98C99.91,280.31 99.92,280.65 99.92,280.98C99.92,281.31 99.92,281.64 99.92,281.97C99.92,282.3 99.92,282.64 99.92,282.97C99.92,283.3 99.92,283.63 99.92,283.96C99.92,284.29 99.93,284.63 99.93,284.96C99.93,285.29 99.93,285.62 99.93,285.95C99.93,286.28 99.93,286.62 99.93,286.95C99.93,287.28 99.93,287.61 99.93,287.94C99.93,288.27 99.93,288.61 99.93,288.94C99.93,289.27 99.93,289.6 99.93,289.93C99.93,290.26 99.93,290.6 99.93,290.93C99.93,291.26 99.94,291.59 99.94,291.92C99.94,292.25 99.94,292.59 99.94,292.92C99.94,293.25 99.94,293.58 99.94,293.91C99.94,294.24 99.94,294.58 99.94,294.91C99.94,295.24 99.94,295.57 99.94,295.9C99.94,296.23 99.94,296.57 99.94,296.9C99.94,297.23 99.95,297.56 99.95,297.89C99.95,298.22 99.95,298.56 99.95,298.89C99.95,299.22 99.95,299.55 99.95,299.88C99.95,300.21 99.95,300.55 99.95,300.88C99.95,301.21 99.96,301.55 99.96,301.88C99.96,302.21 99.96,302.54 99.96,302.87C99.96,303.2 99.96,303.54 99.96,303.87C99.96,304.2 99.96,304.53 99.96,304.86C99.96,305.19 99.96,305.53 99.96,305.86C99.96,306.19 99.96,306.52 99.96,306.85C99.96,307.18 99.96,307.52 99.96,307.85C99.96,308.18 99.96,308.51 99.96,308.84C99.96,309.17 99.96,309.51 99.96,309.84C99.96,310.17 99.96,310.5 99.96,310.83C99.96,311.16 99.96,311.5 99.96,311.83C99.96,312.16 99.96,312.49 99.96,312.82C99.96,313.15 99.96,313.49 99.96,313.82C99.96,314.15 99.96,314.48 99.96,314.81C99.96,315.14 99.96,315.48 99.96,315.81C99.96,316.14 99.95,316.47 99.95,316.8C99.95,317.13 99.94,317.47 99.94,317.8C99.94,318.13 99.93,318.46 99.93,318.79C99.93,319.12 99.92,319.46 99.92,319.79C99.92,320.12 99.92,320.45 99.92,320.78C99.92,321.11 99.92,321.45 99.92,321.78C99.92,322.11 99.92,322.44 99.92,322.77C99.92,323.1 99.93,323.44 99.94,323.77C99.94,324.1 99.95,324.43 99.95,324.76C99.96,325.09 99.96,325.43 99.97,325.76C99.97,326.09 99.98,326.42 99.98,326.75Q99.98,327.08 99.99,327.75Z" style="vector-effect: non-scaling-stroke; stroke-width: 2px; stroke: rgb(255, 127, 14); stroke-opacity: 1; fill: rgb(255, 127, 14); fill-opacity: 0.5;"/></g><g class="trace violins" style="opacity: 1;"><path class="violin" d="M100.01,327.75Q100.02,327.08 100.02,326.75C100.02,326.42 100.03,326.09 100.03,325.76C100.04,325.43 100.04,325.09 100.05,324.76C100.05,324.43 100.06,324.1 100.06,323.77C100.07,323.44 100.07,323.1 100.08,322.77C100.08,322.44 100.09,322.11 100.09,321.78C100.09,321.45 100.09,321.11 100.09,320.78C100.09,320.45 100.08,320.12 100.08,319.79C100.08,319.46 100.07,319.12 100.07,318.79C100.07,318.46 100.06,318.13 100.06,317.8C100.06,317.47 100.05,317.13 100.05,316.8C100.05,316.47 100.04,316.14 100.04,315.81C100.04,315.48 100.04,315.14 100.04,314.81C100.04,314.48 100.04,314.15 100.04,313.82C100.04,313.49 100.03,313.15 100.03,312.82C100.03,312.49 100.03,312.16 100.03,311.83C100.03,311.5 100.03,311.16 100.03,310.83C100.03,310.5 100.03,310.17 100.03,309.84C100.03,309.51 100.04,309.17 100.04,308.84C100.04,308.51 100.04,308.18 100.04,307.85C100.04,307.52 100.04,307.18 100.04,306.85C100.04,306.52 100.04,306.19 100.04,305.86C100.04,305.53 100.04,305.19 100.04,304.86C100.04,304.53 100.04,304.2 100.04,303.87C100.04,303.54 100.04,303.2 100.04,302.87C100.04,302.54 100.04,302.21 100.04,301.88C100.04,301.55 100.04,301.21 100.04,300.88C100.04,300.55 100.05,300.21 100.05,299.88C100.05,299.55 100.05,299.22 100.05,298.89C100.05,298.56 100.05,298.22 100.05,297.89C100.05,297.56 100.05,297.23 100.05,296.9C100.05,296.57 100.05,296.23 100.05,295.9C100.05,295.57 100.05,295.24 100.05,294.91C100.05,294.58 100.05,294.24 100.05,293.91C100.05,293.58 100.05,293.25 100.05,292.92C100.05,292.59 100.05,292.25 100.05,291.92C100.05,291.59 100.05,291.26 100.05,290.93C100.05,290.6 100.06,290.26 100.06,289.93C100.06,289.6 100.06,289.27 100.06,288.94C100.06,288.61 100.06,288.27 100.06,287.94C100.06,287.61 100.06,287.28 100.06,286.95C100.06,286.62 100.06,286.28 100.06,285.95C100.06,285.62 100.06,285.29 100.06,284.96C100.06,284.63 100.06,284.29 100.06,283.96C100.06,283.63 100.07,283.3 100.07,282.97C100.07,282.64 100.07,282.3 100.07,281.97C100.07,281.64 100.07,281.31 100.07,280.98C100.07,280.65 100.07,280.31 100.07,279.98C100.07,279.65 100.07,279.32 100.07,278.99C100.07,278.66 100.07,278.32 100.07,277.99C100.07,277.66 100.07,277.33 100.07,277C100.07,276.67 100.08,276.33 100.08,276C100.08,275.67 100.08,275.33 100.08,275C100.08,274.67 100.08,274.34 100.08,274.01C100.08,273.68 100.09,273.34 100.09,273.01C100.09,272.68 100.09,272.35 100.09,272.02C100.09,271.69 100.09,271.35 100.09,271.02C100.09,270.69 100.1,270.36 100.1,270.03C100.1,269.7 100.1,269.36 100.1,269.03C100.1,268.7 100.11,268.37 100.11,268.04C100.11,267.71 100.11,267.37 100.11,267.04C100.11,266.71 100.12,266.38 100.12,266.05C100.12,265.72 100.13,265.38 100.13,265.05C100.13,264.72 100.13,264.39 100.13,264.06C100.13,263.73 100.14,263.39 100.14,263.06C100.14,262.73 100.15,262.4 100.15,262.07C100.15,261.74 100.16,261.4 100.16,261.07C100.16,260.74 100.16,260.41 100.16,260.08C100.16,259.75 100.17,259.41 100.17,259.08C100.17,258.75 100.18,258.42 100.18,258.09C100.18,257.76 100.19,257.42 100.19,257.09C100.19,256.76 100.2,256.43 100.2,256.1C100.21,255.77 100.21,255.43 100.22,255.1C100.22,254.77 100.23,254.44 100.23,254.11C100.24,253.78 100.24,253.44 100.25,253.11C100.25,252.78 100.26,252.45 100.26,252.12C100.26,251.79 100.27,251.45 100.27,251.12C100.27,250.79 100.28,250.46 100.28,250.13C100.28,249.8 100.29,249.46 100.29,249.13C100.29,248.8 100.3,248.46 100.3,248.13C100.3,247.8 100.31,247.47 100.31,247.14C100.31,246.81 100.32,246.47 100.32,246.14C100.32,245.81 100.33,245.48 100.33,245.15C100.33,244.82 100.33,244.48 100.33,244.15C100.33,243.82 100.34,243.49 100.34,243.16C100.34,242.83 100.35,242.49 100.35,242.16C100.35,241.83 100.36,241.5 100.36,241.17C100.36,240.84 100.36,240.5 100.36,240.17C100.36,239.84 100.37,239.51 100.37,239.18C100.37,238.85 100.38,238.51 100.38,238.18C100.38,237.85 100.38,237.52 100.38,237.19C100.38,236.86 100.39,236.52 100.4,236.19C100.4,235.86 100.41,235.53 100.41,235.2C100.41,234.87 100.41,234.53 100.42,234.2C100.42,233.87 100.43,233.54 100.44,233.21C100.45,232.88 100.45,232.54 100.46,232.21C100.47,231.88 100.47,231.55 100.48,231.22C100.49,230.89 100.49,230.55 100.5,230.22C100.51,229.89 100.52,229.56 100.52,229.23C100.53,228.9 100.52,228.56 100.53,228.23C100.53,227.9 100.54,227.57 100.55,227.24C100.56,226.91 100.56,226.57 100.57,226.24C100.58,225.91 100.58,225.58 100.59,225.25C100.6,224.92 100.6,224.58 100.61,224.25C100.62,223.92 100.63,223.58 100.64,223.25C100.65,222.92 100.65,222.59 100.66,222.26C100.67,221.93 100.69,221.59 100.7,221.26C100.71,220.93 100.72,220.6 100.73,220.27C100.74,219.94 100.76,219.6 100.77,219.27C100.78,218.94 100.8,218.61 100.81,218.28C100.83,217.95 100.84,217.61 100.86,217.28C100.88,216.95 100.89,216.62 100.91,216.29C100.93,215.96 100.95,215.62 100.97,215.29C100.99,214.96 101.01,214.63 101.03,214.3C101.05,213.97 101.07,213.63 101.09,213.3C101.11,212.97 101.14,212.64 101.17,212.31C101.2,211.98 101.22,211.64 101.25,211.31C101.28,210.98 101.31,210.65 101.34,210.32C101.37,209.99 101.41,209.65 101.44,209.32C101.47,208.99 101.5,208.66 101.54,208.33C101.58,208 101.62,207.66 101.66,207.33C101.7,207 101.75,206.67 101.8,206.34C101.85,206.01 101.89,205.67 101.95,205.34C102,205.01 102.07,204.68 102.13,204.35C102.19,204.02 102.26,203.68 102.33,203.35C102.4,203.02 102.48,202.69 102.57,202.36C102.66,202.03 102.75,201.69 102.85,201.36C102.95,201.03 103.05,200.7 103.17,200.37C103.29,200.04 103.41,199.7 103.55,199.37C103.69,199.04 103.83,198.71 103.99,198.38C104.15,198.05 104.32,197.71 104.5,197.38C104.69,197.04 104.89,196.71 105.1,196.38C105.32,196.05 105.54,195.72 105.79,195.39C106.04,195.05 106.31,194.72 106.6,194.39C106.9,194.05 107.22,193.73 107.55,193.4C107.9,193.06 108.26,192.73 108.64,192.4C109.04,192.06 109.46,191.73 109.9,191.41C110.36,191.07 110.83,190.74 111.33,190.41C111.85,190.07 112.39,189.74 112.95,189.42C113.53,189.08 114.14,188.75 114.76,188.42C115.41,188.08 116.08,187.76 116.76,187.43C117.47,187.09 118.2,186.76 118.94,186.43C119.71,186.09 120.5,185.77 121.3,185.44C122.12,185.1 122.95,184.77 123.79,184.44C124.65,184.1 125.52,183.78 126.4,183.45C127.29,183.12 128.2,182.78 129.1,182.45C130,182.12 130.91,181.79 131.82,181.46C132.73,181.13 133.64,180.79 134.54,180.46C135.42,180.13 136.31,179.81 137.17,179.47C138.02,179.14 138.86,178.81 139.67,178.47C140.45,178.14 141.23,177.82 141.96,177.48C142.65,177.16 143.33,176.82 143.96,176.48C144.55,176.16 145.12,175.84 145.62,175.49C146.07,175.17 146.51,174.84 146.85,174.49C147.15,174.18 147.43,173.85 147.59,173.5C147.74,173.18 147.83,172.83 147.81,172.5C147.79,172.16 147.66,171.82 147.48,171.5C147.28,171.15 146.97,170.82 146.64,170.51C146.27,170.16 145.81,169.83 145.33,169.51C144.81,169.16 144.23,168.84 143.63,168.52C143,168.18 142.32,167.84 141.63,167.52C140.91,167.18 140.15,166.86 139.38,166.53C138.59,166.19 137.77,165.86 136.95,165.53C136.11,165.19 135.26,164.87 134.4,164.54C133.53,164.21 132.65,163.87 131.77,163.54C130.89,163.21 130,162.88 129.11,162.55C128.22,162.22 127.33,161.88 126.45,161.55C125.58,161.22 124.71,160.89 123.85,160.56C123.01,160.23 122.18,159.9 121.36,159.56C120.56,159.23 119.78,158.91 119.01,158.57C118.27,158.24 117.54,157.91 116.83,157.57C116.15,157.24 115.48,156.92 114.84,156.58C114.22,156.25 113.63,155.92 113.05,155.58C112.5,155.26 111.96,154.93 111.45,154.59C110.96,154.26 110.48,153.93 110.03,153.59C109.6,153.27 109.18,152.94 108.79,152.6C108.41,152.27 108.05,151.94 107.71,151.6C107.38,151.27 107.07,150.95 106.77,150.61C106.48,150.28 106.21,149.95 105.96,149.61C105.71,149.28 105.49,148.95 105.27,148.62C105.06,148.29 104.86,147.96 104.67,147.62C104.49,147.29 104.32,146.96 104.16,146.63C104,146.3 103.86,145.96 103.72,145.63C103.58,145.3 103.45,144.96 103.33,144.63C103.21,144.3 103.1,143.97 103,143.64C102.89,143.31 102.79,142.97 102.7,142.64C102.61,142.31 102.52,141.98 102.44,141.65C102.36,141.32 102.29,140.98 102.22,140.65C102.15,140.32 102.08,139.99 102.02,139.66C101.96,139.33 101.9,138.99 101.85,138.66C101.8,138.33 101.75,138 101.71,137.67C101.66,137.34 101.62,137 101.58,136.67C101.54,136.34 101.5,136.01 101.46,135.68C101.42,135.35 101.38,135.01 101.35,134.68C101.32,134.35 101.29,134.02 101.26,133.69C101.23,133.36 101.21,133.02 101.18,132.69C101.15,132.36 101.12,132.03 101.1,131.7C101.07,131.37 101.05,131.03 101.03,130.7C101.01,130.37 101,130.04 100.98,129.71C100.96,129.38 100.94,129.04 100.92,128.71C100.9,128.38 100.88,128.05 100.87,127.72C100.85,127.39 100.84,127.05 100.83,126.72C100.82,126.39 100.8,126.06 100.79,125.73C100.78,125.4 100.76,125.06 100.75,124.73C100.74,124.4 100.72,124.07 100.71,123.74C100.7,123.41 100.68,123.07 100.67,122.74C100.66,122.41 100.65,122.08 100.64,121.75C100.63,121.42 100.63,121.08 100.62,120.75C100.61,120.42 100.6,120.08 100.59,119.75C100.58,119.42 100.57,119.09 100.56,118.76C100.55,118.43 100.55,118.09 100.54,117.76C100.53,117.43 100.52,117.1 100.51,116.77C100.5,116.44 100.5,116.1 100.49,115.77C100.48,115.44 100.48,115.11 100.47,114.78C100.46,114.45 100.46,114.11 100.45,113.78C100.44,113.45 100.44,113.12 100.43,112.79C100.42,112.46 100.42,112.12 100.41,111.79C100.4,111.46 100.39,111.13 100.39,110.8C100.38,110.47 100.38,110.13 100.38,109.8C100.38,109.47 100.37,109.14 100.37,108.81C100.37,108.48 100.36,108.14 100.36,107.81C100.36,107.48 100.35,107.15 100.35,106.82C100.35,106.49 100.35,106.15 100.35,105.82C100.35,105.49 100.34,105.16 100.34,104.83C100.34,104.5 100.34,104.16 100.34,103.83C100.34,103.5 100.33,103.17 100.33,102.84C100.33,102.51 100.32,102.17 100.32,101.84C100.32,101.51 100.31,101.18 100.31,100.85C100.31,100.52 100.31,100.18 100.31,99.85C100.31,99.52 100.3,99.19 100.3,98.86C100.3,98.53 100.29,98.19 100.29,97.86C100.29,97.53 100.29,97.2 100.29,96.87C100.29,96.54 100.28,96.2 100.28,95.87C100.28,95.54 100.27,95.21 100.27,94.88C100.27,94.55 100.26,94.21 100.26,93.88C100.25,93.55 100.25,93.21 100.24,92.88C100.24,92.55 100.23,92.22 100.23,91.89C100.23,91.56 100.23,91.22 100.22,90.89C100.22,90.56 100.2,90.23 100.2,89.9C100.19,89.57 100.19,89.23 100.19,88.9C100.19,88.57 100.18,88.24 100.18,87.91C100.18,87.58 100.17,87.24 100.17,86.91C100.17,86.58 100.16,86.25 100.16,85.92C100.16,85.59 100.16,85.25 100.16,84.92C100.16,84.59 100.15,84.26 100.15,83.93C100.15,83.6 100.14,83.26 100.14,82.93C100.14,82.6 100.14,82.27 100.14,81.94C100.14,81.61 100.13,81.27 100.13,80.94C100.13,80.61 100.13,80.28 100.13,79.95C100.13,79.62 100.12,79.28 100.12,78.95C100.12,78.62 100.12,78.29 100.12,77.96C100.12,77.63 100.12,77.29 100.12,76.96C100.12,76.63 100.12,76.3 100.12,75.97C100.12,75.64 100.12,75.3 100.12,74.97C100.12,74.64 100.12,74.31 100.12,73.98C100.12,73.65 100.11,73.31 100.11,72.98C100.11,72.65 100.11,72.32 100.11,71.99C100.11,71.66 100.11,71.32 100.11,70.99C100.11,70.66 100.1,70.33 100.1,70C100.1,69.67 100.1,69.33 100.1,69C100.1,68.67 100.09,68.33 100.09,68C100.09,67.67 100.09,67.34 100.09,67.01C100.09,66.68 100.09,66.34 100.09,66.01C100.09,65.68 100.08,65.35 100.08,65.02C100.08,64.69 100.08,64.35 100.08,64.02C100.08,63.69 100.08,63.36 100.08,63.03C100.08,62.7 100.08,62.36 100.08,62.03C100.08,61.7 100.08,61.37 100.08,61.04C100.08,60.71 100.07,60.37 100.07,60.04C100.07,59.71 100.07,59.38 100.07,59.05C100.07,58.72 100.07,58.38 100.07,58.05C100.07,57.72 100.07,57.39 100.07,57.06C100.07,56.73 100.07,56.39 100.07,56.06C100.07,55.73 100.06,55.4 100.06,55.07C100.06,54.74 100.06,54.4 100.06,54.07C100.06,53.74 100.06,53.41 100.06,53.08C100.06,52.75 100.06,52.41 100.06,52.08C100.06,51.75 100.06,51.42 100.06,51.09C100.06,50.76 100.06,50.42 100.06,50.09C100.06,49.76 100.06,49.43 100.06,49.1C100.06,48.77 100.06,48.43 100.06,48.1C100.06,47.77 100.06,47.44 100.06,47.11C100.06,46.78 100.06,46.44 100.06,46.11C100.06,45.78 100.05,45.45 100.05,45.12C100.05,44.79 100.05,44.45 100.05,44.12C100.05,43.79 100.05,43.46 100.05,43.13C100.05,42.8 100.05,42.46 100.05,42.13C100.05,41.8 100.05,41.46 100.05,41.13C100.05,40.8 100.05,40.47 100.05,40.14C100.05,39.81 100.05,39.47 100.05,39.14C100.05,38.81 100.04,38.48 100.04,38.15C100.04,37.82 100.04,37.48 100.04,37.15C100.04,36.82 100.04,36.49 100.04,36.16C100.04,35.83 100.04,35.49 100.04,35.16C100.04,34.83 100.04,34.5 100.04,34.17C100.04,33.84 100.04,33.5 100.04,33.17C100.04,32.84 100.04,32.51 100.04,32.18C100.04,31.85 100.04,31.51 100.04,31.18C100.04,30.85 100.04,30.52 100.04,30.19C100.04,29.86 100.04,29.52 100.04,29.19C100.04,28.86 100.05,28.53 100.05,28.2C100.05,27.87 100.06,27.53 100.06,27.2C100.06,26.87 100.07,26.54 100.07,26.21C100.07,25.88 100.08,25.54 100.08,25.21C100.08,24.88 100.09,24.55 100.09,24.22C100.09,23.89 100.09,23.55 100.09,23.22C100.09,22.89 100.08,22.56 100.08,22.23C100.08,21.9 100.08,21.56 100.07,21.23C100.07,20.9 100.06,20.57 100.05,20.24C100.04,19.91 100.04,19.57 100.03,19.24C100.03,18.91 100.02,18.58 100.02,18.25Q100.02,17.92 100.01,17.25L99.99,17.25Q99.98,17.92 99.98,18.25C99.98,18.58 99.97,18.91 99.97,19.24C99.96,19.57 99.96,19.91 99.95,20.24C99.94,20.57 99.93,20.9 99.93,21.23C99.92,21.56 99.92,21.9 99.92,22.23C99.92,22.56 99.91,22.89 99.91,23.22C99.91,23.55 99.91,23.89 99.91,24.22C99.91,24.55 99.92,24.88 99.92,25.21C99.92,25.54 99.93,25.88 99.93,26.21C99.93,26.54 99.94,26.87 99.94,27.2C99.94,27.53 99.95,27.87 99.95,28.2C99.95,28.53 99.96,28.86 99.96,29.19C99.96,29.52 99.96,29.86 99.96,30.19C99.96,30.52 99.96,30.85 99.96,31.18C99.96,31.51 99.96,31.85 99.96,32.18C99.96,32.51 99.96,32.84 99.96,33.17C99.96,33.5 99.96,33.84 99.96,34.17C99.96,34.5 99.96,34.83 99.96,35.16C99.96,35.49 99.96,35.83 99.96,36.16C99.96,36.49 99.96,36.82 99.96,37.15C99.96,37.48 99.96,37.82 99.96,38.15C99.96,38.48 99.95,38.81 99.95,39.14C99.95,39.47 99.95,39.81 99.95,40.14C99.95,40.47 99.95,40.8 99.95,41.13C99.95,41.46 99.95,41.8 99.95,42.13C99.95,42.46 99.95,42.8 99.95,43.13C99.95,43.46 99.95,43.79 99.95,44.12C99.95,44.45 99.95,44.79 99.95,45.12C99.95,45.45 99.94,45.78 99.94,46.11C99.94,46.44 99.94,46.78 99.94,47.11C99.94,47.44 99.94,47.77 99.94,48.1C99.94,48.43 99.94,48.77 99.94,49.1C99.94,49.43 99.94,49.76 99.94,50.09C99.94,50.42 99.94,50.76 99.94,51.09C99.94,51.42 99.94,51.75 99.94,52.08C99.94,52.41 99.94,52.75 99.94,53.08C99.94,53.41 99.94,53.74 99.94,54.07C99.94,54.4 99.94,54.74 99.94,55.07C99.94,55.4 99.93,55.73 99.93,56.06C99.93,56.39 99.93,56.73 99.93,57.06C99.93,57.39 99.93,57.72 99.93,58.05C99.93,58.38 99.93,58.72 99.93,59.05C99.93,59.38 99.93,59.71 99.93,60.04C99.93,60.37 99.92,60.71 99.92,61.04C99.92,61.37 99.92,61.7 99.92,62.03C99.92,62.36 99.92,62.7 99.92,63.03C99.92,63.36 99.92,63.69 99.92,64.02C99.92,64.35 99.92,64.69 99.92,65.02C99.92,65.35 99.91,65.68 99.91,66.01C99.91,66.34 99.91,66.68 99.91,67.01C99.91,67.34 99.91,67.67 99.91,68C99.91,68.33 99.9,68.67 99.9,69C99.9,69.33 99.9,69.67 99.9,70C99.9,70.33 99.89,70.66 99.89,70.99C99.89,71.32 99.89,71.66 99.89,71.99C99.89,72.32 99.89,72.65 99.89,72.98C99.89,73.31 99.88,73.65 99.88,73.98C99.88,74.31 99.88,74.64 99.88,74.97C99.88,75.3 99.88,75.64 99.88,75.97C99.88,76.3 99.88,76.63 99.88,76.96C99.88,77.29 99.88,77.63 99.88,77.96C99.88,78.29 99.88,78.62 99.88,78.95C99.88,79.28 99.87,79.62 99.87,79.95C99.87,80.28 99.87,80.61 99.87,80.94C99.87,81.27 99.86,81.61 99.86,81.94C99.86,82.27 99.86,82.6 99.86,82.93C99.86,83.26 99.85,83.6 99.85,83.93C99.85,84.26 99.84,84.59 99.84,84.92C99.84,85.25 99.84,85.59 99.84,85.92C99.84,86.25 99.83,86.58 99.83,86.91C99.83,87.24 99.82,87.58 99.82,87.91C99.82,88.24 99.81,88.57 99.81,88.9C99.81,89.23 99.81,89.57 99.8,89.9C99.8,90.23 99.78,90.56 99.78,90.89C99.77,91.22 99.77,91.56 99.77,91.89C99.77,92.22 99.76,92.55 99.76,92.88C99.75,93.21 99.75,93.55 99.74,93.88C99.74,94.21 99.73,94.55 99.73,94.88C99.73,95.21 99.72,95.54 99.72,95.87C99.72,96.2 99.71,96.54 99.71,96.87C99.71,97.2 99.71,97.53 99.71,97.86C99.71,98.19 99.7,98.53 99.7,98.86C99.7,99.19 99.69,99.52 99.69,99.85C99.69,100.18 99.69,100.52 99.69,100.85C99.69,101.18 99.68,101.51 99.68,101.84C99.68,102.17 99.67,102.51 99.67,102.84C99.67,103.17 99.66,103.5 99.66,103.83C99.66,104.16 99.66,104.5 99.66,104.83C99.66,105.16 99.65,105.49 99.65,105.82C99.65,106.15 99.65,106.49 99.65,106.82C99.65,107.15 99.64,107.48 99.64,107.81C99.64,108.14 99.63,108.48 99.63,108.81C99.63,109.14 99.62,109.47 99.62,109.8C99.62,110.13 99.62,110.47 99.61,110.8C99.61,111.13 99.6,111.46 99.59,111.79C99.58,112.12 99.58,112.46 99.57,112.79C99.56,113.12 99.56,113.45 99.55,113.78C99.54,114.11 99.54,114.45 99.53,114.78C99.52,115.11 99.52,115.44 99.51,115.77C99.5,116.1 99.5,116.44 99.49,116.77C99.48,117.1 99.47,117.43 99.46,117.76C99.45,118.09 99.45,118.43 99.44,118.76C99.43,119.09 99.42,119.42 99.41,119.75C99.4,120.08 99.39,120.42 99.38,120.75C99.37,121.08 99.37,121.42 99.36,121.75C99.35,122.08 99.34,122.41 99.33,122.74C99.32,123.07 99.3,123.41 99.29,123.74C99.28,124.07 99.26,124.4 99.25,124.73C99.24,125.06 99.22,125.4 99.21,125.73C99.2,126.06 99.18,126.39 99.17,126.72C99.16,127.05 99.15,127.39 99.13,127.72C99.12,128.05 99.1,128.38 99.08,128.71C99.06,129.04 99.04,129.38 99.02,129.71C99,130.04 98.99,130.37 98.97,130.7C98.95,131.03 98.93,131.37 98.9,131.7C98.88,132.03 98.85,132.36 98.82,132.69C98.79,133.02 98.77,133.36 98.74,133.69C98.71,134.02 98.68,134.35 98.65,134.68C98.62,135.01 98.58,135.35 98.54,135.68C98.5,136.01 98.46,136.34 98.42,136.67C98.38,137 98.34,137.34 98.29,137.67C98.25,138 98.2,138.33 98.15,138.66C98.1,138.99 98.04,139.33 97.98,139.66C97.92,139.99 97.85,140.32 97.78,140.65C97.71,140.98 97.64,141.32 97.56,141.65C97.48,141.98 97.39,142.31 97.3,142.64C97.21,142.97 97.11,143.31 97,143.64C96.9,143.97 96.79,144.3 96.67,144.63C96.55,144.96 96.42,145.3 96.28,145.63C96.14,145.96 96,146.3 95.84,146.63C95.68,146.96 95.51,147.29 95.33,147.62C95.14,147.96 94.94,148.29 94.73,148.62C94.51,148.95 94.29,149.28 94.04,149.61C93.79,149.95 93.52,150.28 93.23,150.61C92.93,150.95 92.62,151.27 92.29,151.6C91.95,151.94 91.59,152.27 91.21,152.6C90.82,152.94 90.4,153.27 89.97,153.59C89.52,153.93 89.04,154.26 88.55,154.59C88.04,154.93 87.5,155.26 86.95,155.58C86.37,155.92 85.78,156.25 85.16,156.58C84.52,156.92 83.85,157.24 83.17,157.57C82.46,157.91 81.73,158.24 80.99,158.57C80.22,158.91 79.44,159.23 78.64,159.56C77.82,159.9 76.99,160.23 76.15,160.56C75.29,160.89 74.42,161.22 73.55,161.55C72.67,161.88 71.78,162.22 70.89,162.55C70,162.88 69.11,163.21 68.23,163.54C67.35,163.87 66.47,164.21 65.6,164.54C64.74,164.87 63.89,165.19 63.05,165.53C62.23,165.86 61.41,166.19 60.62,166.53C59.85,166.86 59.09,167.18 58.37,167.52C57.68,167.84 57,168.18 56.37,168.52C55.77,168.84 55.19,169.16 54.67,169.51C54.19,169.83 53.73,170.16 53.36,170.51C53.03,170.82 52.72,171.15 52.52,171.5C52.34,171.82 52.21,172.16 52.19,172.5C52.17,172.83 52.26,173.18 52.41,173.5C52.57,173.85 52.85,174.18 53.15,174.49C53.49,174.84 53.93,175.17 54.38,175.49C54.88,175.84 55.45,176.16 56.04,176.48C56.67,176.82 57.35,177.16 58.04,177.48C58.77,177.82 59.55,178.14 60.33,178.47C61.14,178.81 61.98,179.14 62.83,179.47C63.69,179.81 64.58,180.13 65.46,180.46C66.36,180.79 67.27,181.13 68.18,181.46C69.09,181.79 70,182.12 70.9,182.45C71.8,182.78 72.71,183.12 73.6,183.45C74.48,183.78 75.35,184.1 76.21,184.44C77.05,184.77 77.88,185.1 78.7,185.44C79.5,185.77 80.29,186.09 81.06,186.43C81.8,186.76 82.53,187.09 83.24,187.43C83.92,187.76 84.59,188.08 85.24,188.42C85.86,188.75 86.47,189.08 87.05,189.42C87.61,189.74 88.15,190.07 88.67,190.41C89.17,190.74 89.64,191.07 90.1,191.41C90.54,191.73 90.96,192.06 91.36,192.4C91.74,192.73 92.1,193.06 92.45,193.4C92.78,193.73 93.1,194.05 93.4,194.39C93.69,194.72 93.96,195.05 94.21,195.39C94.46,195.72 94.68,196.05 94.9,196.38C95.11,196.71 95.31,197.04 95.5,197.38C95.68,197.71 95.85,198.05 96.01,198.38C96.17,198.71 96.31,199.04 96.45,199.37C96.59,199.7 96.71,200.04 96.83,200.37C96.95,200.7 97.05,201.03 97.15,201.36C97.25,201.69 97.34,202.03 97.43,202.36C97.52,202.69 97.6,203.02 97.67,203.35C97.74,203.68 97.81,204.02 97.87,204.35C97.93,204.68 98,205.01 98.05,205.34C98.11,205.67 98.15,206.01 98.2,206.34C98.25,206.67 98.3,207 98.34,207.33C98.38,207.66 98.42,208 98.46,208.33C98.5,208.66 98.53,208.99 98.56,209.32C98.59,209.65 98.63,209.99 98.66,210.32C98.69,210.65 98.72,210.98 98.75,211.31C98.78,211.64 98.8,211.98 98.83,212.31C98.86,212.64 98.89,212.97 98.91,213.3C98.93,213.63 98.95,213.97 98.97,214.3C98.99,214.63 99.01,214.96 99.03,215.29C99.05,215.62 99.07,215.96 99.09,216.29C99.11,216.62 99.12,216.95 99.14,217.28C99.16,217.61 99.17,217.95 99.19,218.28C99.2,218.61 99.22,218.94 99.23,219.27C99.24,219.6 99.26,219.94 99.27,220.27C99.28,220.6 99.29,220.93 99.3,221.26C99.31,221.59 99.33,221.93 99.34,222.26C99.35,222.59 99.35,222.92 99.36,223.25C99.37,223.58 99.38,223.92 99.39,224.25C99.4,224.58 99.4,224.92 99.41,225.25C99.42,225.58 99.42,225.91 99.43,226.24C99.44,226.57 99.44,226.91 99.45,227.24C99.46,227.57 99.47,227.9 99.47,228.23C99.48,228.56 99.47,228.9 99.48,229.23C99.48,229.56 99.49,229.89 99.5,230.22C99.51,230.55 99.51,230.89 99.52,231.22C99.53,231.55 99.53,231.88 99.54,232.21C99.55,232.54 99.55,232.88 99.56,233.21C99.57,233.54 99.58,233.87 99.58,234.2C99.59,234.53 99.59,234.87 99.59,235.2C99.59,235.53 99.6,235.86 99.6,236.19C99.61,236.52 99.62,236.86 99.62,237.19C99.62,237.52 99.62,237.85 99.62,238.18C99.62,238.51 99.63,238.85 99.63,239.18C99.63,239.51 99.64,239.84 99.64,240.17C99.64,240.5 99.64,240.84 99.64,241.17C99.64,241.5 99.65,241.83 99.65,242.16C99.65,242.49 99.66,242.83 99.66,243.16C99.66,243.49 99.67,243.82 99.67,244.15C99.67,244.48 99.67,244.82 99.67,245.15C99.67,245.48 99.68,245.81 99.68,246.14C99.68,246.47 99.69,246.81 99.69,247.14C99.69,247.47 99.7,247.8 99.7,248.13C99.7,248.46 99.71,248.8 99.71,249.13C99.71,249.46 99.72,249.8 99.72,250.13C99.72,250.46 99.73,250.79 99.73,251.12C99.73,251.45 99.74,251.79 99.74,252.12C99.74,252.45 99.75,252.78 99.75,253.11C99.76,253.44 99.76,253.78 99.77,254.11C99.77,254.44 99.78,254.77 99.78,255.1C99.79,255.43 99.79,255.77 99.8,256.1C99.8,256.43 99.81,256.76 99.81,257.09C99.81,257.42 99.82,257.76 99.82,258.09C99.82,258.42 99.83,258.75 99.83,259.08C99.83,259.41 99.84,259.75 99.84,260.08C99.84,260.41 99.84,260.74 99.84,261.07C99.84,261.4 99.85,261.74 99.85,262.07C99.85,262.4 99.86,262.73 99.86,263.06C99.86,263.39 99.87,263.73 99.87,264.06C99.87,264.39 99.87,264.72 99.87,265.05C99.87,265.38 99.88,265.72 99.88,266.05C99.88,266.38 99.89,266.71 99.89,267.04C99.89,267.37 99.89,267.71 99.89,268.04C99.89,268.37 99.9,268.7 99.9,269.03C99.9,269.36 99.9,269.7 99.9,270.03C99.9,270.36 99.91,270.69 99.91,271.02C99.91,271.35 99.91,271.69 99.91,272.02C99.91,272.35 99.91,272.68 99.91,273.01C99.91,273.34 99.92,273.68 99.92,274.01C99.92,274.34 99.92,274.67 99.92,275C99.92,275.33 99.92,275.67 99.92,276C99.92,276.33 99.93,276.67 99.93,277C99.93,277.33 99.93,277.66 99.93,277.99C99.93,278.32 99.93,278.66 99.93,278.99C99.93,279.32 99.93,279.65 99.93,279.98C99.93,280.31 99.93,280.65 99.93,280.98C99.93,281.31 99.93,281.64 99.93,281.97C99.93,282.3 99.93,282.64 99.93,282.97C99.93,283.3 99.94,283.63 99.94,283.96C99.94,284.29 99.94,284.63 99.94,284.96C99.94,285.29 99.94,285.62 99.94,285.95C99.94,286.28 99.94,286.62 99.94,286.95C99.94,287.28 99.94,287.61 99.94,287.94C99.94,288.27 99.94,288.61 99.94,288.94C99.94,289.27 99.94,289.6 99.94,289.93C99.94,290.26 99.95,290.6 99.95,290.93C99.95,291.26 99.95,291.59 99.95,291.92C99.95,292.25 99.95,292.59 99.95,292.92C99.95,293.25 99.95,293.58 99.95,293.91C99.95,294.24 99.95,294.58 99.95,294.91C99.95,295.24 99.95,295.57 99.95,295.9C99.95,296.23 99.95,296.57 99.95,296.9C99.95,297.23 99.95,297.56 99.95,297.89C99.95,298.22 99.95,298.56 99.95,298.89C99.95,299.22 99.95,299.55 99.95,299.88C99.95,300.21 99.96,300.55 99.96,300.88C99.96,301.21 99.96,301.55 99.96,301.88C99.96,302.21 99.96,302.54 99.96,302.87C99.96,303.2 99.96,303.54 99.96,303.87C99.96,304.2 99.96,304.53 99.96,304.86C99.96,305.19 99.96,305.53 99.96,305.86C99.96,306.19 99.96,306.52 99.96,306.85C99.96,307.18 99.96,307.52 99.96,307.85C99.96,308.18 99.96,308.51 99.96,308.84C99.96,309.17 99.97,309.51 99.97,309.84C99.97,310.17 99.97,310.5 99.97,310.83C99.97,311.16 99.97,311.5 99.97,311.83C99.97,312.16 99.97,312.49 99.97,312.82C99.97,313.15 99.96,313.49 99.96,313.82C99.96,314.15 99.96,314.48 99.96,314.81C99.96,315.14 99.96,315.48 99.96,315.81C99.96,316.14 99.95,316.47 99.95,316.8C99.95,317.13 99.94,317.47 99.94,317.8C99.94,318.13 99.93,318.46 99.93,318.79C99.93,319.12 99.92,319.46 99.92,319.79C99.92,320.12 99.91,320.45 99.91,320.78C99.91,321.11 99.91,321.45 99.91,321.78C99.91,322.11 99.92,322.44 99.92,322.77C99.93,323.1 99.93,323.44 99.94,323.77C99.94,324.1 99.95,324.43 99.95,324.76C99.96,325.09 99.96,325.43 99.97,325.76C99.97,326.09 99.98,326.42 99.98,326.75Q99.98,327.08 99.99,327.75Z" style="vector-effect: non-scaling-stroke; stroke-width: 2px; stroke: rgb(44, 160, 44); stroke-opacity: 1; fill: rgb(44, 160, 44); fill-opacity: 0.5;"/></g></g></g><g class="overplot"/><path class="xlines-above crisp" style="fill: none; stroke-width: 1px; stroke: rgb(36, 36, 36); stroke-opacity: 1;" d="M69,365.5H270"/><path class="ylines-above crisp" style="fill: none; stroke-width: 1px; stroke: rgb(36, 36, 36); stroke-opacity: 1;" d="M69.5,20V365"/><g class="overlines-above"/><g class="xaxislayer-above"><path class="xtick ticks crisp" d="M0,366v5" transform="translate(170,0)" style="stroke: rgb(68, 68, 68); stroke-opacity: 1; stroke-width: 1px;"/><g class="xtick"><text text-anchor="middle" x="0" y="385.4" transform="translate(170,0)" style="font-family: 'Open Sans', verdana, arial, sans-serif; font-size: 12px; fill: rgb(36, 36, 36); fill-opacity: 1; white-space: pre;"> </text></g></g><g class="yaxislayer-above"><path class="ytick ticks crisp" d="M69,0h-5" transform="translate(0,341.78)" style="stroke: rgb(68, 68, 68); stroke-opacity: 1; stroke-width: 1px;"/><path class="ytick ticks crisp" d="M69,0h-5" transform="translate(0,267.14)" style="stroke: rgb(68, 68, 68); stroke-opacity: 1; stroke-width: 1px;"/><path class="ytick ticks crisp" d="M69,0h-5" transform="translate(0,192.5)" style="stroke: rgb(68, 68, 68); stroke-opacity: 1; stroke-width: 1px;"/><path class="ytick ticks crisp" d="M69,0h-5" transform="translate(0,117.86)" style="stroke: rgb(68, 68, 68); stroke-opacity: 1; stroke-width: 1px;"/><path class="ytick ticks crisp" d="M69,0h-5" transform="translate(0,43.22)" style="stroke: rgb(68, 68, 68); stroke-opacity: 1; stroke-width: 1px;"/><g class="ytick"><text text-anchor="end" x="61.6" y="4.199999999999999" transform="translate(0,341.78)" style="font-family: 'Open Sans', verdana, arial, sans-serif; font-size: 12px; fill: rgb(36, 36, 36); fill-opacity: 1; white-space: pre;">10</text></g><g class="ytick"><text text-anchor="end" x="61.6" y="4.199999999999999" transform="translate(0,267.14)" style="font-family: 'Open Sans', verdana, arial, sans-serif; font-size: 12px; fill: rgb(36, 36, 36); fill-opacity: 1; white-space: pre;">5</text></g><g class="ytick"><text text-anchor="end" x="61.6" y="4.199999999999999" transform="translate(0,192.5)" style="font-family: 'Open Sans', verdana, arial, sans-serif; font-size: 12px; fill: rgb(36, 36, 36); fill-opacity: 1; white-space: pre;">0</text></g><g class="ytick"><text text-anchor="end" x="61.6" y="4.199999999999999" transform="translate(0,117.86)" style="font-family: 'Open Sans', verdana, arial, sans-serif; font-size: 12px; fill: rgb(36, 36, 36); fill-opacity: 1; white-space: pre;">5</text></g><g class="ytick"><text text-anchor="end" x="61.6" y="4.199999999999999" transform="translate(0,43.22)" style="font-family: 'Open Sans', verdana, arial, sans-serif; font-size: 12px; fill: rgb(36, 36, 36); fill-opacity: 1; white-space: pre;">10</text></g></g><g class="overaxes-above"/></g></g><g class="polarlayer"/><g class="ternarylayer"/><g class="geolayer"/><g class="funnelarealayer"/><g class="pielayer"/><g class="treemaplayer"/><g class="sunburstlayer"/><g class="glimages"/><defs id="topdefs-7f5dc9"><g class="clips"/><clipPath id="legend7f5dc9"><rect width="61" height="83" x="0" y="0"/></clipPath></defs><g class="layer-above"><g class="imagelayer"/><g class="shapelayer"/></g><g class="infolayer"><g class="legend" pointer-events="all" transform="translate(190,20)"><rect class="bg" shape-rendering="crispEdges" style="stroke: rgb(68, 68, 68); stroke-opacity: 1; fill: rgb(255, 255, 255); fill-opacity: 1; stroke-width: 0px;" width="61" height="83" x="0" y="0"/><g class="scrollbox" transform="" clip-path="url('#legend7f5dc9')"><text class="legendtitletext" text-anchor="start" x="2" y="15.600000000000001" style="font-family: 'Open Sans', verdana, arial, sans-serif; font-size: 12px; fill: rgb(36, 36, 36); fill-opacity: 1; white-space: pre;">cp_time</text><g class="groups" transform=""><g class="traces" transform="translate(0,30.1)" style="opacity: 1;"><text class="legendtext" text-anchor="start" x="40" y="4.680000000000001" style="font-family: 'Open Sans', verdana, arial, sans-serif; font-size: 12px; fill: rgb(36, 36, 36); fill-opacity: 1; white-space: pre;">24</text><g class="layers" style="opacity: 1;"><g class="legendfill"/><g class="legendlines"/><g class="legendsymbols"><g class="legendpoints"><path class="legendbox" d="M6,6H-6V-6H6Z" transform="translate(20,0)" style="stroke-width: 2px; fill: rgb(31, 119, 180); fill-opacity: 0.5; stroke: rgb(31, 119, 180); stroke-opacity: 1;"/></g></g></g><rect class="legendtoggle" x="0" y="-9.5" width="55.265625" height="19" style="fill: rgb(0, 0, 0); fill-opacity: 0;"/></g></g><g class="groups" transform=""><g class="traces" transform="translate(0,49.1)" style="opacity: 1;"><text class="legendtext" text-anchor="start" x="40" y="4.680000000000001" style="font-family: 'Open Sans', verdana, arial, sans-serif; font-size: 12px; fill: rgb(36, 36, 36); fill-opacity: 1; white-space: pre;">48</text><g class="layers" style="opacity: 1;"><g class="legendfill"/><g class="legendlines"/><g class="legendsymbols"><g class="legendpoints"><path class="legendbox" d="M6,6H-6V-6H6Z" transform="translate(20,0)" style="stroke-width: 2px; fill: rgb(255, 127, 14); fill-opacity: 0.5; stroke: rgb(255, 127, 14); stroke-opacity: 1;"/></g></g></g><rect class="legendtoggle" x="0" y="-9.5" width="55.265625" height="19" style="fill: rgb(0, 0, 0); fill-opacity: 0;"/></g></g><g class="groups" transform=""><g class="traces" transform="translate(0,68.1)" style="opacity: 1;"><text class="legendtext" text-anchor="start" x="40" y="4.680000000000001" style="font-family: 'Open Sans', verdana, arial, sans-serif; font-size: 12px; fill: rgb(36, 36, 36); fill-opacity: 1; white-space: pre;">72</text><g class="layers" style="opacity: 1;"><g class="legendfill"/><g class="legendlines"/><g class="legendsymbols"><g class="legendpoints"><path class="legendbox" d="M6,6H-6V-6H6Z" transform="translate(20,0)" style="stroke-width: 2px; fill: rgb(44, 160, 44); fill-opacity: 0.5; stroke: rgb(44, 160, 44); stroke-opacity: 1;"/></g></g></g><rect class="legendtoggle" x="0" y="-9.5" width="55.265625" height="19" style="fill: rgb(0, 0, 0); fill-opacity: 0;"/></g></g></g><rect class="scrollbar" rx="20" ry="3" width="0" height="0" style="fill: rgb(128, 139, 164); fill-opacity: 1;" x="0" y="0"/></g><g class="g-gtitle"/><g class="g-xtitle"/><g class="g-ytitle" transform="translate(2.2841796875,0)"><text class="ytitle" transform="rotate(-90,11.715625000000003,192.5)" x="11.715625000000003" y="192.5" text-anchor="middle" style="font-family: 'Open Sans', verdana, arial, sans-serif; font-size: 14px; fill: rgb(36, 36, 36); opacity: 1; font-weight: normal; white-space: pre;">Gene expression</text></g></g></svg>