<svg class="main-svg" xmlns="http://www.w3.org/2000/svg" xmlns:xlink="http://www.w3.org/1999/xlink" width="290" height="400" style="" viewBox="0 0 290 400"><rect x="0" y="0" width="290" height="400" style="fill: rgb(255, 255, 255); fill-opacity: 1;"/><defs id="defs-5cf650"><g class="clips"><clipPath id="clip5cf650xyplot" class="plotclip"><rect width="165" height="345"/></clipPath><clipPath class="axesclip" id="clip5cf650x"><rect x="70" y="0" width="165" height="400"/></clipPath><clipPath class="axesclip" id="clip5cf650y"><rect x="0" y="20" width="290" height="345"/></clipPath><clipPath class="axesclip" id="clip5cf650xy"><rect x="70" y="20" width="165" height="345"/></clipPath></g><g class="gradients"/></defs><g class="bglayer"/><g class="layer-below"><g class="imagelayer"/><g class="shapelayer"/></g><g class="cartesianlayer"><g class="subplot xy"><g class="layer-subplot"><g class="shapelayer"/><g class="imagelayer"/></g><g class="gridlayer"><g class="x"/><g class="y"/></g><g class="zerolinelayer"/><path class="xlines-below"/><path class="ylines-below"/><g class="overlines-below"/><g class="xaxislayer-below"/><g class="yaxislayer-below"/><g class="overaxes-below"/><g class="plot" transform="translate(70,20)" clip-path="url('#clip5cf650xyplot')"><g class="violinlayer mlayer"><g class="trace violins" style="opacity: 1;"><path class="violin" d="M82.5,326.83Q82.5,326.27 82.5,325.99C82.5,325.71 82.5,325.43 82.5,325.15C82.5,324.87 82.5,324.59 82.5,324.31C82.5,324.03 82.5,323.74 82.5,323.46C82.5,323.18 82.5,322.9 82.5,322.62C82.5,322.34 82.5,322.06 82.5,321.78C82.5,321.5 82.5,321.22 82.5,320.94C82.5,320.66 82.5,320.37 82.5,320.09C82.5,319.81 82.5,319.53 82.5,319.25C82.5,318.97 82.5,318.69 82.5,318.41C82.5,318.13 82.5,317.85 82.5,317.57C82.5,317.29 82.5,317.01 82.5,316.73C82.5,316.45 82.5,316.16 82.5,315.88C82.5,315.6 82.5,315.32 82.5,315.04C82.5,314.76 82.5,314.48 82.5,314.2C82.5,313.92 82.5,313.64 82.5,313.36C82.5,313.08 82.5,312.8 82.5,312.52C82.5,312.24 82.5,311.95 82.5,311.67C82.5,311.39 82.5,311.11 82.5,310.83C82.5,310.55 82.5,310.27 82.5,309.99C82.5,309.71 82.5,309.43 82.5,309.15C82.5,308.87 82.5,308.58 82.5,308.3C82.5,308.02 82.5,307.74 82.5,307.46C82.5,307.18 82.51,306.9 82.51,306.62C82.51,306.34 82.51,306.06 82.51,305.78C82.51,305.5 82.51,305.22 82.51,304.94C82.51,304.66 82.51,304.37 82.51,304.09C82.51,303.81 82.51,303.53 82.51,303.25C82.51,302.97 82.5,302.69 82.5,302.41C82.5,302.13 82.5,301.85 82.5,301.57C82.5,301.29 82.5,301.01 82.5,300.73C82.5,300.45 82.5,300.16 82.5,299.88C82.5,299.6 82.51,299.32 82.51,299.04C82.51,298.76 82.51,298.48 82.51,298.2C82.51,297.92 82.51,297.64 82.51,297.36C82.51,297.08 82.51,296.79 82.51,296.51C82.51,296.23 82.51,295.95 82.51,295.67C82.51,295.39 82.51,295.11 82.51,294.83C82.51,294.55 82.51,294.27 82.51,293.99C82.51,293.71 82.51,293.43 82.51,293.15C82.51,292.87 82.51,292.58 82.51,292.3C82.51,292.02 82.51,291.74 82.51,291.46C82.51,291.18 82.51,290.9 82.51,290.62C82.51,290.34 82.51,290.06 82.51,289.78C82.51,289.5 82.51,289.22 82.51,288.94C82.51,288.66 82.51,288.37 82.51,288.09C82.51,287.81 82.51,287.53 82.51,287.25C82.51,286.97 82.51,286.69 82.51,286.41C82.51,286.13 82.51,285.85 82.51,285.57C82.51,285.29 82.51,285 82.51,284.72C82.51,284.44 82.51,284.16 82.51,283.88C82.51,283.6 82.51,283.32 82.51,283.04C82.51,282.76 82.51,282.48 82.51,282.2C82.51,281.92 82.51,281.64 82.51,281.36C82.51,281.08 82.51,280.79 82.51,280.51C82.51,280.23 82.51,279.95 82.51,279.67C82.51,279.39 82.51,279.11 82.51,278.83C82.51,278.55 82.51,278.27 82.51,277.99C82.51,277.71 82.51,277.43 82.51,277.15C82.51,276.87 82.51,276.58 82.51,276.3C82.51,276.02 82.51,275.74 82.51,275.46C82.51,275.18 82.51,274.9 82.51,274.62C82.51,274.34 82.51,274.06 82.51,273.78C82.51,273.5 82.51,273.21 82.51,272.93C82.51,272.65 82.51,272.37 82.51,272.09C82.51,271.81 82.51,271.53 82.51,271.25C82.51,270.97 82.51,270.69 82.51,270.41C82.51,270.13 82.51,269.85 82.51,269.57C82.51,269.29 82.51,269 82.51,268.72C82.51,268.44 82.51,268.16 82.51,267.88C82.51,267.6 82.51,267.32 82.51,267.04C82.51,266.76 82.51,266.48 82.51,266.2C82.51,265.92 82.51,265.64 82.51,265.36C82.51,265.08 82.51,264.79 82.51,264.51C82.51,264.23 82.51,263.95 82.51,263.67C82.51,263.39 82.51,263.11 82.51,262.83C82.51,262.55 82.51,262.27 82.51,261.99C82.51,261.71 82.51,261.42 82.51,261.14C82.51,260.86 82.51,260.58 82.51,260.3C82.51,260.02 82.51,259.74 82.51,259.46C82.51,259.18 82.51,258.9 82.51,258.62C82.51,258.34 82.51,258.06 82.51,257.78C82.51,257.5 82.51,257.21 82.51,256.93C82.51,256.65 82.51,256.37 82.51,256.09C82.51,255.81 82.51,255.53 82.51,255.25C82.51,254.97 82.51,254.69 82.51,254.41C82.51,254.13 82.51,253.85 82.51,253.57C82.51,253.29 82.51,253 82.51,252.72C82.51,252.44 82.51,252.16 82.51,251.88C82.51,251.6 82.51,251.32 82.51,251.04C82.51,250.76 82.52,250.48 82.52,250.2C82.52,249.92 82.52,249.63 82.52,249.35C82.52,249.07 82.52,248.79 82.52,248.51C82.52,248.23 82.52,247.95 82.52,247.67C82.52,247.39 82.52,247.11 82.52,246.83C82.52,246.55 82.52,246.27 82.52,245.99C82.52,245.71 82.52,245.42 82.52,245.14C82.52,244.86 82.52,244.58 82.52,244.3C82.52,244.02 82.52,243.74 82.52,243.46C82.52,243.18 82.53,242.9 82.53,242.62C82.53,242.34 82.53,242.06 82.53,241.78C82.53,241.5 82.53,241.21 82.53,240.93C82.53,240.65 82.53,240.37 82.53,240.09C82.53,239.81 82.53,239.53 82.53,239.25C82.53,238.97 82.53,238.69 82.53,238.41C82.53,238.13 82.53,237.84 82.53,237.56C82.53,237.28 82.53,237 82.53,236.72C82.53,236.44 82.53,236.16 82.53,235.88C82.53,235.6 82.53,235.32 82.53,235.04C82.53,234.76 82.53,234.48 82.53,234.2C82.53,233.92 82.53,233.63 82.53,233.35C82.53,233.07 82.53,232.79 82.53,232.51C82.53,232.23 82.53,231.95 82.53,231.67C82.53,231.39 82.54,231.11 82.54,230.83C82.54,230.55 82.54,230.27 82.54,229.99C82.54,229.71 82.54,229.42 82.54,229.14C82.54,228.86 82.55,228.58 82.55,228.3C82.55,228.02 82.55,227.74 82.55,227.46C82.55,227.18 82.55,226.9 82.55,226.62C82.55,226.34 82.56,226.05 82.56,225.77C82.56,225.49 82.56,225.21 82.56,224.93C82.56,224.65 82.56,224.37 82.56,224.09C82.56,223.81 82.56,223.53 82.56,223.25C82.56,222.97 82.56,222.69 82.56,222.41C82.56,222.13 82.56,221.84 82.56,221.56C82.56,221.28 82.56,221 82.56,220.72C82.56,220.44 82.56,220.16 82.56,219.88C82.56,219.6 82.57,219.32 82.57,219.04C82.57,218.76 82.57,218.48 82.57,218.2C82.57,217.92 82.57,217.63 82.57,217.35C82.57,217.07 82.58,216.79 82.58,216.51C82.58,216.23 82.58,215.95 82.58,215.67C82.58,215.39 82.58,215.11 82.58,214.83C82.58,214.55 82.59,214.26 82.59,213.98C82.59,213.7 82.59,213.42 82.59,213.14C82.59,212.86 82.6,212.58 82.6,212.3C82.6,212.02 82.6,211.74 82.6,211.46C82.6,211.18 82.6,210.9 82.6,210.62C82.6,210.34 82.6,210.05 82.6,209.77C82.6,209.49 82.6,209.21 82.6,208.93C82.6,208.65 82.59,208.37 82.59,208.09C82.59,207.81 82.59,207.53 82.59,207.25C82.59,206.97 82.59,206.69 82.59,206.41C82.59,206.13 82.59,205.84 82.59,205.56C82.59,205.28 82.59,205 82.59,204.72C82.59,204.44 82.59,204.16 82.59,203.88C82.59,203.6 82.59,203.32 82.59,203.04C82.59,202.76 82.59,202.47 82.59,202.19C82.59,201.91 82.59,201.63 82.59,201.35C82.59,201.07 82.59,200.79 82.59,200.51C82.59,200.23 82.59,199.95 82.59,199.67C82.59,199.39 82.59,199.11 82.59,198.83C82.59,198.55 82.59,198.26 82.59,197.98C82.59,197.7 82.6,197.42 82.6,197.14C82.6,196.86 82.6,196.58 82.6,196.3C82.6,196.02 82.6,195.74 82.6,195.46C82.6,195.18 82.61,194.9 82.61,194.62C82.61,194.34 82.62,194.05 82.62,193.77C82.62,193.49 82.62,193.21 82.62,192.93C82.62,192.65 82.63,192.37 82.63,192.09C82.63,191.81 82.64,191.53 82.64,191.25C82.64,190.97 82.65,190.68 82.65,190.4C82.65,190.12 82.66,189.84 82.66,189.56C82.67,189.28 82.67,189 82.68,188.72C82.68,188.44 82.69,188.16 82.69,187.88C82.69,187.6 82.7,187.32 82.7,187.04C82.71,186.76 82.71,186.47 82.72,186.19C82.73,185.91 82.73,185.63 82.74,185.35C82.75,185.07 82.75,184.79 82.76,184.51C82.77,184.23 82.78,183.95 82.79,183.67C82.8,183.39 82.81,183.11 82.82,182.83C82.83,182.55 82.84,182.26 82.85,181.98C82.86,181.7 82.88,181.42 82.89,181.14C82.9,180.86 82.92,180.58 82.93,180.3C82.94,180.02 82.95,179.74 82.96,179.46C82.97,179.18 82.99,178.89 83,178.61C83.01,178.33 83.03,178.05 83.04,177.77C83.06,177.49 83.07,177.21 83.09,176.93C83.11,176.65 83.14,176.37 83.16,176.09C83.19,175.81 83.21,175.53 83.24,175.25C83.27,174.97 83.29,174.68 83.33,174.4C83.36,174.12 83.41,173.84 83.45,173.56C83.49,173.28 83.54,173 83.58,172.72C83.63,172.44 83.67,172.16 83.72,171.88C83.77,171.6 83.82,171.32 83.88,171.04C83.94,170.76 84,170.47 84.06,170.19C84.12,169.91 84.18,169.63 84.25,169.35C84.32,169.07 84.39,168.79 84.47,168.51C84.55,168.23 84.64,167.95 84.73,167.67C84.82,167.39 84.92,167.1 85.02,166.82C85.12,166.54 85.23,166.26 85.35,165.98C85.47,165.7 85.6,165.42 85.73,165.14C85.86,164.86 86,164.58 86.14,164.3C86.29,164.02 86.44,163.74 86.6,163.46C86.76,163.18 86.93,162.89 87.11,162.61C87.29,162.33 87.48,162.05 87.67,161.77C87.87,161.49 88.08,161.21 88.29,160.93C88.51,160.65 88.74,160.37 88.97,160.09C89.21,159.81 89.45,159.53 89.71,159.25C89.97,158.96 90.24,158.68 90.52,158.4C90.8,158.12 91.1,157.84 91.4,157.56C91.71,157.28 92.02,157 92.34,156.72C92.67,156.44 93,156.16 93.34,155.88C93.69,155.6 94.05,155.31 94.41,155.03C94.78,154.75 95.16,154.47 95.55,154.19C95.94,153.91 96.34,153.63 96.75,153.35C97.16,153.07 97.58,152.79 98.01,152.51C98.45,152.23 98.89,151.95 99.34,151.67C99.8,151.39 100.27,151.1 100.74,150.82C101.22,150.54 101.7,150.26 102.19,149.98C102.69,149.7 103.2,149.42 103.71,149.14C104.22,148.86 104.74,148.58 105.26,148.3C105.78,148.02 106.31,147.74 106.84,147.46C107.37,147.18 107.9,146.89 108.43,146.61C108.96,146.33 109.48,146.05 110,145.77C110.52,145.49 111.04,145.21 111.55,144.93C112.06,144.65 112.56,144.37 113.05,144.09C113.54,143.81 114.02,143.52 114.49,143.24C114.95,142.96 115.41,142.68 115.85,142.4C116.28,142.12 116.71,141.84 117.12,141.56C117.52,141.28 117.91,141 118.28,140.72C118.64,140.44 119,140.17 119.34,139.88C119.67,139.6 119.98,139.32 120.28,139.03C120.57,138.75 120.84,138.48 121.1,138.19C121.35,137.92 121.58,137.64 121.79,137.35C121.99,137.08 122.18,136.8 122.34,136.51C122.49,136.24 122.62,135.96 122.72,135.67C122.81,135.39 122.89,135.1 122.92,134.82C122.95,134.54 122.95,134.26 122.91,133.98C122.87,133.7 122.79,133.41 122.67,133.14C122.55,132.85 122.38,132.57 122.19,132.3C121.99,132.01 121.74,131.72 121.48,131.45C121.2,131.16 120.89,130.88 120.56,130.61C120.22,130.32 119.85,130.04 119.46,129.77C119.05,129.48 118.61,129.2 118.17,128.93C117.71,128.64 117.23,128.37 116.74,128.09C116.23,127.8 115.7,127.52 115.17,127.24C114.62,126.95 114.06,126.68 113.49,126.4C112.91,126.12 112.32,125.84 111.72,125.56C111.12,125.28 110.5,125 109.89,124.72C109.27,124.44 108.64,124.16 108.01,123.88C107.38,123.6 106.75,123.31 106.12,123.03C105.49,122.75 104.85,122.47 104.22,122.19C103.59,121.91 102.97,121.63 102.35,121.35C101.74,121.07 101.12,120.79 100.52,120.51C99.93,120.23 99.34,119.94 98.76,119.66C98.19,119.38 97.63,119.1 97.08,118.82C96.54,118.54 96.02,118.26 95.5,117.98C95,117.7 94.51,117.42 94.03,117.14C93.57,116.86 93.11,116.59 92.67,116.3C92.24,116.02 91.83,115.74 91.43,115.45C91.04,115.17 90.66,114.89 90.3,114.61C89.95,114.33 89.61,114.05 89.28,113.77C88.96,113.49 88.65,113.21 88.35,112.93C88.06,112.65 87.78,112.38 87.52,112.09C87.26,111.81 87.01,111.53 86.78,111.24C86.55,110.96 86.34,110.68 86.13,110.4C85.93,110.12 85.74,109.84 85.56,109.56C85.38,109.28 85.21,109 85.06,108.72C84.91,108.44 84.77,108.15 84.64,107.87C84.51,107.59 84.38,107.31 84.27,107.03C84.16,106.75 84.06,106.47 83.96,106.19C83.87,105.91 83.78,105.63 83.7,105.35C83.62,105.07 83.55,104.79 83.48,104.51C83.41,104.23 83.35,103.94 83.29,103.66C83.23,103.38 83.19,103.1 83.14,102.82C83.09,102.54 83.05,102.26 83.01,101.98C82.97,101.7 82.94,101.42 82.91,101.14C82.88,100.86 82.85,100.58 82.83,100.3C82.81,100.02 82.79,99.73 82.77,99.45C82.75,99.17 82.74,98.89 82.72,98.61C82.71,98.33 82.69,98.05 82.68,97.77C82.67,97.49 82.66,97.21 82.65,96.93C82.64,96.65 82.63,96.36 82.62,96.08C82.61,95.8 82.61,95.52 82.6,95.24C82.59,94.96 82.59,94.68 82.58,94.4C82.58,94.12 82.57,93.84 82.57,93.56C82.56,93.28 82.55,93 82.55,92.72C82.55,92.44 82.55,92.15 82.55,91.87C82.55,91.59 82.54,91.31 82.54,91.03C82.54,90.75 82.54,90.47 82.54,90.19C82.54,89.91 82.53,89.63 82.53,89.35C82.53,89.07 82.53,88.79 82.53,88.51C82.53,88.23 82.53,87.94 82.53,87.66C82.53,87.38 82.52,87.1 82.52,86.82C82.52,86.54 82.52,86.26 82.52,85.98C82.52,85.7 82.52,85.42 82.52,85.14C82.52,84.86 82.51,84.57 82.51,84.29C82.51,84.01 82.51,83.73 82.51,83.45C82.51,83.17 82.51,82.89 82.51,82.61C82.51,82.33 82.51,82.05 82.51,81.77C82.51,81.49 82.51,81.21 82.51,80.93C82.51,80.65 82.51,80.36 82.51,80.08C82.51,79.8 82.51,79.52 82.51,79.24C82.51,78.96 82.51,78.68 82.51,78.4C82.51,78.12 82.51,77.84 82.51,77.56C82.51,77.28 82.5,77 82.5,76.72C82.5,76.44 82.5,76.15 82.5,75.87C82.5,75.59 82.5,75.31 82.5,75.03C82.5,74.75 82.5,74.47 82.5,74.19C82.5,73.91 82.5,73.63 82.5,73.35C82.5,73.07 82.5,72.78 82.5,72.5C82.5,72.22 82.5,71.94 82.5,71.66C82.5,71.38 82.5,71.1 82.5,70.82C82.5,70.54 82.5,70.26 82.5,69.98C82.5,69.7 82.5,69.42 82.5,69.14C82.5,68.86 82.5,68.57 82.5,68.29C82.5,68.01 82.5,67.73 82.5,67.45C82.5,67.17 82.5,66.89 82.5,66.61C82.5,66.33 82.5,66.05 82.5,65.77C82.5,65.49 82.5,65.21 82.5,64.93Q82.5,64.65 82.5,64.08L82.5,64.08Q82.5,64.65 82.5,64.93C82.5,65.21 82.5,65.49 82.5,65.77C82.5,66.05 82.5,66.33 82.5,66.61C82.5,66.89 82.5,67.17 82.5,67.45C82.5,67.73 82.5,68.01 82.5,68.29C82.5,68.57 82.5,68.86 82.5,69.14C82.5,69.42 82.5,69.7 82.5,69.98C82.5,70.26 82.5,70.54 82.5,70.82C82.5,71.1 82.5,71.38 82.5,71.66C82.5,71.94 82.5,72.22 82.5,72.5C82.5,72.78 82.5,73.07 82.5,73.35C82.5,73.63 82.5,73.91 82.5,74.19C82.5,74.47 82.5,74.75 82.5,75.03C82.5,75.31 82.5,75.59 82.5,75.87C82.5,76.15 82.5,76.44 82.5,76.72C82.5,77 82.49,77.28 82.49,77.56C82.49,77.84 82.49,78.12 82.49,78.4C82.49,78.68 82.49,78.96 82.49,79.24C82.49,79.52 82.49,79.8 82.49,80.08C82.49,80.36 82.49,80.65 82.49,80.93C82.49,81.21 82.49,81.49 82.49,81.77C82.49,82.05 82.49,82.33 82.49,82.61C82.49,82.89 82.49,83.17 82.49,83.45C82.49,83.73 82.49,84.01 82.49,84.29C82.49,84.57 82.48,84.86 82.48,85.14C82.48,85.42 82.48,85.7 82.48,85.98C82.48,86.26 82.48,86.54 82.48,86.82C82.48,87.1 82.47,87.38 82.47,87.66C82.47,87.94 82.47,88.23 82.47,88.51C82.47,88.79 82.47,89.07 82.47,89.35C82.47,89.63 82.46,89.91 82.46,90.19C82.46,90.47 82.46,90.75 82.46,91.03C82.46,91.31 82.45,91.59 82.45,91.87C82.45,92.15 82.45,92.44 82.45,92.72C82.45,93 82.44,93.28 82.43,93.56C82.43,93.84 82.42,94.12 82.42,94.4C82.41,94.68 82.41,94.96 82.4,95.24C82.39,95.52 82.39,95.8 82.38,96.08C82.37,96.36 82.36,96.65 82.35,96.93C82.34,97.21 82.33,97.49 82.32,97.77C82.31,98.05 82.29,98.33 82.28,98.61C82.26,98.89 82.25,99.17 82.23,99.45C82.21,99.73 82.19,100.02 82.17,100.3C82.15,100.58 82.12,100.86 82.09,101.14C82.06,101.42 82.03,101.7 81.99,101.98C81.95,102.26 81.91,102.54 81.86,102.82C81.81,103.1 81.77,103.38 81.71,103.66C81.65,103.94 81.59,104.23 81.52,104.51C81.45,104.79 81.38,105.07 81.3,105.35C81.22,105.63 81.13,105.91 81.04,106.19C80.94,106.47 80.84,106.75 80.73,107.03C80.62,107.31 80.49,107.59 80.36,107.87C80.23,108.15 80.09,108.44 79.94,108.72C79.79,109 79.62,109.28 79.44,109.56C79.26,109.84 79.07,110.12 78.87,110.4C78.66,110.68 78.45,110.96 78.22,111.24C77.99,111.53 77.74,111.81 77.48,112.09C77.22,112.38 76.94,112.65 76.65,112.93C76.35,113.21 76.04,113.49 75.72,113.77C75.39,114.05 75.05,114.33 74.7,114.61C74.34,114.89 73.96,115.17 73.57,115.45C73.17,115.74 72.76,116.02 72.33,116.3C71.89,116.59 71.43,116.86 70.97,117.14C70.49,117.42 70,117.7 69.5,117.98C68.98,118.26 68.46,118.54 67.92,118.82C67.37,119.1 66.81,119.38 66.24,119.66C65.66,119.94 65.07,120.23 64.48,120.51C63.88,120.79 63.26,121.07 62.65,121.35C62.03,121.63 61.41,121.91 60.78,122.19C60.15,122.47 59.51,122.75 58.88,123.03C58.25,123.31 57.62,123.6 56.99,123.88C56.36,124.16 55.73,124.44 55.11,124.72C54.5,125 53.88,125.28 53.28,125.56C52.68,125.84 52.09,126.12 51.51,126.4C50.94,126.68 50.38,126.95 49.83,127.24C49.3,127.52 48.77,127.8 48.26,128.09C47.77,128.37 47.29,128.64 46.83,128.93C46.39,129.2 45.95,129.48 45.54,129.77C45.15,130.04 44.78,130.32 44.44,130.61C44.11,130.88 43.8,131.16 43.52,131.45C43.26,131.72 43.01,132.01 42.81,132.3C42.62,132.57 42.45,132.85 42.33,133.14C42.21,133.41 42.13,133.7 42.09,133.98C42.05,134.26 42.05,134.54 42.08,134.82C42.11,135.1 42.19,135.39 42.28,135.67C42.38,135.96 42.51,136.24 42.66,136.51C42.82,136.8 43.01,137.08 43.21,137.35C43.42,137.64 43.65,137.92 43.9,138.19C44.16,138.48 44.43,138.75 44.72,139.03C45.02,139.32 45.33,139.6 45.66,139.88C46,140.17 46.36,140.44 46.72,140.72C47.09,141 47.48,141.28 47.88,141.56C48.29,141.84 48.72,142.12 49.15,142.4C49.59,142.68 50.05,142.96 50.51,143.24C50.98,143.52 51.46,143.81 51.95,144.09C52.44,144.37 52.94,144.65 53.45,144.93C53.96,145.21 54.48,145.49 55,145.77C55.52,146.05 56.04,146.33 56.57,146.61C57.1,146.89 57.63,147.18 58.16,147.46C58.69,147.74 59.22,148.02 59.74,148.3C60.26,148.58 60.78,148.86 61.29,149.14C61.8,149.42 62.31,149.7 62.81,149.98C63.3,150.26 63.78,150.54 64.26,150.82C64.73,151.1 65.2,151.39 65.66,151.67C66.11,151.95 66.55,152.23 66.99,152.51C67.42,152.79 67.84,153.07 68.25,153.35C68.66,153.63 69.06,153.91 69.45,154.19C69.84,154.47 70.22,154.75 70.59,155.03C70.95,155.31 71.31,155.6 71.66,155.88C72,156.16 72.33,156.44 72.66,156.72C72.98,157 73.29,157.28 73.6,157.56C73.9,157.84 74.2,158.12 74.48,158.4C74.76,158.68 75.03,158.96 75.29,159.25C75.55,159.53 75.79,159.81 76.03,160.09C76.26,160.37 76.49,160.65 76.71,160.93C76.92,161.21 77.13,161.49 77.33,161.77C77.52,162.05 77.71,162.33 77.89,162.61C78.07,162.89 78.24,163.18 78.4,163.46C78.56,163.74 78.71,164.02 78.86,164.3C79,164.58 79.14,164.86 79.27,165.14C79.4,165.42 79.53,165.7 79.65,165.98C79.77,166.26 79.88,166.54 79.98,166.82C80.08,167.1 80.18,167.39 80.27,167.67C80.36,167.95 80.45,168.23 80.53,168.51C80.61,168.79 80.68,169.07 80.75,169.35C80.82,169.63 80.88,169.91 80.94,170.19C81,170.47 81.06,170.76 81.12,171.04C81.18,171.32 81.23,171.6 81.28,171.88C81.33,172.16 81.37,172.44 81.42,172.72C81.46,173 81.51,173.28 81.55,173.56C81.59,173.84 81.64,174.12 81.67,174.4C81.71,174.68 81.73,174.97 81.76,175.25C81.79,175.53 81.81,175.81 81.84,176.09C81.86,176.37 81.89,176.65 81.91,176.93C81.93,177.21 81.94,177.49 81.96,177.77C81.97,178.05 81.99,178.33 82,178.61C82.01,178.89 82.03,179.18 82.04,179.46C82.05,179.74 82.06,180.02 82.07,180.3C82.08,180.58 82.1,180.86 82.11,181.14C82.12,181.42 82.14,181.7 82.15,181.98C82.16,182.26 82.17,182.55 82.18,182.83C82.19,183.11 82.2,183.39 82.21,183.67C82.22,183.95 82.23,184.23 82.24,184.51C82.25,184.79 82.25,185.07 82.26,185.35C82.27,185.63 82.27,185.91 82.28,186.19C82.29,186.47 82.29,186.76 82.3,187.04C82.3,187.32 82.31,187.6 82.31,187.88C82.31,188.16 82.32,188.44 82.32,188.72C82.33,189 82.33,189.28 82.34,189.56C82.34,189.84 82.35,190.12 82.35,190.4C82.35,190.68 82.36,190.97 82.36,191.25C82.36,191.53 82.37,191.81 82.37,192.09C82.37,192.37 82.38,192.65 82.38,192.93C82.38,193.21 82.38,193.49 82.38,193.77C82.38,194.05 82.39,194.34 82.39,194.62C82.39,194.9 82.4,195.18 82.4,195.46C82.4,195.74 82.4,196.02 82.4,196.3C82.4,196.58 82.4,196.86 82.4,197.14C82.4,197.42 82.41,197.7 82.41,197.98C82.41,198.26 82.41,198.55 82.41,198.83C82.41,199.11 82.41,199.39 82.41,199.67C82.41,199.95 82.41,200.23 82.41,200.51C82.41,200.79 82.41,201.07 82.41,201.35C82.41,201.63 82.41,201.91 82.41,202.19C82.41,202.47 82.41,202.76 82.41,203.04C82.41,203.32 82.41,203.6 82.41,203.88C82.41,204.16 82.41,204.44 82.41,204.72C82.41,205 82.41,205.28 82.41,205.56C82.41,205.84 82.41,206.13 82.41,206.41C82.41,206.69 82.41,206.97 82.41,207.25C82.41,207.53 82.41,207.81 82.41,208.09C82.41,208.37 82.4,208.65 82.4,208.93C82.4,209.21 82.4,209.49 82.4,209.77C82.4,210.05 82.4,210.34 82.4,210.62C82.4,210.9 82.4,211.18 82.4,211.46C82.4,211.74 82.4,212.02 82.4,212.3C82.4,212.58 82.41,212.86 82.41,213.14C82.41,213.42 82.41,213.7 82.41,213.98C82.41,214.26 82.42,214.55 82.42,214.83C82.42,215.11 82.42,215.39 82.42,215.67C82.42,215.95 82.42,216.23 82.42,216.51C82.42,216.79 82.43,217.07 82.43,217.35C82.43,217.63 82.43,217.92 82.43,218.2C82.43,218.48 82.43,218.76 82.43,219.04C82.43,219.32 82.44,219.6 82.44,219.88C82.44,220.16 82.44,220.44 82.44,220.72C82.44,221 82.44,221.28 82.44,221.56C82.44,221.84 82.44,222.13 82.44,222.41C82.44,222.69 82.44,222.97 82.44,223.25C82.44,223.53 82.44,223.81 82.44,224.09C82.44,224.37 82.44,224.65 82.44,224.93C82.44,225.21 82.44,225.49 82.44,225.77C82.44,226.05 82.45,226.34 82.45,226.62C82.45,226.9 82.45,227.18 82.45,227.46C82.45,227.74 82.45,228.02 82.45,228.3C82.45,228.58 82.46,228.86 82.46,229.14C82.46,229.42 82.46,229.71 82.46,229.99C82.46,230.27 82.46,230.55 82.46,230.83C82.46,231.11 82.47,231.39 82.47,231.67C82.47,231.95 82.47,232.23 82.47,232.51C82.47,232.79 82.47,233.07 82.47,233.35C82.47,233.63 82.47,233.92 82.47,234.2C82.47,234.48 82.47,234.76 82.47,235.04C82.47,235.32 82.47,235.6 82.47,235.88C82.47,236.16 82.47,236.44 82.47,236.72C82.47,237 82.47,237.28 82.47,237.56C82.47,237.84 82.47,238.13 82.47,238.41C82.47,238.69 82.47,238.97 82.47,239.25C82.47,239.53 82.47,239.81 82.47,240.09C82.47,240.37 82.47,240.65 82.47,240.93C82.47,241.21 82.47,241.5 82.47,241.78C82.47,242.06 82.47,242.34 82.47,242.62C82.47,242.9 82.48,243.18 82.48,243.46C82.48,243.74 82.48,244.02 82.48,244.3C82.48,244.58 82.48,244.86 82.48,245.14C82.48,245.42 82.48,245.71 82.48,245.99C82.48,246.27 82.48,246.55 82.48,246.83C82.48,247.11 82.48,247.39 82.48,247.67C82.48,247.95 82.48,248.23 82.48,248.51C82.48,248.79 82.48,249.07 82.48,249.35C82.48,249.63 82.48,249.92 82.48,250.2C82.48,250.48 82.49,250.76 82.49,251.04C82.49,251.32 82.49,251.6 82.49,251.88C82.49,252.16 82.49,252.44 82.49,252.72C82.49,253 82.49,253.29 82.49,253.57C82.49,253.85 82.49,254.13 82.49,254.41C82.49,254.69 82.49,254.97 82.49,255.25C82.49,255.53 82.49,255.81 82.49,256.09C82.49,256.37 82.49,256.65 82.49,256.93C82.49,257.21 82.49,257.5 82.49,257.78C82.49,258.06 82.49,258.34 82.49,258.62C82.49,258.9 82.49,259.18 82.49,259.46C82.49,259.74 82.49,260.02 82.49,260.3C82.49,260.58 82.49,260.86 82.49,261.14C82.49,261.42 82.49,261.71 82.49,261.99C82.49,262.27 82.49,262.55 82.49,262.83C82.49,263.11 82.49,263.39 82.49,263.67C82.49,263.95 82.49,264.23 82.49,264.51C82.49,264.79 82.49,265.08 82.49,265.36C82.49,265.64 82.49,265.92 82.49,266.2C82.49,266.48 82.49,266.76 82.49,267.04C82.49,267.32 82.49,267.6 82.49,267.88C82.49,268.16 82.49,268.44 82.49,268.72C82.49,269 82.49,269.29 82.49,269.57C82.49,269.85 82.49,270.13 82.49,270.41C82.49,270.69 82.49,270.97 82.49,271.25C82.49,271.53 82.49,271.81 82.49,272.09C82.49,272.37 82.49,272.65 82.49,272.93C82.49,273.21 82.49,273.5 82.49,273.78C82.49,274.06 82.49,274.34 82.49,274.62C82.49,274.9 82.49,275.18 82.49,275.46C82.49,275.74 82.49,276.02 82.49,276.3C82.49,276.58 82.49,276.87 82.49,277.15C82.49,277.43 82.49,277.71 82.49,277.99C82.49,278.27 82.49,278.55 82.49,278.83C82.49,279.11 82.49,279.39 82.49,279.67C82.49,279.95 82.49,280.23 82.49,280.51C82.49,280.79 82.49,281.08 82.49,281.36C82.49,281.64 82.49,281.92 82.49,282.2C82.49,282.48 82.49,282.76 82.49,283.04C82.49,283.32 82.49,283.6 82.49,283.88C82.49,284.16 82.49,284.44 82.49,284.72C82.49,285 82.49,285.29 82.49,285.57C82.49,285.85 82.49,286.13 82.49,286.41C82.49,286.69 82.49,286.97 82.49,287.25C82.49,287.53 82.49,287.81 82.49,288.09C82.49,288.37 82.49,288.66 82.49,288.94C82.49,289.22 82.49,289.5 82.49,289.78C82.49,290.06 82.49,290.34 82.49,290.62C82.49,290.9 82.49,291.18 82.49,291.46C82.49,291.74 82.49,292.02 82.49,292.3C82.49,292.58 82.49,292.87 82.49,293.15C82.49,293.43 82.49,293.71 82.49,293.99C82.49,294.27 82.49,294.55 82.49,294.83C82.49,295.11 82.49,295.39 82.49,295.67C82.49,295.95 82.49,296.23 82.49,296.51C82.49,296.79 82.49,297.08 82.49,297.36C82.49,297.64 82.49,297.92 82.49,298.2C82.49,298.48 82.49,298.76 82.49,299.04C82.49,299.32 82.5,299.6 82.5,299.88C82.5,300.16 82.5,300.45 82.5,300.73C82.5,301.01 82.5,301.29 82.5,301.57C82.5,301.85 82.5,302.13 82.5,302.41C82.5,302.69 82.49,302.97 82.49,303.25C82.49,303.53 82.49,303.81 82.49,304.09C82.49,304.37 82.49,304.66 82.49,304.94C82.49,305.22 82.49,305.5 82.49,305.78C82.49,306.06 82.49,306.34 82.49,306.62C82.49,306.9 82.5,307.18 82.5,307.46C82.5,307.74 82.5,308.02 82.5,308.3C82.5,308.58 82.5,308.87 82.5,309.15C82.5,309.43 82.5,309.71 82.5,309.99C82.5,310.27 82.5,310.55 82.5,310.83C82.5,311.11 82.5,311.39 82.5,311.67C82.5,311.95 82.5,312.24 82.5,312.52C82.5,312.8 82.5,313.08 82.5,313.36C82.5,313.64 82.5,313.92 82.5,314.2C82.5,314.48 82.5,314.76 82.5,315.04C82.5,315.32 82.5,315.6 82.5,315.88C82.5,316.16 82.5,316.45 82.5,316.73C82.5,317.01 82.5,317.29 82.5,317.57C82.5,317.85 82.5,318.13 82.5,318.41C82.5,318.69 82.5,318.97 82.5,319.25C82.5,319.53 82.5,319.81 82.5,320.09C82.5,320.37 82.5,320.66 82.5,320.94C82.5,321.22 82.5,321.5 82.5,321.78C82.5,322.06 82.5,322.34 82.5,322.62C82.5,322.9 82.5,323.18 82.5,323.46C82.5,323.74 82.5,324.03 82.5,324.31C82.5,324.59 82.5,324.87 82.5,325.15C82.5,325.43 82.5,325.71 82.5,325.99Q82.5,326.27 82.5,326.83Z" style="vector-effect: non-scaling-stroke; stroke-width: 2px; stroke: rgb(31, 119, 180); stroke-opacity: 1; fill: rgb(31, 119, 180); fill-opacity: 0.5;"/></g><g class="trace violins" style="opacity: 1;"><path class="violin" d="M82.73,327.75Q82.85,327.09 82.94,326.76C83.03,326.43 83.14,326.1 83.26,325.77C83.38,325.44 83.52,325.1 83.66,324.77C83.8,324.44 83.96,324.11 84.11,323.78C84.25,323.45 84.41,323.12 84.53,322.79C84.65,322.46 84.75,322.13 84.82,321.8C84.89,321.47 84.92,321.14 84.93,320.81C84.94,320.48 84.9,320.14 84.85,319.81C84.8,319.48 84.71,319.15 84.62,318.82C84.53,318.49 84.42,318.16 84.31,317.83C84.2,317.5 84.08,317.17 83.98,316.84C83.88,316.51 83.78,316.18 83.69,315.85C83.6,315.52 83.53,315.18 83.46,314.85C83.39,314.52 83.34,314.19 83.29,313.86C83.24,313.53 83.2,313.2 83.17,312.87C83.14,312.54 83.11,312.21 83.09,311.88C83.07,311.55 83.05,311.22 83.03,310.89C83.01,310.56 83,310.22 82.99,309.89C82.98,309.56 82.97,309.23 82.96,308.9C82.95,308.57 82.95,308.24 82.94,307.91C82.94,307.58 82.93,307.25 82.93,306.92C82.93,306.59 82.92,306.26 82.92,305.93C82.92,305.6 82.91,305.26 82.91,304.93C82.91,304.6 82.91,304.27 82.91,303.94C82.91,303.61 82.9,303.28 82.9,302.95C82.9,302.62 82.9,302.29 82.9,301.96C82.9,301.63 82.89,301.3 82.89,300.97C82.89,300.64 82.89,300.3 82.89,299.97C82.89,299.64 82.88,299.31 82.88,298.98C82.88,298.65 82.88,298.32 82.88,297.99C82.88,297.66 82.88,297.33 82.88,297C82.88,296.67 82.88,296.34 82.88,296.01C82.88,295.68 82.88,295.34 82.88,295.01C82.88,294.68 82.88,294.35 82.88,294.02C82.88,293.69 82.87,293.36 82.87,293.03C82.87,292.7 82.87,292.37 82.87,292.04C82.87,291.71 82.87,291.38 82.87,291.05C82.87,290.72 82.87,290.38 82.87,290.05C82.87,289.72 82.87,289.39 82.87,289.06C82.87,288.73 82.87,288.4 82.87,288.07C82.87,287.74 82.87,287.41 82.87,287.08C82.87,286.75 82.87,286.42 82.87,286.09C82.87,285.76 82.87,285.42 82.87,285.09C82.87,284.76 82.87,284.43 82.87,284.1C82.87,283.77 82.87,283.44 82.87,283.11C82.87,282.78 82.87,282.45 82.87,282.12C82.87,281.79 82.87,281.46 82.87,281.13C82.87,280.8 82.87,280.46 82.87,280.13C82.87,279.8 82.87,279.47 82.87,279.14C82.87,278.81 82.88,278.48 82.88,278.15C82.88,277.82 82.88,277.49 82.88,277.16C82.88,276.83 82.88,276.5 82.88,276.17C82.88,275.84 82.88,275.5 82.88,275.17C82.88,274.84 82.88,274.51 82.88,274.18C82.88,273.85 82.88,273.52 82.88,273.19C82.88,272.86 82.88,272.53 82.88,272.2C82.88,271.87 82.88,271.54 82.88,271.21C82.88,270.88 82.88,270.54 82.88,270.21C82.88,269.88 82.89,269.55 82.89,269.22C82.89,268.89 82.89,268.56 82.89,268.23C82.89,267.9 82.89,267.57 82.89,267.24C82.89,266.91 82.89,266.58 82.89,266.25C82.89,265.92 82.89,265.58 82.89,265.25C82.89,264.92 82.89,264.59 82.89,264.26C82.89,263.93 82.89,263.6 82.89,263.27C82.89,262.94 82.9,262.61 82.9,262.28C82.9,261.95 82.9,261.62 82.9,261.29C82.9,260.96 82.9,260.62 82.9,260.29C82.9,259.96 82.91,259.63 82.91,259.3C82.91,258.97 82.91,258.64 82.91,258.31C82.91,257.98 82.92,257.65 82.92,257.32C82.92,256.99 82.92,256.66 82.92,256.33C82.92,256 82.93,255.66 82.93,255.33C82.93,255 82.93,254.67 82.93,254.34C82.93,254.01 82.94,253.68 82.94,253.35C82.94,253.02 82.94,252.69 82.94,252.36C82.94,252.03 82.94,251.7 82.94,251.37C82.94,251.04 82.94,250.7 82.94,250.37C82.94,250.04 82.94,249.71 82.94,249.38C82.94,249.05 82.94,248.72 82.94,248.39C82.94,248.06 82.94,247.73 82.94,247.4C82.94,247.07 82.95,246.73 82.95,246.4C82.95,246.07 82.95,245.74 82.95,245.41C82.95,245.08 82.95,244.75 82.95,244.42C82.95,244.09 82.96,243.76 82.96,243.43C82.96,243.1 82.96,242.77 82.96,242.44C82.96,242.11 82.96,241.77 82.96,241.44C82.96,241.11 82.97,240.78 82.97,240.45C82.97,240.12 82.97,239.79 82.97,239.46C82.97,239.13 82.98,238.8 82.98,238.47C82.98,238.14 82.99,237.81 82.99,237.48C82.99,237.15 82.99,236.81 82.99,236.48C82.99,236.15 83,235.82 83,235.49C83,235.16 83.01,234.83 83.01,234.5C83.01,234.17 83.01,233.84 83.01,233.51C83.01,233.18 83.02,232.85 83.02,232.52C83.02,232.19 83.02,231.85 83.02,231.52C83.02,231.19 83.02,230.86 83.02,230.53C83.02,230.2 83.03,229.87 83.03,229.54C83.03,229.21 83.03,228.88 83.03,228.55C83.03,228.22 83.03,227.89 83.03,227.56C83.03,227.23 83.04,226.89 83.04,226.56C83.04,226.23 83.04,225.9 83.04,225.57C83.04,225.24 83.05,224.91 83.05,224.58C83.05,224.25 83.06,223.92 83.06,223.59C83.06,223.26 83.07,222.93 83.07,222.6C83.07,222.27 83.07,221.93 83.07,221.6C83.07,221.27 83.08,220.94 83.08,220.61C83.08,220.28 83.09,219.95 83.09,219.62C83.09,219.29 83.1,218.96 83.1,218.63C83.1,218.3 83.1,217.97 83.1,217.64C83.1,217.31 83.11,216.97 83.11,216.64C83.11,216.31 83.12,215.98 83.12,215.65C83.12,215.32 83.12,214.99 83.12,214.66C83.12,214.33 83.12,214 83.12,213.67C83.12,213.34 83.13,213.01 83.13,212.68C83.13,212.35 83.14,212.01 83.14,211.68C83.14,211.35 83.14,211.02 83.14,210.69C83.14,210.36 83.15,210.03 83.15,209.7C83.15,209.37 83.16,209.04 83.16,208.71C83.16,208.38 83.17,208.05 83.17,207.72C83.17,207.39 83.18,207.05 83.18,206.72C83.18,206.39 83.19,206.06 83.19,205.73C83.2,205.4 83.2,205.07 83.21,204.74C83.21,204.41 83.22,204.08 83.22,203.75C83.22,203.42 83.23,203.09 83.23,202.76C83.23,202.43 83.23,202.09 83.24,201.76C83.24,201.43 83.25,201.1 83.26,200.77C83.26,200.44 83.27,200.11 83.27,199.78C83.28,199.45 83.28,199.12 83.29,198.79C83.29,198.46 83.3,198.13 83.3,197.8C83.31,197.47 83.31,197.13 83.32,196.8C83.33,196.47 83.33,196.14 83.34,195.81C83.35,195.48 83.35,195.15 83.36,194.82C83.37,194.49 83.37,194.16 83.38,193.83C83.39,193.5 83.39,193.17 83.4,192.84C83.41,192.51 83.41,192.17 83.42,191.84C83.43,191.51 83.44,191.18 83.45,190.85C83.46,190.52 83.46,190.19 83.47,189.86C83.48,189.53 83.49,189.2 83.5,188.87C83.51,188.54 83.52,188.21 83.53,187.88C83.54,187.55 83.55,187.21 83.56,186.88C83.57,186.55 83.59,186.22 83.6,185.89C83.61,185.56 83.63,185.23 83.64,184.9C83.66,184.57 83.67,184.24 83.69,183.91C83.71,183.58 83.72,183.25 83.74,182.92C83.76,182.59 83.79,182.25 83.81,181.92C83.83,181.59 83.86,181.26 83.88,180.93C83.91,180.6 83.93,180.27 83.96,179.94C83.99,179.61 84.02,179.28 84.05,178.95C84.08,178.62 84.11,178.29 84.15,177.96C84.19,177.63 84.23,177.29 84.27,176.96C84.31,176.63 84.35,176.3 84.4,175.97C84.45,175.64 84.5,175.31 84.55,174.98C84.61,174.65 84.67,174.32 84.73,173.99C84.79,173.66 84.86,173.33 84.93,173C85,172.67 85.07,172.33 85.15,172C85.23,171.67 85.33,171.34 85.42,171.01C85.51,170.68 85.61,170.35 85.71,170.02C85.82,169.69 85.93,169.36 86.05,169.03C86.17,168.7 86.29,168.37 86.42,168.04C86.55,167.71 86.7,167.37 86.85,167.04C87,166.71 87.16,166.38 87.33,166.05C87.5,165.72 87.68,165.39 87.87,165.06C88.06,164.73 88.26,164.4 88.47,164.07C88.69,163.74 88.91,163.41 89.15,163.08C89.39,162.74 89.64,162.41 89.9,162.08C90.16,161.75 90.44,161.42 90.72,161.09C91.01,160.76 91.32,160.43 91.63,160.1C91.95,159.77 92.28,159.44 92.62,159.11C92.97,158.78 93.33,158.45 93.7,158.12C94.08,157.78 94.46,157.45 94.86,157.12C95.26,156.79 95.68,156.46 96.1,156.13C96.53,155.8 96.97,155.47 97.42,155.14C97.88,154.81 98.35,154.48 98.82,154.15C99.3,153.82 99.79,153.49 100.29,153.16C100.79,152.83 101.3,152.49 101.82,152.16C102.34,151.83 102.87,151.5 103.4,151.17C103.93,150.84 104.47,150.51 105.01,150.18C105.55,149.85 106.1,149.52 106.64,149.19C107.18,148.86 107.73,148.53 108.27,148.2C108.81,147.87 109.34,147.53 109.87,147.2C110.39,146.87 110.9,146.54 111.41,146.21C111.91,145.88 112.4,145.55 112.88,145.22C113.35,144.89 113.8,144.56 114.24,144.23C114.67,143.9 115.09,143.58 115.48,143.24C115.86,142.91 116.23,142.58 116.57,142.24C116.89,141.92 117.2,141.59 117.48,141.25C117.74,140.93 117.99,140.6 118.2,140.26C118.4,139.94 118.57,139.61 118.7,139.27C118.83,138.95 118.93,138.61 118.98,138.28C119.03,137.95 119.04,137.61 119.01,137.28C118.98,136.95 118.89,136.61 118.78,136.29C118.66,135.95 118.49,135.62 118.3,135.3C118.09,134.96 117.84,134.63 117.57,134.31C117.28,133.97 116.95,133.64 116.6,133.32C116.23,132.98 115.83,132.64 115.41,132.32C114.97,131.98 114.49,131.65 114.01,131.33C113.51,130.99 112.99,130.66 112.45,130.34C111.89,130 111.32,129.68 110.73,129.35C110.13,129.02 109.51,128.69 108.89,128.36C108.26,128.03 107.62,127.69 106.97,127.36C106.32,127.03 105.66,126.7 105,126.37C104.34,126.04 103.66,125.71 103,125.38C102.34,125.05 101.67,124.72 101.02,124.39C100.37,124.06 99.73,123.73 99.09,123.4C98.46,123.07 97.84,122.74 97.23,122.4C96.63,122.07 96.04,121.74 95.46,121.41C94.9,121.08 94.35,120.75 93.81,120.42C93.29,120.09 92.77,119.77 92.28,119.43C91.8,119.11 91.34,118.78 90.89,118.44C90.46,118.11 90.04,117.78 89.64,117.44C89.25,117.11 88.88,116.79 88.52,116.45C88.18,116.13 87.85,115.8 87.54,115.46C87.24,115.14 86.96,114.81 86.69,114.47C86.43,114.14 86.19,113.82 85.96,113.48C85.74,113.15 85.53,112.82 85.34,112.48C85.15,112.15 84.98,111.82 84.82,111.49C84.66,111.16 84.52,110.83 84.39,110.5C84.26,110.17 84.14,109.84 84.03,109.51C83.92,109.18 83.82,108.85 83.73,108.52C83.64,108.19 83.56,107.85 83.49,107.52C83.42,107.19 83.36,106.86 83.3,106.53C83.24,106.2 83.19,105.87 83.14,105.54C83.09,105.21 83.06,104.88 83.02,104.55C82.98,104.22 82.95,103.89 82.92,103.56C82.89,103.23 82.86,102.89 82.83,102.56C82.81,102.23 82.79,101.9 82.77,101.57C82.75,101.24 82.74,100.91 82.72,100.58C82.71,100.25 82.69,99.92 82.68,99.59C82.67,99.26 82.66,98.93 82.65,98.6C82.64,98.27 82.63,97.93 82.62,97.6C82.61,97.27 82.61,96.94 82.61,96.61C82.6,96.28 82.6,95.95 82.59,95.62C82.59,95.29 82.58,94.96 82.58,94.63C82.58,94.3 82.57,93.96 82.57,93.63C82.57,93.3 82.56,92.97 82.56,92.64C82.56,92.31 82.55,91.98 82.55,91.65C82.55,91.32 82.55,90.99 82.55,90.66C82.55,90.33 82.54,90 82.54,89.67C82.54,89.34 82.54,89 82.54,88.67C82.54,88.34 82.53,88.01 82.53,87.68C82.53,87.35 82.53,87.02 82.53,86.69C82.53,86.36 82.53,86.03 82.53,85.7C82.53,85.37 82.52,85.04 82.52,84.71C82.52,84.38 82.52,84.04 82.52,83.71C82.52,83.38 82.52,83.05 82.52,82.72C82.52,82.39 82.52,82.06 82.52,81.73C82.52,81.4 82.52,81.07 82.52,80.74C82.52,80.41 82.52,80.08 82.52,79.75C82.52,79.42 82.52,79.08 82.52,78.75C82.52,78.42 82.51,78.09 82.51,77.76C82.51,77.43 82.51,77.1 82.51,76.77C82.51,76.44 82.51,76.11 82.51,75.78C82.51,75.45 82.51,75.12 82.51,74.79C82.51,74.46 82.51,74.12 82.51,73.79C82.51,73.46 82.51,73.13 82.51,72.8C82.51,72.47 82.51,72.14 82.51,71.81C82.51,71.48 82.51,71.15 82.51,70.82C82.51,70.49 82.51,70.16 82.51,69.83C82.51,69.5 82.51,69.16 82.51,68.83C82.51,68.5 82.51,68.17 82.51,67.84C82.51,67.51 82.51,67.18 82.51,66.85C82.51,66.52 82.51,66.19 82.51,65.86C82.51,65.53 82.51,65.2 82.51,64.87C82.51,64.54 82.5,64.2 82.5,63.87C82.5,63.54 82.5,63.21 82.5,62.88C82.5,62.55 82.5,62.22 82.5,61.89C82.5,61.56 82.5,61.23 82.5,60.9C82.5,60.57 82.5,60.24 82.5,59.91C82.5,59.58 82.5,59.24 82.5,58.91C82.5,58.58 82.5,58.25 82.5,57.92C82.5,57.59 82.5,57.26 82.5,56.93C82.5,56.6 82.5,56.27 82.5,55.94C82.5,55.61 82.5,55.28 82.5,54.95C82.5,54.62 82.5,54.28 82.5,53.95C82.5,53.62 82.5,53.29 82.5,52.96C82.5,52.63 82.5,52.3 82.5,51.97C82.5,51.64 82.5,51.31 82.5,50.98C82.5,50.65 82.5,50.32 82.5,49.99C82.5,49.66 82.5,49.32 82.5,48.99C82.5,48.66 82.5,48.33 82.5,48C82.5,47.67 82.5,47.34 82.5,47.01C82.5,46.68 82.5,46.35 82.5,46.02C82.5,45.69 82.5,45.36 82.5,45.03C82.5,44.7 82.5,44.36 82.5,44.03C82.5,43.7 82.5,43.37 82.5,43.04C82.5,42.71 82.5,42.38 82.5,42.05C82.5,41.72 82.5,41.39 82.5,41.06C82.5,40.73 82.5,40.4 82.5,40.07C82.5,39.74 82.5,39.4 82.5,39.07C82.5,38.74 82.5,38.41 82.5,38.08C82.5,37.75 82.5,37.42 82.5,37.09C82.5,36.76 82.5,36.43 82.5,36.1C82.5,35.77 82.5,35.44 82.5,35.11C82.5,34.78 82.5,34.44 82.5,34.11C82.5,33.78 82.5,33.45 82.5,33.12C82.5,32.79 82.5,32.46 82.5,32.13C82.5,31.8 82.5,31.47 82.5,31.14C82.5,30.81 82.5,30.48 82.5,30.15C82.5,29.82 82.5,29.48 82.5,29.15C82.5,28.82 82.5,28.49 82.5,28.16C82.5,27.83 82.5,27.5 82.5,27.17C82.5,26.84 82.5,26.51 82.5,26.18C82.5,25.85 82.5,25.52 82.5,25.19C82.5,24.86 82.5,24.52 82.5,24.19C82.5,23.86 82.5,23.53 82.5,23.2C82.5,22.87 82.5,22.54 82.5,22.21C82.5,21.88 82.5,21.55 82.5,21.22C82.5,20.89 82.5,20.56 82.5,20.23C82.5,19.9 82.5,19.56 82.5,19.23C82.5,18.9 82.5,18.57 82.5,18.24Q82.5,17.91 82.5,17.25L82.5,17.25Q82.5,17.91 82.5,18.24C82.5,18.57 82.5,18.9 82.5,19.23C82.5,19.56 82.5,19.9 82.5,20.23C82.5,20.56 82.5,20.89 82.5,21.22C82.5,21.55 82.5,21.88 82.5,22.21C82.5,22.54 82.5,22.87 82.5,23.2C82.5,23.53 82.5,23.86 82.5,24.19C82.5,24.52 82.5,24.86 82.5,25.19C82.5,25.52 82.5,25.85 82.5,26.18C82.5,26.51 82.5,26.84 82.5,27.17C82.5,27.5 82.5,27.83 82.5,28.16C82.5,28.49 82.5,28.82 82.5,29.15C82.5,29.48 82.5,29.82 82.5,30.15C82.5,30.48 82.5,30.81 82.5,31.14C82.5,31.47 82.5,31.8 82.5,32.13C82.5,32.46 82.5,32.79 82.5,33.12C82.5,33.45 82.5,33.78 82.5,34.11C82.5,34.44 82.5,34.78 82.5,35.11C82.5,35.44 82.5,35.77 82.5,36.1C82.5,36.43 82.5,36.76 82.5,37.09C82.5,37.42 82.5,37.75 82.5,38.08C82.5,38.41 82.5,38.74 82.5,39.07C82.5,39.4 82.5,39.74 82.5,40.07C82.5,40.4 82.5,40.73 82.5,41.06C82.5,41.39 82.5,41.72 82.5,42.05C82.5,42.38 82.5,42.71 82.5,43.04C82.5,43.37 82.5,43.7 82.5,44.03C82.5,44.36 82.5,44.7 82.5,45.03C82.5,45.36 82.5,45.69 82.5,46.02C82.5,46.35 82.5,46.68 82.5,47.01C82.5,47.34 82.5,47.67 82.5,48C82.5,48.33 82.5,48.66 82.5,48.99C82.5,49.32 82.5,49.66 82.5,49.99C82.5,50.32 82.5,50.65 82.5,50.98C82.5,51.31 82.5,51.64 82.5,51.97C82.5,52.3 82.5,52.63 82.5,52.96C82.5,53.29 82.5,53.62 82.5,53.95C82.5,54.28 82.5,54.62 82.5,54.95C82.5,55.28 82.5,55.61 82.5,55.94C82.5,56.27 82.5,56.6 82.5,56.93C82.5,57.26 82.5,57.59 82.5,57.92C82.5,58.25 82.5,58.58 82.5,58.91C82.5,59.24 82.5,59.58 82.5,59.91C82.5,60.24 82.5,60.57 82.5,60.9C82.5,61.23 82.5,61.56 82.5,61.89C82.5,62.22 82.5,62.55 82.5,62.88C82.5,63.21 82.5,63.54 82.5,63.87C82.5,64.2 82.49,64.54 82.49,64.87C82.49,65.2 82.49,65.53 82.49,65.86C82.49,66.19 82.49,66.52 82.49,66.85C82.49,67.18 82.49,67.51 82.49,67.84C82.49,68.17 82.49,68.5 82.49,68.83C82.49,69.16 82.49,69.5 82.49,69.83C82.49,70.16 82.49,70.49 82.49,70.82C82.49,71.15 82.49,71.48 82.49,71.81C82.49,72.14 82.49,72.47 82.49,72.8C82.49,73.13 82.49,73.46 82.49,73.79C82.49,74.12 82.49,74.46 82.49,74.79C82.49,75.12 82.49,75.45 82.49,75.78C82.49,76.11 82.49,76.44 82.49,76.77C82.49,77.1 82.49,77.43 82.49,77.76C82.49,78.09 82.48,78.42 82.48,78.75C82.48,79.08 82.48,79.42 82.48,79.75C82.48,80.08 82.48,80.41 82.48,80.74C82.48,81.07 82.48,81.4 82.48,81.73C82.48,82.06 82.48,82.39 82.48,82.72C82.48,83.05 82.48,83.38 82.48,83.71C82.48,84.04 82.48,84.38 82.48,84.71C82.48,85.04 82.47,85.37 82.47,85.7C82.47,86.03 82.47,86.36 82.47,86.69C82.47,87.02 82.47,87.35 82.47,87.68C82.47,88.01 82.46,88.34 82.46,88.67C82.46,89 82.46,89.34 82.46,89.67C82.46,90 82.45,90.33 82.45,90.66C82.45,90.99 82.45,91.32 82.45,91.65C82.45,91.98 82.44,92.31 82.44,92.64C82.44,92.97 82.43,93.3 82.43,93.63C82.43,93.96 82.42,94.3 82.42,94.63C82.42,94.96 82.41,95.29 82.41,95.62C82.4,95.95 82.4,96.28 82.39,96.61C82.39,96.94 82.39,97.27 82.38,97.6C82.37,97.93 82.36,98.27 82.35,98.6C82.34,98.93 82.33,99.26 82.32,99.59C82.31,99.92 82.29,100.25 82.28,100.58C82.26,100.91 82.25,101.24 82.23,101.57C82.21,101.9 82.19,102.23 82.17,102.56C82.14,102.89 82.11,103.23 82.08,103.56C82.05,103.89 82.02,104.22 81.98,104.55C81.94,104.88 81.91,105.21 81.86,105.54C81.81,105.87 81.76,106.2 81.7,106.53C81.64,106.86 81.58,107.19 81.51,107.52C81.44,107.85 81.36,108.19 81.27,108.52C81.18,108.85 81.08,109.18 80.97,109.51C80.86,109.84 80.74,110.17 80.61,110.5C80.48,110.83 80.34,111.16 80.18,111.49C80.02,111.82 79.85,112.15 79.66,112.48C79.47,112.82 79.26,113.15 79.04,113.48C78.81,113.82 78.57,114.14 78.31,114.47C78.04,114.81 77.76,115.14 77.46,115.46C77.15,115.8 76.82,116.13 76.48,116.45C76.12,116.79 75.75,117.11 75.36,117.44C74.96,117.78 74.54,118.11 74.11,118.44C73.66,118.78 73.2,119.11 72.72,119.43C72.23,119.77 71.71,120.09 71.19,120.42C70.65,120.75 70.1,121.08 69.54,121.41C68.96,121.74 68.37,122.07 67.77,122.4C67.16,122.74 66.54,123.07 65.91,123.4C65.27,123.73 64.63,124.06 63.98,124.39C63.33,124.72 62.66,125.05 62,125.38C61.34,125.71 60.66,126.04 60,126.37C59.34,126.7 58.68,127.03 58.03,127.36C57.38,127.69 56.74,128.03 56.11,128.36C55.49,128.69 54.87,129.02 54.27,129.35C53.68,129.68 53.11,130 52.55,130.34C52.01,130.66 51.49,130.99 50.99,131.33C50.51,131.65 50.03,131.98 49.59,132.32C49.17,132.64 48.77,132.98 48.4,133.32C48.05,133.64 47.72,133.97 47.43,134.31C47.16,134.63 46.91,134.96 46.7,135.3C46.51,135.62 46.34,135.95 46.22,136.29C46.11,136.61 46.02,136.95 45.99,137.28C45.96,137.61 45.97,137.95 46.02,138.28C46.07,138.61 46.17,138.95 46.3,139.27C46.43,139.61 46.6,139.94 46.8,140.26C47.01,140.6 47.26,140.93 47.52,141.25C47.8,141.59 48.11,141.92 48.43,142.24C48.77,142.58 49.14,142.91 49.52,143.24C49.91,143.58 50.33,143.9 50.76,144.23C51.2,144.56 51.65,144.89 52.12,145.22C52.6,145.55 53.09,145.88 53.59,146.21C54.1,146.54 54.61,146.87 55.13,147.2C55.66,147.53 56.19,147.87 56.73,148.2C57.27,148.53 57.82,148.86 58.36,149.19C58.9,149.52 59.45,149.85 59.99,150.18C60.53,150.51 61.07,150.84 61.6,151.17C62.13,151.5 62.66,151.83 63.18,152.16C63.7,152.49 64.21,152.83 64.71,153.16C65.21,153.49 65.7,153.82 66.18,154.15C66.65,154.48 67.12,154.81 67.58,155.14C68.03,155.47 68.47,155.8 68.9,156.13C69.32,156.46 69.74,156.79 70.14,157.12C70.54,157.45 70.92,157.78 71.3,158.12C71.67,158.45 72.03,158.78 72.38,159.11C72.72,159.44 73.05,159.77 73.37,160.1C73.68,160.43 73.99,160.76 74.28,161.09C74.56,161.42 74.84,161.75 75.1,162.08C75.36,162.41 75.61,162.74 75.85,163.08C76.09,163.41 76.31,163.74 76.53,164.07C76.74,164.4 76.94,164.73 77.13,165.06C77.32,165.39 77.5,165.72 77.67,166.05C77.84,166.38 78,166.71 78.15,167.04C78.3,167.37 78.45,167.71 78.58,168.04C78.71,168.37 78.83,168.7 78.95,169.03C79.07,169.36 79.18,169.69 79.29,170.02C79.39,170.35 79.49,170.68 79.58,171.01C79.67,171.34 79.77,171.67 79.85,172C79.93,172.33 80,172.67 80.07,173C80.14,173.33 80.21,173.66 80.27,173.99C80.33,174.32 80.39,174.65 80.45,174.98C80.5,175.31 80.55,175.64 80.6,175.97C80.65,176.3 80.69,176.63 80.73,176.96C80.77,177.29 80.81,177.63 80.85,177.96C80.89,178.29 80.92,178.62 80.95,178.95C80.98,179.28 81.01,179.61 81.04,179.94C81.07,180.27 81.09,180.6 81.12,180.93C81.14,181.26 81.17,181.59 81.19,181.92C81.21,182.25 81.24,182.59 81.26,182.92C81.28,183.25 81.29,183.58 81.31,183.91C81.33,184.24 81.34,184.57 81.36,184.9C81.37,185.23 81.39,185.56 81.4,185.89C81.41,186.22 81.43,186.55 81.44,186.88C81.45,187.21 81.46,187.55 81.47,187.88C81.48,188.21 81.49,188.54 81.5,188.87C81.51,189.2 81.52,189.53 81.53,189.86C81.54,190.19 81.54,190.52 81.55,190.85C81.56,191.18 81.57,191.51 81.58,191.84C81.59,192.17 81.59,192.51 81.6,192.84C81.61,193.17 81.61,193.5 81.62,193.83C81.63,194.16 81.63,194.49 81.64,194.82C81.65,195.15 81.65,195.48 81.66,195.81C81.67,196.14 81.67,196.47 81.68,196.8C81.69,197.13 81.69,197.47 81.7,197.8C81.7,198.13 81.71,198.46 81.71,198.79C81.72,199.12 81.72,199.45 81.73,199.78C81.73,200.11 81.74,200.44 81.74,200.77C81.75,201.1 81.76,201.43 81.76,201.76C81.77,202.09 81.77,202.43 81.77,202.76C81.77,203.09 81.78,203.42 81.78,203.75C81.78,204.08 81.79,204.41 81.79,204.74C81.8,205.07 81.8,205.4 81.81,205.73C81.81,206.06 81.82,206.39 81.82,206.72C81.82,207.05 81.83,207.39 81.83,207.72C81.83,208.05 81.84,208.38 81.84,208.71C81.84,209.04 81.85,209.37 81.85,209.7C81.85,210.03 81.86,210.36 81.86,210.69C81.86,211.02 81.86,211.35 81.86,211.68C81.86,212.01 81.87,212.35 81.87,212.68C81.87,213.01 81.88,213.34 81.88,213.67C81.88,214 81.88,214.33 81.88,214.66C81.88,214.99 81.88,215.32 81.88,215.65C81.88,215.98 81.89,216.31 81.89,216.64C81.89,216.97 81.9,217.31 81.9,217.64C81.9,217.97 81.9,218.3 81.9,218.63C81.9,218.96 81.91,219.29 81.91,219.62C81.91,219.95 81.92,220.28 81.92,220.61C81.92,220.94 81.93,221.27 81.93,221.6C81.93,221.93 81.93,222.27 81.93,222.6C81.93,222.93 81.94,223.26 81.94,223.59C81.94,223.92 81.95,224.25 81.95,224.58C81.95,224.91 81.96,225.24 81.96,225.57C81.96,225.9 81.96,226.23 81.96,226.56C81.96,226.89 81.97,227.23 81.97,227.56C81.97,227.89 81.97,228.22 81.97,228.55C81.97,228.88 81.97,229.21 81.97,229.54C81.97,229.87 81.98,230.2 81.98,230.53C81.98,230.86 81.98,231.19 81.98,231.52C81.98,231.85 81.98,232.19 81.98,232.52C81.98,232.85 81.99,233.18 81.99,233.51C81.99,233.84 81.99,234.17 81.99,234.5C81.99,234.83 82,235.16 82,235.49C82,235.82 82.01,236.15 82.01,236.48C82.01,236.81 82.01,237.15 82.01,237.48C82.01,237.81 82.02,238.14 82.02,238.47C82.02,238.8 82.03,239.13 82.03,239.46C82.03,239.79 82.03,240.12 82.03,240.45C82.03,240.78 82.04,241.11 82.04,241.44C82.04,241.77 82.04,242.11 82.04,242.44C82.04,242.77 82.04,243.1 82.04,243.43C82.04,243.76 82.05,244.09 82.05,244.42C82.05,244.75 82.05,245.08 82.05,245.41C82.05,245.74 82.05,246.07 82.05,246.4C82.05,246.73 82.06,247.07 82.06,247.4C82.06,247.73 82.06,248.06 82.06,248.39C82.06,248.72 82.06,249.05 82.06,249.38C82.06,249.71 82.06,250.04 82.06,250.37C82.06,250.7 82.06,251.04 82.06,251.37C82.06,251.7 82.06,252.03 82.06,252.36C82.06,252.69 82.06,253.02 82.06,253.35C82.06,253.68 82.07,254.01 82.07,254.34C82.07,254.67 82.07,255 82.07,255.33C82.07,255.66 82.08,256 82.08,256.33C82.08,256.66 82.08,256.99 82.08,257.32C82.08,257.65 82.09,257.98 82.09,258.31C82.09,258.64 82.09,258.97 82.09,259.3C82.09,259.63 82.1,259.96 82.1,260.29C82.1,260.62 82.1,260.96 82.1,261.29C82.1,261.62 82.1,261.95 82.1,262.28C82.1,262.61 82.11,262.94 82.11,263.27C82.11,263.6 82.11,263.93 82.11,264.26C82.11,264.59 82.11,264.92 82.11,265.25C82.11,265.58 82.11,265.92 82.11,266.25C82.11,266.58 82.11,266.91 82.11,267.24C82.11,267.57 82.11,267.9 82.11,268.23C82.11,268.56 82.11,268.89 82.11,269.22C82.11,269.55 82.12,269.88 82.12,270.21C82.12,270.54 82.12,270.88 82.12,271.21C82.12,271.54 82.12,271.87 82.12,272.2C82.12,272.53 82.12,272.86 82.12,273.19C82.12,273.52 82.12,273.85 82.12,274.18C82.12,274.51 82.12,274.84 82.12,275.17C82.12,275.5 82.12,275.84 82.12,276.17C82.12,276.5 82.12,276.83 82.12,277.16C82.12,277.49 82.12,277.82 82.12,278.15C82.12,278.48 82.13,278.81 82.13,279.14C82.13,279.47 82.13,279.8 82.13,280.13C82.13,280.46 82.13,280.8 82.13,281.13C82.13,281.46 82.13,281.79 82.13,282.12C82.13,282.45 82.13,282.78 82.13,283.11C82.13,283.44 82.13,283.77 82.13,284.1C82.13,284.43 82.13,284.76 82.13,285.09C82.13,285.42 82.13,285.76 82.13,286.09C82.13,286.42 82.13,286.75 82.13,287.08C82.13,287.41 82.13,287.74 82.13,288.07C82.13,288.4 82.13,288.73 82.13,289.06C82.13,289.39 82.13,289.72 82.13,290.05C82.13,290.38 82.13,290.72 82.13,291.05C82.13,291.38 82.13,291.71 82.13,292.04C82.13,292.37 82.13,292.7 82.13,293.03C82.13,293.36 82.12,293.69 82.12,294.02C82.12,294.35 82.12,294.68 82.12,295.01C82.12,295.34 82.12,295.68 82.12,296.01C82.12,296.34 82.12,296.67 82.12,297C82.12,297.33 82.12,297.66 82.12,297.99C82.12,298.32 82.12,298.65 82.12,298.98C82.12,299.31 82.11,299.64 82.11,299.97C82.11,300.3 82.11,300.64 82.11,300.97C82.11,301.3 82.1,301.63 82.1,301.96C82.1,302.29 82.1,302.62 82.1,302.95C82.1,303.28 82.09,303.61 82.09,303.94C82.09,304.27 82.09,304.6 82.09,304.93C82.09,305.26 82.08,305.6 82.08,305.93C82.08,306.26 82.07,306.59 82.07,306.92C82.07,307.25 82.06,307.58 82.06,307.91C82.05,308.24 82.05,308.57 82.04,308.9C82.03,309.23 82.02,309.56 82.01,309.89C82,310.22 81.99,310.56 81.97,310.89C81.95,311.22 81.93,311.55 81.91,311.88C81.89,312.21 81.86,312.54 81.83,312.87C81.8,313.2 81.76,313.53 81.71,313.86C81.66,314.19 81.61,314.52 81.54,314.85C81.47,315.18 81.4,315.52 81.31,315.85C81.22,316.18 81.12,316.51 81.02,316.84C80.92,317.17 80.8,317.5 80.69,317.83C80.58,318.16 80.47,318.49 80.38,318.82C80.29,319.15 80.2,319.48 80.15,319.81C80.1,320.14 80.06,320.48 80.07,320.81C80.08,321.14 80.11,321.47 80.18,321.8C80.25,322.13 80.35,322.46 80.47,322.79C80.59,323.12 80.75,323.45 80.89,323.78C81.04,324.11 81.2,324.44 81.34,324.77C81.48,325.1 81.62,325.44 81.74,325.77C81.86,326.1 81.97,326.43 82.06,326.76Q82.15,327.09 82.27,327.75Z" style="vector-effect: non-scaling-stroke; stroke-width: 2px; stroke: rgb(255, 127, 14); stroke-opacity: 1; fill: rgb(255, 127, 14); fill-opacity: 0.5;"/></g></g></g><g class="overplot"/><path class="xlines-above crisp" style="fill: none; stroke-width: 1px; stroke: rgb(36, 36, 36); stroke-opacity: 1;" d="M69,365.5H235"/><path class="ylines-above crisp" style="fill: none; stroke-width: 1px; stroke: rgb(36, 36, 36); stroke-opacity: 1;" d="M69.5,20V365"/><g class="overlines-above"/><g class="xaxislayer-above"><path class="xtick ticks crisp" d="M0,366v5" transform="translate(152.5,0)" style="stroke: rgb(68, 68, 68); stroke-opacity: 1; stroke-width: 1px;"/><g class="xtick"><text text-anchor="middle" x="0" y="385.4" transform="translate(152.5,0)" style="font-family: 'Open Sans', verdana, arial, sans-serif; font-size: 12px; fill: rgb(36, 36, 36); fill-opacity: 1; white-space: pre;"> </text></g></g><g class="yaxislayer-above"><path class="ytick ticks crisp" d="M69,0h-5" transform="translate(0,341.78)" style="stroke: rgb(68, 68, 68); stroke-opacity: 1; stroke-width: 1px;"/><path class="ytick ticks crisp" d="M69,0h-5" transform="translate(0,305.4)" style="stroke: rgb(68, 68, 68); stroke-opacity: 1; stroke-width: 1px;"/><path class="ytick ticks crisp" d="M69,0h-5" transform="translate(0,269.01)" style="stroke: rgb(68, 68, 68); stroke-opacity: 1; stroke-width: 1px;"/><path class="ytick ticks crisp" d="M69,0h-5" transform="translate(0,232.63)" style="stroke: rgb(68, 68, 68); stroke-opacity: 1; stroke-width: 1px;"/><path class="ytick ticks crisp" d="M69,0h-5" transform="translate(0,196.25)" style="stroke: rgb(68, 68, 68); stroke-opacity: 1; stroke-width: 1px;"/><path class="ytick ticks crisp" d="M69,0h-5" transform="translate(0,159.86)" style="stroke: rgb(68, 68, 68); stroke-opacity: 1; stroke-width: 1px;"/><path class="ytick ticks crisp" d="M69,0h-5" transform="translate(0,123.48)" style="stroke: rgb(68, 68, 68); stroke-opacity: 1; stroke-width: 1px;"/><path class="ytick ticks crisp" d="M69,0h-5" transform="translate(0,87.1)" style="stroke: rgb(68, 68, 68); stroke-opacity: 1; stroke-width: 1px;"/><path class="ytick ticks crisp" d="M69,0h-5" transform="translate(0,50.72)" style="stroke: rgb(68, 68, 68); stroke-opacity: 1; stroke-width: 1px;"/><g class="ytick"><text text-anchor="end" x="61.6" y="4.199999999999999" transform="translate(0,341.78)" style="font-family: 'Open Sans', verdana, arial, sans-serif; font-size: 12px; fill: rgb(36, 36, 36); fill-opacity: 1; white-space: pre;">10</text></g><g class="ytick"><text text-anchor="end" x="61.6" y="4.199999999999999" transform="translate(0,305.4)" style="font-family: 'Open Sans', verdana, arial, sans-serif; font-size: 12px; fill: rgb(36, 36, 36); fill-opacity: 1; white-space: pre;">8</text></g><g class="ytick"><text text-anchor="end" x="61.6" y="4.199999999999999" transform="translate(0,269.01)" style="font-family: 'Open Sans', verdana, arial, sans-serif; font-size: 12px; fill: rgb(36, 36, 36); fill-opacity: 1; white-space: pre;">6</text></g><g class="ytick"><text text-anchor="end" x="61.6" y="4.199999999999999" transform="translate(0,232.63)" style="font-family: 'Open Sans', verdana, arial, sans-serif; font-size: 12px; fill: rgb(36, 36, 36); fill-opacity: 1; white-space: pre;">4</text></g><g class="ytick"><text text-anchor="end" x="61.6" y="4.199999999999999" transform="translate(0,196.25)" style="font-family: 'Open Sans', verdana, arial, sans-serif; font-size: 12px; fill: rgb(36, 36, 36); fill-opacity: 1; white-space: pre;">2</text></g><g class="ytick"><text text-anchor="end" x="61.6" y="4.199999999999999" transform="translate(0,159.86)" style="font-family: 'Open Sans', verdana, arial, sans-serif; font-size: 12px; fill: rgb(36, 36, 36); fill-opacity: 1; white-space: pre;">0</text></g><g class="ytick"><text text-anchor="end" x="61.6" y="4.199999999999999" transform="translate(0,123.48)" style="font-family: 'Open Sans', verdana, arial, sans-serif; font-size: 12px; fill: rgb(36, 36, 36); fill-opacity: 1; white-space: pre;">2</text></g><g class="ytick"><text text-anchor="end" x="61.6" y="4.199999999999999" transform="translate(0,87.1)" style="font-family: 'Open Sans', verdana, arial, sans-serif; font-size: 12px; fill: rgb(36, 36, 36); fill-opacity: 1; white-space: pre;">4</text></g><g class="ytick"><text text-anchor="end" x="61.6" y="4.199999999999999" transform="translate(0,50.72)" style="font-family: 'Open Sans', verdana, arial, sans-serif; font-size: 12px; fill: rgb(36, 36, 36); fill-opacity: 1; white-space: pre;">6</text></g></g><g class="overaxes-above"/></g></g><g class="polarlayer"/><g class="ternarylayer"/><g class="geolayer"/><g class="funnelarealayer"/><g class="pielayer"/><g class="treemaplayer"/><g class="sunburstlayer"/><g class="glimages"/><defs id="topdefs-5cf650"><g class="clips"/><clipPath id="legend5cf650"><rect width="109" height="64" x="0" y="0"/></clipPath></defs><g class="layer-above"><g class="imagelayer"/><g class="shapelayer"/></g><g class="infolayer"><g class="legend" pointer-events="all" transform="translate(169,20)"><rect class="bg" shape-rendering="crispEdges" style="stroke: rgb(68, 68, 68); stroke-opacity: 1; fill: rgb(255, 255, 255); fill-opacity: 1; stroke-width: 0px;" width="109" height="64" x="0" y="0"/><g class="scrollbox" transform="" clip-path="url('#legend5cf650')"><text class="legendtitletext" text-anchor="start" x="2" y="15.600000000000001" style="font-family: 'Open Sans', verdana, arial, sans-serif; font-size: 12px; fill: rgb(36, 36, 36); fill-opacity: 1; white-space: pre;">cp_type</text><g class="groups" transform=""><g class="traces" transform="translate(0,30.1)" style="opacity: 1;"><text class="legendtext" text-anchor="start" x="40" y="4.680000000000001" style="font-family: 'Open Sans', verdana, arial, sans-serif; font-size: 12px; fill: rgb(36, 36, 36); fill-opacity: 1; white-space: pre;">ctl_vehicle</text><g class="layers" style="opacity: 1;"><g class="legendfill"/><g class="legendlines"/><g class="legendsymbols"><g class="legendpoints"><path class="legendbox" d="M6,6H-6V-6H6Z" transform="translate(20,0)" style="stroke-width: 2px; fill: rgb(31, 119, 180); fill-opacity: 0.5; stroke: rgb(31, 119, 180); stroke-opacity: 1;"/></g></g></g><rect class="legendtoggle" x="0" y="-9.5" width="103.734375" height="19" style="fill: rgb(0, 0, 0); fill-opacity: 0;"/></g></g><g class="groups" transform=""><g class="traces" transform="translate(0,49.1)" style="opacity: 1;"><text class="legendtext" text-anchor="start" x="40" y="4.680000000000001" style="font-family: 'Open Sans', verdana, arial, sans-serif; font-size: 12px; fill: rgb(36, 36, 36); fill-opacity: 1; white-space: pre;">trt_cp</text><g class="layers" style="opacity: 1;"><g class="legendfill"/><g class="legendlines"/><g class="legendsymbols"><g class="legendpoints"><path class="legendbox" d="M6,6H-6V-6H6Z" transform="translate(20,0)" style="stroke-width: 2px; fill: rgb(255, 127, 14); fill-opacity: 0.5; stroke: rgb(255, 127, 14); stroke-opacity: 1;"/></g></g></g><rect class="legendtoggle" x="0" y="-9.5" width="103.734375" height="19" style="fill: rgb(0, 0, 0); fill-opacity: 0;"/></g></g></g><rect class="scrollbar" rx="20" ry="3" width="0" height="0" style="fill: rgb(128, 139, 164); fill-opacity: 1;" x="0" y="0"/></g><g class="g-gtitle"/><g class="g-xtitle"/><g class="g-ytitle" transform="translate(2.2841796875,0)"><text class="ytitle" transform="rotate(-90,11.715625000000003,192.5)" x="11.715625000000003" y="192.5" text-anchor="middle" style="font-family: 'Open Sans', verdana, arial, sans-serif; font-size: 14px; fill: rgb(36, 36, 36); opacity: 1; font-weight: normal; white-space: pre;">Cell viability</text></g></g></svg>