<svg class="main-svg" xmlns="http://www.w3.org/2000/svg" xmlns:xlink="http://www.w3.org/1999/xlink" width="290" height="400" style="" viewBox="0 0 290 400"><rect x="0" y="0" width="290" height="400" style="fill: rgb(255, 255, 255); fill-opacity: 1;"/><defs id="defs-670359"><g class="clips"><clipPath id="clip670359xyplot" class="plotclip"><rect width="165" height="345"/></clipPath><clipPath class="axesclip" id="clip670359x"><rect x="70" y="0" width="165" height="400"/></clipPath><clipPath class="axesclip" id="clip670359y"><rect x="0" y="20" width="290" height="345"/></clipPath><clipPath class="axesclip" id="clip670359xy"><rect x="70" y="20" width="165" height="345"/></clipPath></g><g class="gradients"/></defs><g class="bglayer"/><g class="layer-below"><g class="imagelayer"/><g class="shapelayer"/></g><g class="cartesianlayer"><g class="subplot xy"><g class="layer-subplot"><g class="shapelayer"/><g class="imagelayer"/></g><g class="gridlayer"><g class="x"/><g class="y"/></g><g class="zerolinelayer"/><path class="xlines-below"/><path class="ylines-below"/><g class="overlines-below"/><g class="xaxislayer-below"/><g class="yaxislayer-below"/><g class="overaxes-below"/><g class="plot" transform="translate(70,20)" clip-path="url('#clip670359xyplot')"><g class="violinlayer mlayer"><g class="trace violins" style="opacity: 1;"><path class="violin" d="M82.5,327.75Q82.5,327.08 82.5,326.75C82.5,326.42 82.5,326.09 82.5,325.76C82.5,325.43 82.5,325.09 82.5,324.76C82.5,324.43 82.5,324.1 82.5,323.77C82.5,323.44 82.5,323.1 82.5,322.77C82.5,322.44 82.5,322.11 82.5,321.78C82.5,321.45 82.5,321.11 82.5,320.78C82.5,320.45 82.5,320.12 82.5,319.79C82.5,319.46 82.5,319.12 82.5,318.79C82.5,318.46 82.5,318.13 82.5,317.8C82.5,317.47 82.5,317.13 82.5,316.8C82.5,316.47 82.5,316.14 82.5,315.81C82.5,315.48 82.5,315.14 82.5,314.81C82.5,314.48 82.5,314.15 82.5,313.82C82.5,313.49 82.5,313.15 82.5,312.82C82.5,312.49 82.5,312.16 82.5,311.83C82.5,311.5 82.5,311.16 82.5,310.83C82.5,310.5 82.5,310.17 82.5,309.84C82.5,309.51 82.5,309.17 82.5,308.84C82.5,308.51 82.5,308.18 82.5,307.85C82.5,307.52 82.5,307.18 82.5,306.85C82.5,306.52 82.5,306.19 82.5,305.86C82.5,305.53 82.5,305.19 82.5,304.86C82.5,304.53 82.5,304.2 82.5,303.87C82.5,303.54 82.5,303.2 82.5,302.87C82.5,302.54 82.5,302.21 82.5,301.88C82.5,301.55 82.5,301.21 82.5,300.88C82.5,300.55 82.5,300.21 82.5,299.88C82.5,299.55 82.5,299.22 82.5,298.89C82.5,298.56 82.5,298.22 82.5,297.89C82.5,297.56 82.5,297.23 82.5,296.9C82.5,296.57 82.5,296.23 82.5,295.9C82.5,295.57 82.5,295.24 82.5,294.91C82.5,294.58 82.5,294.24 82.5,293.91C82.5,293.58 82.5,293.25 82.5,292.92C82.5,292.59 82.5,292.25 82.5,291.92C82.5,291.59 82.5,291.26 82.5,290.93C82.5,290.6 82.5,290.26 82.5,289.93C82.5,289.6 82.5,289.27 82.5,288.94C82.5,288.61 82.5,288.27 82.5,287.94C82.5,287.61 82.5,287.28 82.5,286.95C82.5,286.62 82.5,286.28 82.5,285.95C82.5,285.62 82.5,285.29 82.5,284.96C82.5,284.63 82.5,284.29 82.5,283.96C82.5,283.63 82.5,283.3 82.5,282.97C82.5,282.64 82.5,282.3 82.5,281.97C82.5,281.64 82.5,281.31 82.5,280.98C82.5,280.65 82.5,280.31 82.5,279.98C82.5,279.65 82.5,279.32 82.5,278.99C82.5,278.66 82.5,278.32 82.5,277.99C82.5,277.66 82.5,277.33 82.5,277C82.5,276.67 82.5,276.33 82.5,276C82.5,275.67 82.5,275.33 82.5,275C82.5,274.67 82.5,274.34 82.5,274.01C82.5,273.68 82.51,273.34 82.51,273.01C82.51,272.68 82.51,272.35 82.51,272.02C82.51,271.69 82.51,271.35 82.51,271.02C82.51,270.69 82.51,270.36 82.51,270.03C82.51,269.7 82.51,269.36 82.51,269.03C82.51,268.7 82.51,268.37 82.51,268.04C82.51,267.71 82.51,267.37 82.51,267.04C82.51,266.71 82.51,266.38 82.51,266.05C82.51,265.72 82.51,265.38 82.51,265.05C82.51,264.72 82.51,264.39 82.51,264.06C82.51,263.73 82.52,263.39 82.52,263.06C82.52,262.73 82.52,262.4 82.52,262.07C82.52,261.74 82.53,261.4 82.53,261.07C82.53,260.74 82.53,260.41 82.53,260.08C82.53,259.75 82.54,259.41 82.54,259.08C82.54,258.75 82.55,258.42 82.55,258.09C82.55,257.76 82.56,257.42 82.56,257.09C82.56,256.76 82.56,256.43 82.56,256.1C82.56,255.77 82.57,255.43 82.57,255.1C82.57,254.77 82.58,254.44 82.58,254.11C82.58,253.78 82.59,253.44 82.59,253.11C82.59,252.78 82.6,252.45 82.6,252.12C82.6,251.79 82.61,251.45 82.61,251.12C82.61,250.79 82.62,250.46 82.62,250.13C82.62,249.8 82.63,249.46 82.63,249.13C82.63,248.8 82.64,248.46 82.64,248.13C82.64,247.8 82.65,247.47 82.65,247.14C82.65,246.81 82.65,246.47 82.65,246.14C82.65,245.81 82.65,245.48 82.65,245.15C82.65,244.82 82.65,244.48 82.65,244.15C82.65,243.82 82.65,243.49 82.65,243.16C82.65,242.83 82.65,242.49 82.65,242.16C82.65,241.83 82.64,241.5 82.64,241.17C82.64,240.84 82.64,240.5 82.64,240.17C82.64,239.84 82.63,239.51 82.63,239.18C82.63,238.85 82.63,238.51 82.63,238.18C82.63,237.85 82.62,237.52 82.62,237.19C82.62,236.86 82.62,236.52 82.62,236.19C82.62,235.86 82.62,235.53 82.62,235.2C82.62,234.87 82.62,234.53 82.62,234.2C82.62,233.87 82.62,233.54 82.62,233.21C82.62,232.88 82.62,232.54 82.62,232.21C82.62,231.88 82.62,231.55 82.62,231.22C82.62,230.89 82.62,230.55 82.62,230.22C82.62,229.89 82.63,229.56 82.63,229.23C82.63,228.9 82.64,228.56 82.64,228.23C82.64,227.9 82.65,227.57 82.65,227.24C82.65,226.91 82.66,226.57 82.66,226.24C82.66,225.91 82.67,225.58 82.67,225.25C82.68,224.92 82.68,224.58 82.69,224.25C82.7,223.92 82.7,223.58 82.71,223.25C82.71,222.92 82.72,222.59 82.72,222.26C82.73,221.93 82.73,221.59 82.74,221.26C82.75,220.93 82.76,220.6 82.77,220.27C82.78,219.94 82.78,219.6 82.79,219.27C82.8,218.94 82.81,218.61 82.82,218.28C82.83,217.95 82.84,217.61 82.85,217.28C82.86,216.95 82.88,216.62 82.89,216.29C82.9,215.96 82.91,215.62 82.93,215.29C82.94,214.96 82.96,214.63 82.98,214.3C83,213.97 83.02,213.63 83.04,213.3C83.06,212.97 83.08,212.64 83.1,212.31C83.12,211.98 83.15,211.64 83.18,211.31C83.21,210.98 83.23,210.65 83.26,210.32C83.29,209.99 83.33,209.65 83.37,209.32C83.41,208.99 83.45,208.66 83.49,208.33C83.53,208 83.58,207.66 83.63,207.33C83.68,207 83.75,206.67 83.81,206.34C83.87,206.01 83.94,205.67 84.01,205.34C84.08,205.01 84.16,204.68 84.24,204.35C84.32,204.02 84.41,203.68 84.5,203.35C84.59,203.02 84.69,202.69 84.79,202.36C84.9,202.03 85.01,201.69 85.13,201.36C85.25,201.03 85.38,200.7 85.52,200.37C85.66,200.04 85.8,199.7 85.96,199.37C86.12,199.04 86.3,198.71 86.48,198.38C86.66,198.05 86.85,197.71 87.06,197.38C87.27,197.04 87.5,196.71 87.73,196.38C87.97,196.05 88.22,195.72 88.48,195.39C88.75,195.05 89.03,194.72 89.33,194.39C89.63,194.05 89.95,193.73 90.28,193.4C90.62,193.06 90.97,192.73 91.34,192.4C91.72,192.06 92.11,191.74 92.51,191.41C92.92,191.07 93.35,190.74 93.79,190.41C94.24,190.07 94.71,189.75 95.19,189.42C95.68,189.08 96.18,188.75 96.69,188.42C97.21,188.08 97.75,187.76 98.29,187.43C98.84,187.09 99.41,186.76 99.98,186.43C100.56,186.1 101.16,185.77 101.75,185.44C102.35,185.11 102.96,184.77 103.57,184.44C104.18,184.11 104.8,183.78 105.42,183.45C106.04,183.12 106.66,182.78 107.28,182.45C107.9,182.12 108.52,181.79 109.13,181.46C109.73,181.13 110.33,180.79 110.92,180.46C111.5,180.13 112.08,179.81 112.64,179.47C113.19,179.14 113.74,178.81 114.26,178.47C114.77,178.14 115.27,177.82 115.74,177.48C116.2,177.15 116.64,176.82 117.05,176.48C117.44,176.16 117.81,175.83 118.14,175.49C118.45,175.17 118.75,174.83 118.99,174.49C119.21,174.17 119.41,173.84 119.54,173.5C119.66,173.18 119.74,172.83 119.76,172.5C119.78,172.17 119.73,171.83 119.64,171.5C119.54,171.16 119.37,170.83 119.18,170.51C118.97,170.17 118.7,169.83 118.41,169.51C118.1,169.17 117.75,168.84 117.39,168.52C117.01,168.18 116.59,167.85 116.16,167.52C115.72,167.18 115.25,166.86 114.77,166.53C114.28,166.19 113.76,165.86 113.24,165.53C112.71,165.19 112.15,164.87 111.6,164.54C111.03,164.21 110.46,163.87 109.88,163.54C109.29,163.21 108.7,162.88 108.1,162.55C107.5,162.22 106.89,161.88 106.28,161.55C105.67,161.22 105.06,160.89 104.45,160.56C103.84,160.23 103.23,159.89 102.63,159.56C102.04,159.23 101.44,158.9 100.86,158.57C100.28,158.24 99.7,157.91 99.14,157.57C98.59,157.24 98.04,156.91 97.51,156.58C96.99,156.25 96.47,155.92 95.97,155.58C95.48,155.25 95,154.93 94.53,154.59C94.07,154.26 93.62,153.93 93.19,153.59C92.77,153.26 92.36,152.94 91.96,152.6C91.57,152.27 91.19,151.94 90.83,151.6C90.48,151.27 90.14,150.95 89.82,150.61C89.5,150.28 89.19,149.95 88.9,149.61C88.62,149.28 88.35,148.95 88.09,148.62C87.84,148.29 87.59,147.96 87.36,147.62C87.14,147.29 86.93,146.96 86.73,146.63C86.53,146.3 86.35,145.97 86.17,145.63C86,145.3 85.83,144.96 85.68,144.63C85.53,144.3 85.39,143.97 85.26,143.64C85.13,143.31 85.01,142.97 84.9,142.64C84.79,142.31 84.69,141.98 84.59,141.65C84.49,141.32 84.4,140.98 84.32,140.65C84.24,140.32 84.16,139.99 84.09,139.66C84.02,139.33 83.95,138.99 83.89,138.66C83.83,138.33 83.77,138 83.72,137.67C83.67,137.34 83.62,137 83.57,136.67C83.52,136.34 83.48,136.01 83.44,135.68C83.4,135.35 83.36,135.01 83.32,134.68C83.29,134.35 83.26,134.02 83.23,133.69C83.2,133.36 83.17,133.02 83.14,132.69C83.11,132.36 83.09,132.03 83.07,131.7C83.05,131.37 83.03,131.03 83.01,130.7C82.99,130.37 82.97,130.04 82.96,129.71C82.94,129.38 82.93,129.04 82.92,128.71C82.91,128.38 82.89,128.05 82.88,127.72C82.87,127.39 82.86,127.05 82.85,126.72C82.84,126.39 82.83,126.06 82.82,125.73C82.81,125.4 82.8,125.06 82.79,124.73C82.78,124.4 82.78,124.07 82.77,123.74C82.76,123.41 82.76,123.07 82.75,122.74C82.74,122.41 82.74,122.08 82.73,121.75C82.72,121.42 82.72,121.08 82.71,120.75C82.71,120.42 82.71,120.08 82.7,119.75C82.7,119.42 82.68,119.09 82.68,118.76C82.67,118.43 82.67,118.09 82.67,117.76C82.67,117.43 82.66,117.1 82.66,116.77C82.66,116.44 82.65,116.1 82.65,115.77C82.65,115.44 82.64,115.11 82.64,114.78C82.64,114.45 82.63,114.11 82.63,113.78C82.63,113.45 82.62,113.12 82.62,112.79C82.62,112.46 82.62,112.12 82.62,111.79C82.62,111.46 82.61,111.13 82.61,110.8C82.61,110.47 82.61,110.13 82.61,109.8C82.61,109.47 82.61,109.14 82.61,108.81C82.61,108.48 82.62,108.14 82.62,107.81C82.62,107.48 82.62,107.15 82.62,106.82C82.62,106.49 82.62,106.15 82.62,105.82C82.62,105.49 82.62,105.16 82.62,104.83C82.62,104.5 82.62,104.16 82.62,103.83C82.62,103.5 82.62,103.17 82.62,102.84C82.62,102.51 82.62,102.17 82.62,101.84C82.62,101.51 82.62,101.18 82.62,100.85C82.62,100.52 82.62,100.18 82.62,99.85C82.62,99.52 82.61,99.19 82.61,98.86C82.61,98.53 82.61,98.19 82.61,97.86C82.61,97.53 82.6,97.2 82.6,96.87C82.6,96.54 82.6,96.2 82.6,95.87C82.6,95.54 82.59,95.21 82.59,94.88C82.59,94.55 82.59,94.21 82.59,93.88C82.59,93.55 82.58,93.21 82.58,92.88C82.58,92.55 82.57,92.22 82.57,91.89C82.57,91.56 82.56,91.22 82.56,90.89C82.56,90.56 82.56,90.23 82.56,89.9C82.56,89.57 82.55,89.23 82.55,88.9C82.55,88.57 82.54,88.24 82.54,87.91C82.54,87.58 82.54,87.24 82.54,86.91C82.54,86.58 82.53,86.25 82.53,85.92C82.53,85.59 82.53,85.25 82.53,84.92C82.53,84.59 82.52,84.26 82.52,83.93C82.52,83.6 82.52,83.26 82.52,82.93C82.52,82.6 82.52,82.27 82.52,81.94C82.52,81.61 82.51,81.27 82.51,80.94C82.51,80.61 82.51,80.28 82.51,79.95C82.51,79.62 82.51,79.28 82.51,78.95C82.51,78.62 82.51,78.29 82.51,77.96C82.51,77.63 82.51,77.29 82.51,76.96C82.51,76.63 82.51,76.3 82.51,75.97C82.51,75.64 82.51,75.3 82.51,74.97C82.51,74.64 82.51,74.31 82.51,73.98C82.51,73.65 82.51,73.31 82.51,72.98C82.51,72.65 82.51,72.32 82.51,71.99C82.51,71.66 82.5,71.32 82.5,70.99C82.5,70.66 82.5,70.33 82.5,70C82.5,69.67 82.5,69.33 82.5,69C82.5,68.67 82.5,68.33 82.5,68C82.5,67.67 82.5,67.34 82.5,67.01C82.5,66.68 82.5,66.34 82.5,66.01C82.5,65.68 82.5,65.35 82.5,65.02C82.5,64.69 82.5,64.35 82.5,64.02C82.5,63.69 82.5,63.36 82.5,63.03C82.5,62.7 82.5,62.36 82.5,62.03C82.5,61.7 82.5,61.37 82.5,61.04C82.5,60.71 82.5,60.37 82.5,60.04C82.5,59.71 82.5,59.38 82.5,59.05C82.5,58.72 82.5,58.38 82.5,58.05C82.5,57.72 82.5,57.39 82.5,57.06C82.5,56.73 82.5,56.39 82.5,56.06C82.5,55.73 82.5,55.4 82.5,55.07C82.5,54.74 82.5,54.4 82.5,54.07C82.5,53.74 82.5,53.41 82.5,53.08C82.5,52.75 82.5,52.41 82.5,52.08C82.5,51.75 82.5,51.42 82.5,51.09C82.5,50.76 82.5,50.42 82.5,50.09C82.5,49.76 82.5,49.43 82.5,49.1C82.5,48.77 82.5,48.43 82.5,48.1C82.5,47.77 82.5,47.44 82.5,47.11C82.5,46.78 82.5,46.44 82.5,46.11C82.5,45.78 82.5,45.45 82.5,45.12C82.5,44.79 82.5,44.45 82.5,44.12C82.5,43.79 82.5,43.46 82.5,43.13C82.5,42.8 82.5,42.46 82.5,42.13C82.5,41.8 82.5,41.46 82.5,41.13C82.5,40.8 82.5,40.47 82.5,40.14C82.5,39.81 82.5,39.47 82.5,39.14C82.5,38.81 82.5,38.48 82.5,38.15C82.5,37.82 82.5,37.48 82.5,37.15C82.5,36.82 82.5,36.49 82.5,36.16C82.5,35.83 82.5,35.49 82.5,35.16C82.5,34.83 82.5,34.5 82.5,34.17C82.5,33.84 82.5,33.5 82.5,33.17C82.5,32.84 82.5,32.51 82.5,32.18C82.5,31.85 82.5,31.51 82.5,31.18C82.5,30.85 82.5,30.52 82.5,30.19C82.5,29.86 82.5,29.52 82.5,29.19C82.5,28.86 82.5,28.53 82.5,28.2C82.5,27.87 82.5,27.53 82.5,27.2C82.5,26.87 82.5,26.54 82.5,26.21C82.5,25.88 82.5,25.54 82.5,25.21C82.5,24.88 82.5,24.55 82.5,24.22C82.5,23.89 82.5,23.55 82.5,23.22C82.5,22.89 82.5,22.56 82.5,22.23C82.5,21.9 82.5,21.56 82.5,21.23C82.5,20.9 82.5,20.57 82.5,20.24C82.5,19.91 82.5,19.57 82.5,19.24C82.5,18.91 82.5,18.58 82.5,18.25Q82.5,17.92 82.5,17.25L82.5,17.25Q82.5,17.92 82.5,18.25C82.5,18.58 82.5,18.91 82.5,19.24C82.5,19.57 82.5,19.91 82.5,20.24C82.5,20.57 82.5,20.9 82.5,21.23C82.5,21.56 82.5,21.9 82.5,22.23C82.5,22.56 82.5,22.89 82.5,23.22C82.5,23.55 82.5,23.89 82.5,24.22C82.5,24.55 82.5,24.88 82.5,25.21C82.5,25.54 82.5,25.88 82.5,26.21C82.5,26.54 82.5,26.87 82.5,27.2C82.5,27.53 82.5,27.87 82.5,28.2C82.5,28.53 82.5,28.86 82.5,29.19C82.5,29.52 82.5,29.86 82.5,30.19C82.5,30.52 82.5,30.85 82.5,31.18C82.5,31.51 82.5,31.85 82.5,32.18C82.5,32.51 82.5,32.84 82.5,33.17C82.5,33.5 82.5,33.84 82.5,34.17C82.5,34.5 82.5,34.83 82.5,35.16C82.5,35.49 82.5,35.83 82.5,36.16C82.5,36.49 82.5,36.82 82.5,37.15C82.5,37.48 82.5,37.82 82.5,38.15C82.5,38.48 82.5,38.81 82.5,39.14C82.5,39.47 82.5,39.81 82.5,40.14C82.5,40.47 82.5,40.8 82.5,41.13C82.5,41.46 82.5,41.8 82.5,42.13C82.5,42.46 82.5,42.8 82.5,43.13C82.5,43.46 82.5,43.79 82.5,44.12C82.5,44.45 82.5,44.79 82.5,45.12C82.5,45.45 82.5,45.78 82.5,46.11C82.5,46.44 82.5,46.78 82.5,47.11C82.5,47.44 82.5,47.77 82.5,48.1C82.5,48.43 82.5,48.77 82.5,49.1C82.5,49.43 82.5,49.76 82.5,50.09C82.5,50.42 82.5,50.76 82.5,51.09C82.5,51.42 82.5,51.75 82.5,52.08C82.5,52.41 82.5,52.75 82.5,53.08C82.5,53.41 82.5,53.74 82.5,54.07C82.5,54.4 82.5,54.74 82.5,55.07C82.5,55.4 82.5,55.73 82.5,56.06C82.5,56.39 82.5,56.73 82.5,57.06C82.5,57.39 82.5,57.72 82.5,58.05C82.5,58.38 82.5,58.72 82.5,59.05C82.5,59.38 82.5,59.71 82.5,60.04C82.5,60.37 82.5,60.71 82.5,61.04C82.5,61.37 82.5,61.7 82.5,62.03C82.5,62.36 82.5,62.7 82.5,63.03C82.5,63.36 82.5,63.69 82.5,64.02C82.5,64.35 82.5,64.69 82.5,65.02C82.5,65.35 82.5,65.68 82.5,66.01C82.5,66.34 82.5,66.68 82.5,67.01C82.5,67.34 82.5,67.67 82.5,68C82.5,68.33 82.5,68.67 82.5,69C82.5,69.33 82.5,69.67 82.5,70C82.5,70.33 82.5,70.66 82.5,70.99C82.5,71.32 82.49,71.66 82.49,71.99C82.49,72.32 82.49,72.65 82.49,72.98C82.49,73.31 82.49,73.65 82.49,73.98C82.49,74.31 82.49,74.64 82.49,74.97C82.49,75.3 82.49,75.64 82.49,75.97C82.49,76.3 82.49,76.63 82.49,76.96C82.49,77.29 82.49,77.63 82.49,77.96C82.49,78.29 82.49,78.62 82.49,78.95C82.49,79.28 82.49,79.62 82.49,79.95C82.49,80.28 82.49,80.61 82.49,80.94C82.49,81.27 82.48,81.61 82.48,81.94C82.48,82.27 82.48,82.6 82.48,82.93C82.48,83.26 82.48,83.6 82.48,83.93C82.48,84.26 82.47,84.59 82.47,84.92C82.47,85.25 82.47,85.59 82.47,85.92C82.47,86.25 82.46,86.58 82.46,86.91C82.46,87.24 82.46,87.58 82.46,87.91C82.46,88.24 82.45,88.57 82.45,88.9C82.45,89.23 82.44,89.57 82.44,89.9C82.44,90.23 82.44,90.56 82.44,90.89C82.44,91.22 82.43,91.56 82.43,91.89C82.43,92.22 82.42,92.55 82.42,92.88C82.42,93.21 82.41,93.55 82.41,93.88C82.41,94.21 82.41,94.55 82.41,94.88C82.41,95.21 82.4,95.54 82.4,95.87C82.4,96.2 82.4,96.54 82.4,96.87C82.4,97.2 82.39,97.53 82.39,97.86C82.39,98.19 82.39,98.53 82.39,98.86C82.39,99.19 82.38,99.52 82.38,99.85C82.38,100.18 82.38,100.52 82.38,100.85C82.38,101.18 82.38,101.51 82.38,101.84C82.38,102.17 82.38,102.51 82.38,102.84C82.38,103.17 82.38,103.5 82.38,103.83C82.38,104.16 82.38,104.5 82.38,104.83C82.38,105.16 82.38,105.49 82.38,105.82C82.38,106.15 82.38,106.49 82.38,106.82C82.38,107.15 82.38,107.48 82.38,107.81C82.38,108.14 82.39,108.48 82.39,108.81C82.39,109.14 82.39,109.47 82.39,109.8C82.39,110.13 82.39,110.47 82.39,110.8C82.39,111.13 82.38,111.46 82.38,111.79C82.38,112.12 82.38,112.46 82.38,112.79C82.38,113.12 82.37,113.45 82.37,113.78C82.37,114.11 82.36,114.45 82.36,114.78C82.36,115.11 82.35,115.44 82.35,115.77C82.35,116.1 82.34,116.44 82.34,116.77C82.34,117.1 82.33,117.43 82.33,117.76C82.33,118.09 82.33,118.43 82.32,118.76C82.32,119.09 82.3,119.42 82.3,119.75C82.29,120.08 82.29,120.42 82.29,120.75C82.28,121.08 82.28,121.42 82.27,121.75C82.26,122.08 82.26,122.41 82.25,122.74C82.24,123.07 82.24,123.41 82.23,123.74C82.22,124.07 82.22,124.4 82.21,124.73C82.2,125.06 82.19,125.4 82.18,125.73C82.17,126.06 82.16,126.39 82.15,126.72C82.14,127.05 82.13,127.39 82.12,127.72C82.11,128.05 82.09,128.38 82.08,128.71C82.07,129.04 82.06,129.38 82.04,129.71C82.03,130.04 82.01,130.37 81.99,130.7C81.97,131.03 81.95,131.37 81.93,131.7C81.91,132.03 81.89,132.36 81.86,132.69C81.83,133.02 81.8,133.36 81.77,133.69C81.74,134.02 81.71,134.35 81.68,134.68C81.64,135.01 81.6,135.35 81.56,135.68C81.52,136.01 81.48,136.34 81.43,136.67C81.38,137 81.33,137.34 81.28,137.67C81.23,138 81.17,138.33 81.11,138.66C81.05,138.99 80.98,139.33 80.91,139.66C80.84,139.99 80.76,140.32 80.68,140.65C80.6,140.98 80.51,141.32 80.41,141.65C80.31,141.98 80.21,142.31 80.1,142.64C79.99,142.97 79.87,143.31 79.74,143.64C79.61,143.97 79.47,144.3 79.32,144.63C79.17,144.96 79,145.3 78.83,145.63C78.65,145.97 78.47,146.3 78.27,146.63C78.07,146.96 77.86,147.29 77.64,147.62C77.41,147.96 77.16,148.29 76.91,148.62C76.65,148.95 76.38,149.28 76.1,149.61C75.81,149.95 75.5,150.28 75.18,150.61C74.86,150.95 74.52,151.27 74.17,151.6C73.81,151.94 73.43,152.27 73.04,152.6C72.64,152.94 72.23,153.26 71.81,153.59C71.38,153.93 70.93,154.26 70.47,154.59C70,154.93 69.52,155.25 69.03,155.58C68.53,155.92 68.01,156.25 67.49,156.58C66.96,156.91 66.41,157.24 65.86,157.57C65.3,157.91 64.72,158.24 64.14,158.57C63.56,158.9 62.96,159.23 62.37,159.56C61.77,159.89 61.16,160.23 60.55,160.56C59.94,160.89 59.33,161.22 58.72,161.55C58.11,161.88 57.5,162.22 56.9,162.55C56.3,162.88 55.71,163.21 55.12,163.54C54.54,163.87 53.97,164.21 53.4,164.54C52.85,164.87 52.29,165.19 51.76,165.53C51.24,165.86 50.72,166.19 50.23,166.53C49.75,166.86 49.28,167.18 48.84,167.52C48.41,167.85 47.99,168.18 47.61,168.52C47.25,168.84 46.9,169.17 46.59,169.51C46.3,169.83 46.03,170.17 45.82,170.51C45.63,170.83 45.46,171.16 45.36,171.5C45.27,171.83 45.22,172.17 45.24,172.5C45.26,172.83 45.34,173.18 45.46,173.5C45.59,173.84 45.79,174.17 46.01,174.49C46.25,174.83 46.55,175.17 46.86,175.49C47.19,175.83 47.56,176.16 47.95,176.48C48.36,176.82 48.8,177.15 49.26,177.48C49.73,177.82 50.23,178.14 50.74,178.47C51.26,178.81 51.81,179.14 52.36,179.47C52.92,179.81 53.5,180.13 54.08,180.46C54.67,180.79 55.27,181.13 55.87,181.46C56.48,181.79 57.1,182.12 57.72,182.45C58.34,182.78 58.96,183.12 59.58,183.45C60.2,183.78 60.82,184.11 61.43,184.44C62.04,184.77 62.65,185.11 63.25,185.44C63.84,185.77 64.44,186.1 65.02,186.43C65.59,186.76 66.16,187.09 66.71,187.43C67.25,187.76 67.79,188.08 68.31,188.42C68.82,188.75 69.32,189.08 69.81,189.42C70.29,189.75 70.76,190.07 71.21,190.41C71.65,190.74 72.08,191.07 72.49,191.41C72.89,191.74 73.28,192.06 73.66,192.4C74.03,192.73 74.38,193.06 74.72,193.4C75.05,193.73 75.37,194.05 75.67,194.39C75.97,194.72 76.25,195.05 76.52,195.39C76.78,195.72 77.03,196.05 77.27,196.38C77.5,196.71 77.73,197.04 77.94,197.38C78.15,197.71 78.34,198.05 78.52,198.38C78.7,198.71 78.88,199.04 79.04,199.37C79.2,199.7 79.34,200.04 79.48,200.37C79.62,200.7 79.75,201.03 79.87,201.36C79.99,201.69 80.1,202.03 80.21,202.36C80.31,202.69 80.41,203.02 80.5,203.35C80.59,203.68 80.68,204.02 80.76,204.35C80.84,204.68 80.92,205.01 80.99,205.34C81.06,205.67 81.13,206.01 81.19,206.34C81.25,206.67 81.32,207 81.37,207.33C81.42,207.66 81.47,208 81.51,208.33C81.55,208.66 81.59,208.99 81.63,209.32C81.67,209.65 81.71,209.99 81.74,210.32C81.77,210.65 81.79,210.98 81.82,211.31C81.85,211.64 81.88,211.98 81.9,212.31C81.92,212.64 81.94,212.97 81.96,213.3C81.98,213.63 82,213.97 82.02,214.3C82.04,214.63 82.06,214.96 82.07,215.29C82.09,215.62 82.1,215.96 82.11,216.29C82.12,216.62 82.14,216.95 82.15,217.28C82.16,217.61 82.17,217.95 82.18,218.28C82.19,218.61 82.2,218.94 82.21,219.27C82.22,219.6 82.22,219.94 82.23,220.27C82.24,220.6 82.25,220.93 82.26,221.26C82.27,221.59 82.27,221.93 82.28,222.26C82.28,222.59 82.29,222.92 82.29,223.25C82.3,223.58 82.3,223.92 82.31,224.25C82.32,224.58 82.32,224.92 82.33,225.25C82.33,225.58 82.34,225.91 82.34,226.24C82.34,226.57 82.35,226.91 82.35,227.24C82.35,227.57 82.36,227.9 82.36,228.23C82.36,228.56 82.37,228.9 82.37,229.23C82.37,229.56 82.38,229.89 82.38,230.22C82.38,230.55 82.38,230.89 82.38,231.22C82.38,231.55 82.38,231.88 82.38,232.21C82.38,232.54 82.38,232.88 82.38,233.21C82.38,233.54 82.38,233.87 82.38,234.2C82.38,234.53 82.38,234.87 82.38,235.2C82.38,235.53 82.38,235.86 82.38,236.19C82.38,236.52 82.38,236.86 82.38,237.19C82.38,237.52 82.37,237.85 82.37,238.18C82.37,238.51 82.37,238.85 82.37,239.18C82.37,239.51 82.36,239.84 82.36,240.17C82.36,240.5 82.36,240.84 82.36,241.17C82.36,241.5 82.35,241.83 82.35,242.16C82.35,242.49 82.35,242.83 82.35,243.16C82.35,243.49 82.35,243.82 82.35,244.15C82.35,244.48 82.35,244.82 82.35,245.15C82.35,245.48 82.35,245.81 82.35,246.14C82.35,246.47 82.35,246.81 82.35,247.14C82.35,247.47 82.36,247.8 82.36,248.13C82.36,248.46 82.37,248.8 82.37,249.13C82.37,249.46 82.38,249.8 82.38,250.13C82.38,250.46 82.39,250.79 82.39,251.12C82.39,251.45 82.4,251.79 82.4,252.12C82.4,252.45 82.41,252.78 82.41,253.11C82.41,253.44 82.42,253.78 82.42,254.11C82.42,254.44 82.43,254.77 82.43,255.1C82.43,255.43 82.44,255.77 82.44,256.1C82.44,256.43 82.44,256.76 82.44,257.09C82.44,257.42 82.45,257.76 82.45,258.09C82.45,258.42 82.46,258.75 82.46,259.08C82.46,259.41 82.47,259.75 82.47,260.08C82.47,260.41 82.47,260.74 82.47,261.07C82.47,261.4 82.48,261.74 82.48,262.07C82.48,262.4 82.48,262.73 82.48,263.06C82.48,263.39 82.49,263.73 82.49,264.06C82.49,264.39 82.49,264.72 82.49,265.05C82.49,265.38 82.49,265.72 82.49,266.05C82.49,266.38 82.49,266.71 82.49,267.04C82.49,267.37 82.49,267.71 82.49,268.04C82.49,268.37 82.49,268.7 82.49,269.03C82.49,269.36 82.49,269.7 82.49,270.03C82.49,270.36 82.49,270.69 82.49,271.02C82.49,271.35 82.49,271.69 82.49,272.02C82.49,272.35 82.49,272.68 82.49,273.01C82.49,273.34 82.5,273.68 82.5,274.01C82.5,274.34 82.5,274.67 82.5,275C82.5,275.33 82.5,275.67 82.5,276C82.5,276.33 82.5,276.67 82.5,277C82.5,277.33 82.5,277.66 82.5,277.99C82.5,278.32 82.5,278.66 82.5,278.99C82.5,279.32 82.5,279.65 82.5,279.98C82.5,280.31 82.5,280.65 82.5,280.98C82.5,281.31 82.5,281.64 82.5,281.97C82.5,282.3 82.5,282.64 82.5,282.97C82.5,283.3 82.5,283.63 82.5,283.96C82.5,284.29 82.5,284.63 82.5,284.96C82.5,285.29 82.5,285.62 82.5,285.95C82.5,286.28 82.5,286.62 82.5,286.95C82.5,287.28 82.5,287.61 82.5,287.94C82.5,288.27 82.5,288.61 82.5,288.94C82.5,289.27 82.5,289.6 82.5,289.93C82.5,290.26 82.5,290.6 82.5,290.93C82.5,291.26 82.5,291.59 82.5,291.92C82.5,292.25 82.5,292.59 82.5,292.92C82.5,293.25 82.5,293.58 82.5,293.91C82.5,294.24 82.5,294.58 82.5,294.91C82.5,295.24 82.5,295.57 82.5,295.9C82.5,296.23 82.5,296.57 82.5,296.9C82.5,297.23 82.5,297.56 82.5,297.89C82.5,298.22 82.5,298.56 82.5,298.89C82.5,299.22 82.5,299.55 82.5,299.88C82.5,300.21 82.5,300.55 82.5,300.88C82.5,301.21 82.5,301.55 82.5,301.88C82.5,302.21 82.5,302.54 82.5,302.87C82.5,303.2 82.5,303.54 82.5,303.87C82.5,304.2 82.5,304.53 82.5,304.86C82.5,305.19 82.5,305.53 82.5,305.86C82.5,306.19 82.5,306.52 82.5,306.85C82.5,307.18 82.5,307.52 82.5,307.85C82.5,308.18 82.5,308.51 82.5,308.84C82.5,309.17 82.5,309.51 82.5,309.84C82.5,310.17 82.5,310.5 82.5,310.83C82.5,311.16 82.5,311.5 82.5,311.83C82.5,312.16 82.5,312.49 82.5,312.82C82.5,313.15 82.5,313.49 82.5,313.82C82.5,314.15 82.5,314.48 82.5,314.81C82.5,315.14 82.5,315.48 82.5,315.81C82.5,316.14 82.5,316.47 82.5,316.8C82.5,317.13 82.5,317.47 82.5,317.8C82.5,318.13 82.5,318.46 82.5,318.79C82.5,319.12 82.5,319.46 82.5,319.79C82.5,320.12 82.5,320.45 82.5,320.78C82.5,321.11 82.5,321.45 82.5,321.78C82.5,322.11 82.5,322.44 82.5,322.77C82.5,323.1 82.5,323.44 82.5,323.77C82.5,324.1 82.5,324.43 82.5,324.76C82.5,325.09 82.5,325.43 82.5,325.76C82.5,326.09 82.5,326.42 82.5,326.75Q82.5,327.08 82.5,327.75Z" style="vector-effect: non-scaling-stroke; stroke-width: 2px; stroke: rgb(31, 119, 180); stroke-opacity: 1; fill: rgb(31, 119, 180); fill-opacity: 0.5;"/></g><g class="trace violins" style="opacity: 1;"><path class="violin" d="M82.51,327.75Q82.52,327.08 82.52,326.75C82.52,326.42 82.53,326.09 82.53,325.76C82.54,325.43 82.54,325.09 82.55,324.76C82.56,324.43 82.57,324.1 82.57,323.77C82.58,323.44 82.58,323.1 82.58,322.77C82.58,322.44 82.59,322.11 82.59,321.78C82.59,321.45 82.59,321.11 82.59,320.78C82.59,320.45 82.58,320.12 82.58,319.79C82.58,319.46 82.57,319.12 82.57,318.79C82.57,318.46 82.56,318.13 82.56,317.8C82.56,317.47 82.55,317.13 82.55,316.8C82.55,316.47 82.54,316.14 82.54,315.81C82.54,315.48 82.54,315.14 82.54,314.81C82.54,314.48 82.53,314.15 82.53,313.82C82.53,313.49 82.53,313.15 82.53,312.82C82.53,312.49 82.54,312.16 82.54,311.83C82.54,311.5 82.54,311.16 82.54,310.83C82.54,310.5 82.54,310.17 82.54,309.84C82.54,309.51 82.54,309.17 82.54,308.84C82.54,308.51 82.54,308.18 82.54,307.85C82.54,307.52 82.54,307.18 82.54,306.85C82.54,306.52 82.54,306.19 82.54,305.86C82.54,305.53 82.54,305.19 82.54,304.86C82.54,304.53 82.54,304.2 82.54,303.87C82.54,303.54 82.54,303.2 82.54,302.87C82.54,302.54 82.54,302.21 82.54,301.88C82.54,301.55 82.54,301.21 82.54,300.88C82.54,300.55 82.55,300.21 82.55,299.88C82.55,299.55 82.55,299.22 82.55,298.89C82.55,298.56 82.55,298.22 82.55,297.89C82.55,297.56 82.55,297.23 82.55,296.9C82.55,296.57 82.55,296.23 82.55,295.9C82.55,295.57 82.56,295.24 82.56,294.91C82.56,294.58 82.56,294.24 82.56,293.91C82.56,293.58 82.56,293.25 82.56,292.92C82.56,292.59 82.56,292.25 82.56,291.92C82.56,291.59 82.56,291.26 82.56,290.93C82.56,290.6 82.56,290.26 82.56,289.93C82.56,289.6 82.56,289.27 82.56,288.94C82.56,288.61 82.56,288.27 82.56,287.94C82.56,287.61 82.56,287.28 82.56,286.95C82.56,286.62 82.56,286.28 82.56,285.95C82.56,285.62 82.56,285.29 82.56,284.96C82.56,284.63 82.57,284.29 82.57,283.96C82.57,283.63 82.57,283.3 82.57,282.97C82.57,282.64 82.57,282.3 82.57,281.97C82.57,281.64 82.57,281.31 82.57,280.98C82.57,280.65 82.57,280.31 82.57,279.98C82.57,279.65 82.58,279.32 82.58,278.99C82.58,278.66 82.58,278.32 82.58,277.99C82.58,277.66 82.58,277.33 82.58,277C82.58,276.67 82.58,276.33 82.58,276C82.58,275.67 82.59,275.33 82.59,275C82.59,274.67 82.59,274.34 82.59,274.01C82.59,273.68 82.59,273.34 82.59,273.01C82.59,272.68 82.59,272.35 82.59,272.02C82.59,271.69 82.59,271.35 82.59,271.02C82.59,270.69 82.6,270.36 82.6,270.03C82.6,269.7 82.6,269.36 82.6,269.03C82.6,268.7 82.6,268.37 82.6,268.04C82.6,267.71 82.61,267.37 82.61,267.04C82.61,266.71 82.61,266.38 82.61,266.05C82.61,265.72 82.62,265.38 82.62,265.05C82.62,264.72 82.62,264.39 82.62,264.06C82.62,263.73 82.63,263.39 82.63,263.06C82.63,262.73 82.64,262.4 82.64,262.07C82.64,261.74 82.64,261.4 82.64,261.07C82.64,260.74 82.65,260.41 82.65,260.08C82.65,259.75 82.66,259.41 82.66,259.08C82.66,258.75 82.66,258.42 82.66,258.09C82.66,257.76 82.66,257.42 82.67,257.09C82.67,256.76 82.69,256.43 82.69,256.1C82.7,255.77 82.7,255.43 82.7,255.1C82.7,254.77 82.71,254.44 82.71,254.11C82.72,253.78 82.72,253.44 82.73,253.11C82.73,252.78 82.74,252.45 82.74,252.12C82.75,251.79 82.75,251.45 82.76,251.12C82.76,250.79 82.77,250.46 82.77,250.13C82.77,249.8 82.78,249.46 82.78,249.13C82.78,248.8 82.79,248.46 82.79,248.13C82.79,247.8 82.8,247.47 82.8,247.14C82.8,246.81 82.81,246.47 82.81,246.14C82.81,245.81 82.81,245.48 82.81,245.15C82.81,244.82 82.82,244.48 82.82,244.15C82.82,243.82 82.82,243.49 82.82,243.16C82.82,242.83 82.82,242.49 82.82,242.16C82.82,241.83 82.83,241.5 82.83,241.17C82.83,240.84 82.83,240.5 82.83,240.17C82.83,239.84 82.83,239.51 82.83,239.18C82.83,238.85 82.84,238.51 82.84,238.18C82.84,237.85 82.84,237.52 82.84,237.19C82.84,236.86 82.85,236.52 82.85,236.19C82.85,235.86 82.86,235.53 82.86,235.2C82.86,234.87 82.87,234.53 82.87,234.2C82.87,233.87 82.88,233.54 82.88,233.21C82.88,232.88 82.89,232.54 82.89,232.21C82.89,231.88 82.9,231.55 82.9,231.22C82.91,230.89 82.91,230.55 82.92,230.22C82.92,229.89 82.93,229.56 82.93,229.23C82.93,228.9 82.93,228.56 82.94,228.23C82.94,227.9 82.96,227.57 82.96,227.24C82.97,226.91 82.96,226.57 82.97,226.24C82.97,225.91 82.99,225.58 82.99,225.25C83,224.92 82.99,224.58 83,224.25C83.01,223.92 83.02,223.58 83.03,223.25C83.04,222.92 83.04,222.59 83.05,222.26C83.06,221.93 83.07,221.59 83.08,221.26C83.09,220.93 83.09,220.6 83.1,220.27C83.11,219.94 83.12,219.6 83.13,219.27C83.14,218.94 83.15,218.61 83.16,218.28C83.17,217.95 83.18,217.61 83.19,217.28C83.2,216.95 83.22,216.62 83.23,216.29C83.24,215.96 83.25,215.62 83.26,215.29C83.27,214.96 83.29,214.63 83.31,214.3C83.33,213.97 83.34,213.63 83.36,213.3C83.38,212.97 83.4,212.64 83.42,212.31C83.44,211.98 83.46,211.64 83.48,211.31C83.5,210.98 83.53,210.65 83.55,210.32C83.57,209.99 83.59,209.65 83.61,209.32C83.63,208.99 83.66,208.66 83.69,208.33C83.72,208 83.74,207.66 83.77,207.33C83.8,207 83.83,206.67 83.86,206.34C83.89,206.01 83.93,205.67 83.97,205.34C84.01,205.01 84.05,204.68 84.1,204.35C84.15,204.02 84.2,203.68 84.26,203.35C84.32,203.02 84.37,202.69 84.44,202.36C84.51,202.03 84.58,201.69 84.66,201.36C84.74,201.03 84.82,200.7 84.91,200.37C85,200.04 85.1,199.7 85.21,199.37C85.32,199.04 85.43,198.71 85.56,198.38C85.69,198.05 85.83,197.71 85.98,197.38C86.13,197.04 86.29,196.71 86.47,196.38C86.65,196.05 86.84,195.72 87.05,195.39C87.26,195.05 87.48,194.72 87.72,194.39C87.96,194.05 88.22,193.73 88.5,193.4C88.79,193.06 89.09,192.73 89.41,192.4C89.74,192.06 90.09,191.74 90.45,191.41C90.83,191.07 91.23,190.74 91.64,190.41C92.07,190.07 92.52,189.74 92.99,189.42C93.48,189.08 93.99,188.75 94.52,188.42C95.07,188.08 95.64,187.76 96.22,187.43C96.83,187.09 97.45,186.76 98.09,186.43C98.75,186.09 99.43,185.77 100.12,185.44C100.82,185.1 101.54,184.77 102.27,184.44C103.01,184.1 103.77,183.78 104.53,183.45C105.3,183.12 106.07,182.78 106.85,182.45C107.63,182.12 108.42,181.79 109.2,181.46C109.98,181.13 110.77,180.79 111.54,180.46C112.3,180.13 113.06,179.81 113.8,179.47C114.53,179.14 115.25,178.81 115.95,178.47C116.62,178.14 117.28,177.82 117.91,177.48C118.51,177.16 119.1,176.82 119.64,176.48C120.14,176.16 120.63,175.84 121.06,175.49C121.45,175.17 121.83,174.84 122.12,174.49C122.38,174.17 122.62,173.84 122.75,173.5C122.88,173.18 122.95,172.83 122.93,172.5C122.91,172.16 122.8,171.82 122.64,171.5C122.47,171.15 122.2,170.83 121.91,170.51C121.59,170.16 121.19,169.83 120.78,169.51C120.33,169.16 119.83,168.84 119.32,168.52C118.77,168.18 118.18,167.84 117.58,167.52C116.95,167.18 116.3,166.86 115.63,166.53C114.94,166.19 114.23,165.86 113.52,165.53C112.79,165.19 112.05,164.87 111.3,164.54C110.54,164.21 109.77,163.87 109.01,163.54C108.24,163.21 107.47,162.88 106.71,162.55C105.95,162.22 105.18,161.88 104.43,161.55C103.69,161.22 102.95,160.89 102.23,160.56C101.52,160.23 100.81,159.9 100.12,159.56C99.45,159.23 98.79,158.91 98.15,158.57C97.53,158.24 96.91,157.91 96.32,157.57C95.75,157.24 95.2,156.92 94.66,156.58C94.14,156.25 93.64,155.92 93.16,155.58C92.7,155.25 92.25,154.93 91.82,154.59C91.41,154.26 91.01,153.93 90.64,153.59C90.28,153.26 89.94,152.94 89.61,152.6C89.29,152.27 88.99,151.94 88.71,151.6C88.44,151.27 88.17,150.95 87.93,150.61C87.69,150.28 87.47,149.95 87.26,149.61C87.06,149.28 86.87,148.95 86.69,148.62C86.52,148.29 86.36,147.95 86.21,147.62C86.06,147.29 85.93,146.96 85.8,146.63C85.67,146.3 85.56,145.96 85.45,145.63C85.34,145.3 85.24,144.96 85.15,144.63C85.06,144.3 84.98,143.97 84.9,143.64C84.82,143.31 84.74,142.97 84.67,142.64C84.6,142.31 84.54,141.98 84.48,141.65C84.42,141.32 84.36,140.98 84.31,140.65C84.26,140.32 84.21,139.99 84.17,139.66C84.12,139.33 84.08,138.99 84.04,138.66C84,138.33 83.96,138 83.92,137.67C83.88,137.34 83.85,137 83.82,136.67C83.79,136.34 83.76,136.01 83.73,135.68C83.7,135.35 83.68,135.01 83.65,134.68C83.62,134.35 83.59,134.02 83.57,133.69C83.54,133.36 83.52,133.02 83.5,132.69C83.48,132.36 83.46,132.03 83.44,131.7C83.42,131.37 83.4,131.03 83.38,130.7C83.36,130.37 83.34,130.04 83.33,129.71C83.31,129.38 83.3,129.04 83.29,128.71C83.28,128.38 83.26,128.05 83.25,127.72C83.24,127.39 83.23,127.05 83.22,126.72C83.21,126.39 83.2,126.06 83.19,125.73C83.18,125.4 83.17,125.06 83.16,124.73C83.15,124.4 83.14,124.07 83.13,123.74C83.12,123.41 83.11,123.07 83.1,122.74C83.09,122.41 83.08,122.08 83.07,121.75C83.06,121.42 83.06,121.08 83.05,120.75C83.04,120.42 83.03,120.08 83.02,119.75C83.01,119.42 83.01,119.09 83,118.76C82.99,118.43 82.99,118.09 82.98,117.76C82.97,117.43 82.97,117.1 82.96,116.77C82.95,116.44 82.95,116.1 82.94,115.77C82.93,115.44 82.92,115.11 82.92,114.78C82.91,114.45 82.92,114.11 82.91,113.78C82.91,113.45 82.89,113.12 82.89,112.79C82.88,112.46 82.89,112.12 82.88,111.79C82.88,111.46 82.86,111.13 82.86,110.8C82.85,110.47 82.85,110.13 82.85,109.8C82.85,109.47 82.84,109.14 82.84,108.81C82.84,108.48 82.84,108.14 82.84,107.81C82.84,107.48 82.83,107.15 82.83,106.82C82.83,106.49 82.82,106.15 82.82,105.82C82.82,105.49 82.82,105.16 82.82,104.83C82.82,104.5 82.82,104.16 82.82,103.83C82.82,103.5 82.81,103.17 82.81,102.84C82.81,102.51 82.81,102.17 82.81,101.84C82.81,101.51 82.8,101.18 82.8,100.85C82.8,100.52 82.8,100.18 82.8,99.85C82.8,99.52 82.8,99.19 82.8,98.86C82.8,98.53 82.79,98.19 82.79,97.86C82.79,97.53 82.78,97.2 82.78,96.87C82.78,96.54 82.78,96.2 82.78,95.87C82.78,95.54 82.77,95.21 82.77,94.88C82.76,94.55 82.76,94.21 82.75,93.88C82.75,93.55 82.74,93.21 82.74,92.88C82.74,92.55 82.73,92.22 82.73,91.89C82.72,91.56 82.72,91.22 82.71,90.89C82.71,90.56 82.7,90.23 82.7,89.9C82.7,89.57 82.69,89.23 82.69,88.9C82.69,88.57 82.68,88.24 82.68,87.91C82.68,87.58 82.67,87.24 82.67,86.91C82.67,86.58 82.66,86.25 82.66,85.92C82.66,85.59 82.65,85.25 82.65,84.92C82.65,84.59 82.64,84.26 82.64,83.93C82.64,83.6 82.64,83.26 82.64,82.93C82.64,82.6 82.63,82.27 82.63,81.94C82.63,81.61 82.63,81.27 82.63,80.94C82.63,80.61 82.62,80.28 82.62,79.95C82.62,79.62 82.62,79.28 82.62,78.95C82.62,78.62 82.62,78.29 82.62,77.96C82.62,77.63 82.61,77.29 82.61,76.96C82.61,76.63 82.61,76.3 82.61,75.97C82.61,75.64 82.61,75.3 82.61,74.97C82.61,74.64 82.61,74.31 82.61,73.98C82.61,73.65 82.6,73.31 82.6,72.98C82.6,72.65 82.6,72.32 82.6,71.99C82.6,71.66 82.59,71.32 82.59,70.99C82.59,70.66 82.59,70.33 82.59,70C82.59,69.67 82.59,69.33 82.59,69C82.59,68.67 82.58,68.33 82.58,68C82.58,67.67 82.58,67.34 82.58,67.01C82.58,66.68 82.58,66.34 82.58,66.01C82.58,65.68 82.58,65.35 82.58,65.02C82.58,64.69 82.58,64.35 82.58,64.02C82.58,63.69 82.58,63.36 82.58,63.03C82.58,62.7 82.58,62.36 82.58,62.03C82.58,61.7 82.58,61.37 82.58,61.04C82.58,60.71 82.58,60.37 82.58,60.04C82.58,59.71 82.58,59.38 82.58,59.05C82.58,58.72 82.58,58.38 82.58,58.05C82.58,57.72 82.57,57.39 82.57,57.06C82.57,56.73 82.57,56.39 82.57,56.06C82.57,55.73 82.57,55.4 82.57,55.07C82.57,54.74 82.56,54.4 82.56,54.07C82.56,53.74 82.56,53.41 82.56,53.08C82.56,52.75 82.56,52.41 82.56,52.08C82.56,51.75 82.56,51.42 82.56,51.09C82.56,50.76 82.56,50.42 82.56,50.09C82.56,49.76 82.56,49.43 82.56,49.1C82.56,48.77 82.56,48.43 82.56,48.1C82.56,47.77 82.55,47.44 82.55,47.11C82.55,46.78 82.55,46.44 82.55,46.11C82.55,45.78 82.55,45.45 82.55,45.12C82.55,44.79 82.55,44.45 82.55,44.12C82.55,43.79 82.55,43.46 82.55,43.13C82.55,42.8 82.55,42.46 82.55,42.13C82.55,41.8 82.55,41.46 82.55,41.13C82.55,40.8 82.55,40.47 82.55,40.14C82.55,39.81 82.55,39.47 82.55,39.14C82.55,38.81 82.54,38.48 82.54,38.15C82.54,37.82 82.54,37.48 82.54,37.15C82.54,36.82 82.54,36.49 82.54,36.16C82.54,35.83 82.54,35.49 82.54,35.16C82.54,34.83 82.54,34.5 82.54,34.17C82.54,33.84 82.54,33.5 82.54,33.17C82.54,32.84 82.53,32.51 82.53,32.18C82.53,31.85 82.53,31.51 82.53,31.18C82.53,30.85 82.53,30.52 82.53,30.19C82.53,29.86 82.54,29.52 82.54,29.19C82.54,28.86 82.54,28.53 82.54,28.2C82.54,27.87 82.55,27.53 82.55,27.2C82.55,26.87 82.56,26.54 82.56,26.21C82.56,25.88 82.57,25.54 82.57,25.21C82.57,24.88 82.58,24.55 82.58,24.22C82.58,23.89 82.58,23.55 82.58,23.22C82.58,22.89 82.57,22.56 82.57,22.23C82.57,21.9 82.57,21.56 82.56,21.23C82.56,20.9 82.54,20.57 82.54,20.24C82.53,19.91 82.53,19.57 82.53,19.24C82.53,18.91 82.52,18.58 82.52,18.25Q82.52,17.92 82.51,17.25L82.49,17.25Q82.48,17.92 82.48,18.25C82.48,18.58 82.47,18.91 82.47,19.24C82.47,19.57 82.47,19.91 82.46,20.24C82.46,20.57 82.44,20.9 82.44,21.23C82.43,21.56 82.43,21.9 82.43,22.23C82.43,22.56 82.42,22.89 82.42,23.22C82.42,23.55 82.42,23.89 82.42,24.22C82.42,24.55 82.43,24.88 82.43,25.21C82.43,25.54 82.44,25.88 82.44,26.21C82.44,26.54 82.45,26.87 82.45,27.2C82.45,27.53 82.46,27.87 82.46,28.2C82.46,28.53 82.46,28.86 82.46,29.19C82.46,29.52 82.47,29.86 82.47,30.19C82.47,30.52 82.47,30.85 82.47,31.18C82.47,31.51 82.47,31.85 82.47,32.18C82.47,32.51 82.46,32.84 82.46,33.17C82.46,33.5 82.46,33.84 82.46,34.17C82.46,34.5 82.46,34.83 82.46,35.16C82.46,35.49 82.46,35.83 82.46,36.16C82.46,36.49 82.46,36.82 82.46,37.15C82.46,37.48 82.46,37.82 82.46,38.15C82.46,38.48 82.45,38.81 82.45,39.14C82.45,39.47 82.45,39.81 82.45,40.14C82.45,40.47 82.45,40.8 82.45,41.13C82.45,41.46 82.45,41.8 82.45,42.13C82.45,42.46 82.45,42.8 82.45,43.13C82.45,43.46 82.45,43.79 82.45,44.12C82.45,44.45 82.45,44.79 82.45,45.12C82.45,45.45 82.45,45.78 82.45,46.11C82.45,46.44 82.45,46.78 82.45,47.11C82.45,47.44 82.44,47.77 82.44,48.1C82.44,48.43 82.44,48.77 82.44,49.1C82.44,49.43 82.44,49.76 82.44,50.09C82.44,50.42 82.44,50.76 82.44,51.09C82.44,51.42 82.44,51.75 82.44,52.08C82.44,52.41 82.44,52.75 82.44,53.08C82.44,53.41 82.44,53.74 82.44,54.07C82.44,54.4 82.43,54.74 82.43,55.07C82.43,55.4 82.43,55.73 82.43,56.06C82.43,56.39 82.43,56.73 82.43,57.06C82.43,57.39 82.42,57.72 82.42,58.05C82.42,58.38 82.42,58.72 82.42,59.05C82.42,59.38 82.42,59.71 82.42,60.04C82.42,60.37 82.42,60.71 82.42,61.04C82.42,61.37 82.42,61.7 82.42,62.03C82.42,62.36 82.42,62.7 82.42,63.03C82.42,63.36 82.42,63.69 82.42,64.02C82.42,64.35 82.42,64.69 82.42,65.02C82.42,65.35 82.42,65.68 82.42,66.01C82.42,66.34 82.42,66.68 82.42,67.01C82.42,67.34 82.42,67.67 82.42,68C82.42,68.33 82.41,68.67 82.41,69C82.41,69.33 82.41,69.67 82.41,70C82.41,70.33 82.41,70.66 82.41,70.99C82.41,71.32 82.4,71.66 82.4,71.99C82.4,72.32 82.4,72.65 82.4,72.98C82.4,73.31 82.39,73.65 82.39,73.98C82.39,74.31 82.39,74.64 82.39,74.97C82.39,75.3 82.39,75.64 82.39,75.97C82.39,76.3 82.39,76.63 82.39,76.96C82.39,77.29 82.38,77.63 82.38,77.96C82.38,78.29 82.38,78.62 82.38,78.95C82.38,79.28 82.38,79.62 82.38,79.95C82.38,80.28 82.37,80.61 82.37,80.94C82.37,81.27 82.37,81.61 82.37,81.94C82.37,82.27 82.36,82.6 82.36,82.93C82.36,83.26 82.36,83.6 82.36,83.93C82.36,84.26 82.35,84.59 82.35,84.92C82.35,85.25 82.34,85.59 82.34,85.92C82.34,86.25 82.33,86.58 82.33,86.91C82.33,87.24 82.32,87.58 82.32,87.91C82.32,88.24 82.31,88.57 82.31,88.9C82.31,89.23 82.3,89.57 82.3,89.9C82.3,90.23 82.29,90.56 82.29,90.89C82.28,91.22 82.28,91.56 82.27,91.89C82.27,92.22 82.26,92.55 82.26,92.88C82.26,93.21 82.25,93.55 82.25,93.88C82.24,94.21 82.24,94.55 82.23,94.88C82.23,95.21 82.22,95.54 82.22,95.87C82.22,96.2 82.22,96.54 82.22,96.87C82.22,97.2 82.21,97.53 82.21,97.86C82.21,98.19 82.2,98.53 82.2,98.86C82.2,99.19 82.2,99.52 82.2,99.85C82.2,100.18 82.2,100.52 82.2,100.85C82.2,101.18 82.19,101.51 82.19,101.84C82.19,102.17 82.19,102.51 82.19,102.84C82.19,103.17 82.18,103.5 82.18,103.83C82.18,104.16 82.18,104.5 82.18,104.83C82.18,105.16 82.18,105.49 82.18,105.82C82.18,106.15 82.17,106.49 82.17,106.82C82.17,107.15 82.16,107.48 82.16,107.81C82.16,108.14 82.16,108.48 82.16,108.81C82.16,109.14 82.15,109.47 82.15,109.8C82.15,110.13 82.15,110.47 82.14,110.8C82.14,111.13 82.12,111.46 82.12,111.79C82.11,112.12 82.12,112.46 82.11,112.79C82.11,113.12 82.09,113.45 82.09,113.78C82.08,114.11 82.09,114.45 82.08,114.78C82.08,115.11 82.07,115.44 82.06,115.77C82.05,116.1 82.05,116.44 82.04,116.77C82.03,117.1 82.03,117.43 82.02,117.76C82.01,118.09 82.01,118.43 82,118.76C81.99,119.09 81.99,119.42 81.98,119.75C81.97,120.08 81.96,120.42 81.95,120.75C81.94,121.08 81.94,121.42 81.93,121.75C81.92,122.08 81.91,122.41 81.9,122.74C81.89,123.07 81.88,123.41 81.87,123.74C81.86,124.07 81.85,124.4 81.84,124.73C81.83,125.06 81.82,125.4 81.81,125.73C81.8,126.06 81.79,126.39 81.78,126.72C81.77,127.05 81.76,127.39 81.75,127.72C81.74,128.05 81.72,128.38 81.71,128.71C81.7,129.04 81.69,129.38 81.67,129.71C81.66,130.04 81.64,130.37 81.62,130.7C81.6,131.03 81.58,131.37 81.56,131.7C81.54,132.03 81.52,132.36 81.5,132.69C81.48,133.02 81.46,133.36 81.43,133.69C81.41,134.02 81.38,134.35 81.35,134.68C81.32,135.01 81.3,135.35 81.27,135.68C81.24,136.01 81.21,136.34 81.18,136.67C81.15,137 81.12,137.34 81.08,137.67C81.04,138 81,138.33 80.96,138.66C80.92,138.99 80.88,139.33 80.83,139.66C80.79,139.99 80.74,140.32 80.69,140.65C80.64,140.98 80.58,141.32 80.52,141.65C80.46,141.98 80.4,142.31 80.33,142.64C80.26,142.97 80.18,143.31 80.1,143.64C80.02,143.97 79.94,144.3 79.85,144.63C79.76,144.96 79.66,145.3 79.55,145.63C79.44,145.96 79.33,146.3 79.2,146.63C79.07,146.96 78.94,147.29 78.79,147.62C78.64,147.95 78.48,148.29 78.31,148.62C78.13,148.95 77.94,149.28 77.74,149.61C77.53,149.95 77.31,150.28 77.07,150.61C76.83,150.95 76.56,151.27 76.29,151.6C76.01,151.94 75.71,152.27 75.39,152.6C75.06,152.94 74.72,153.26 74.36,153.59C73.99,153.93 73.59,154.26 73.18,154.59C72.75,154.93 72.3,155.25 71.84,155.58C71.36,155.92 70.86,156.25 70.34,156.58C69.8,156.92 69.25,157.24 68.68,157.57C68.09,157.91 67.47,158.24 66.85,158.57C66.21,158.91 65.55,159.23 64.88,159.56C64.19,159.9 63.48,160.23 62.77,160.56C62.05,160.89 61.31,161.22 60.57,161.55C59.82,161.88 59.05,162.22 58.29,162.55C57.53,162.88 56.76,163.21 55.99,163.54C55.23,163.87 54.46,164.21 53.7,164.54C52.95,164.87 52.21,165.19 51.48,165.53C50.77,165.86 50.06,166.19 49.37,166.53C48.7,166.86 48.05,167.18 47.42,167.52C46.82,167.84 46.23,168.18 45.68,168.52C45.17,168.84 44.67,169.16 44.22,169.51C43.81,169.83 43.41,170.16 43.09,170.51C42.8,170.83 42.53,171.15 42.36,171.5C42.2,171.82 42.1,172.16 42.08,172.5C42.06,172.83 42.13,173.18 42.25,173.5C42.38,173.84 42.62,174.17 42.88,174.49C43.17,174.84 43.55,175.17 43.94,175.49C44.37,175.84 44.86,176.16 45.36,176.48C45.9,176.82 46.49,177.16 47.09,177.48C47.72,177.82 48.38,178.14 49.05,178.47C49.75,178.81 50.47,179.14 51.2,179.47C51.94,179.81 52.7,180.13 53.46,180.46C54.23,180.79 55.02,181.13 55.8,181.46C56.58,181.79 57.37,182.12 58.15,182.45C58.93,182.78 59.7,183.12 60.47,183.45C61.23,183.78 61.99,184.1 62.73,184.44C63.46,184.77 64.18,185.1 64.88,185.44C65.57,185.77 66.25,186.09 66.91,186.43C67.55,186.76 68.17,187.09 68.78,187.43C69.36,187.76 69.93,188.08 70.48,188.42C71.01,188.75 71.52,189.08 72.01,189.42C72.48,189.74 72.93,190.07 73.36,190.41C73.77,190.74 74.17,191.07 74.55,191.41C74.91,191.74 75.26,192.06 75.59,192.4C75.91,192.73 76.21,193.06 76.5,193.4C76.78,193.73 77.04,194.05 77.28,194.39C77.52,194.72 77.74,195.05 77.95,195.39C78.16,195.72 78.35,196.05 78.53,196.38C78.71,196.71 78.87,197.04 79.02,197.38C79.17,197.71 79.31,198.05 79.44,198.38C79.57,198.71 79.68,199.04 79.79,199.37C79.9,199.7 80,200.04 80.09,200.37C80.18,200.7 80.26,201.03 80.34,201.36C80.42,201.69 80.49,202.03 80.56,202.36C80.63,202.69 80.68,203.02 80.74,203.35C80.8,203.68 80.85,204.02 80.9,204.35C80.95,204.68 80.99,205.01 81.03,205.34C81.07,205.67 81.11,206.01 81.14,206.34C81.17,206.67 81.2,207 81.23,207.33C81.26,207.66 81.28,208 81.31,208.33C81.34,208.66 81.37,208.99 81.39,209.32C81.41,209.65 81.43,209.99 81.45,210.32C81.47,210.65 81.5,210.98 81.52,211.31C81.54,211.64 81.56,211.98 81.58,212.31C81.6,212.64 81.62,212.97 81.64,213.3C81.66,213.63 81.67,213.97 81.69,214.3C81.71,214.63 81.73,214.96 81.74,215.29C81.75,215.62 81.76,215.96 81.77,216.29C81.78,216.62 81.8,216.95 81.81,217.28C81.82,217.61 81.83,217.95 81.84,218.28C81.85,218.61 81.86,218.94 81.87,219.27C81.88,219.6 81.89,219.94 81.9,220.27C81.91,220.6 81.91,220.93 81.92,221.26C81.93,221.59 81.94,221.93 81.95,222.26C81.96,222.59 81.96,222.92 81.97,223.25C81.98,223.58 81.99,223.92 82,224.25C82.01,224.58 82,224.92 82.01,225.25C82.01,225.58 82.03,225.91 82.03,226.24C82.04,226.57 82.03,226.91 82.04,227.24C82.04,227.57 82.06,227.9 82.06,228.23C82.07,228.56 82.07,228.9 82.07,229.23C82.07,229.56 82.08,229.89 82.08,230.22C82.09,230.55 82.09,230.89 82.1,231.22C82.1,231.55 82.11,231.88 82.11,232.21C82.11,232.54 82.12,232.88 82.12,233.21C82.12,233.54 82.13,233.87 82.13,234.2C82.13,234.53 82.14,234.87 82.14,235.2C82.14,235.53 82.15,235.86 82.15,236.19C82.15,236.52 82.16,236.86 82.16,237.19C82.16,237.52 82.16,237.85 82.16,238.18C82.16,238.51 82.17,238.85 82.17,239.18C82.17,239.51 82.17,239.84 82.17,240.17C82.17,240.5 82.17,240.84 82.17,241.17C82.17,241.5 82.18,241.83 82.18,242.16C82.18,242.49 82.18,242.83 82.18,243.16C82.18,243.49 82.18,243.82 82.18,244.15C82.18,244.48 82.19,244.82 82.19,245.15C82.19,245.48 82.19,245.81 82.19,246.14C82.19,246.47 82.2,246.81 82.2,247.14C82.2,247.47 82.21,247.8 82.21,248.13C82.21,248.46 82.22,248.8 82.22,249.13C82.22,249.46 82.23,249.8 82.23,250.13C82.23,250.46 82.24,250.79 82.24,251.12C82.25,251.45 82.25,251.79 82.26,252.12C82.26,252.45 82.27,252.78 82.27,253.11C82.28,253.44 82.28,253.78 82.29,254.11C82.29,254.44 82.3,254.77 82.3,255.1C82.3,255.43 82.3,255.77 82.31,256.1C82.31,256.43 82.33,256.76 82.33,257.09C82.34,257.42 82.34,257.76 82.34,258.09C82.34,258.42 82.34,258.75 82.34,259.08C82.34,259.41 82.35,259.75 82.35,260.08C82.35,260.41 82.36,260.74 82.36,261.07C82.36,261.4 82.36,261.74 82.36,262.07C82.36,262.4 82.37,262.73 82.37,263.06C82.37,263.39 82.38,263.73 82.38,264.06C82.38,264.39 82.38,264.72 82.38,265.05C82.38,265.38 82.39,265.72 82.39,266.05C82.39,266.38 82.39,266.71 82.39,267.04C82.39,267.37 82.4,267.71 82.4,268.04C82.4,268.37 82.4,268.7 82.4,269.03C82.4,269.36 82.4,269.7 82.4,270.03C82.4,270.36 82.41,270.69 82.41,271.02C82.41,271.35 82.41,271.69 82.41,272.02C82.41,272.35 82.41,272.68 82.41,273.01C82.41,273.34 82.41,273.68 82.41,274.01C82.41,274.34 82.41,274.67 82.41,275C82.41,275.33 82.42,275.67 82.42,276C82.42,276.33 82.42,276.67 82.42,277C82.42,277.33 82.42,277.66 82.42,277.99C82.42,278.32 82.42,278.66 82.42,278.99C82.42,279.32 82.43,279.65 82.43,279.98C82.43,280.31 82.43,280.65 82.43,280.98C82.43,281.31 82.43,281.64 82.43,281.97C82.43,282.3 82.43,282.64 82.43,282.97C82.43,283.3 82.43,283.63 82.43,283.96C82.43,284.29 82.44,284.63 82.44,284.96C82.44,285.29 82.44,285.62 82.44,285.95C82.44,286.28 82.44,286.62 82.44,286.95C82.44,287.28 82.44,287.61 82.44,287.94C82.44,288.27 82.44,288.61 82.44,288.94C82.44,289.27 82.44,289.6 82.44,289.93C82.44,290.26 82.44,290.6 82.44,290.93C82.44,291.26 82.44,291.59 82.44,291.92C82.44,292.25 82.44,292.59 82.44,292.92C82.44,293.25 82.44,293.58 82.44,293.91C82.44,294.24 82.44,294.58 82.44,294.91C82.44,295.24 82.45,295.57 82.45,295.9C82.45,296.23 82.45,296.57 82.45,296.9C82.45,297.23 82.45,297.56 82.45,297.89C82.45,298.22 82.45,298.56 82.45,298.89C82.45,299.22 82.45,299.55 82.45,299.88C82.45,300.21 82.46,300.55 82.46,300.88C82.46,301.21 82.46,301.55 82.46,301.88C82.46,302.21 82.46,302.54 82.46,302.87C82.46,303.2 82.46,303.54 82.46,303.87C82.46,304.2 82.46,304.53 82.46,304.86C82.46,305.19 82.46,305.53 82.46,305.86C82.46,306.19 82.46,306.52 82.46,306.85C82.46,307.18 82.46,307.52 82.46,307.85C82.46,308.18 82.46,308.51 82.46,308.84C82.46,309.17 82.46,309.51 82.46,309.84C82.46,310.17 82.46,310.5 82.46,310.83C82.46,311.16 82.46,311.5 82.46,311.83C82.46,312.16 82.47,312.49 82.47,312.82C82.47,313.15 82.47,313.49 82.47,313.82C82.47,314.15 82.46,314.48 82.46,314.81C82.46,315.14 82.46,315.48 82.46,315.81C82.46,316.14 82.45,316.47 82.45,316.8C82.45,317.13 82.44,317.47 82.44,317.8C82.44,318.13 82.43,318.46 82.43,318.79C82.43,319.12 82.42,319.46 82.42,319.79C82.42,320.12 82.41,320.45 82.41,320.78C82.41,321.11 82.41,321.45 82.41,321.78C82.41,322.11 82.42,322.44 82.42,322.77C82.42,323.1 82.42,323.44 82.43,323.77C82.43,324.1 82.44,324.43 82.45,324.76C82.46,325.09 82.46,325.43 82.47,325.76C82.47,326.09 82.48,326.42 82.48,326.75Q82.48,327.08 82.49,327.75Z" style="vector-effect: non-scaling-stroke; stroke-width: 2px; stroke: rgb(255, 127, 14); stroke-opacity: 1; fill: rgb(255, 127, 14); fill-opacity: 0.5;"/></g></g></g><g class="overplot"/><path class="xlines-above crisp" d="M69,365.5H235" style="fill: none; stroke-width: 1px; stroke: rgb(36, 36, 36); stroke-opacity: 1;"/><path class="ylines-above crisp" d="M69.5,20V365" style="fill: none; stroke-width: 1px; stroke: rgb(36, 36, 36); stroke-opacity: 1;"/><g class="overlines-above"/><g class="xaxislayer-above"><path class="xtick ticks crisp" d="M0,366v5" transform="translate(152.5,0)" style="stroke: rgb(68, 68, 68); stroke-opacity: 1; stroke-width: 1px;"/><g class="xtick"><text text-anchor="middle" x="0" y="385.4" transform="translate(152.5,0)" style="font-family: 'Open Sans', verdana, arial, sans-serif; font-size: 12px; fill: rgb(36, 36, 36); fill-opacity: 1; white-space: pre;"> </text></g></g><g class="yaxislayer-above"><path class="ytick ticks crisp" d="M69,0h-5" transform="translate(0,341.78)" style="stroke: rgb(68, 68, 68); stroke-opacity: 1; stroke-width: 1px;"/><path class="ytick ticks crisp" d="M69,0h-5" transform="translate(0,267.14)" style="stroke: rgb(68, 68, 68); stroke-opacity: 1; stroke-width: 1px;"/><path class="ytick ticks crisp" d="M69,0h-5" transform="translate(0,192.5)" style="stroke: rgb(68, 68, 68); stroke-opacity: 1; stroke-width: 1px;"/><path class="ytick ticks crisp" d="M69,0h-5" transform="translate(0,117.86)" style="stroke: rgb(68, 68, 68); stroke-opacity: 1; stroke-width: 1px;"/><path class="ytick ticks crisp" d="M69,0h-5" transform="translate(0,43.22)" style="stroke: rgb(68, 68, 68); stroke-opacity: 1; stroke-width: 1px;"/><g class="ytick"><text text-anchor="end" x="61.6" y="4.199999999999999" transform="translate(0,341.78)" style="font-family: 'Open Sans', verdana, arial, sans-serif; font-size: 12px; fill: rgb(36, 36, 36); fill-opacity: 1; white-space: pre;">−10</text></g><g class="ytick"><text text-anchor="end" x="61.6" y="4.199999999999999" transform="translate(0,267.14)" style="font-family: 'Open Sans', verdana, arial, sans-serif; font-size: 12px; fill: rgb(36, 36, 36); fill-opacity: 1; white-space: pre;">−5</text></g><g class="ytick"><text text-anchor="end" x="61.6" y="4.199999999999999" transform="translate(0,192.5)" style="font-family: 'Open Sans', verdana, arial, sans-serif; font-size: 12px; fill: rgb(36, 36, 36); fill-opacity: 1; white-space: pre;">0</text></g><g class="ytick"><text text-anchor="end" x="61.6" y="4.199999999999999" transform="translate(0,117.86)" style="font-family: 'Open Sans', verdana, arial, sans-serif; font-size: 12px; fill: rgb(36, 36, 36); fill-opacity: 1; white-space: pre;">5</text></g><g class="ytick"><text text-anchor="end" x="61.6" y="4.199999999999999" transform="translate(0,43.22)" style="font-family: 'Open Sans', verdana, arial, sans-serif; font-size: 12px; fill: rgb(36, 36, 36); fill-opacity: 1; white-space: pre;">10</text></g></g><g class="overaxes-above"/></g></g><g class="polarlayer"/><g class="ternarylayer"/><g class="geolayer"/><g class="funnelarealayer"/><g class="pielayer"/><g class="treemaplayer"/><g class="sunburstlayer"/><g class="glimages"/><defs id="topdefs-670359"><g class="clips"/><clipPath id="legend670359"><rect width="109" height="64" x="0" y="0"/></clipPath></defs><g class="layer-above"><g class="imagelayer"/><g class="shapelayer"/></g><g class="infolayer"><g class="legend" pointer-events="all" transform="translate(169,20)"><rect class="bg" shape-rendering="crispEdges" width="109" height="64" x="0" y="0" style="stroke: rgb(68, 68, 68); stroke-opacity: 1; fill: rgb(255, 255, 255); fill-opacity: 1; stroke-width: 0px;"/><g class="scrollbox" transform="" clip-path="url('#legend670359')"><text class="legendtitletext" text-anchor="start" x="2" y="15.600000000000001" style="font-family: 'Open Sans', verdana, arial, sans-serif; font-size: 12px; fill: rgb(36, 36, 36); fill-opacity: 1; white-space: pre;">cp_type</text><g class="groups" transform=""><g class="traces" transform="translate(0,30.1)" style="opacity: 1;"><text class="legendtext" text-anchor="start" x="40" y="4.680000000000001" style="font-family: 'Open Sans', verdana, arial, sans-serif; font-size: 12px; fill: rgb(36, 36, 36); fill-opacity: 1; white-space: pre;">ctl_vehicle</text><g class="layers" style="opacity: 1;"><g class="legendfill"/><g class="legendlines"/><g class="legendsymbols"><g class="legendpoints"><path class="legendbox" d="M6,6H-6V-6H6Z" transform="translate(20,0)" style="stroke-width: 2px; fill: rgb(31, 119, 180); fill-opacity: 0.5; stroke: rgb(31, 119, 180); stroke-opacity: 1;"/></g></g></g><rect class="legendtoggle" x="0" y="-9.5" width="103.734375" height="19" style="fill: rgb(0, 0, 0); fill-opacity: 0;"/></g></g><g class="groups" transform=""><g class="traces" transform="translate(0,49.1)" style="opacity: 1;"><text class="legendtext" text-anchor="start" x="40" y="4.680000000000001" style="font-family: 'Open Sans', verdana, arial, sans-serif; font-size: 12px; fill: rgb(36, 36, 36); fill-opacity: 1; white-space: pre;">trt_cp</text><g class="layers" style="opacity: 1;"><g class="legendfill"/><g class="legendlines"/><g class="legendsymbols"><g class="legendpoints"><path class="legendbox" d="M6,6H-6V-6H6Z" transform="translate(20,0)" style="stroke-width: 2px; fill: rgb(255, 127, 14); fill-opacity: 0.5; stroke: rgb(255, 127, 14); stroke-opacity: 1;"/></g></g></g><rect class="legendtoggle" x="0" y="-9.5" width="103.734375" height="19" style="fill: rgb(0, 0, 0); fill-opacity: 0;"/></g></g></g><rect class="scrollbar" rx="20" ry="3" width="0" height="0" x="0" y="0" style="fill: rgb(128, 139, 164); fill-opacity: 1;"/></g><g class="g-gtitle"/><g class="g-xtitle"/><g class="g-ytitle" transform="translate(2.2841796875,0)"><text class="ytitle" transform="rotate(-90,11.715625000000003,192.5)" x="11.715625000000003" y="192.5" text-anchor="middle" style="font-family: 'Open Sans', verdana, arial, sans-serif; font-size: 14px; fill: rgb(36, 36, 36); opacity: 1; font-weight: normal; white-space: pre;">Gene expression</text></g></g></svg>