<svg class="main-svg" xmlns="http://www.w3.org/2000/svg" xmlns:xlink="http://www.w3.org/1999/xlink" width="250" height="310" style="" viewBox="0 0 250 310"><rect x="0" y="0" width="250" height="310" style="fill: rgb(255, 255, 255); fill-opacity: 1;"/><defs id="defs-9be427"><g class="clips"><clipPath id="clip9be427xyplot" class="plotclip"><rect width="162" height="248"/></clipPath><clipPath class="axesclip" id="clip9be427x"><rect x="68" y="0" width="162" height="310"/></clipPath><clipPath class="axesclip" id="clip9be427y"><rect x="0" y="20" width="250" height="248"/></clipPath><clipPath class="axesclip" id="clip9be427xy"><rect x="68" y="20" width="162" height="248"/></clipPath></g><g class="gradients"/></defs><g class="bglayer"/><g class="layer-below"><g class="imagelayer"/><g class="shapelayer"/></g><g class="cartesianlayer"><g class="subplot xy"><g class="layer-subplot"><g class="shapelayer"/><g class="imagelayer"/></g><g class="gridlayer"><g class="x"/><g class="y"/></g><g class="zerolinelayer"/><path class="xlines-below"/><path class="ylines-below"/><g class="overlines-below"/><g class="xaxislayer-below"/><g class="yaxislayer-below"/><g class="overaxes-below"/><g class="plot" transform="translate(68,20)" clip-path="url('#clip9be427xyplot')"><g class="violinlayer mlayer"><g class="trace violins" style="opacity: 1;"><path class="violin" d="M81.99,235.6Q82.65,234.6 83.12,234.15C83.66,233.63 84.34,233.15 85.1,232.7C86,232.17 87.08,231.7 88.22,231.25C89.54,230.73 91.06,230.26 92.61,229.8C94.34,229.29 96.24,228.82 98.13,228.35C100.12,227.85 102.24,227.39 104.28,226.9C106.31,226.42 108.4,225.95 110.33,225.45C112.12,224.99 113.93,224.54 115.47,224.01C116.78,223.56 118.1,223.13 119.03,222.56C119.73,222.13 120.49,221.65 120.69,221.11C120.85,220.67 120.72,220.1 120.47,219.66C120.16,219.11 119.39,218.66 118.7,218.21C117.89,217.68 116.86,217.23 115.86,216.76C114.79,216.26 113.62,215.79 112.49,215.31C111.34,214.82 110.15,214.35 109.01,213.86C107.89,213.38 106.77,212.9 105.69,212.41C104.65,211.94 103.64,211.45 102.66,210.96C101.73,210.49 100.83,210.01 99.96,209.51C99.13,209.04 98.34,208.56 97.58,208.06C96.86,207.59 96.16,207.11 95.5,206.61C94.87,206.14 94.27,205.65 93.7,205.16C93.15,204.69 92.64,204.2 92.13,203.71C91.64,203.23 91.17,202.75 90.7,202.26C90.24,201.78 89.8,201.3 89.36,200.82C88.92,200.34 88.49,199.86 88.07,199.37C87.65,198.89 87.24,198.41 86.85,197.92C86.47,197.44 86.09,196.96 85.74,196.47C85.4,195.99 85.08,195.51 84.79,195.02C84.51,194.54 84.26,194.06 84.05,193.57C83.84,193.09 83.67,192.61 83.53,192.12C83.39,191.64 83.3,191.16 83.22,190.67C83.14,190.19 83.1,189.7 83.06,189.22C83.02,188.74 83,188.25 82.98,187.77C82.96,187.29 82.94,186.8 82.92,186.32C82.89,185.84 82.86,185.35 82.83,184.87C82.8,184.39 82.76,183.9 82.72,183.42C82.68,182.94 82.64,182.45 82.59,181.97C82.54,181.49 82.49,181 82.44,180.52C82.39,180.04 82.34,179.56 82.29,179.08C82.24,178.6 82.2,178.11 82.16,177.63C82.13,177.15 82.1,176.66 82.08,176.18C82.06,175.7 82.05,175.21 82.06,174.73C82.07,174.25 82.09,173.76 82.12,173.28C82.15,172.8 82.19,172.31 82.23,171.83C82.28,171.35 82.33,170.86 82.39,170.38C82.45,169.9 82.5,169.41 82.57,168.93C82.64,168.45 82.72,167.96 82.81,167.48C82.9,167 82.99,166.51 83.1,166.03C83.21,165.55 83.34,165.06 83.46,164.58C83.59,164.1 83.73,163.61 83.85,163.13C83.97,162.65 84.1,162.17 84.2,161.68C84.3,161.2 84.39,160.71 84.44,160.23C84.49,159.75 84.51,159.26 84.49,158.78C84.47,158.3 84.42,157.82 84.35,157.34C84.28,156.86 84.16,156.37 84.05,155.89C83.94,155.41 83.8,154.92 83.68,154.44C83.55,153.96 83.42,153.47 83.3,152.99C83.18,152.51 83.07,152.02 82.97,151.54C82.87,151.06 82.78,150.57 82.71,150.09C82.64,149.61 82.58,149.12 82.53,148.64C82.48,148.16 82.45,147.67 82.43,147.19C82.41,146.71 82.4,146.22 82.39,145.74C82.38,145.26 82.38,144.77 82.38,144.29C82.38,143.81 82.38,143.32 82.38,142.84C82.38,142.36 82.37,141.87 82.36,141.39C82.35,140.91 82.35,140.42 82.33,139.94C82.31,139.46 82.29,138.97 82.26,138.49C82.23,138.01 82.2,137.52 82.17,137.04C82.14,136.56 82.1,136.07 82.07,135.59C82.04,135.11 82.01,134.63 81.99,134.15C81.97,133.67 81.94,133.18 81.94,132.7C81.94,132.22 81.95,131.73 81.96,131.25C81.97,130.77 82,130.28 82.03,129.8C82.06,129.32 82.09,128.83 82.12,128.35C82.15,127.87 82.18,127.38 82.2,126.9C82.22,126.42 82.24,125.93 82.24,125.45C82.24,124.97 82.24,124.48 82.23,124C82.22,123.52 82.2,123.03 82.18,122.55C82.15,122.07 82.12,121.58 82.08,121.1C82.04,120.62 81.98,120.13 81.93,119.65C81.88,119.17 81.82,118.68 81.76,118.2C81.7,117.72 81.64,117.23 81.58,116.75C81.52,116.27 81.45,115.78 81.4,115.3C81.35,114.82 81.3,114.33 81.26,113.85C81.22,113.37 81.18,112.89 81.15,112.41C81.12,111.93 81.1,111.44 81.08,110.96C81.06,110.48 81.05,109.99 81.04,109.51C81.03,109.03 81.03,108.54 81.02,108.06C81.02,107.58 81.01,107.09 81.01,106.61C81.01,106.13 81,105.64 81,105.16C81,104.68 81,104.19 81,103.71C81,103.23 81,102.74 81,102.26C81,101.78 81,101.29 81,100.81C81,100.33 81,99.84 81,99.36C81,98.88 81,98.39 81,97.91C81,97.43 81,96.94 81,96.46C81,95.98 81,95.49 81,95.01C81,94.53 81,94.04 81,93.56C81,93.08 81,92.59 81,92.11C81,91.63 81,91.14 81,90.66C81,90.18 81,89.7 81,89.22C81,88.74 81,88.25 81,87.77C81,87.29 81,86.8 81,86.32C81,85.84 81,85.35 81,84.87C81,84.39 81,83.9 81,83.42C81,82.94 81,82.45 81,81.97C81,81.49 81,81 81,80.52C81,80.04 81,79.55 81,79.07C81,78.59 81,78.1 81,77.62C81,77.14 81,76.65 81,76.17C81,75.69 81,75.2 81,74.72C81,74.24 81,73.75 81,73.27C81,72.79 81,72.3 81,71.82C81,71.34 81,70.85 81,70.37C81,69.89 81,69.4 81,68.92C81,68.44 81,67.96 81,67.48C81,67 81,66.51 81,66.03C81,65.55 81,65.06 81,64.58C81,64.1 81,63.61 81,63.13C81,62.65 81,62.16 81,61.68C81,61.2 81.01,60.71 81.01,60.23C81.01,59.75 81.01,59.26 81.01,58.78C81.01,58.3 81.02,57.81 81.03,57.33C81.04,56.85 81.05,56.36 81.06,55.88C81.07,55.4 81.09,54.91 81.11,54.43C81.13,53.95 81.16,53.46 81.18,52.98C81.21,52.5 81.23,52.01 81.26,51.53C81.29,51.05 81.32,50.56 81.34,50.08C81.36,49.6 81.38,49.11 81.39,48.63C81.4,48.15 81.41,47.66 81.41,47.18C81.41,46.7 81.39,46.22 81.38,45.74C81.36,45.26 81.34,44.77 81.32,44.29C81.3,43.81 81.27,43.32 81.24,42.84C81.21,42.36 81.18,41.87 81.16,41.39C81.14,40.91 81.12,40.42 81.1,39.94C81.08,39.46 81.06,38.97 81.05,38.49C81.04,38.01 81.04,37.52 81.03,37.04C81.02,36.56 81.01,36.07 81.01,35.59C81.01,35.11 81.01,34.62 81.01,34.14C81.01,33.66 81.01,33.17 81.01,32.69C81.01,32.21 81.02,31.72 81.03,31.24C81.04,30.76 81.05,30.27 81.06,29.79C81.07,29.31 81.08,28.82 81.1,28.34C81.12,27.86 81.15,27.37 81.17,26.89C81.2,26.41 81.22,25.92 81.25,25.44C81.28,24.96 81.31,24.47 81.33,23.99C81.35,23.51 81.38,23.03 81.39,22.55C81.4,22.07 81.41,21.58 81.41,21.1C81.41,20.62 81.4,20.13 81.39,19.65C81.38,19.17 81.35,18.68 81.33,18.2C81.31,17.72 81.28,17.23 81.25,16.75C81.22,16.27 81.2,15.78 81.17,15.3C81.15,14.82 81.12,14.33 81.1,13.85Q81.08,13.37 81.06,12.4L80.94,12.4Q80.92,13.37 80.9,13.85C80.88,14.33 80.85,14.82 80.83,15.3C80.8,15.78 80.78,16.27 80.75,16.75C80.72,17.23 80.69,17.72 80.67,18.2C80.65,18.68 80.62,19.17 80.61,19.65C80.6,20.13 80.59,20.62 80.59,21.1C80.59,21.58 80.6,22.07 80.61,22.55C80.62,23.03 80.65,23.51 80.67,23.99C80.69,24.47 80.72,24.96 80.75,25.44C80.78,25.92 80.8,26.41 80.83,26.89C80.85,27.37 80.88,27.86 80.9,28.34C80.92,28.82 80.93,29.31 80.94,29.79C80.95,30.27 80.96,30.76 80.97,31.24C80.98,31.72 80.99,32.21 80.99,32.69C80.99,33.17 80.99,33.66 80.99,34.14C80.99,34.62 80.99,35.11 80.99,35.59C80.99,36.07 80.98,36.56 80.97,37.04C80.96,37.52 80.96,38.01 80.95,38.49C80.94,38.97 80.92,39.46 80.9,39.94C80.88,40.42 80.86,40.91 80.84,41.39C80.82,41.87 80.79,42.36 80.76,42.84C80.73,43.32 80.7,43.81 80.68,44.29C80.66,44.77 80.64,45.26 80.62,45.74C80.61,46.22 80.59,46.7 80.59,47.18C80.59,47.66 80.6,48.15 80.61,48.63C80.62,49.11 80.64,49.6 80.66,50.08C80.68,50.56 80.71,51.05 80.74,51.53C80.77,52.01 80.79,52.5 80.82,52.98C80.84,53.46 80.87,53.95 80.89,54.43C80.91,54.91 80.93,55.4 80.94,55.88C80.95,56.36 80.96,56.85 80.97,57.33C80.98,57.81 80.99,58.3 80.99,58.78C80.99,59.26 80.99,59.75 80.99,60.23C80.99,60.71 81,61.2 81,61.68C81,62.16 81,62.65 81,63.13C81,63.61 81,64.1 81,64.58C81,65.06 81,65.55 81,66.03C81,66.51 81,67 81,67.48C81,67.96 81,68.44 81,68.92C81,69.4 81,69.89 81,70.37C81,70.85 81,71.34 81,71.82C81,72.3 81,72.79 81,73.27C81,73.75 81,74.24 81,74.72C81,75.2 81,75.69 81,76.17C81,76.65 81,77.14 81,77.62C81,78.1 81,78.59 81,79.07C81,79.55 81,80.04 81,80.52C81,81 81,81.49 81,81.97C81,82.45 81,82.94 81,83.42C81,83.9 81,84.39 81,84.87C81,85.35 81,85.84 81,86.32C81,86.8 81,87.29 81,87.77C81,88.25 81,88.74 81,89.22C81,89.7 81,90.18 81,90.66C81,91.14 81,91.63 81,92.11C81,92.59 81,93.08 81,93.56C81,94.04 81,94.53 81,95.01C81,95.49 81,95.98 81,96.46C81,96.94 81,97.43 81,97.91C81,98.39 81,98.88 81,99.36C81,99.84 81,100.33 81,100.81C81,101.29 81,101.78 81,102.26C81,102.74 81,103.23 81,103.71C81,104.19 81,104.68 81,105.16C81,105.64 80.99,106.13 80.99,106.61C80.99,107.09 80.98,107.58 80.98,108.06C80.97,108.54 80.97,109.03 80.96,109.51C80.95,109.99 80.94,110.48 80.92,110.96C80.9,111.44 80.88,111.93 80.85,112.41C80.82,112.89 80.78,113.37 80.74,113.85C80.7,114.33 80.65,114.82 80.6,115.3C80.55,115.78 80.48,116.27 80.42,116.75C80.36,117.23 80.3,117.72 80.24,118.2C80.18,118.68 80.12,119.17 80.07,119.65C80.02,120.13 79.96,120.62 79.92,121.1C79.88,121.58 79.85,122.07 79.82,122.55C79.8,123.03 79.78,123.52 79.77,124C79.76,124.48 79.76,124.97 79.76,125.45C79.76,125.93 79.78,126.42 79.8,126.9C79.82,127.38 79.85,127.87 79.88,128.35C79.91,128.83 79.94,129.32 79.97,129.8C80,130.28 80.03,130.77 80.04,131.25C80.05,131.73 80.06,132.22 80.06,132.7C80.06,133.18 80.03,133.67 80.01,134.15C79.99,134.63 79.96,135.11 79.93,135.59C79.9,136.07 79.86,136.56 79.83,137.04C79.8,137.52 79.77,138.01 79.74,138.49C79.71,138.97 79.69,139.46 79.67,139.94C79.65,140.42 79.65,140.91 79.64,141.39C79.63,141.87 79.62,142.36 79.62,142.84C79.62,143.32 79.62,143.81 79.62,144.29C79.62,144.77 79.62,145.26 79.61,145.74C79.6,146.22 79.59,146.71 79.57,147.19C79.55,147.67 79.52,148.16 79.47,148.64C79.42,149.12 79.36,149.61 79.29,150.09C79.22,150.57 79.13,151.06 79.03,151.54C78.93,152.02 78.82,152.51 78.7,152.99C78.58,153.47 78.45,153.96 78.32,154.44C78.2,154.92 78.06,155.41 77.95,155.89C77.84,156.37 77.72,156.86 77.65,157.34C77.58,157.82 77.53,158.3 77.51,158.78C77.49,159.26 77.51,159.75 77.56,160.23C77.61,160.71 77.7,161.2 77.8,161.68C77.9,162.17 78.03,162.65 78.15,163.13C78.27,163.61 78.41,164.1 78.54,164.58C78.66,165.06 78.79,165.55 78.9,166.03C79.01,166.51 79.1,167 79.19,167.48C79.28,167.96 79.36,168.45 79.43,168.93C79.5,169.41 79.55,169.9 79.61,170.38C79.67,170.86 79.72,171.35 79.77,171.83C79.81,172.31 79.85,172.8 79.88,173.28C79.91,173.76 79.93,174.25 79.94,174.73C79.95,175.21 79.94,175.7 79.92,176.18C79.9,176.66 79.87,177.15 79.84,177.63C79.8,178.11 79.76,178.6 79.71,179.08C79.66,179.56 79.61,180.04 79.56,180.52C79.51,181 79.46,181.49 79.41,181.97C79.36,182.45 79.32,182.94 79.28,183.42C79.24,183.9 79.2,184.39 79.17,184.87C79.14,185.35 79.11,185.84 79.08,186.32C79.06,186.8 79.04,187.29 79.02,187.77C79,188.25 78.98,188.74 78.94,189.22C78.9,189.7 78.86,190.19 78.78,190.67C78.7,191.16 78.61,191.64 78.47,192.12C78.33,192.61 78.16,193.09 77.95,193.57C77.74,194.06 77.49,194.54 77.21,195.02C76.92,195.51 76.6,195.99 76.26,196.47C75.91,196.96 75.53,197.44 75.15,197.92C74.76,198.41 74.35,198.89 73.93,199.37C73.51,199.86 73.08,200.34 72.64,200.82C72.2,201.3 71.76,201.78 71.3,202.26C70.83,202.75 70.36,203.23 69.87,203.71C69.36,204.2 68.85,204.69 68.3,205.16C67.73,205.65 67.13,206.14 66.5,206.61C65.84,207.11 65.14,207.59 64.42,208.06C63.66,208.56 62.87,209.04 62.04,209.51C61.17,210.01 60.27,210.49 59.34,210.96C58.36,211.45 57.35,211.94 56.31,212.41C55.23,212.9 54.11,213.38 52.99,213.86C51.85,214.35 50.66,214.82 49.51,215.31C48.38,215.79 47.21,216.26 46.14,216.76C45.14,217.23 44.11,217.68 43.3,218.21C42.61,218.66 41.84,219.11 41.53,219.66C41.28,220.1 41.15,220.67 41.31,221.11C41.51,221.65 42.27,222.13 42.97,222.56C43.9,223.13 45.22,223.56 46.53,224.01C48.07,224.54 49.88,224.99 51.67,225.45C53.6,225.95 55.69,226.42 57.72,226.9C59.76,227.39 61.88,227.85 63.87,228.35C65.76,228.82 67.66,229.29 69.39,229.8C70.94,230.26 72.46,230.73 73.78,231.25C74.92,231.7 76,232.17 76.9,232.7C77.66,233.15 78.34,233.63 78.88,234.15Q79.35,234.6 80.01,235.6Z" style="vector-effect: non-scaling-stroke; stroke-width: 2px; stroke: rgb(31, 119, 180); stroke-opacity: 1; fill: rgb(31, 119, 180); fill-opacity: 0.5;"/></g></g></g><g class="overplot"/><path class="xlines-above crisp" d="M67,268.5H230" style="fill: none; stroke-width: 1px; stroke: rgb(36, 36, 36); stroke-opacity: 1;"/><path class="ylines-above crisp" d="M67.5,20V268" style="fill: none; stroke-width: 1px; stroke: rgb(36, 36, 36); stroke-opacity: 1;"/><g class="overlines-above"/><g class="xaxislayer-above"><path class="xtick ticks crisp" d="M0,269v5" transform="translate(149,0)" style="stroke: rgb(68, 68, 68); stroke-opacity: 1; stroke-width: 1px;"/></g><g class="yaxislayer-above"><path class="ytick ticks crisp" d="M67,0h-5" transform="translate(0,247.14)" style="stroke: rgb(68, 68, 68); stroke-opacity: 1; stroke-width: 1px;"/><path class="ytick ticks crisp" d="M67,0h-5" transform="translate(0,197.61)" style="stroke: rgb(68, 68, 68); stroke-opacity: 1; stroke-width: 1px;"/><path class="ytick ticks crisp" d="M67,0h-5" transform="translate(0,148.09)" style="stroke: rgb(68, 68, 68); stroke-opacity: 1; stroke-width: 1px;"/><path class="ytick ticks crisp" d="M67,0h-5" transform="translate(0,98.56)" style="stroke: rgb(68, 68, 68); stroke-opacity: 1; stroke-width: 1px;"/><path class="ytick ticks crisp" d="M67,0h-5" transform="translate(0,49.03)" style="stroke: rgb(68, 68, 68); stroke-opacity: 1; stroke-width: 1px;"/><g class="ytick"><text text-anchor="end" x="59.6" y="4.199999999999999" transform="translate(0,247.14)" style="font-family: 'Open Sans', verdana, arial, sans-serif; font-size: 12px; fill: rgb(36, 36, 36); fill-opacity: 1; white-space: pre;">0</text></g><g class="ytick"><text text-anchor="end" x="59.6" y="4.199999999999999" transform="translate(0,197.61)" style="font-family: 'Open Sans', verdana, arial, sans-serif; font-size: 12px; fill: rgb(36, 36, 36); fill-opacity: 1; white-space: pre;">200</text></g><g class="ytick"><text text-anchor="end" x="59.6" y="4.199999999999999" transform="translate(0,148.09)" style="font-family: 'Open Sans', verdana, arial, sans-serif; font-size: 12px; fill: rgb(36, 36, 36); fill-opacity: 1; white-space: pre;">400</text></g><g class="ytick"><text text-anchor="end" x="59.6" y="4.199999999999999" transform="translate(0,98.56)" style="font-family: 'Open Sans', verdana, arial, sans-serif; font-size: 12px; fill: rgb(36, 36, 36); fill-opacity: 1; white-space: pre;">600</text></g><g class="ytick"><text text-anchor="end" x="59.6" y="4.199999999999999" transform="translate(0,49.03)" style="font-family: 'Open Sans', verdana, arial, sans-serif; font-size: 12px; fill: rgb(36, 36, 36); fill-opacity: 1; white-space: pre;">800</text></g></g><g class="overaxes-above"/></g></g><g class="polarlayer"/><g class="ternarylayer"/><g class="geolayer"/><g class="funnelarealayer"/><g class="pielayer"/><g class="treemaplayer"/><g class="sunburstlayer"/><g class="glimages"/><defs id="topdefs-9be427"><g class="clips"/></defs><g class="layer-above"><g class="imagelayer"/><g class="shapelayer"/></g><g class="infolayer"><g class="g-gtitle"/><g class="g-xtitle"/><g class="g-ytitle" transform="translate(2.0966796875,0)"><text class="ytitle" transform="rotate(-90,11.903125000000003,144)" x="11.903125000000003" y="144" text-anchor="middle" style="font-family: 'Open Sans', verdana, arial, sans-serif; font-size: 14px; fill: rgb(36, 36, 36); opacity: 1; font-weight: normal; white-space: pre;">Number of treatments eliciting each MoA</text></g></g></svg>